<svg width="82" height="138" viewBox="0 0 82 138" fill="none" xmlns="http://www.w3.org/2000/svg">
<path fill-rule="evenodd" clip-rule="evenodd" d="M74.1645 0.5L61.9759 15.3344V71.1815C68.6506 74.0902 82 84.2707 82 101.723C82 123.538 67.2575 137.5 41.0811 137.5C10.6096 137.5 -1.57904 119.175 0.162186 101.723C1.90342 84.2706 7.99773 77.2899 21.9276 71.1815C20.5352 67.4413 18.9717 63.369 17.3542 59.1557C10.5436 41.416 2.77403 21.1783 2.77403 12.7167C2.77403 2.24534 12.3508 0.499971 21.9276 0.5H74.1645ZM7.99773 12.7167C7.99773 5.73579 18.4451 6.60839 21.9276 6.60839V58.0925C18.4451 46.7485 7.99773 19.6976 7.99773 12.7167Z" fill="#BFB33B"/>
</svg>
