<svg width="73" height="79" viewBox="0 0 73 79" fill="none" xmlns="http://www.w3.org/2000/svg">
<path d="M15.1282 26.9789H58.2432V75.6352H15.1282V26.9789Z" fill="#BFB33B"/>
<path d="M14.7565 36.515C14.7565 30.594 16.8823 27.6334 21.1339 27.6334C25.3856 27.6334 31.763 33.5544 28.22 39.4755C24.4644 45.7517 14.7565 43.9163 14.7565 36.515Z" fill="#FFFEF9"/>
<path fill-rule="evenodd" clip-rule="evenodd" d="M15.1324 28.9789C16.5268 27.0371 18.617 26.1334 21.1339 26.1334C23.8459 26.1334 26.9077 27.9374 28.7954 30.428C30.7496 33.0063 31.6689 36.633 29.5072 40.2457C27.2749 43.9762 23.2448 45.3112 19.7759 44.5932C16.2656 43.8666 13.2565 41.008 13.2565 36.515C13.2565 33.4201 13.8039 30.829 15.1324 28.9789ZM17.5693 30.7287C16.7719 31.8392 16.2565 33.6889 16.2565 36.515C16.2565 39.4233 18.1013 41.183 20.3839 41.6554C22.7079 42.1364 25.4095 41.251 26.9328 38.7052C28.3141 36.3969 27.8162 34.1025 26.4045 32.2401C24.9264 30.2899 22.6736 29.1334 21.1339 29.1334C19.3992 29.1334 18.3007 29.7101 17.5693 30.7287Z" fill="#BFB33B"/>
<path d="M14.7565 65.662C14.7565 71.583 16.8823 74.5436 21.1339 74.5436C25.3856 74.5436 31.763 68.6226 28.22 62.7015C24.4644 56.4253 14.7565 58.2607 14.7565 65.662Z" fill="#FFFEF9"/>
<path fill-rule="evenodd" clip-rule="evenodd" d="M15.1324 73.1981C16.5268 75.1399 18.617 76.0436 21.1339 76.0436C23.8459 76.0436 26.9077 74.2396 28.7954 71.749C30.7496 69.1707 31.6689 65.544 29.5072 61.9313C27.2749 58.2008 23.2448 56.8659 19.7759 57.5838C16.2656 58.3104 13.2565 61.169 13.2565 65.662C13.2565 68.7569 13.8039 71.348 15.1324 73.1981ZM17.5693 71.4483C16.7719 70.3378 16.2565 68.4881 16.2565 65.662C16.2565 62.7537 18.1013 60.994 20.3839 60.5216C22.7079 60.0406 25.4095 60.926 26.9328 63.4718C28.3141 65.7801 27.8162 68.0745 26.4045 69.9369C24.9264 71.8871 22.6736 73.0436 21.1339 73.0436C19.3992 73.0436 18.3007 72.4669 17.5693 71.4483Z" fill="#BFB33B"/>
<path d="M43.7482 36.515C43.7482 30.594 45.874 27.6334 50.1256 27.6334C54.3773 27.6334 60.7547 33.5544 57.2117 39.4755C53.4561 45.7517 43.7482 43.9163 43.7482 36.515Z" fill="#FFFEF9"/>
<path fill-rule="evenodd" clip-rule="evenodd" d="M44.1241 28.9789C45.5185 27.0371 47.6087 26.1334 50.1256 26.1334C52.8376 26.1334 55.8994 27.9374 57.7871 30.428C59.7413 33.0063 60.6606 36.633 58.4988 40.2457C56.2666 43.9762 52.2365 45.3112 48.7676 44.5932C45.2573 43.8666 42.2482 41.008 42.2482 36.515C42.2482 33.4201 42.7956 30.829 44.1241 28.9789ZM46.561 30.7287C45.7636 31.8392 45.2482 33.6889 45.2482 36.515C45.2482 39.4233 47.093 41.183 49.3756 41.6554C51.6996 42.1364 54.4012 41.251 55.9245 38.7052C57.3058 36.3969 56.8079 34.1025 55.3962 32.2401C53.9181 30.2899 51.6653 29.1334 50.1256 29.1334C48.3909 29.1334 47.2924 29.7101 46.561 30.7287Z" fill="#BFB33B"/>
<path d="M43.7334 52.1466C43.7334 46.2256 41.6076 43.2651 37.3559 43.2651C33.1043 43.2651 26.7268 49.1861 30.2699 55.1071C34.0255 61.3834 43.7334 59.5479 43.7334 52.1466Z" fill="#FFFEF9"/>
<path fill-rule="evenodd" clip-rule="evenodd" d="M43.3575 44.6106C41.9631 42.6687 39.8729 41.7651 37.3559 41.7651C34.644 41.7651 31.5822 43.5691 29.6945 46.0596C27.7402 48.638 26.821 52.2647 28.9827 55.8773C31.215 59.6078 35.2451 60.9428 38.714 60.2248C42.2243 59.4983 45.2334 56.6396 45.2334 52.1466C45.2334 49.0517 44.6859 46.4607 43.3575 44.6106ZM40.9206 46.3604C41.718 47.4708 42.2334 49.3205 42.2334 52.1466C42.2334 55.0549 40.3885 56.8147 38.106 57.2871C35.782 57.7681 33.0804 56.8827 31.557 54.3369C30.1757 52.0285 30.6737 49.7342 32.0853 47.8718C33.5635 45.9216 35.8162 44.7651 37.3559 44.7651C39.0906 44.7651 40.1892 45.3417 40.9206 46.3604Z" fill="#BFB33B"/>
<path d="M54.0178 59.531C48.7639 57.8291 45.5259 59.176 44.3039 63.5716C43.0818 67.9673 46.5026 76.2626 52.7748 74.3015C59.4234 72.2227 60.5852 61.6584 54.0178 59.531Z" fill="#FFFEF9"/>
<path fill-rule="evenodd" clip-rule="evenodd" d="M47.0499 57.8561C44.9201 58.7421 43.5723 60.6083 42.8769 63.1093C42.1318 65.7895 42.8064 69.4148 44.4883 72.1057C45.3476 73.4804 46.5297 74.7107 48.0407 75.4391C49.5807 76.1814 51.3535 76.3479 53.2531 75.754C57.2351 74.5089 59.483 70.7677 59.8279 67.1335C60.1744 63.4831 58.6025 59.4407 54.4197 58.0858C51.632 57.1828 49.1154 56.997 47.0499 57.8561ZM48.2481 60.6733C49.4206 60.1856 51.1498 60.1773 53.6161 60.9762C56.0006 61.7486 57.1315 64.0521 56.8768 66.7354C56.6205 69.4349 54.9632 72.0152 52.2967 72.849C51.0602 73.2356 50.0533 73.1006 49.226 72.7018C48.3697 72.289 47.597 71.5384 46.9697 70.5349C45.6788 68.4695 45.254 65.7494 45.7309 64.0339C46.2577 62.1392 47.1399 61.1342 48.2481 60.6733Z" fill="#BFB33B"/>
<path d="M34.5995 27.8278C40.0457 27.0781 43.0406 28.9803 43.5843 33.5342C44.128 38.0881 39.4973 45.6686 33.598 42.6233C27.3448 39.3953 27.7917 28.7649 34.5995 27.8278Z" fill="#FFFEF9"/>
<path fill-rule="evenodd" clip-rule="evenodd" d="M41.7456 27.4174C43.7152 28.6683 44.7616 30.745 45.0702 33.3296C45.4007 36.0981 44.1908 39.5525 42.1227 41.911C41.0666 43.1154 39.7114 44.1226 38.1043 44.5753C36.4652 45.037 34.6842 44.8862 32.8957 43.963C29.1497 42.0293 27.4995 37.9441 27.7067 34.3066C27.9146 30.6563 30.071 26.9372 34.4216 26.3384C37.3148 25.9401 39.8328 26.2026 41.7456 27.4174ZM40.1149 29.9669C39.0328 29.2796 37.3303 28.9658 34.7772 29.3172C32.32 29.6554 30.8491 31.7202 30.695 34.4263C30.5401 37.1453 31.793 39.9894 34.3002 41.2836C35.4613 41.883 36.4714 41.9266 37.3427 41.6812C38.246 41.4267 39.1206 40.8251 39.8917 39.9458C41.4778 38.1369 42.3114 35.5241 42.0982 33.7387C41.8631 31.7694 41.1403 30.6181 40.1149 29.9669Z" fill="#BFB33B"/>
<path d="M43.7334 50.0303C43.7334 55.9513 45.8592 58.9118 50.1109 58.9119C54.3625 58.9119 60.74 52.9909 57.1969 47.0698C53.4413 40.7936 43.7334 42.629 43.7334 50.0303Z" fill="#FFFEF9"/>
<path fill-rule="evenodd" clip-rule="evenodd" d="M44.1093 57.5664C45.5037 59.5082 47.5939 60.4119 50.1108 60.4119C52.8228 60.4119 55.8846 58.6079 57.7723 56.1173C59.7266 53.539 60.6458 49.9123 58.4841 46.2996C56.2518 42.5691 52.2217 41.2341 48.7528 41.9521C45.2425 42.6787 42.2334 45.5373 42.2334 50.0303C42.2334 53.1252 42.7809 55.7163 44.1093 57.5664ZM46.5462 55.8166C45.7488 54.7061 45.2334 52.8564 45.2334 50.0303C45.2334 47.122 47.0783 45.3623 49.3608 44.8899C51.6848 44.4088 54.3864 45.2943 55.9098 47.84C57.2911 50.1484 56.7931 52.4428 55.3815 54.3052C53.9033 56.2554 51.6506 57.4119 50.1109 57.4119C48.3762 57.4119 47.2776 56.8352 46.5462 55.8166Z" fill="#BFB33B"/>
<path fill-rule="evenodd" clip-rule="evenodd" d="M36.1969 3.86215C37.1159 5.87426 38.0719 8.70125 38.0719 11.8018V20.6214L35.0719 20.6215V11.8018C35.0719 9.28966 34.2885 6.90494 33.468 5.10849C33.0615 4.21842 32.6553 3.49328 32.3534 2.99458C32.2027 2.7457 32.0788 2.55452 31.9949 2.42881C31.9529 2.36598 31.9211 2.31962 31.9009 2.29069L31.8798 2.26053L31.8771 2.25671C31.8773 2.25701 31.8775 2.25732 33.093 1.37834C34.3085 0.499362 34.3087 0.49971 34.309 0.500076L34.311 0.502886L34.3148 0.508191L34.3262 0.524096C34.3353 0.537038 34.3477 0.554642 34.3632 0.576785C34.394 0.621065 34.4369 0.683541 34.49 0.763226C34.5964 0.922525 34.7443 1.15104 34.9197 1.44087C35.2701 2.01959 35.7337 2.84794 36.1969 3.86215Z" fill="#BFB33B"/>
<path d="M43.2492 69.7592C44.6632 64.0383 43.3163 60.5863 39.2083 59.4033C35.1004 58.2202 27.5244 62.1666 29.5337 68.8734C31.6636 75.9826 41.4817 76.9104 43.2492 69.7592Z" fill="#FFFEF9"/>
<path fill-rule="evenodd" clip-rule="evenodd" d="M44.6777 62.3605C43.7938 60.0953 41.9924 58.6452 39.5683 57.9471C36.9574 57.1952 33.5722 58.0821 31.1515 59.9648C28.6456 61.9137 26.8854 65.1702 28.114 69.2715C29.3809 73.5002 32.9532 75.9032 36.4641 76.1738C40.0165 76.4475 43.6142 74.53 44.6907 70.1743C45.4305 67.1812 45.5207 64.521 44.6777 62.3605ZM41.9215 63.3986C42.4254 64.69 42.4821 66.6163 41.8079 69.3441C41.1169 72.1396 38.9218 73.3337 36.5907 73.1541C34.2182 72.9712 31.8165 71.3558 30.9535 68.4753C30.1729 65.8698 31.196 63.7997 33.0028 62.3945C34.8947 60.9231 37.3514 60.4283 38.8484 60.8594C40.5323 61.3444 41.4584 62.2118 41.9215 63.3986Z" fill="#BFB33B"/>
<path d="M14.7426 50.0303C14.7426 55.9513 16.8684 58.9118 21.12 58.9119C25.3717 58.9119 31.7491 52.9909 28.2061 47.0698C24.4505 40.7936 14.7426 42.629 14.7426 50.0303Z" fill="#FFFEF9"/>
<path fill-rule="evenodd" clip-rule="evenodd" d="M15.1185 57.5664C16.5129 59.5082 18.6031 60.4119 21.12 60.4119C23.832 60.4119 26.8937 58.6079 28.7815 56.1173C30.7357 53.539 31.655 49.9123 29.4932 46.2996C27.261 42.5691 23.2308 41.2341 19.7619 41.9521C16.2516 42.6787 13.2426 45.5373 13.2426 50.0303C13.2426 53.1252 13.79 55.7163 15.1185 57.5664ZM17.5553 55.8166C16.758 54.7061 16.2426 52.8564 16.2426 50.0303C16.2426 47.122 18.0874 45.3623 20.37 44.8899C22.694 44.4088 25.3956 45.2943 26.9189 47.84C28.3002 50.1484 27.8022 52.4428 26.3906 54.3052C24.9125 56.2554 22.6597 57.4119 21.12 57.4119C19.3853 57.4119 18.2868 56.8352 17.5553 55.8166Z" fill="#BFB33B"/>
<path d="M21.9428 13.7948C15.9958 13.1903 15.3348 22.8624 14.5088 27.396H29.376C28.5502 23.1141 27.8899 14.3993 21.9428 13.7948Z" fill="#FFFEF9"/>
<path fill-rule="evenodd" clip-rule="evenodd" d="M16.277 25.896H27.5894C27.5854 25.8718 27.5813 25.8475 27.5772 25.8231C27.2521 23.8841 26.8867 21.7047 26.1698 19.7278C25.2157 17.0972 23.8754 15.499 21.7912 15.2871C20.7775 15.1841 20.0535 15.4962 19.4382 16.099C18.7658 16.7576 18.1952 17.8015 17.7222 19.1614C17.0083 21.2139 16.6415 23.5621 16.3179 25.6346C16.3042 25.7222 16.2906 25.8094 16.277 25.896ZM17.3388 13.9559C18.5459 12.7735 20.1346 12.1033 22.0945 12.3025C25.9573 12.6951 27.9207 15.7566 28.99 18.705C29.811 20.9685 30.2444 23.5633 30.5743 25.5379C30.6725 26.126 30.7615 26.659 30.8489 27.112L31.193 28.896H12.7108L13.0331 27.1272C13.1227 26.6351 13.2141 26.0484 13.3151 25.3992C13.644 23.2871 14.0759 20.5125 14.8887 18.1758C15.4276 16.6265 16.1888 15.0824 17.3388 13.9559Z" fill="#BFB33B"/>
<path d="M1.52584 66.7319C0.948819 72.9268 10.1813 73.6153 14.5089 74.4757L14.5089 58.989C10.4216 59.8492 2.10287 60.5371 1.52584 66.7319Z" fill="#FFFEF9"/>
<path fill-rule="evenodd" clip-rule="evenodd" d="M13.0088 72.6817L13.0088 60.8033C11.1664 61.1404 9.11773 61.5167 7.25299 62.2547C4.80504 63.2235 3.23042 64.6051 3.01936 66.871C2.91473 67.9943 3.23978 68.7874 3.81866 69.4323C4.44392 70.1289 5.42837 70.7152 6.7104 71.2018C8.65371 71.9395 10.8704 72.3173 12.845 72.6538C12.8998 72.6631 12.9544 72.6725 13.0088 72.6817ZM1.58619 71.4363C0.46103 70.1829 -0.151596 68.567 0.03229 66.5928C0.398258 62.6638 3.2715 60.6041 6.14898 59.4652C8.32596 58.6036 10.828 58.1476 12.7137 57.804C13.271 57.7024 13.7746 57.6107 14.1999 57.5211L16.0088 57.1404L16.0088 76.3033L14.2163 75.9469C13.7542 75.855 13.2 75.7609 12.5846 75.6564C10.5676 75.3138 7.89276 74.8595 5.6458 74.0066C4.15089 73.4392 2.66495 72.6381 1.58619 71.4363Z" fill="#BFB33B"/>
<path d="M71.4742 35.4496C72.0512 29.007 62.8187 28.2909 58.4911 27.3961L58.4911 43.5023C62.5784 42.6076 70.8971 41.8923 71.4742 35.4496Z" fill="#FFFEF9"/>
<path fill-rule="evenodd" clip-rule="evenodd" d="M59.9912 29.2027L59.9912 41.6743C61.8308 41.3242 63.8699 40.9341 65.7281 40.1693C68.1532 39.1711 69.7638 37.7321 69.9802 35.3158C70.0881 34.1108 69.7495 33.2597 69.1621 32.5792C68.5328 31.8501 67.5478 31.2416 66.2711 30.7376C64.3321 29.9722 62.1225 29.5805 60.149 29.2307C60.0962 29.2213 60.0436 29.212 59.9912 29.2027ZM71.4331 30.6189C72.5498 31.9126 73.1488 33.5671 72.9682 35.5834C72.6076 39.6097 69.7703 41.7497 66.87 42.9435C64.6886 43.8413 62.1794 44.3169 60.2936 44.6743C59.7373 44.7797 59.2353 44.8748 58.8119 44.9675L56.9912 45.3661L56.9912 25.5541L58.7949 25.9271C59.2549 26.0222 59.8074 26.1198 60.4216 26.2283C62.4389 26.5846 65.1212 27.0584 67.3727 27.9471C68.8729 28.5394 70.3584 29.3738 71.4331 30.6189Z" fill="#BFB33B"/>
<path d="M36.5004 13.7948C30.8011 13.1903 30.1677 22.8624 29.3761 27.396H43.6239C42.8324 23.1141 42.1997 14.3993 36.5004 13.7948Z" fill="#FFFEF9"/>
<path fill-rule="evenodd" clip-rule="evenodd" d="M31.1323 25.896H41.85C41.8458 25.8696 41.8415 25.8431 41.8372 25.8166C41.5256 23.8766 41.1743 21.6902 40.4856 19.7088C39.5611 17.0488 38.2753 15.4915 36.3421 15.2864C35.4156 15.1881 34.7494 15.4803 34.1663 16.0764C33.5245 16.7324 32.9759 17.7775 32.5208 19.1429C31.8351 21.2 31.4826 23.5555 31.1723 25.6291C31.1589 25.7186 31.1456 25.8076 31.1323 25.896ZM32.0219 13.9784C33.1852 12.7893 34.7354 12.0992 36.6585 12.3031C40.4246 12.7026 42.3048 15.8049 43.3194 18.7239C44.1045 20.9828 44.5187 23.5702 44.8348 25.5446C44.9291 26.1338 45.0147 26.6684 45.0988 27.1234L45.4265 28.896H27.5914L27.8984 27.138C27.9847 26.6437 28.0725 26.0553 28.1695 25.4048C28.4846 23.2931 28.8974 20.5262 29.6748 18.1943C30.1893 16.6505 30.9172 15.1076 32.0219 13.9784Z" fill="#BFB33B"/>
<path d="M1.52584 51.2451C0.948819 57.44 10.1813 58.1286 14.5089 58.989L14.5089 43.5022C10.4216 44.3625 2.10287 45.0503 1.52584 51.2451Z" fill="#FFFEF9"/>
<path fill-rule="evenodd" clip-rule="evenodd" d="M13.0088 57.195L13.0088 45.3165C11.1664 45.6537 9.11773 46.0299 7.25299 46.7679C4.80504 47.7368 3.23042 49.1184 3.01936 51.3843C2.91473 52.5075 3.23978 53.3007 3.81866 53.9456C4.44392 54.6421 5.42837 55.2285 6.7104 55.7151C8.65371 56.4527 10.8704 56.8305 12.845 57.1671C12.8998 57.1764 12.9544 57.1857 13.0088 57.195ZM1.58619 55.9496C0.46103 54.6962 -0.151596 53.0802 0.03229 51.106C0.398258 47.1771 3.2715 45.1173 6.14898 43.9785C8.32596 43.1169 10.828 42.6609 12.7137 42.3172C13.271 42.2157 13.7746 42.1239 14.1999 42.0344L16.0088 41.6536L16.0088 60.8165L14.2163 60.4601C13.7542 60.3683 13.2 60.2741 12.5846 60.1696C10.5676 59.827 7.89276 59.3727 5.6458 58.5198C4.15089 57.9524 2.66495 57.1513 1.58619 55.9496Z" fill="#BFB33B"/>
<path d="M71.4742 51.2461C72.0512 45.0512 62.8187 44.3627 58.4911 43.5023L58.4912 58.989C62.5784 58.1287 70.8971 57.4409 71.4742 51.2461Z" fill="#FFFEF9"/>
<path fill-rule="evenodd" clip-rule="evenodd" d="M59.9912 45.2962L59.9912 57.1747C61.8336 56.8375 63.8823 56.4613 65.747 55.7233C68.195 54.7544 69.7696 53.3728 69.9806 51.107C70.0853 49.9837 69.7602 49.1905 69.1813 48.5456C68.5561 47.8491 67.5716 47.2627 66.2896 46.7761C64.3463 46.0385 62.1296 45.6607 60.155 45.3242C60.1002 45.3148 60.0456 45.3055 59.9912 45.2962ZM71.4138 46.5416C72.539 47.7951 73.1516 49.411 72.9677 51.3852C72.6017 55.3142 69.7285 57.3739 66.851 58.5127C64.674 59.3743 62.172 59.8303 60.2864 60.174C59.729 60.2755 59.2254 60.3673 58.8001 60.4568L56.9912 60.8376L56.9912 41.6747L58.7837 42.0311C59.2458 42.1229 59.8 42.2171 60.4154 42.3216C62.4324 42.6642 65.1072 43.1185 67.3542 43.9714C68.8491 44.5388 70.335 45.3399 71.4138 46.5416Z" fill="#BFB33B"/>
<path d="M51.0577 13.7948C45.1107 13.1903 44.4496 22.8624 43.6237 27.396H58.4909C57.6651 23.1141 57.0048 14.3993 51.0577 13.7948Z" fill="#FFFEF9"/>
<path fill-rule="evenodd" clip-rule="evenodd" d="M45.3919 25.896H56.7043C56.7002 25.8718 56.6962 25.8475 56.6921 25.8231C56.367 23.8841 56.0016 21.7047 55.2846 19.7278C54.3306 17.0972 52.9903 15.499 50.906 15.2871C49.8924 15.1841 49.1683 15.4962 48.5531 16.099C47.8807 16.7576 47.31 17.8015 46.837 19.1614C46.1231 21.2139 45.7564 23.5621 45.4328 25.6346C45.4191 25.7222 45.4055 25.8094 45.3919 25.896ZM46.4537 13.9559C47.6608 12.7735 49.2495 12.1033 51.2094 12.3025C55.0722 12.6951 57.0356 15.7566 58.1049 18.705C58.9258 20.9685 59.3593 23.5633 59.6891 25.5379C59.7874 26.126 59.8764 26.659 59.9638 27.112L60.3079 28.896H41.8257L42.1479 27.1272C42.2376 26.6351 42.3289 26.0484 42.43 25.3992C42.7588 23.2871 43.1908 20.5125 44.0035 18.1758C44.5424 16.6265 45.3037 15.0824 46.4537 13.9559Z" fill="#BFB33B"/>
<path d="M1.52584 35.4487C0.948819 41.8913 10.1813 42.6074 14.5089 43.5023L14.5089 27.3961C10.4216 28.2907 2.10287 29.0061 1.52584 35.4487Z" fill="#FFFEF9"/>
<path fill-rule="evenodd" clip-rule="evenodd" d="M13.0088 41.6956L13.0088 29.224C11.1692 29.5741 9.1301 29.9641 7.27191 30.729C4.84685 31.7271 3.23625 33.1662 3.01983 35.5825C2.91191 36.7875 3.25053 37.6386 3.83792 38.3191C4.4672 39.0482 5.45219 39.6567 6.72886 40.1607C8.66787 40.9261 10.8775 41.3178 12.851 41.6676C12.9038 41.6769 12.9564 41.6863 13.0088 41.6956ZM1.56689 40.2793C0.450249 38.9856 -0.148798 37.3312 0.0317919 35.3149C0.392402 31.2886 3.22967 29.1486 6.13004 27.9548C8.31138 27.0569 10.8206 26.5814 12.7064 26.224C13.2627 26.1185 13.7647 26.0234 14.1881 25.9307L16.0088 25.5322L16.0088 45.3441L14.2051 44.9712C13.7451 44.8761 13.1926 44.7785 12.5784 44.67C10.5611 44.3137 7.87877 43.8399 5.62732 42.9511C4.12705 42.3589 2.64164 41.5245 1.56689 40.2793Z" fill="#BFB33B"/>
<path d="M71.4742 66.7328C72.0512 60.5379 62.8187 59.8493 58.4911 58.989L58.4912 74.4757C62.5784 73.6154 70.8971 72.9276 71.4742 66.7328Z" fill="#FFFEF9"/>
<path fill-rule="evenodd" clip-rule="evenodd" d="M59.9912 60.7829L59.9912 72.6614C61.8336 72.3242 63.8823 71.948 65.747 71.21C68.195 70.2411 69.7696 68.8595 69.9806 66.5936C70.0853 65.4704 69.7602 64.6772 69.1813 64.0323C68.5561 63.3358 67.5716 62.7494 66.2896 62.2628C64.3463 61.5252 62.1296 61.1474 60.155 60.8109C60.1002 60.8015 60.0456 60.7922 59.9912 60.7829ZM71.4138 62.0283C72.539 63.2818 73.1516 64.8977 72.9677 66.8719C72.6017 70.8009 69.7285 72.8606 66.851 73.9994C64.674 74.861 62.172 75.317 60.2864 75.6607C59.729 75.7622 59.2254 75.854 58.8001 75.9435L56.9912 76.3243L56.9912 57.1614L58.7837 57.5178C59.2458 57.6096 59.8 57.7038 60.4154 57.8083C62.4324 58.1509 65.1072 58.6052 67.3542 59.4581C68.8491 60.0255 70.335 60.8266 71.4138 62.0283Z" fill="#BFB33B"/>
</svg>
