<svg width="96" height="185" viewBox="0 0 96 185" fill="none" xmlns="http://www.w3.org/2000/svg">
<path d="M38.8442 123.341C38.8442 141.928 41.8825 170.703 44.9207 184.405H85.7678C88.806 170.107 91.8442 143.358 91.8442 123.341C91.8442 98.3198 77.6659 90.5751 70.2391 90.5751V86.4049H59.099V90.5751C51.6723 90.5751 38.8442 100.107 38.8442 123.341Z" fill="#BFB33B"/>
<path d="M59.6782 43.2897C60.138 42.4867 60.0391 14.083 57.7713 17.707C53.6624 24.2731 57.7526 36.1348 59.6782 43.2897Z" fill="#FFFEF9"/>
<path d="M59.6782 43.2897C54.8996 41.6001 45.0847 35.8997 44.0542 26.6149C42.7661 15.009 51.8321 11.7988 51.3409 5.20934C50.8497 -1.38014 51.7909 5.57438 54.6077 9.31501C57.4245 13.0556 66.4325 9.0702 67.1838 19.1482C67.7848 27.2106 62.4305 38.6019 59.6782 43.2897C60.138 42.4867 60.0391 14.083 57.7713 17.707C53.6624 24.2731 57.7526 36.1348 59.6782 43.2897Z" fill="#FFFEF9"/>
<path fill-rule="evenodd" clip-rule="evenodd" d="M49.7238 3.36386C49.7406 3.82748 49.7815 4.46373 49.8431 5.28964C49.9375 6.55593 49.5854 7.70614 48.9027 8.97059C48.4121 9.87923 47.8154 10.7429 47.1386 11.7224C46.8228 12.1795 46.4895 12.6619 46.1414 13.1858C44.0058 16.4005 41.8628 20.4549 42.5614 26.7493C43.1331 31.9004 46.1323 35.9701 49.4804 38.915C52.5606 41.6242 56.0465 43.4834 58.5692 44.465C59.7517 47.3325 60.794 52.614 61.6656 59.5637C62.5871 66.9119 63.2951 75.9056 63.8297 85.3909C64.8988 104.358 65.2704 125.207 65.2842 138.614L68.2882 138.673C68.2743 125.228 67.9019 104.321 66.829 85.2844C66.2926 75.7677 65.58 66.6977 64.6462 59.2525C63.789 52.4167 62.7253 46.7566 61.3571 43.4082C62.7473 40.9453 64.6027 37.1628 66.1026 33.0186C67.7306 28.5204 69.006 23.4185 68.6817 19.0679C68.4768 16.3197 67.6908 14.322 66.4053 12.897C65.129 11.4822 63.5204 10.8121 62.0361 10.41C61.2958 10.2094 60.5506 10.0666 59.8726 9.94042C59.8064 9.9281 59.7409 9.91595 59.6761 9.90393C59.0581 9.78926 58.5065 9.68692 57.9886 9.55878C56.823 9.27038 56.1747 8.92628 55.802 8.43135C54.6564 6.91 53.8365 4.73633 53.2778 3.25511C53.2288 3.12525 53.1818 3.00071 53.1368 2.8824C53.0154 2.56332 52.8747 2.19932 52.7393 1.94513C52.7017 1.87451 52.6435 1.7717 52.5646 1.66446C52.5119 1.59282 52.3288 1.34593 52.0015 1.17104C51.8135 1.07058 51.525 0.966065 51.1698 0.98807C50.7997 1.011 50.5001 1.16255 50.2895 1.34124C49.94 1.63776 49.8322 2.00659 49.8056 2.09765C49.7322 2.34899 49.7213 2.60783 49.7173 2.74609C49.7121 2.92438 49.7154 3.13312 49.7238 3.36386ZM57.4014 40.6848C55.5294 39.7391 53.3894 38.3997 51.441 36.686C48.4294 34.037 46.0059 30.6142 45.5471 26.4806C44.9576 21.169 46.7035 17.8154 48.6561 14.8762C48.9319 14.4611 49.2241 14.0378 49.5196 13.6098C50.2425 12.5628 50.9851 11.4873 51.5543 10.433C51.8724 9.84376 52.1558 9.23021 52.3768 8.58488C52.6907 9.14828 53.0362 9.69757 53.4135 10.1987C54.4492 11.574 55.9833 12.1345 57.3224 12.4658C57.9336 12.617 58.5767 12.7362 59.1787 12.8477C59.2466 12.8603 59.314 12.8728 59.3808 12.8852C60.0599 13.0116 60.696 13.1352 61.3047 13.3002C62.5185 13.629 63.4788 14.086 64.1908 14.8753C64.8935 15.6543 65.5152 16.9378 65.686 19.2285C65.9627 22.9404 64.8615 27.5653 63.2745 31.9502C62.6884 33.5698 62.045 35.1324 61.3994 36.5734C61.3934 34.1984 61.3471 31.4644 61.2486 28.8137C61.123 25.4321 60.9104 22.1265 60.5765 19.8735C60.4188 18.8099 60.2065 17.7605 59.8606 17.0787C59.766 16.8922 59.6211 16.6495 59.4004 16.431C59.1726 16.2054 58.7865 15.9335 58.2505 15.8943C57.7098 15.8548 57.2914 16.0719 57.0319 16.2763C56.7835 16.4719 56.6106 16.7065 56.4925 16.8951C54.1365 20.6601 54.2195 25.7432 54.9788 30.4839C55.5467 34.0295 56.542 37.6355 57.4014 40.6848ZM58.3444 32.2496C58.1961 31.5251 58.0613 30.7977 57.945 30.0712C57.4584 27.0332 57.3317 24.2069 57.8002 21.8311C58.0037 23.7832 58.1501 26.2631 58.2467 28.8628C58.2885 29.9877 58.3208 31.1284 58.3444 32.2496ZM51.2241 20.6949C52.0454 18.8335 53.2391 17.1784 54.0664 16.2503L51.8032 14.234C50.8088 15.3495 49.4343 17.2567 48.4705 19.441C47.5241 21.586 46.8545 24.2705 47.6838 26.7852C49.0788 31.0153 51.3668 33.727 52.5173 34.6599L54.3831 32.3508C53.7329 31.8235 51.7637 29.6265 50.5355 25.9025C50.0533 24.4403 50.3854 22.5957 51.2241 20.6949Z" fill="#BFB33B"/>
<path d="M73.7269 56.0509C78.1867 52.3042 87.0834 43.7984 86.9914 39.7486C86.8994 35.6989 78.1101 48.9294 73.7269 56.0509Z" fill="#FFFEF9"/>
<path d="M92.4696 47.0816C89.7689 52.5168 77.3887 56.1442 73.7269 56.0509C78.1867 52.3042 87.0834 43.7984 86.9914 39.7486C86.8994 35.6989 78.1101 48.9294 73.7269 56.0509C72.3392 51.0408 68.8562 41.522 71.7456 32.9875C75.3574 22.3193 83.8574 28.6697 88.3095 25.0522C92.7615 21.4346 92.8087 20.6598 91.8239 22.933C88.9115 29.656 96.5121 38.9461 92.4696 47.0816Z" fill="#FFFEF9"/>
<path fill-rule="evenodd" clip-rule="evenodd" d="M89.6565 25.8884C89.6125 26.7883 89.6658 27.691 89.7758 28.5821C89.9943 30.353 90.4564 32.2017 90.9011 33.9809C90.9729 34.2682 91.0443 34.5537 91.1141 34.8368C92.1561 39.0621 92.8735 42.8978 91.1262 46.4142C90.6123 47.4485 89.5651 48.5187 88.0644 49.5547C86.5838 50.5769 84.7741 51.4888 82.8958 52.249C81.4356 52.84 79.957 53.33 78.5957 53.7045C80.1211 52.2601 81.7276 50.6437 83.1847 49.0127C84.5979 47.4307 85.9025 45.7993 86.8568 44.2724C87.7711 42.8093 88.5246 41.1956 88.491 39.7146C88.483 39.3639 88.4302 38.8853 88.1789 38.4439C87.8695 37.9004 87.3174 37.527 86.6439 37.4959C86.1053 37.471 85.6552 37.6749 85.3799 37.8279C85.0756 37.9971 84.7838 38.2193 84.5158 38.4508C83.473 39.3516 82.1427 40.97 80.7664 42.813C78.6517 45.6448 76.2372 49.2703 74.2338 52.4161C73.6516 50.4003 73.0307 48.0921 72.6116 45.5928C71.9494 41.6441 71.8325 37.4081 73.1663 33.4685C73.9966 31.016 75.0459 29.7159 76.0911 28.9848C77.1463 28.2466 78.3734 27.9635 79.807 27.8728C80.5278 27.8273 81.2656 27.8317 82.0491 27.8397C82.0905 27.8401 82.132 27.8406 82.1738 27.841C82.9023 27.8486 83.6774 27.8566 84.432 27.8158C86.025 27.7296 87.7756 27.4187 89.2553 26.2163C89.3931 26.1043 89.5268 25.995 89.6565 25.8884ZM74.7 57.5147C75.6891 57.4321 76.8915 57.2184 78.1701 56.9118C79.9581 56.4831 82.0047 55.8461 84.0213 55.0299C86.0334 54.2155 88.0541 53.2073 89.7687 52.0236C91.4633 50.8538 92.9764 49.4324 93.8128 47.7491C96.1081 43.1299 95.0464 38.2528 94.0268 34.1185C93.9527 33.8178 93.8787 33.5213 93.8057 33.2288C93.3583 31.4353 92.9474 29.7882 92.7532 28.2147C92.5302 26.4072 92.6204 24.8677 93.2002 23.5292C93.2904 23.321 93.3702 23.1426 93.4419 22.9822C93.4649 22.9307 93.4871 22.8811 93.5085 22.833C93.5843 22.6628 93.6779 22.4519 93.737 22.2774C93.7375 22.2759 93.738 22.2744 93.7386 22.2727C93.7602 22.209 93.8342 21.9911 93.8412 21.7288C93.8447 21.6017 93.8421 21.2483 93.6169 20.8794C93.3267 20.4039 92.8452 20.18 92.4096 20.1535C92.0692 20.1327 91.8108 20.2316 91.7144 20.2714C91.5935 20.3214 91.4989 20.3774 91.4428 20.4126C91.3298 20.4837 91.2291 20.5628 91.1595 20.6194C90.994 20.7539 90.7422 20.9802 90.4317 21.2593C90.2634 21.4105 90.0779 21.5773 89.8796 21.7533C89.2772 22.2878 88.4563 23 87.3635 23.888C86.6172 24.4944 85.6357 24.7463 84.2699 24.8202C83.6149 24.8556 82.9287 24.8486 82.172 24.8408C82.1413 24.8405 82.1105 24.8402 82.0796 24.8399C81.3053 24.832 80.4634 24.8253 79.6177 24.8788C77.9184 24.9863 76.0649 25.3419 74.3715 26.5265C72.668 27.7182 71.3003 29.6249 70.3247 32.5065C68.7691 37.1014 68.9491 41.8921 69.6529 46.0889C70.1994 49.3474 71.087 52.3631 71.7678 54.6759C71.8977 55.1171 72.02 55.5327 72.131 55.9195C67.1644 66.6452 65.1575 81.1266 64.0345 95.8642C63.5538 102.173 63.2352 108.504 62.9258 114.651C62.4928 123.256 62.0779 131.5 61.262 138.822L64.2435 139.154C65.0642 131.79 65.4913 123.342 65.9319 114.627C66.2424 108.486 66.5595 102.212 67.0258 96.0921C68.1363 81.5188 70.0939 67.6687 74.7 57.5147ZM86.8631 40.4373C86.8632 40.4369 86.858 40.4391 86.8471 40.4448C86.8575 40.4405 86.863 40.4377 86.8631 40.4373ZM83.6513 32.4135C84.298 32.5568 85.0855 32.7184 86.0481 32.777L86.2304 29.7825C85.5066 29.7384 84.9022 29.6179 84.3004 29.4845C84.2305 29.469 84.1587 29.4529 84.0853 29.4363C83.5637 29.3188 82.96 29.1828 82.3516 29.1385C80.744 29.0216 79.2504 29.5317 77.309 31.1091C75.0993 32.9047 74.2508 35.7801 73.9721 38.3868C73.6881 41.0424 73.9588 43.75 74.2898 45.6063L77.2432 45.0797C76.9433 43.3978 76.7108 40.9904 76.9551 38.7057C77.2046 36.372 77.9158 34.4816 79.2009 33.4374C80.7544 32.1751 81.5165 32.0857 82.134 32.1306C82.5042 32.1575 82.8731 32.2399 83.4247 32.363C83.497 32.3791 83.5724 32.396 83.6513 32.4135Z" fill="#BFB33B"/>
<path d="M21.6026 40.2976C24.0486 42.5199 29.108 45.6865 31.332 46.9921C27.9532 45.6912 15.2058 42.6366 16.2514 36.6157C16.582 34.7117 18.5451 37.5199 21.6026 40.2976Z" fill="#FFFEF9"/>
<path d="M28.6255 36.7044C32.6282 39.9977 32.0976 44.9351 31.332 46.9921C29.108 45.6865 24.0486 42.5199 21.6026 40.2976C18.5451 37.5199 16.582 34.7117 16.2514 36.6157C15.2058 42.6366 27.9532 45.6912 31.332 46.9921C29.2459 48.0282 23.489 49.8189 17.1495 48.6923C9.22515 47.2841 3.70085 44.0564 2.24363 38.3355C0.786411 32.6146 7.01286 20.8225 7.49824 23.5156C7.63692 24.2851 9.51236 27.5976 11.8754 28.8865C14.2384 30.1754 23.6222 32.5878 28.6255 36.7044Z" fill="#FFFEF9"/>
<path fill-rule="evenodd" clip-rule="evenodd" d="M6.90383 25.7088C6.48054 26.4122 6.00402 27.3405 5.54048 28.415C4.85165 30.0116 4.228 31.8465 3.86488 33.6019C3.49479 35.391 3.42814 36.9451 3.71005 38.0518C4.92636 42.827 9.57695 45.8505 17.3365 47.2294C20.8218 47.8487 24.1307 47.5217 26.6502 46.9574C25.0522 46.4061 23.2369 45.7261 21.5286 44.9016C19.7221 44.0297 17.9159 42.9406 16.6157 41.5784C15.2778 40.1766 14.3951 38.3845 14.7595 36.2859C14.8187 35.9451 14.9475 35.4719 15.2995 35.0862C15.7316 34.6129 16.3383 34.4428 16.9266 34.5251C17.4093 34.5926 17.8097 34.8173 18.0687 34.9859C18.351 35.1698 18.6271 35.396 18.8827 35.6227C19.3446 36.0326 19.8749 36.5677 20.4198 37.1174C20.472 37.1701 20.5244 37.2229 20.5768 37.2758C21.1949 37.8989 21.8649 38.5688 22.5951 39.2321C24.4056 40.877 27.8308 43.137 30.2989 44.666C30.3734 43.995 30.3823 43.231 30.2688 42.4366C30.0396 40.8332 29.3252 39.1647 27.6935 37.8222C25.4077 35.9415 22.0233 34.3858 18.7701 33.1123C17.4974 32.6141 16.2802 32.1721 15.1805 31.7727C14.8882 31.6666 14.6043 31.5635 14.3298 31.4631C13.0797 31.006 11.9201 30.5703 11.1994 30.1772C9.70611 29.3627 8.47507 27.9866 7.63409 26.8187C7.35982 26.4378 7.11465 26.0617 6.90383 25.7088ZM31.3523 48.6552C28.6608 49.7862 23.0808 51.2424 16.9623 50.1551C8.87318 48.7176 2.47515 45.2857 0.777021 38.619C0.330321 36.8653 0.495519 34.8 0.898211 32.8533C1.30788 30.8728 1.99796 28.8553 2.74425 27.1255C3.48346 25.4121 4.31481 23.8952 5.04285 22.9508C5.22835 22.7102 5.42712 22.4804 5.63571 22.2863C5.82432 22.1107 6.11314 21.876 6.48974 21.7424C6.91311 21.5922 7.63985 21.5259 8.28554 22.0661C8.79623 22.4935 8.93726 23.0583 8.98748 23.337C8.98394 23.3174 8.98562 23.3216 8.99729 23.351C9.02154 23.4121 9.08897 23.582 9.24231 23.8718C9.43959 24.2446 9.72202 24.709 10.0711 25.1937C10.7932 26.1967 11.6814 27.1213 12.5512 27.5957C13.012 27.847 13.9115 28.1961 15.2418 28.6825C15.5047 28.7786 15.7807 28.8789 16.0677 28.9831C17.1706 29.3836 18.4365 29.8432 19.7504 30.3576C23.0306 31.6416 26.8398 33.3505 29.5574 35.5865C31.9284 37.5373 32.95 39.9841 33.2648 42.187C33.4833 43.7161 33.3677 45.156 33.1207 46.3019C49.5978 55.4089 59.1061 70.1644 64.417 84.0266C69.8411 98.1845 70.9545 111.577 70.5947 117.49L67.5742 117.147C67.9085 111.651 66.8606 98.6856 61.5924 84.9347C56.4048 71.3943 47.1912 57.2551 31.3523 48.6552ZM19.2497 40.0697C19.0762 39.9181 18.915 39.7647 18.7672 39.6098C18.6925 39.5315 18.6218 39.4537 18.5552 39.3762C18.7748 39.5973 19.0067 39.8299 19.2497 40.0697ZM17.751 36.9063C17.754 36.8975 17.7551 36.8923 17.7551 36.8923C17.7551 36.8923 17.7534 36.8965 17.751 36.9063ZM9.38402 39.752C7.82717 38.2727 7.46567 35.9408 7.39777 34.0041L4.37374 33.9388C4.44306 35.916 4.78843 39.4035 7.34523 41.833C8.50444 42.9346 9.89224 43.8606 11.1696 44.5541C12.4332 45.2401 13.6908 45.7537 14.6202 45.9707L15.1606 43.0792C14.6071 42.9499 13.6302 42.5745 12.5159 41.9695C11.4153 41.372 10.2816 40.605 9.38402 39.752Z" fill="#BFB33B"/>
</svg>
