<svg width="36" height="60" viewBox="0 0 36 60" fill="none" xmlns="http://www.w3.org/2000/svg">
<path d="M1.62939 12.633V2.00006H33.6294V12.633L22.025 22.9115L33.6294 34.6077V58.0001H1.62939V34.6077L13.2338 22.9115L1.62939 12.633Z" fill="#FFFEF9"/>
<path fill-rule="evenodd" clip-rule="evenodd" d="M0.129395 0.500061H35.1294V13.3082L24.2078 22.9818L35.1294 33.9898V59.5001H0.129395V33.9898L11.051 22.9818L0.129395 13.3082V0.500061ZM13.8586 24.4115L5.23063 33.1077H30.0282L21.4002 24.4115H13.8586ZM21.4562 21.4115L29.6736 14.133H5.58518L13.8026 21.4115H21.4562ZM3.12939 11.133V3.50006H32.1294V11.133H3.12939ZM32.1294 36.1077H3.12939V56.5001H32.1294V36.1077Z" fill="#BFB33B"/>
</svg>
