<svg width="50" height="70" viewBox="0 0 50 70" fill="none" xmlns="http://www.w3.org/2000/svg">
<path d="M28.9975 27.1902C29.1058 27.1405 29.2133 27.0914 29.3199 27.043C31.0516 26.2565 33.3292 25.4646 35.3994 24.9147C36.4321 24.6404 37.3804 24.4351 38.1587 24.319C38.9944 24.1944 39.4476 24.2028 39.5933 24.2296C40.4437 24.3862 41.9578 25.7668 41.6777 27.9661C41.6517 28.17 41.54 28.4297 41.1468 28.7737C40.7326 29.1359 40.0979 29.5062 39.2358 29.8775C38.4814 30.2026 37.664 30.4853 36.8158 30.7516C35.6114 31.0904 34.4158 31.4579 33.3148 31.7969L32.8416 31.9427C31.0131 32.5065 28.8336 33.1785 26.8297 33.6929C25.7406 33.9725 24.7393 34.196 23.901 34.3293C23.0141 34.4704 22.4853 34.4802 22.2534 34.4439C21.3669 34.3054 20.9457 33.9992 20.7851 33.7871C20.6742 33.6406 20.5328 33.3466 20.7812 32.6856C20.8771 32.4307 21.1365 32.0372 21.683 31.5219C22.2143 31.021 22.9227 30.4929 23.7653 29.9546C25.3524 28.9407 27.2613 27.9878 28.9975 27.1902Z" fill="#FFFEF9"/>
<path d="M37.7857 34.1089C38.5842 33.8846 39.3728 33.6778 40.1313 33.5043C42.0513 33.065 43.4759 32.9155 44.2971 33.0613C44.6066 33.1163 45.1712 33.5095 45.4716 34.4935C45.7631 35.4482 45.5899 36.3143 45.2299 36.7592C44.7167 37.3934 43.8549 37.9262 42.2543 38.5084C41.6823 38.7164 41.0706 38.9133 40.4027 39.1164C39.2257 39.4335 37.7815 39.8753 35.9646 40.4323C35.0789 40.7038 33.3977 41.223 31.6315 41.9045C31.5224 41.9384 31.4125 41.972 31.302 42.0054C29.2362 42.6292 27.2046 43.0702 25.8139 42.9835C24.9394 42.929 24.43 42.5335 24.2148 42.1409C24.0145 41.7754 23.9456 41.1907 24.455 40.4312C24.6086 40.2022 25.005 39.8019 25.7382 39.2722C26.4375 38.7671 27.3237 38.2288 28.3148 37.6991C30.303 36.6364 32.5771 35.6803 34.3435 35.1364C34.7639 35.007 35.2289 34.8712 35.7207 34.7276L35.7228 34.7269C36.3768 34.536 37.0783 34.3311 37.7857 34.1089Z" fill="#FFFEF9"/>
<path d="M32.7983 45.201C33.6928 44.9209 34.5231 44.6346 35.2201 44.3891C35.4643 44.3031 35.6853 44.2246 35.8843 44.1539C36.3879 43.975 36.7502 43.8463 36.9888 43.7732C37.8318 43.5148 38.6568 43.2737 39.448 43.0425C40.1067 42.8501 40.742 42.6645 41.3447 42.4813C41.9739 42.3122 42.4805 42.1934 42.9099 42.1179C43.4477 42.0234 43.7724 42.0154 44.0015 42.038C44.2151 42.059 44.4248 42.1139 44.7224 42.246C44.9438 42.3442 45.4411 42.8285 45.742 43.7562C46.0358 44.6616 45.9477 45.4 45.7482 45.7446C45.7482 45.7446 45.7121 45.8018 45.5836 45.9073C45.4502 46.0169 45.2528 46.149 44.9756 46.2977C44.4143 46.5988 43.6599 46.8978 42.7493 47.1981C41.605 47.5754 40.4331 47.8905 39.2525 48.208L38.9759 48.2824C38.3129 48.4499 37.6179 48.6492 36.8905 48.8637C34.7737 49.488 31.5186 50.2455 29.0306 50.0025C28.0807 49.9098 27.8021 49.5339 27.7258 49.3445C27.6383 49.1272 27.5836 48.5747 28.2371 47.7253C28.421 47.4863 28.8494 47.1231 29.6041 46.6828C30.3252 46.2621 31.2072 45.8488 32.1462 45.4621C32.3632 45.3727 32.5811 45.2856 32.7983 45.201Z" fill="#FFFEF9"/>
<path d="M9.16372 3.91977C7.56763 4.02282 6.58228 4.7411 6.25547 5.52673C6.25547 5.52673 6.23291 5.59158 6.21855 5.75714C6.20344 5.93136 6.20254 6.16614 6.2249 6.46906C6.26992 7.07888 6.4 7.85092 6.6038 8.7677C6.97329 10.4299 7.54307 12.3894 8.14159 14.4477L8.3316 15.1016C8.98642 17.3583 9.65338 19.706 10.0361 21.7144C10.2275 22.7191 10.3594 23.6959 10.3719 24.5705C10.3839 25.4011 10.295 26.3566 9.85702 27.1767C9.12884 28.5403 8.48038 29.5199 7.92882 30.3532C7.757 30.6128 7.59458 30.8582 7.44209 31.0965C6.80876 32.0864 6.21388 33.1423 5.51416 35.049C4.10584 38.8864 2.63004 44.9916 4.68443 51.6928C6.68722 58.2256 12.0843 64.4055 21.3837 66.2074C25.8814 67.0789 31.1643 65.6121 34.7785 64.0233C38.4353 62.4157 41.1002 60.2008 42.1823 58.7184C43.3515 57.1166 43.9783 55.4814 44.1422 54.1629C44.3152 52.7702 43.9515 52.0857 43.692 51.8662C43.1667 51.4217 42.7024 51.2715 41.9573 51.3011C41.4132 51.3228 40.7569 51.4401 39.8914 51.6566C39.1517 51.8567 38.4573 52.0448 37.875 52.2166C36.9345 52.494 34.8752 53.2189 32.883 54.0952C31.8894 54.5322 30.9507 54.9903 30.1935 55.4316C29.3816 55.9048 28.9732 56.2487 28.8444 56.4113C28.731 56.5545 28.6578 56.7998 28.7702 57.1039C28.8749 57.3867 29.1891 57.8155 30.0108 58.0994C31.8847 58.7467 34.8039 58.0405 36.5523 57.269C38.4632 56.5531 40.1902 55.3387 40.1902 55.3387C40.3388 58.687 36.6178 60.3732 33.9809 61.2055C32.3399 61.7235 30.4879 62.0331 28.6731 61.4062C25.2882 60.237 23.9882 56.8135 25.9427 54.3452C26.268 53.9343 26.6996 53.5559 27.1677 53.2137C25.8528 52.7888 24.7982 51.9408 24.2952 50.6915C23.7366 49.3042 24.0035 47.7805 24.8168 46.4151C24.5681 46.3749 24.0899 46.2532 24.0899 46.2532C22.9257 49.8916 21.9174 52.6196 19.0635 54.7311C17.3186 56.0222 15.4496 56.0851 14.4461 55.4667C14.4461 55.4667 20.2604 51.8373 21.2074 46.0993C21.6133 43.6398 21.1407 41.5125 19.1836 38.0849C18.6311 37.0325 16.5752 34.9201 17.1935 31.9955C17.234 31.8592 17.2799 31.7227 17.3312 31.5862C17.6982 30.6099 18.3986 29.7629 19.1466 29.0577C19.1948 29.0123 19.2436 28.9671 19.293 28.9221C19.0224 28.7337 18.7651 28.5015 18.5267 28.2184C17.9017 27.4762 17.5413 26.5394 17.3132 25.6515C17.0795 24.7411 16.9494 23.7369 16.8743 22.7484C16.7887 21.6231 16.7702 20.4353 16.769 19.3435C16.7686 18.9416 16.7705 18.5528 16.7724 18.1849C16.7742 17.8143 16.776 17.4649 16.7751 17.1449L16.7745 16.8437C16.7717 15.281 16.7682 13.2887 16.4119 11.2716C16.0311 9.11619 15.278 7.13506 13.8798 5.7298C12.5151 4.35817 10.7111 3.81987 9.16372 3.91977Z" fill="#FFFEF9"/>
<path fill-rule="evenodd" clip-rule="evenodd" d="M10.3719 24.5705C10.3594 23.6959 10.2275 22.7191 10.0361 21.7144L10.3719 24.5705Z" fill="#FFFEF9"/>
<path fill-rule="evenodd" clip-rule="evenodd" d="M9.16372 3.91977C7.56763 4.02282 6.58228 4.7411 6.25547 5.52673C6.25547 5.52673 6.23291 5.59158 6.21855 5.75714C6.20344 5.93136 6.20254 6.16614 6.2249 6.46906C6.26992 7.07889 6.4 7.85092 6.6038 8.7677C6.97329 10.4299 7.54307 12.3894 8.14159 14.4477C8.20468 14.6647 8.26808 14.8827 8.3316 15.1016C8.98642 17.3583 9.65338 19.706 10.0361 21.7144C10.2275 22.7191 10.3594 23.6959 10.3719 24.5705C10.3839 25.4011 10.295 26.3566 9.85703 27.1767C9.12884 28.5403 8.48038 29.5199 7.92882 30.3532C7.757 30.6128 7.59458 30.8582 7.44209 31.0965C6.80876 32.0864 6.21388 33.1423 5.51416 35.049C4.10584 38.8864 2.63004 44.9916 4.68443 51.6928C6.68722 58.2256 12.0843 64.4056 21.3837 66.2074C25.8814 67.0789 31.1643 65.6121 34.7785 64.0233C38.4353 62.4157 41.1002 60.2008 42.1823 58.7184C43.3515 57.1166 43.9783 55.4814 44.1422 54.1629C44.3152 52.7702 43.9515 52.0857 43.692 51.8662C43.1667 51.4217 42.7024 51.2715 41.9573 51.3011C41.4132 51.3228 40.7569 51.4401 39.8914 51.6566C39.1517 51.8567 38.4573 52.0448 37.875 52.2166C36.9345 52.494 34.8752 53.2189 32.883 54.0952C31.8894 54.5322 30.9507 54.9903 30.1935 55.4316C29.3816 55.9048 28.9732 56.2487 28.8444 56.4113C28.731 56.5545 28.6578 56.7998 28.7702 57.1039C28.8749 57.3867 29.1891 57.8155 30.0108 58.0994C31.8847 58.7467 34.8039 58.0405 36.5523 57.269C38.4632 56.5531 40.1902 55.3387 40.1902 55.3387C40.3388 58.687 36.6178 60.3732 33.9809 61.2055C32.3399 61.7235 30.4879 62.0331 28.6731 61.4062C25.2882 60.237 23.9882 56.8135 25.9427 54.3452C26.268 53.9343 26.6996 53.5559 27.1677 53.2137C25.8528 52.7888 24.7982 51.9408 24.2952 50.6915C23.7366 49.3042 24.0035 47.7805 24.8168 46.4151C24.5681 46.3749 24.0899 46.2532 24.0899 46.2532C22.9257 49.8916 21.9174 52.6196 19.0635 54.7311C17.3186 56.0222 15.4496 56.0851 14.4461 55.4667C14.4461 55.4667 20.2604 51.8373 21.2074 46.0993C21.6133 43.6398 21.1407 41.5125 19.1836 38.0849C18.6311 37.0325 16.5752 34.9201 17.1935 31.9955C17.234 31.8592 17.2799 31.7227 17.3312 31.5862C17.6982 30.6099 18.3986 29.7629 19.1466 29.0577C19.1948 29.0123 19.2436 28.9671 19.293 28.9221C19.0224 28.7337 18.7651 28.5015 18.5267 28.2184C17.9017 27.4762 17.5413 26.5394 17.3132 25.6515C17.0795 24.7411 16.9494 23.7369 16.8743 22.7484C16.7573 21.2089 16.7655 19.5524 16.7724 18.1849C16.7742 17.8143 16.776 17.4649 16.7751 17.1449C16.7748 17.0464 16.7747 16.946 16.7745 16.8437C16.7717 15.281 16.7682 13.2887 16.4119 11.2716C16.0311 9.11619 15.278 7.13506 13.8798 5.7298C12.5151 4.35817 10.7111 3.81987 9.16372 3.91977ZM28.9975 27.1902C29.1058 27.1405 29.2133 27.0914 29.3199 27.043C31.0516 26.2565 33.3292 25.4646 35.3994 24.9147C36.4321 24.6404 37.3804 24.4351 38.1587 24.319C38.9944 24.1944 39.4476 24.2028 39.5933 24.2296C40.4437 24.3862 41.9578 25.7668 41.6777 27.9661C41.6517 28.17 41.54 28.4297 41.1468 28.7737C40.7326 29.1359 40.0979 29.5062 39.2358 29.8775C38.4814 30.2026 37.664 30.4853 36.8159 30.7516C35.6114 31.0904 34.4158 31.4579 33.3148 31.7969C33.16 31.8445 33.0021 31.8932 32.8416 31.9427C31.0131 32.5065 28.8336 33.1785 26.8297 33.6929C25.7406 33.9725 24.7393 34.196 23.901 34.3293C23.0141 34.4704 22.4853 34.4802 22.2534 34.4439C21.3669 34.3054 20.9457 33.9992 20.7851 33.7871C20.6742 33.6406 20.5328 33.3466 20.7812 32.6857C20.8771 32.4307 21.1365 32.0372 21.683 31.5219C22.2143 31.0211 22.9227 30.4929 23.7653 29.9546C25.3524 28.9407 27.2613 27.9878 28.9975 27.1902ZM44.9398 29.5864C45.1276 29.1898 45.2614 28.7572 45.3212 28.2872C45.7998 24.5293 43.3219 21.3205 40.391 20.7808C39.5914 20.6336 38.606 20.7149 37.7002 20.8499C36.737 20.9935 35.6409 21.2347 34.5167 21.5333C32.2731 22.1293 29.7868 22.9894 27.8277 23.8792C27.4362 24.057 27.0609 24.2301 26.7005 24.3964C25.2536 25.0638 24.0471 25.6205 22.9945 25.9243C21.6884 26.3014 21.4778 26.0457 21.4168 25.9717L21.4122 25.9662C21.2527 25.7768 21.052 25.3897 20.8795 24.7179C20.7127 24.0683 20.6027 23.2767 20.5353 22.3894C20.4297 20.9996 20.4366 19.5316 20.4431 18.1786C20.4449 17.7845 20.4467 17.4001 20.4457 17.0302C20.4454 16.9246 20.4453 16.8149 20.4452 16.7013C20.4433 15.1599 20.4405 12.8997 20.0317 10.5858C19.5939 8.10755 18.6597 5.36491 16.5745 3.26921C14.4559 1.13987 11.6043 0.249987 9.02627 0.416432C6.49691 0.579735 3.88684 1.82234 2.85039 4.31388C2.51831 5.11216 2.50521 6.03348 2.56334 6.82086C2.62538 7.66144 2.79329 8.61057 3.01239 9.59616C3.40662 11.3696 4.00796 13.4369 4.5992 15.4694C4.66385 15.6917 4.72837 15.9135 4.79249 16.1345C5.45443 18.4157 6.07561 20.6143 6.42424 22.4439C6.59844 23.3581 6.69302 24.1233 6.70165 24.7241C6.70594 25.0219 6.68848 25.2507 6.66004 25.419C6.63211 25.5841 6.59853 25.6545 6.59853 25.6545C5.95752 26.8548 5.43192 27.6493 4.89795 28.4565C4.71043 28.7399 4.52186 29.025 4.32689 29.3297C3.56806 30.5158 2.85185 31.803 2.05463 33.9753C0.469069 38.2957 -1.16769 45.1821 1.15959 52.7734C3.53848 60.5331 9.97961 67.6013 20.5518 69.6498C25.9898 70.7034 32.0823 69.0287 36.2277 67.2063C40.3303 65.4027 43.6035 62.8176 45.1711 60.67C46.6516 58.6418 47.5414 56.4506 47.787 54.4737C48.0077 52.6977 47.7314 50.7674 46.4578 49.4726C46.5388 49.4317 46.6186 49.3902 46.6972 49.348C47.5052 48.9145 48.4165 48.2905 48.9468 47.3744C49.8311 45.8469 49.7015 44.0139 49.2507 42.6242C48.9128 41.583 48.2812 40.445 47.3337 39.6658C47.6101 39.4189 47.869 39.1502 48.1071 38.856C49.4319 37.2189 49.5018 35.068 48.9976 33.4165C48.5022 31.7942 47.2322 29.9919 45.0712 29.6083C45.0277 29.6005 44.9839 29.5933 44.9398 29.5864ZM37.7857 34.1089C38.5842 33.8846 39.3728 33.6778 40.1313 33.5043C42.0513 33.065 43.4759 32.9155 44.2971 33.0613C44.6066 33.1163 45.1712 33.5095 45.4716 34.4935C45.7631 35.4482 45.5899 36.3143 45.2299 36.7592C44.7167 37.3934 43.8549 37.9262 42.2543 38.5084C41.6823 38.7164 41.0706 38.9133 40.4027 39.1164C39.2257 39.4335 37.7815 39.8753 35.9646 40.4323C35.0789 40.7038 33.3977 41.223 31.6315 41.9045C31.5224 41.9384 31.4125 41.972 31.302 42.0054C29.2362 42.6292 27.2046 43.0702 25.8139 42.9835C24.9394 42.929 24.43 42.5335 24.2148 42.1409C24.0145 41.7754 23.9456 41.1907 24.455 40.4312C24.6086 40.2022 25.005 39.8019 25.7382 39.2722C26.4375 38.7671 27.3237 38.2288 28.3148 37.6991C30.303 36.6364 32.5771 35.6803 34.3435 35.1364C34.7645 35.0068 35.2302 34.8708 35.7228 34.7269C36.3768 34.536 37.0783 34.3311 37.7857 34.1089ZM32.7983 45.201C33.6928 44.9209 34.5231 44.6346 35.2201 44.3891C35.4643 44.3031 35.6853 44.2246 35.8843 44.1539C36.3879 43.975 36.7502 43.8463 36.9888 43.7732C37.8318 43.5148 38.6568 43.2737 39.448 43.0425C40.1067 42.8501 40.742 42.6645 41.3447 42.4813C41.9739 42.3122 42.4805 42.1934 42.9099 42.1179C43.4477 42.0234 43.7724 42.0154 44.0015 42.038C44.2151 42.059 44.4248 42.1139 44.7224 42.246C44.9438 42.3442 45.4411 42.8286 45.742 43.7562C46.0358 44.6616 45.9477 45.4 45.7482 45.7446C45.7482 45.7446 45.7121 45.8018 45.5836 45.9073C45.4502 46.0169 45.2528 46.149 44.9756 46.2977C44.4143 46.5988 43.6599 46.8978 42.7493 47.1981C41.605 47.5754 40.4331 47.8905 39.2525 48.208C39.1604 48.2328 39.0682 48.2576 38.9759 48.2824C38.3129 48.4499 37.6179 48.6492 36.8905 48.8637C34.7737 49.488 31.5186 50.2455 29.0306 50.0025C28.0807 49.9098 27.8021 49.5339 27.7258 49.3445C27.6383 49.1272 27.5836 48.5747 28.2371 47.7253C28.421 47.4863 28.8494 47.1231 29.6041 46.6828C30.3252 46.2621 31.2072 45.8488 32.1462 45.4621C32.3632 45.3727 32.5811 45.2856 32.7983 45.201Z" fill="#BFB33B"/>
</svg>
