<svg width="267" height="132" viewBox="0 0 267 132" fill="none" xmlns="http://www.w3.org/2000/svg">
<path d="M101 0.5C97.6863 0.5 95 3.18629 95 6.5L95 125.5C95 128.814 97.6863 131.5 101 131.5H111C112.537 131.5 113.938 130.922 115 129.972C116.062 130.922 117.463 131.5 119 131.5H129C130.537 131.5 131.938 130.922 133 129.972C134.062 130.922 135.463 131.5 137 131.5H147C148.542 131.5 149.948 130.918 151.011 129.963C152.074 130.918 153.48 131.5 155.021 131.5H165.021C168.335 131.5 171.021 128.814 171.021 125.5V6.5C171.021 3.18629 168.335 0.5 165.021 0.5H155.021C153.48 0.5 152.074 1.08162 151.011 2.03743C149.948 1.08162 148.542 0.5 147 0.5H137C135.463 0.5 134.062 1.07771 133 2.02779C131.938 1.07771 130.537 0.5 129 0.5H119C117.463 0.5 116.062 1.07771 115 2.02779C113.938 1.07771 112.537 0.5 111 0.5H101Z" fill="#FFFEF9"/>
<path d="M121 96.4413L121 100.001C121 100.311 121.22 100.541 121.51 100.541C121.82 100.541 122.03 100.321 122.03 100.001L122.03 99.1713L125.97 99.1713L125.97 100.001C125.97 100.311 126.19 100.541 126.48 100.541C126.79 100.541 127 100.321 127 100.001L127 97.0913C127 96.7913 126.8 96.5713 126.51 96.5713C126.23 96.5713 126.02 96.8013 126.02 97.0913L126.02 98.1013L125.25 98.1013L125.25 96.4413C125.25 95.0713 124.41 94.1513 123.12 94.1513C121.84 94.1513 121 95.0713 121 96.4413ZM124.22 96.4413L124.22 98.1013L122.03 98.1013L122.03 96.4413C122.03 95.7113 122.43 95.3013 123.12 95.3013C123.82 95.3013 124.22 95.7113 124.22 96.4413Z" fill="#BFB33B"/>
<path d="M121.52 89.4073C121.24 89.4073 121 89.6473 121 89.9373L121 92.6673C121 92.9773 121.22 93.2073 121.51 93.2073C121.82 93.2073 122.03 92.9873 122.03 92.6673L122.03 91.8373L125.97 91.8373L125.97 92.6673C125.97 92.9773 126.19 93.2073 126.48 93.2073C126.79 93.2073 127 92.9873 127 92.6673L127 87.7473C127 87.4273 126.8 87.2173 126.49 87.2173L125.27 87.2173C124.97 87.2173 124.75 87.4473 124.75 87.7573C124.75 88.0673 124.97 88.2873 125.27 88.2873L125.97 88.2873L125.97 90.7673L122.03 90.7673L122.03 89.9373C122.03 89.6473 121.8 89.4073 121.52 89.4073Z" fill="#BFB33B"/>
<path d="M125.97 79.6313L125.97 80.4513L121.46 82.3113C121.16 82.4213 121 82.6313 121 82.9213L121 84.9713C121 85.2813 121.22 85.5113 121.51 85.5113C121.82 85.5113 122.03 85.2913 122.03 84.9713L122.03 83.8413L125.97 85.4613L125.97 86.2613C125.97 86.5713 126.19 86.8013 126.48 86.8013C126.79 86.8013 127 86.5813 127 86.2613L127 83.8113C127 83.5113 126.8 83.2913 126.51 83.2913C126.23 83.2913 126.02 83.5113 126.02 83.8113L126.02 84.4413L125.15 84.0913L125.15 81.8313L126.02 81.4813L126.02 82.0913C126.02 82.3813 126.23 82.6013 126.51 82.6013C126.8 82.6013 127 82.3913 127 82.0913L127 79.6313C127 79.3213 126.79 79.0913 126.48 79.0913C126.19 79.0913 125.97 79.3213 125.97 79.6313ZM124.21 83.7113L122.36 82.9613L124.21 82.2113L124.21 83.7113Z" fill="#BFB33B"/>
<path d="M121 70.4595L121 73.1895C121 73.4995 121.22 73.7295 121.51 73.7295C121.82 73.7295 122.03 73.5095 122.03 73.1895L122.03 72.3695L125.58 72.3695L121.24 76.2895C121.09 76.4295 121 76.6095 121 76.8195L121 77.9895C121 78.2995 121.22 78.5295 121.51 78.5295C121.82 78.5295 122.03 78.3095 122.03 77.9895L122.03 77.1595L125.97 77.1595L125.97 77.9895C125.97 78.2995 126.19 78.5295 126.48 78.5295C126.79 78.5295 127 78.3095 127 77.9895L127 75.2595C127 74.9495 126.79 74.7195 126.48 74.7195C126.19 74.7195 125.97 74.9495 125.97 75.2595L125.97 76.0895L123.01 76.0895L126.79 72.6895C127.34 72.2095 127.04 71.2995 126.29 71.2995L122.03 71.2995L122.03 70.4595C122.03 70.1495 121.82 69.9195 121.51 69.9195C121.22 69.9195 121 70.1495 121 70.4595Z" fill="#BFB33B"/>
<path d="M121 63.7329L121 68.7029C121 69.0329 121.21 69.2529 121.53 69.2529L123.12 69.2529C123.42 69.2529 123.64 69.0329 123.64 68.7229C123.64 68.4129 123.43 68.1829 123.12 68.1829L122.03 68.1829L122.03 66.7529L125.97 66.7529L125.97 67.6329C125.97 67.9429 126.19 68.1729 126.48 68.1729C126.79 68.1729 127 67.9529 127 67.6329L127 64.8029C127 64.4929 126.79 64.2629 126.48 64.2629C126.19 64.2629 125.97 64.4929 125.97 64.8029L125.97 65.6829L122.03 65.6829L122.03 64.2529L123.12 64.2529C123.42 64.2529 123.64 64.0329 123.64 63.7229C123.64 63.4129 123.43 63.1829 123.12 63.1829L121.53 63.1829C121.21 63.1829 121 63.4029 121 63.7329Z" fill="#BFB33B"/>
<path d="M121 54.5565L121 58.1165C121 58.4265 121.22 58.6565 121.51 58.6565C121.82 58.6565 122.03 58.4365 122.03 58.1165L122.03 57.2865L125.97 57.2865L125.97 58.1165C125.97 58.4265 126.19 58.6565 126.48 58.6565C126.79 58.6565 127 58.4365 127 58.1165L127 55.2065C127 54.9065 126.8 54.6865 126.51 54.6865C126.23 54.6865 126.02 54.9165 126.02 55.2065L126.02 56.2165L125.25 56.2165L125.25 54.5565C125.25 53.1865 124.41 52.2665 123.12 52.2665C121.84 52.2665 121 53.1865 121 54.5565ZM124.22 54.5565L124.22 56.2165L122.03 56.2165L122.03 54.5565C122.03 53.8265 122.43 53.4165 123.12 53.4165C123.82 53.4165 124.22 53.8265 124.22 54.5565Z" fill="#BFB33B"/>
<path d="M125.97 44.5825L125.97 45.4025L121.46 47.2625C121.16 47.3725 121 47.5825 121 47.8725L121 49.9225C121 50.2325 121.22 50.4625 121.51 50.4625C121.82 50.4625 122.03 50.2425 122.03 49.9225L122.03 48.7925L125.97 50.4125L125.97 51.2125C125.97 51.5225 126.19 51.7525 126.48 51.7525C126.79 51.7525 127 51.5325 127 51.2125L127 48.7625C127 48.4625 126.8 48.2425 126.51 48.2425C126.23 48.2425 126.02 48.4625 126.02 48.7625L126.02 49.3925L125.15 49.0425L125.15 46.7825L126.02 46.4325L126.02 47.0425C126.02 47.3325 126.23 47.5525 126.51 47.5525C126.8 47.5525 127 47.3425 127 47.0425L127 44.5825C127 44.2725 126.79 44.0425 126.48 44.0425C126.19 44.0425 125.97 44.2725 125.97 44.5825ZM124.21 48.6625L122.36 47.9125L124.21 47.1625L124.21 48.6625Z" fill="#BFB33B"/>
<path d="M121.52 39.6807C121.24 39.6807 121 39.9207 121 40.2107L121 42.9407C121 43.2507 121.22 43.4807 121.51 43.4807C121.82 43.4807 122.03 43.2607 122.03 42.9407L122.03 42.1107L125.97 42.1107L125.97 42.9407C125.97 43.2507 126.19 43.4807 126.48 43.4807C126.79 43.4807 127 43.2607 127 42.9407L127 38.0207C127 37.7007 126.8 37.4907 126.49 37.4907L125.27 37.4907C124.97 37.4907 124.75 37.7207 124.75 38.0307C124.75 38.3407 124.97 38.5607 125.27 38.5607L125.97 38.5607L125.97 41.0407L122.03 41.0407L122.03 40.2107C122.03 39.9207 121.8 39.6807 121.52 39.6807Z" fill="#BFB33B"/>
<path d="M125.2 30.6048C124.38 30.6148 123.84 31.2548 123.6 32.7148L123.39 33.9648C123.25 34.8248 123.07 35.0948 122.73 35.0948C122.27 35.0948 121.94 34.4648 121.95 33.4648C121.96 33.0248 122.01 32.6248 122.1 32.3248C122.21 32.3948 122.34 32.4348 122.47 32.4348C122.93 32.4348 123.22 32.0948 123.22 31.6148C123.22 31.1448 122.88 30.8048 122.42 30.8048C121.59 30.8048 120.9 32.0148 120.9 33.4948C120.9 35.0948 121.67 36.2048 122.79 36.2048C123.63 36.2048 124.17 35.5948 124.4 34.1948L124.61 32.9548C124.76 32.0048 124.94 31.7148 125.25 31.7148C125.71 31.7248 126.05 32.4048 126.06 33.4948C126.07 34.1648 125.92 34.7848 125.72 35.1948C125.6 35.0748 125.43 35.0048 125.25 35.0048C124.82 35.0048 124.5 35.3448 124.5 35.8148C124.5 36.2848 124.83 36.6348 125.3 36.6348C126.28 36.6348 127.1 35.2148 127.1 33.4748C127.1 31.8048 126.33 30.6048 125.2 30.6048Z" fill="#BFB33B"/>
<path fill-rule="evenodd" clip-rule="evenodd" d="M115 129.972C113.938 130.922 112.537 131.5 111 131.5H101C97.6863 131.5 95 128.814 95 125.5L95 6.5C95 3.18629 97.6863 0.5 101 0.5H111C112.537 0.5 113.938 1.07771 115 2.02779C116.062 1.07771 117.463 0.5 119 0.5H129C130.537 0.5 131.938 1.07771 133 2.02779C134.062 1.07771 135.463 0.5 137 0.5H147C148.542 0.5 149.948 1.08162 151.011 2.03743C152.074 1.08162 153.48 0.5 155.021 0.5H165.021C168.335 0.5 171.021 3.18629 171.021 6.5V125.5C171.021 128.814 168.335 131.5 165.021 131.5H155.021C153.48 131.5 152.074 130.918 151.011 129.963C149.948 130.918 148.542 131.5 147 131.5H137C135.463 131.5 134.062 130.922 133 129.972C131.938 130.922 130.537 131.5 129 131.5H119C117.463 131.5 116.062 130.922 115 129.972ZM101 4.5H111C112.105 4.5 113 5.39543 113 6.5L113 125.5C113 126.605 112.105 127.5 111 127.5H101C99.8954 127.5 99 126.605 99 125.5L99 6.5C99 5.39543 99.8954 4.5 101 4.5ZM135 125.5L135 6.5C135 5.39543 135.895 4.5 137 4.5H147C148.105 4.5 149 5.39543 149 6.5L149 125.5C149 126.605 148.105 127.5 147 127.5H137C135.895 127.5 135 126.605 135 125.5ZM131 6.5L131 125.5C131 126.605 130.105 127.5 129 127.5H119C117.895 127.5 117 126.605 117 125.5L117 6.5C117 5.39543 117.895 4.5 119 4.5H129C130.105 4.5 131 5.39543 131 6.5ZM155.021 4.5H165.021C166.126 4.5 167.021 5.39543 167.021 6.5V125.5C167.021 126.605 166.126 127.5 165.021 127.5H155.021C153.917 127.5 153.021 126.605 153.021 125.5L153.021 6.5C153.021 5.39543 153.917 4.5 155.021 4.5Z" fill="#BFB33B"/>
<path d="M96.1293 43.5H76.9034V60.6525H57.6778L57.6776 77.805H38.4517V94.9576H19.2261V112.11H0V129.263H96.1293V43.5Z" fill="#BFB33B"/>
<path d="M170 43.5H189.226V60.6525H208.452L208.452 77.805H227.678V94.9576H246.903V112.11H266.129V129.263H170V43.5Z" fill="#BFB33B"/>
</svg>
