<svg width="86" height="180" viewBox="0 0 86 180" fill="none" xmlns="http://www.w3.org/2000/svg">
<path d="M28.8002 15.4189C29.5561 12.3204 32.9229 5.41743 29.9455 2.81859C26.2238 -0.429955 21.7872 3.54149 21.7871 6.86467C21.7869 13.7872 26.5901 13.6679 28.8002 15.4189C29.8918 17.6933 31.9492 26.021 37.6618 35.549L21.2376 28.4203C21.0703 24.0906 19.5701 15.7671 14.9084 17.1104C9.0813 18.7895 10.3787 24.6665 12.6654 27.0778C14.4949 29.0068 19.3288 28.307 21.2376 28.4203L37.6618 35.549C39.2115 38.1338 40.8834 41.0515 42.6517 44.3378C43.1449 45.2545 43.6457 46.1998 44.1533 47.1746C46.2642 51.2279 51.4966 64.1345 52.9892 68.5648C49.0128 62.7809 35.0243 42.8802 24.7249 44.0741C11.8508 45.5665 15.5488 51.4941 13.4819 56.7519C11.4151 62.0096 1.98072 61.4305 2.08583 68.1092C2.16992 73.4521 4.82534 78.274 6.14254 80.017C7.81382 79.0427 11.0722 76.3678 10.7355 73.4628C10.3145 69.8317 5.31037 67.0663 9.89361 66.2005C14.4768 65.3347 17.2468 69.0281 17.8162 65.2821C18.3856 61.5361 17.4529 50.6043 20.3234 52.2788C23.1938 53.9533 25.664 51.1919 27.3944 49.7864C30.7577 47.0547 33.743 49.7196 36.6517 51.7242C38.7559 53.1743 50.2215 67.4359 52.9892 68.5648C54.1565 72.0293 56.1744 80.6446 56.73 83.5201C56.73 83.5201 59.8352 72.7893 61.5194 64.2305C63.2036 55.6717 64.4954 49.5002 68.1888 46.7302C71.1133 44.537 74.9263 41.6001 73.4135 34.081C72.6242 30.158 73.7008 25.015 75.1074 19.8338C76.2326 15.6889 76.8935 12.1553 77.0833 10.9067C74.8841 14.061 70.1432 20.8777 68.773 22.9099C67.0603 25.4503 64.2041 26.785 64.8546 32.3968C65.0497 34.08 66.1653 37.9321 63.2852 41.946C60.405 45.9598 55.884 44.4766 55.9749 48.1461C56.0657 51.8155 59.6872 57.0829 58.979 62.5177C58.2708 67.9525 56.73 83.5201 56.73 83.5201C56.1744 80.6446 54.1565 72.0293 52.9892 68.5648C51.4966 64.1345 46.2642 51.2279 44.1533 47.1746C43.6457 46.1998 43.1449 45.2545 42.6517 44.3378C44.8092 41.2998 46.1514 33.6071 43.9528 28.1289C41.1303 21.0961 41.891 19.0007 43.2354 16.1685C45.7997 15.2022 50.6892 12.3605 49.7325 8.72453C48.5365 4.17954 42.5727 0.926695 40.9125 6.80638C39.5843 11.5101 42.4939 14.5818 43.2354 16.1685C41.891 19.0007 41.1303 21.0961 43.9528 28.1289C46.1514 33.6071 44.8092 41.2998 42.6517 44.3378C40.8834 41.0515 39.2115 38.1338 37.6618 35.549C31.9492 26.021 29.8918 17.6933 28.8002 15.4189Z" fill="#BFB33B"/>
<path fill-rule="evenodd" clip-rule="evenodd" d="M27.0487 3.11209C27.6162 3.13177 28.2673 3.34477 28.9591 3.94866C29.3178 4.2617 29.5642 4.75905 29.6345 5.57657C29.7062 6.4108 29.5787 7.43823 29.3114 8.59328C29.0469 9.73658 28.6686 10.9122 28.2941 12.033C28.2422 12.1882 28.1899 12.3438 28.1377 12.499C28.0602 12.7296 27.983 12.9592 27.908 13.1854C27.7602 13.117 27.6162 13.0522 27.4784 12.9901C27.4481 12.9765 27.4182 12.963 27.3886 12.9497C26.6108 12.5989 25.9365 12.2887 25.3363 11.8602C24.7629 11.4509 24.2758 10.9437 23.9191 10.2156C23.557 9.47637 23.2871 8.42261 23.2871 6.8647C23.2871 5.802 24.0563 4.41912 25.2762 3.64261C25.8543 3.2746 26.4631 3.09178 27.0487 3.11209ZM30.3855 15.2995C30.5338 14.7886 30.7377 14.1813 30.9748 13.475C31.0281 13.3163 31.083 13.1525 31.1394 12.9838C31.5157 11.8576 31.9347 10.5641 32.2342 9.26947C32.531 7.9866 32.7342 6.60735 32.6234 5.31953C32.5112 4.01499 32.062 2.6749 30.9319 1.68853C29.7629 0.668143 28.4637 0.159362 27.1527 0.113889C25.8596 0.069041 24.6615 0.477672 23.6652 1.11185C21.7363 2.33973 20.2871 4.60416 20.2871 6.86463C20.2871 8.76801 20.6175 10.2953 21.225 11.5354C21.8379 12.7866 22.6896 13.6569 23.5933 14.302C24.4577 14.919 25.3843 15.3368 26.1235 15.6701L26.1554 15.6845C26.7859 15.9688 27.2451 16.1811 27.5959 16.4027C27.8034 16.9033 28.0674 17.6503 28.4256 18.6777L28.4856 18.8497C28.9103 20.0681 29.4371 21.5797 30.0977 23.3012C31.1028 25.9209 32.4202 29.0345 34.1808 32.403L22.683 27.4124C22.524 25.2335 22.0772 22.4032 21.1517 20.0824C20.6216 18.753 19.8744 17.4355 18.7951 16.545C17.6364 15.5889 16.1607 15.1885 14.4931 15.669C12.7923 16.1591 11.496 16.9922 10.6083 18.0981C9.72219 19.202 9.32149 20.4801 9.24689 21.7302C9.10175 24.1619 10.1745 26.631 11.5771 28.11C12.2892 28.8609 13.2182 29.2817 14.1035 29.5298C14.9962 29.7799 15.9565 29.8854 16.8499 29.9282C17.7483 29.9713 18.6375 29.953 19.3892 29.9335C19.4634 29.9315 19.5356 29.9296 19.606 29.9278C20.1411 29.9136 20.5671 29.9023 20.8989 29.9085L36.622 36.7329C38.0906 39.1956 39.6675 41.9573 41.3308 45.0486C41.8208 45.9593 42.3184 46.8987 42.8229 47.8675C43.891 49.9185 45.8004 54.3447 47.5988 58.7459C45.9893 56.7428 44.2028 54.6522 42.3147 52.6686C39.6321 49.8502 36.6975 47.1971 33.73 45.3167C30.7897 43.4535 27.6265 42.2277 24.5522 42.5841C21.2346 42.9686 18.8292 43.6535 17.0881 44.6402C15.2947 45.6564 14.2579 46.9644 13.6606 48.4373C13.1186 49.774 12.9611 51.2113 12.8259 52.4464C12.8203 52.4975 12.8147 52.5482 12.8092 52.5986C12.6618 53.9376 12.5191 55.1011 12.0859 56.2031C11.7233 57.1255 11.0166 57.8616 9.97727 58.5608C9.16261 59.1088 8.26304 59.5619 7.2718 60.0612C6.9509 60.2229 6.62039 60.3893 6.28005 60.5654C4.96834 61.2442 3.52799 62.061 2.43455 63.2333C1.28444 64.4664 0.553263 66.0518 0.586018 68.1328C0.676648 73.8913 3.5051 79.0149 4.94581 80.9214L5.74822 81.9832L6.89801 81.3129C7.8498 80.758 9.22273 79.7428 10.3345 78.4359C11.4211 77.1586 12.4647 75.3539 12.2255 73.2901C12.0851 72.0794 11.5742 71.0142 11.0777 70.1625C10.8264 69.7315 10.5611 69.3263 10.3289 68.9733L10.3002 68.9297C10.0718 68.5824 9.88521 68.2988 9.73384 68.0392C9.68338 67.9526 9.64182 67.877 9.60775 67.8111C9.7448 67.7678 9.92893 67.7203 10.1721 67.6744C11.7552 67.3753 13.0193 67.7288 14.28 68.0813C14.5139 68.1467 14.7476 68.2121 14.9833 68.2732C15.3405 68.3659 15.7526 68.4592 16.1666 68.4872C16.5866 68.5155 17.1059 68.4845 17.6225 68.2408C18.7454 67.7111 19.1388 66.5626 19.2991 65.5075C19.4586 64.4585 19.5072 62.9709 19.544 61.4714C19.5501 61.2255 19.5558 60.9778 19.5616 60.7291C19.592 59.4129 19.6231 58.071 19.7036 56.8462C19.7905 55.5255 19.9278 54.5025 20.1191 53.8587C21.9521 54.6802 23.6635 54.2429 25.0099 53.5016C26.0477 52.9301 27.048 52.0626 27.7711 51.4354C27.9878 51.2475 28.1796 51.0811 28.3401 50.9508C28.9957 50.4183 29.558 50.2051 30.0426 50.1425C30.5368 50.0788 31.0645 50.1573 31.6656 50.3832C32.701 50.7725 33.6952 51.4759 34.8576 52.2982C35.1593 52.5117 35.4724 52.7332 35.8005 52.9593C35.9275 53.0469 36.2424 53.3263 36.7729 53.8677C37.2729 54.378 37.889 55.0416 38.592 55.8165C39.4632 56.7767 40.4443 57.8815 41.48 59.0476C42.1212 59.7696 42.7834 60.5152 43.4533 61.2647C45.1921 63.2098 46.9717 65.1675 48.4966 66.7142C49.2581 67.4867 49.9738 68.1747 50.6009 68.7139C50.9682 69.0296 51.3588 69.3425 51.7458 69.5916C52.9017 73.2613 54.7342 81.0978 55.2573 83.8047C56.115 88.2436 56.0748 90.8279 55.9145 93.7903C55.8961 94.1294 55.8761 94.4737 55.8557 94.8264C55.693 97.6285 55.5 100.954 55.8545 106.296L58.8479 106.098C58.506 100.946 58.6896 97.7793 58.8508 94.9988C58.8713 94.6449 58.8914 94.2972 58.9101 93.9525C59.0749 90.9077 59.1185 88.1291 58.2702 83.5905C58.2823 83.5482 58.2954 83.5022 58.3095 83.4526C58.3984 83.1401 58.527 82.6849 58.6865 82.1121C59.0055 80.9669 59.4482 79.3509 59.9438 77.4663C60.9335 73.7029 62.14 68.8452 62.9911 64.5201C63.8381 60.2158 64.5645 56.6359 65.5224 53.7877C66.4823 50.9334 67.6038 49.0439 69.0888 47.9302C70.5347 46.8458 72.4606 45.4008 73.7628 43.1553C75.1021 40.8456 75.7017 37.8493 74.884 33.7851C74.1745 30.2585 75.1376 25.4479 76.555 20.2268C77.6949 16.0278 78.3677 12.4384 78.5663 11.1321L75.8529 10.0488C73.6573 13.1978 68.9077 20.0268 67.5293 22.0714C67.1857 22.581 66.7846 23.0393 66.3053 23.587C66.2764 23.6202 66.2471 23.6536 66.2175 23.6874C65.7201 24.2563 65.15 24.9168 64.6562 25.7056C63.6151 27.3687 63.0031 29.4515 63.3646 32.5695C63.3942 32.8256 63.437 33.1041 63.4829 33.4026C63.7788 35.3298 64.2033 38.0935 62.0665 41.0715C60.9807 42.5846 59.647 43.1132 58.205 43.6847C58.1238 43.7169 58.0423 43.7492 57.9604 43.7818C57.2524 44.0641 56.3312 44.4404 55.6327 45.1138C54.832 45.8857 54.4438 46.9079 54.4753 48.1832C54.5033 49.3139 54.798 50.4919 55.1501 51.6218C55.3655 52.3129 55.6304 53.0674 55.8936 53.8173C56.0518 54.2679 56.2094 54.7169 56.3553 55.1494C57.1751 57.5795 57.798 59.9723 57.4916 62.3239C57.1492 64.9516 56.6163 69.9055 56.1559 74.334C55.5401 71.8893 54.9046 69.5519 54.4107 68.0858C52.9025 63.6094 47.6417 50.6255 45.4837 46.4818C45.1136 45.771 44.747 45.0757 44.3843 44.3956C45.4024 42.5777 46.1293 40.0022 46.4267 37.3133C46.7748 34.1657 46.5637 30.6072 45.3449 27.5702C43.9593 24.1178 43.527 22.0481 43.5315 20.5781C43.5353 19.3556 43.8375 18.4559 44.3448 17.339C45.6912 16.7664 47.4171 15.8188 48.8098 14.5607C50.377 13.1451 51.8781 10.9842 51.1831 8.34282C50.4712 5.63744 48.3563 3.26737 45.9918 2.44031C44.7696 2.01283 43.3678 1.96749 42.0941 2.67533C40.828 3.37898 39.9545 4.67917 39.4689 6.39877C38.1827 10.9539 40.4165 14.4647 41.4507 16.0901C41.4844 16.143 41.5168 16.194 41.5478 16.2429C40.9942 17.481 40.5369 18.8074 40.5315 20.5689C40.5252 22.6128 41.1238 25.1072 42.5607 28.6876C43.5404 31.1288 43.7576 34.1558 43.4449 36.9836C43.2761 38.51 42.9614 39.9058 42.5717 41.0624C41.3049 38.7782 40.0936 36.6881 38.9482 34.7777C36.1499 30.1103 34.2431 25.7308 32.8986 22.2265C32.2551 20.5494 31.7416 19.0763 31.3162 17.8559L31.2584 17.69C30.9358 16.7648 30.6463 15.9354 30.3855 15.2995ZM43.8821 14.2523C43.8452 14.1914 43.808 14.1302 43.7705 14.0686C42.7114 12.3279 41.4824 10.3079 42.356 7.21399C42.7006 5.99374 43.195 5.49566 43.5515 5.29759C43.9003 5.10371 44.3755 5.0532 45.0013 5.27209C46.3327 5.73778 47.7978 7.26662 48.2818 9.10623C48.5435 10.1008 48.0783 11.1788 46.7988 12.3345C45.9319 13.1177 44.8517 13.7763 43.8821 14.2523ZM60.5681 61.3254C60.6165 58.7464 59.9082 56.2959 59.1978 54.1904C59.0238 53.6746 58.855 53.1944 58.6935 52.7353C58.4472 52.0348 58.2181 51.3833 58.0142 50.7291C57.6839 49.6694 57.4918 48.813 57.4744 48.109C57.4606 47.5496 57.6033 47.3811 57.7148 47.2736C57.9284 47.0677 58.3005 46.8759 59.0714 46.5685C59.1686 46.5298 59.2697 46.4901 59.3745 46.449C60.8022 45.8892 62.8891 45.0709 64.5039 42.8204C67.412 38.7676 66.7506 34.7442 66.4402 32.8559C66.3992 32.6064 66.3643 32.3942 66.3446 32.2241C66.0555 29.7303 66.5464 28.3399 67.199 27.2975C67.552 26.7336 67.9764 26.2334 68.4759 25.6622C68.5128 25.6199 68.5503 25.5772 68.5883 25.5339C69.042 25.0161 69.5627 24.4218 70.0167 23.7485C70.7289 22.6921 72.3628 20.3275 74.0746 17.8598C73.9443 18.3737 73.8061 18.9019 73.6598 19.4408C72.264 24.5822 71.0739 30.0574 71.9429 34.3769C72.6381 37.8319 72.0876 40.0636 71.1675 41.6504C70.2102 43.3013 68.7674 44.4213 67.2889 45.5302C65.0804 47.1864 63.7093 49.7677 62.6789 52.8314C61.8632 55.2566 61.2166 58.1284 60.5681 61.3254ZM30.938 47.148C30.5242 47.1083 30.0971 47.1106 29.6588 47.1672C28.5468 47.3107 27.4747 47.7887 26.4487 48.6221C26.1465 48.8675 25.863 49.113 25.5873 49.3518C24.9192 49.9304 24.2965 50.4696 23.5628 50.8736C22.6582 51.3718 21.91 51.4678 21.0792 50.9832C20.4076 50.5914 19.5127 50.4096 18.6592 50.9074C17.9579 51.3163 17.5992 52.0212 17.4001 52.5403C16.9845 53.6242 16.8081 55.16 16.7101 56.6493C16.6249 57.944 16.5922 59.3619 16.5619 60.6761C16.5563 60.9207 16.5507 61.1617 16.5449 61.3977C16.5068 62.9491 16.4585 64.2326 16.3332 65.0567C16.3038 65.2504 16.272 65.3866 16.2446 65.48C16.1234 65.462 15.9605 65.4275 15.7369 65.3694C15.5768 65.3279 15.3963 65.276 15.197 65.2187C13.9442 64.8586 11.9503 64.2854 9.61516 64.7265C8.96517 64.8493 8.36946 65.0252 7.87363 65.2979C7.36054 65.5802 6.87948 66.0106 6.63285 66.6502C6.39124 67.2767 6.46231 67.8788 6.59288 68.3345C6.72084 68.7812 6.93761 69.1994 7.14211 69.5501C7.33595 69.8826 7.56466 70.2302 7.77708 70.5529L7.82242 70.6218C8.0566 70.9779 8.28048 71.321 8.48596 71.6734C8.90287 72.3886 9.17532 73.0307 9.24544 73.6356C9.34295 74.4767 8.92573 75.462 8.0495 76.492C7.58781 77.0347 7.05523 77.5212 6.54967 77.9197C5.29348 75.8107 3.64854 72.0821 3.58564 68.0856C3.56584 66.8273 3.97454 65.9805 4.62839 65.2795C5.33893 64.5177 6.36663 63.8985 7.65871 63.2299C7.92757 63.0908 8.2112 62.9481 8.50367 62.801C9.52977 62.2849 10.6646 61.7141 11.6518 61.0499C12.9595 60.1702 14.2071 59.007 14.8779 57.3006C15.4776 55.7751 15.648 54.2274 15.7908 52.9302L15.7912 52.9268C15.9418 51.5582 16.0621 50.4983 16.4407 49.5647C16.7866 48.7118 17.3684 47.9295 18.5671 47.2503C19.818 46.5414 21.7782 45.9257 24.8977 45.5641C26.6651 45.3592 28.7025 45.9192 30.938 47.148ZM16.1737 65.6592C16.1737 65.6592 16.1767 65.6558 16.1817 65.6468C16.1759 65.6543 16.1737 65.6592 16.1737 65.6592ZM19.6305 26.9259C19.6033 26.9267 19.5761 26.9274 19.5489 26.9281C19.4693 26.9303 19.39 26.9324 19.3111 26.9345C18.5625 26.954 17.7709 26.9689 16.9936 26.9316C16.2113 26.8941 15.5007 26.8057 14.9129 26.641C14.3176 26.4742 13.9563 26.2591 13.7538 26.0456C12.8696 25.1132 12.1503 23.4383 12.2416 21.9089C12.2851 21.1784 12.5098 20.5217 12.9478 19.9761C13.3842 19.4324 14.111 18.9012 15.3238 18.5518C15.987 18.3606 16.447 18.4969 16.8859 18.859C17.4042 19.2867 17.9165 20.0687 18.3651 21.1936C19.0511 22.9139 19.4478 25.0742 19.6305 26.9259Z" fill="#BFB33B"/>
<path fill-rule="evenodd" clip-rule="evenodd" d="M49.4728 85.3105H64.2407V98.4522V110.528V123.315V135.746V140.377C71.258 140.257 83.7217 145.393 83.7217 158.472C83.7217 169.328 81.5222 176.928 58.8991 177.29C36.276 177.652 29.3634 169.69 30.9345 156.301C32.1913 145.589 43.8171 140.498 49.4728 140.377V110.528V98.4522V85.3105Z" fill="#FFFEF9"/>
<path d="M49.4728 98.4522C45.8845 98.5706 38.708 99.8019 38.708 103.78C38.708 107.758 45.8845 109.936 49.4728 110.528V98.4522Z" fill="#FFFEF9"/>
<path d="M49.4728 85.3105C45.7635 85.1921 38.4176 86.234 38.708 91.3486C38.9984 96.4632 46.0055 98.2154 49.4728 98.4522V85.3105Z" fill="#FFFEF9"/>
<path d="M75.0093 91.3486C75.0093 86.7313 67.8302 85.1921 64.2407 85.3105V98.4522C67.8302 98.097 75.0093 95.9659 75.0093 91.3486Z" fill="#FFFEF9"/>
<path d="M75.0093 103.78C75.0093 99.5177 67.8302 98.097 64.2407 98.4522V110.528C67.8302 110.647 75.0093 109.108 75.0093 103.78Z" fill="#FFFEF9"/>
<path d="M75.0093 116.566C75.0093 112.304 67.8302 111.12 64.2407 110.528V123.315C67.8302 123.67 75.0093 120.828 75.0093 116.566Z" fill="#FFFEF9"/>
<path d="M64.2407 123.315V135.746C67.8302 134.917 75.0093 134.68 75.0093 129.708C75.0093 124.735 67.8302 124.143 64.2407 123.315Z" fill="#FFFEF9"/>
<path d="M49.4728 135.746V123.315C46.2057 123.907 38.708 126.014 38.708 129.708C38.708 133.402 46.2057 135.272 49.4728 135.746Z" fill="#FFFEF9"/>
<path d="M49.4728 123.315V110.528C45.8845 110.528 38.708 111.736 38.708 116.566C38.708 121.397 46.2057 123.078 49.4728 123.315Z" fill="#FFFEF9"/>
<path fill-rule="evenodd" clip-rule="evenodd" d="M49.5036 83.3105H64.2089C66.249 83.2487 69.2159 83.6418 71.7487 84.7111C74.2116 85.7509 77.0091 87.7911 77.0091 91.3486C77.0091 94.5019 74.7934 96.6024 72.584 97.8941C74.7586 98.9082 77.0091 100.737 77.0091 103.78C77.0091 107.216 74.8484 109.396 72.5106 110.661C74.6662 111.678 77.0091 113.466 77.0091 116.566C77.0091 119.75 74.4971 121.99 72.1777 123.291C74.5261 124.308 77.0091 126.185 77.0091 129.708C77.0091 131.498 76.3377 132.947 75.2506 134.042C74.2196 135.08 72.8905 135.728 71.6309 136.169C70.358 136.614 69 136.898 67.7989 137.119C67.3623 137.199 66.9588 137.269 66.5831 137.335C66.4662 137.355 66.3521 137.375 66.2404 137.394V138.463C69.8484 138.811 74.1479 140.21 77.7887 142.857C82.2176 146.078 85.7214 151.197 85.7214 158.472C85.7214 163.913 85.2138 169.315 81.192 173.247C77.2309 177.119 70.335 179.107 58.9309 179.29C47.482 179.473 39.4901 177.578 34.5663 173.491C29.4904 169.278 28.1184 163.137 28.9479 156.067C29.6618 149.982 33.3221 145.574 37.4106 142.726C40.7074 140.43 44.4342 139.036 47.4726 138.56V137.421C45.8503 137.085 43.8628 136.546 42.0702 135.77C40.8258 135.231 39.5557 134.527 38.5672 133.607C37.5679 132.676 36.7077 131.374 36.7077 129.708C36.7077 128.051 37.5597 126.74 38.5428 125.793C39.5203 124.852 40.7801 124.112 42.021 123.535C42.0421 123.525 42.0633 123.515 42.0845 123.505C42.0652 123.497 42.046 123.488 42.0268 123.479C39.558 122.339 36.7077 120.207 36.7077 116.566C36.7077 113.119 39.1816 111.129 41.5617 110.066C40.4246 109.474 39.3063 108.731 38.4301 107.801C37.4635 106.776 36.7077 105.427 36.7077 103.78C36.7077 102.106 37.4876 100.783 38.5244 99.8201C39.3091 99.0916 40.2681 98.5379 41.2492 98.1123C39.0092 96.8145 36.895 94.703 36.711 91.462C36.6078 89.6451 37.2001 88.1151 38.2337 86.9215C39.2251 85.7767 40.5526 85.0164 41.8621 84.5045C44.4506 83.4925 47.49 83.2499 49.5036 83.3105ZM47.4726 100.621C46.1498 100.79 44.6919 101.086 43.4313 101.547C42.4396 101.91 41.7039 102.326 41.2459 102.752C40.8249 103.142 40.7077 103.464 40.7077 103.78C40.7077 104.121 40.8491 104.536 41.3402 105.057C41.8468 105.594 42.6289 106.132 43.6355 106.633C44.8372 107.231 46.2082 107.703 47.4726 108.044V100.621ZM51.4726 142.335L49.5152 142.377C47.1338 142.428 43.1897 143.575 39.697 146.008C36.2445 148.413 33.4635 151.907 32.9206 156.534C32.179 162.854 33.4777 167.389 37.1212 170.413C40.9167 173.564 47.6927 175.469 58.8669 175.29C70.0858 175.111 75.6012 173.118 78.3957 170.386C81.1294 167.714 81.7214 163.887 81.7214 158.472C81.7214 152.667 78.9935 148.679 75.4362 146.092C71.8054 143.452 67.3629 142.324 64.2748 142.377L62.2404 142.412V87.3105H51.4726V142.335ZM66.2404 87.4033V96.083C67.4894 95.7879 68.858 95.3366 70.0558 94.7203C72.1286 93.6538 73.0091 92.4791 73.0091 91.3486C73.0091 90.2887 72.2171 89.2507 70.193 88.3962C68.949 87.871 67.5165 87.5515 66.2404 87.4033ZM66.2404 100.428V108.431C67.5032 108.277 68.9128 107.944 70.1324 107.381C72.0318 106.504 73.0091 105.33 73.0091 103.78C73.0091 102.99 72.3499 102.04 70.267 101.257C68.9886 100.776 67.5218 100.511 66.2404 100.428ZM66.2404 112.915V121.216C67.4072 121.014 68.7759 120.577 70.0283 119.908C72.1267 118.787 73.0091 117.523 73.0091 116.566C73.0091 115.791 72.3835 114.895 70.2243 114.026C68.9873 113.529 67.5729 113.18 66.2404 112.915ZM66.2404 125.763V133.334C66.5247 133.284 66.8056 133.235 67.0759 133.185C68.2305 132.973 69.3402 132.732 70.3108 132.393C71.2948 132.049 71.9848 131.654 72.412 131.223C72.7831 130.85 73.0091 130.404 73.0091 129.708C73.0091 128.5 72.2557 127.604 70.2455 126.821C68.9642 126.323 67.593 126.028 66.2404 125.763ZM47.4726 96.1586C46.2699 95.9135 44.9532 95.5187 43.7908 94.9395C41.8458 93.9703 40.7902 92.7444 40.7045 91.2352C40.6625 90.4948 40.8795 89.9766 41.2575 89.54C41.6778 89.0548 42.3641 88.603 43.3185 88.2299C44.5921 87.732 46.104 87.4663 47.4726 87.3593V96.1586ZM47.4726 112.647C46.169 112.795 44.731 113.091 43.4935 113.59C41.5111 114.391 40.7077 115.394 40.7077 116.566C40.7077 117.756 41.6064 118.879 43.7032 119.847C44.9035 120.401 46.2608 120.782 47.4726 121.021V112.647ZM47.4726 125.823C46.2542 126.155 44.9086 126.603 43.709 127.161C42.6671 127.646 41.8483 128.163 41.3178 128.674C40.793 129.18 40.7077 129.518 40.7077 129.708C40.7077 129.889 40.7848 130.206 41.2934 130.68C41.8128 131.163 42.6214 131.65 43.6598 132.099C44.8752 132.626 46.242 133.033 47.4726 133.324V125.823Z" fill="#BFB33B"/>
</svg>
