<svg width="98" height="116" viewBox="0 0 98 116" fill="none" xmlns="http://www.w3.org/2000/svg">
<path d="M33.7685 62.8734L34.4302 54.4011L58.8831 56.311L58.2214 64.7833L33.7685 62.8734Z" fill="#BFB33B"/>
<path d="M26.7319 2.03296L22.7132 53.486L34.4302 54.4011L58.8831 56.311L70.6001 57.2262L73.4252 21.0562L74.221 10.8675L74.6189 5.77316L26.7319 2.03296Z" fill="#BFB33B"/>
<path d="M82.3798 4.84169C77.6783 5.14263 75.1257 8.03376 74.221 10.8675L73.4252 21.0562C74.9855 27.3286 80.5495 28.2757 84.6249 28.594C89.7193 28.9919 95.6414 25.3544 96.3178 16.6938C96.9943 8.03328 89.5914 4.38008 82.3798 4.84169Z" fill="#BFB33B"/>
<path d="M70.6836 107.329V55.7197H22.6508V60.8296C21.9695 57.934 19.6497 54.8529 14.986 54.1867C7.83216 53.165 0.167358 56.2307 0.167358 64.9176C0.167358 73.6045 5.78822 77.6922 10.8981 77.6922C14.986 77.6922 20.6068 77.1812 22.6508 71.0493V107.329H34.4035V115.317H58.9309V107.329H70.6836Z" fill="#BFB33B"/>
</svg>
