<svg width="145" height="123" viewBox="0 0 145 123" fill="none" xmlns="http://www.w3.org/2000/svg">
<path d="M144.059 96.352V122.317H0.529175V80.1962C0.529175 64.0403 2.93904 31.7286 26.2344 31.7286C49.5298 31.7286 52.8884 87.5322 85.8233 83.4933C97.3525 82.0794 99.3337 55.3854 117.809 55.3854C136.285 55.3854 144.059 72.1182 144.059 96.352Z" fill="#BFB33B"/>
<path d="M5.23486 23.5202C5.23486 33.3561 16.0742 37.1811 18.8924 37.4543C36.4521 39.1567 43.966 26.7175 39.0536 12.8646C35.3347 2.37753 26.6967 1.75023 18.8924 2.56989C11.0881 3.38955 5.23487 11.2253 5.23486 23.5202Z" fill="#FFFEF9"/>
<path fill-rule="evenodd" clip-rule="evenodd" d="M39.002 32.19C42.9602 26.8941 43.557 19.58 40.9385 12.1962C38.894 6.4306 35.3943 3.19247 31.2142 1.60718C27.1612 0.0700934 22.6627 0.162905 18.6835 0.580827C9.40959 1.55483 3.23487 10.7307 3.23486 23.5202C3.23486 29.2842 6.44394 33.2356 9.83291 35.6925C13.1608 38.1051 16.9097 39.2715 18.6994 39.445C27.9742 40.3442 35.016 37.5233 39.002 32.19ZM35.798 29.7954C32.8653 33.7193 27.3703 36.2669 19.0854 35.4637C18.0569 35.364 14.977 34.4812 12.1807 32.454C9.44545 30.4711 7.23486 27.592 7.23486 23.5202C7.23487 11.7199 12.7666 5.22426 19.1013 4.55895C22.9264 4.15721 26.649 4.15384 29.7958 5.34725C32.8155 6.49248 35.4942 8.81155 37.1686 13.5331C39.4626 20.0021 38.7587 25.8341 35.798 29.7954Z" fill="#BFB33B"/>
</svg>
