<svg width="146" height="144" viewBox="0 0 146 144" fill="none" xmlns="http://www.w3.org/2000/svg">
<path d="M73.2981 140.969C27.5396 142.053 2.00026 114.411 2 66.1719C1.99988 43.7331 11.6159 27.1977 27.0435 16.5037C38.7729 8.37326 53.8617 3.61935 70.6378 2.21475C97.1536 -0.00532675 121.19 15.2543 133.775 35.6468C139.624 45.1261 143 55.7145 143 66.1719C143 107.365 119.057 139.885 73.2981 140.969Z" fill="#F9F5F1"/>
<path fill-rule="evenodd" clip-rule="evenodd" d="M26.131 14.6215C61.0444 -9.48842 111.819 -3.21494 134.965 34.1495L135.013 34.2276L135.054 34.3098C149.008 62.3728 147.76 86.65 137.712 105.195C127.703 123.669 109.113 136.177 88.8726 141.087C68.6325 145.997 46.5121 143.363 29.4018 131.244C12.228 119.08 0.404714 97.5773 0.404541 65.388C0.404418 42.5404 10.2725 25.5728 26.131 14.6215ZM132.34 37.7982L124.25 41.5676C136.791 62.4774 133.145 91.1393 117.741 109.593C108.558 120.595 94.6878 127.136 80.1968 129.175C65.7064 131.213 50.3964 128.779 38.2253 121.584C21.793 111.871 12.9329 92.8937 12.038 73.8967C11.1763 55.605 17.681 36.8267 32.4882 25.8499L26.8944 18.9343C12.9875 29.1634 4.37733 44.5703 4.37744 65.388C4.37761 96.5539 15.7711 116.742 31.7082 128.03C47.7089 139.364 68.5935 141.943 87.9302 137.253C107.267 132.562 124.825 120.655 134.214 103.325C143.363 86.4374 144.9 64.1333 132.34 37.7982ZM119.717 41.8139C101.484 14.3522 63.3408 9.86363 36.4682 27.8817C21.8767 37.6653 15.1567 55.672 16.0066 73.7122C16.8288 91.1659 24.7182 108.178 38.8079 117.296L44.4533 110.431C32.195 102.601 25.6746 88.4523 25.296 69.7259C24.6971 40.1091 55.6053 20.1811 83.0541 26.4894C102.877 31.0452 118.199 49.6652 118.199 67.9748C118.199 79.8687 115.134 90.7782 109.006 99.3165L115.966 105.473C129.748 87.5847 132.236 60.6701 119.717 41.8139ZM84.0196 30.8114L81.7412 39.3235C97.4038 43.9349 107.297 59.3207 105.171 75.2853C104.071 83.5447 100.702 90.8772 95.0514 96.2113C89.3861 101.559 81.5657 104.767 71.8248 104.996C60.9676 105.252 52.2356 102.114 46.235 95.806C40.6282 89.9116 37.6385 81.4924 37.2893 71.1727L29.3298 71.5619C30.122 89.3669 36.8762 101.785 48.4131 108.19C57.1729 113.054 68.139 114.614 78.5287 112.91C88.9168 111.207 98.5481 106.274 104.759 98.3725C110.978 90.4619 114.226 79.8795 114.226 67.9748C114.226 52.2178 101.275 35.691 84.0196 30.8114ZM53.3782 47.4014C46.1557 52.2077 41.2275 59.7972 41.2276 69.1015C41.2276 79.7118 44.0522 87.7649 49.1227 93.0954C53.8076 98.0207 60.6371 100.86 69.6105 101.053L68.7418 91.1738C63.3154 90.9423 58.8314 89.0797 55.6327 85.6151C52.1047 81.7937 50.3951 76.2982 50.395 69.6863C50.395 64.0002 52.5119 59.4899 56.0968 56.3141C59.6366 53.1783 64.4585 51.4706 69.7145 51.02C75.3118 50.5401 80.4492 52.8222 84.1577 56.3252C87.5022 59.4842 89.8172 63.7605 90.2514 68.1872L101.455 72.2846C102.084 58.5586 92.7995 45.8441 78.8634 42.6502C70.0851 40.6384 60.6265 42.5781 53.3782 47.4014ZM86.3525 69.688C86.3249 66.0246 84.47 62.0661 81.4202 59.1853C78.3849 56.3184 74.3273 54.5859 70.0561 54.9521C65.4068 55.3507 61.4768 56.8361 58.741 59.2597C56.0503 61.6434 54.3679 65.0586 54.3679 69.6862C54.368 75.6703 55.9149 80.0817 58.5607 82.9474C61.1753 85.7795 65.1157 87.3752 70.5153 87.2443C75.8362 87.1152 79.7257 85.1378 82.3112 82.104C84.927 79.0345 86.3522 74.7097 86.3525 69.688Z" fill="#BFB33B"/>
</svg>
