<svg width="99" height="157" viewBox="0 0 99 157" fill="none" xmlns="http://www.w3.org/2000/svg">
<path d="M0 6.31656C0 3.00285 2.68629 0.316559 6 0.316559H17C18.5367 0.316559 19.9385 0.894268 21 1.84435C22.0615 0.894268 23.4633 0.316559 25 0.316559H36C37.5367 0.316559 38.9385 0.894268 40 1.84435C41.0615 0.894268 42.4633 0.316559 44 0.316559H55C58.3137 0.316559 61 3.00285 61 6.31656V38.0148C61.5967 37.7152 62.2539 37.5109 62.9544 37.4241L65.9316 37.0549C68.0691 36.7899 70.0833 37.6838 71.3433 39.2451C72.2665 38.2725 73.5197 37.602 74.9544 37.4241L77.9316 37.0549C81.2201 36.6471 84.2166 38.9825 84.6243 42.271L97.791 148.458C98.1987 151.746 95.8634 154.743 92.5749 155.151L89.5977 155.52C87.4601 155.785 85.446 154.891 84.186 153.329C83.2628 154.302 82.0095 154.973 80.5749 155.151L77.5977 155.52C74.3092 155.927 71.3127 153.592 70.905 150.304L61 70.4217L61 149.317C61 152.63 58.3137 155.317 55 155.317H44C42.4633 155.317 41.0615 154.739 40 153.789C38.9385 154.739 37.5367 155.317 36 155.317H25C23.4633 155.317 22.0615 154.739 21 153.789C19.9385 154.739 18.5367 155.317 17 155.317H6.00001C2.6863 155.317 9.88025e-06 152.63 9.6653e-06 149.317L0 6.31656Z" fill="#FFFEF9"/>
<path fill-rule="evenodd" clip-rule="evenodd" d="M17 155.317C18.5367 155.317 19.9385 154.739 21 153.789C22.0615 154.739 23.4633 155.317 25 155.317H36C37.5367 155.317 38.9385 154.739 40 153.789C41.0615 154.739 42.4633 155.317 44 155.317H55C58.3137 155.317 61 152.63 61 149.317L61 70.4217L70.905 150.304C71.3127 153.592 74.3092 155.927 77.5977 155.52L80.5749 155.151C82.0095 154.973 83.2628 154.302 84.186 153.329C85.446 154.891 87.4601 155.785 89.5977 155.52L92.5749 155.151C95.8634 154.743 98.1987 151.746 97.791 148.458L84.6243 42.271C84.2166 38.9825 81.2201 36.6471 77.9316 37.0549L74.9544 37.4241C73.5197 37.602 72.2665 38.2725 71.3433 39.2451C70.0833 37.6838 68.0691 36.7899 65.9316 37.0549L62.9544 37.4241C62.2539 37.5109 61.5967 37.7152 61 38.0148V6.31656C61 3.00285 58.3137 0.316559 55 0.316559H44C42.4633 0.316559 41.0615 0.894268 40 1.84435C38.9385 0.894268 37.5367 0.316559 36 0.316559H25C23.4633 0.316559 22.0615 0.894268 21 1.84435C19.9385 0.894268 18.5367 0.316559 17 0.316559H6C2.68629 0.316559 0 3.00285 0 6.31656L9.6653e-06 149.317C9.88025e-06 152.63 2.6863 155.317 6.00001 155.317H17ZM17 4.31656H6C4.89543 4.31656 4 5.21199 4 6.31656L4.00001 149.317C4.00001 150.421 4.89544 151.317 6.00001 151.317H17C18.1046 151.317 19 150.421 19 149.317L19 6.31656C19 5.21199 18.1046 4.31656 17 4.31656ZM42 6.31656L42 149.317C42 150.421 42.8954 151.317 44 151.317H55C56.1046 151.317 57 150.421 57 149.317L57 6.31656C57 5.21199 56.1046 4.31656 55 4.31656H44C42.8954 4.31656 42 5.21199 42 6.31656ZM25 151.317C23.8954 151.317 23 150.421 23 149.317L23 6.31656C23 5.21199 23.8954 4.31656 25 4.31656H36C37.1046 4.31656 38 5.21199 38 6.31656L38 149.317C38 150.421 37.1046 151.317 36 151.317H25ZM66.4238 41.0245L63.4466 41.3937C62.3504 41.5296 61.572 42.5284 61.7079 43.6246L74.8746 149.811C75.0105 150.908 76.0093 151.686 77.1055 151.55L80.0827 151.181C81.1788 151.045 81.9573 150.046 81.8214 148.95L68.6547 42.7632C68.5188 41.667 67.52 40.8886 66.4238 41.0245ZM75.4466 41.3937L78.4238 41.0245C79.52 40.8886 80.5188 41.667 80.6547 42.7632L93.8214 148.95C93.9573 150.046 93.1788 151.045 92.0827 151.181L89.1055 151.55C88.0093 151.686 87.0105 150.908 86.8746 149.811L73.7079 43.6246C73.572 42.5284 74.3504 41.5296 75.4466 41.3937Z" fill="#BFB33B"/>
<path d="M46.6 133.724L46.6 136.145C46.6 136.424 46.798 136.631 47.059 136.631C47.338 136.631 47.527 136.433 47.527 136.145L47.527 135.398L51.073 135.398L51.073 136.145C51.073 136.424 51.271 136.631 51.532 136.631C51.811 136.631 52 136.433 52 136.145L52 133.724C52 131.753 50.965 130.511 49.3 130.511C47.644 130.511 46.6 131.753 46.6 133.724ZM51.073 133.724L51.073 134.435L47.527 134.435L47.527 133.724C47.527 132.383 48.211 131.537 49.3 131.537C50.389 131.537 51.073 132.383 51.073 133.724Z" fill="#BFB33B"/>
<path d="M48.625 124.129C48.625 123.85 48.436 123.643 48.157 123.643L47.059 123.643C46.78 123.643 46.6 123.832 46.6 124.12L46.6 129.043C46.6 129.322 46.798 129.529 47.059 129.529C47.338 129.529 47.527 129.331 47.527 129.043L47.527 128.296L51.073 128.296L51.073 129.043C51.073 129.322 51.271 129.529 51.532 129.529C51.811 129.529 52 129.331 52 129.043L52 124.075C52 123.787 51.82 123.598 51.541 123.598L50.443 123.598C50.173 123.598 49.975 123.805 49.975 124.084C49.975 124.363 50.173 124.561 50.443 124.561L51.073 124.561L51.073 127.333L49.696 127.333L49.696 126.199L49.948 126.199C50.218 126.199 50.398 126.001 50.398 125.731C50.398 125.461 50.209 125.272 49.948 125.272L48.544 125.272C48.283 125.272 48.085 125.461 48.085 125.731C48.085 126.001 48.274 126.199 48.544 126.199L48.796 126.199L48.796 127.333L47.527 127.333L47.527 124.606L48.157 124.606C48.427 124.606 48.625 124.408 48.625 124.129Z" fill="#BFB33B"/>
<path d="M50.38 116.798C49.642 116.807 49.156 117.383 48.94 118.697L48.751 119.822C48.625 120.596 48.463 120.839 48.157 120.839C47.743 120.839 47.446 120.272 47.455 119.372C47.464 118.976 47.509 118.616 47.59 118.346C47.689 118.409 47.806 118.445 47.923 118.445C48.337 118.445 48.598 118.139 48.598 117.707C48.598 117.284 48.292 116.978 47.878 116.978C47.131 116.978 46.51 118.067 46.51 119.399C46.51 120.839 47.203 121.838 48.211 121.838C48.967 121.838 49.453 121.289 49.66 120.029L49.849 118.913C49.984 118.058 50.146 117.797 50.425 117.797C50.839 117.806 51.145 118.418 51.154 119.399C51.163 120.002 51.028 120.56 50.848 120.929C50.74 120.821 50.587 120.758 50.425 120.758C50.038 120.758 49.75 121.064 49.75 121.487C49.75 121.91 50.047 122.225 50.47 122.225C51.352 122.225 52.09 120.947 52.09 119.381C52.09 117.878 51.397 116.798 50.38 116.798Z" fill="#BFB33B"/>
<path d="M46.6 112.23L46.6 115.227C46.6 115.506 46.798 115.713 47.059 115.713C47.338 115.713 47.527 115.515 47.527 115.227L47.527 114.21L51.073 114.21L51.073 115.227C51.073 115.506 51.271 115.713 51.532 115.713C51.811 115.713 52 115.515 52 115.227L52 112.23C52 111.951 51.811 111.744 51.532 111.744C51.271 111.744 51.073 111.951 51.073 112.23L51.073 113.247L47.527 113.247L47.527 112.23C47.527 111.951 47.338 111.744 47.059 111.744C46.798 111.744 46.6 111.951 46.6 112.23Z" fill="#BFB33B"/>
<path d="M49.516 105.31C49.246 105.31 49.057 105.508 49.057 105.787L49.057 107.434C49.057 107.704 49.246 107.911 49.516 107.911C49.786 107.911 49.984 107.713 49.984 107.434L49.984 106.255L50.632 106.255C50.938 106.714 51.109 107.263 51.109 107.794C51.109 108.955 50.335 109.738 49.3 109.738C48.256 109.738 47.491 108.964 47.491 107.686C47.491 107.389 47.536 107.056 47.626 106.741C47.68 106.858 47.815 106.939 48.013 106.939C48.382 106.93 48.634 106.624 48.643 106.219C48.634 105.787 48.337 105.436 47.878 105.445C47.518 105.436 47.167 105.661 46.942 106.003C46.627 106.471 46.51 107.164 46.51 107.731C46.51 109.531 47.707 110.764 49.282 110.764C50.893 110.764 52.09 109.459 52.09 107.857C52.09 107.326 51.964 106.786 51.676 106.255C51.901 106.219 52.054 106.03 52.054 105.778C52.054 105.508 51.856 105.31 51.586 105.31L49.525 105.31L49.516 105.31Z" fill="#BFB33B"/>
<path d="M46.6 96.7074L46.6 99.1644C46.6 99.4434 46.798 99.6504 47.059 99.6504C47.338 99.6504 47.527 99.4524 47.527 99.1644L47.527 98.4264L50.722 98.4264L46.816 101.954C46.681 102.08 46.6 102.242 46.6 102.431L46.6 103.484C46.6 103.763 46.798 103.97 47.059 103.97C47.338 103.97 47.527 103.772 47.527 103.484L47.527 102.737L51.073 102.737L51.073 103.484C51.073 103.763 51.271 103.97 51.532 103.97C51.811 103.97 52 103.772 52 103.484L52 101.027C52 100.748 51.811 100.541 51.532 100.541C51.271 100.541 51.073 100.748 51.073 101.027L51.073 101.774L48.409 101.774L51.811 98.7144C52.306 98.2824 52.036 97.4634 51.361 97.4634L47.527 97.4634L47.527 96.7074C47.527 96.4284 47.338 96.2214 47.059 96.2214C46.798 96.2214 46.6 96.4284 46.6 96.7074Z" fill="#BFB33B"/>
<path d="M46.6 83.115L46.6 85.185C46.6 85.455 46.78 85.644 47.032 85.644C47.293 85.644 47.473 85.455 47.473 85.185L47.473 84.771L50.551 85.86L47.464 87.174L47.464 86.796C47.464 86.535 47.275 86.337 47.032 86.346C46.789 86.346 46.6 86.535 46.6 86.796L46.6 88.758C46.6 89.019 46.78 89.199 47.032 89.208C47.293 89.208 47.464 89.019 47.464 88.758L47.464 88.389L50.551 89.694L47.473 90.792L47.473 90.36C47.473 90.099 47.293 89.901 47.032 89.901C46.78 89.901 46.6 90.09 46.6 90.36L46.6 92.43C46.6 92.709 46.789 92.907 47.05 92.907C47.32 92.907 47.509 92.709 47.509 92.43L47.509 91.755L51.694 90.18C51.946 90.09 52.054 89.946 52.054 89.703C52.054 89.469 51.937 89.316 51.694 89.217L48.121 87.777L51.694 86.328C51.937 86.238 52.054 86.094 52.054 85.851C52.054 85.617 51.946 85.473 51.694 85.374L47.509 83.808L47.509 83.115C47.509 82.845 47.32 82.638 47.05 82.638C46.789 82.638 46.6 82.836 46.6 83.115Z" fill="#BFB33B"/>
<path d="M46.6 78.6642L46.6 81.6612C46.6 81.9402 46.798 82.1472 47.059 82.1472C47.338 82.1472 47.527 81.9492 47.527 81.6612L47.527 80.6442L51.073 80.6442L51.073 81.6612C51.073 81.9402 51.271 82.1472 51.532 82.1472C51.811 82.1472 52 81.9492 52 81.6612L52 78.6642C52 78.3852 51.811 78.1782 51.532 78.1782C51.271 78.1782 51.073 78.3852 51.073 78.6642L51.073 79.6812L47.527 79.6812L47.527 78.6642C47.527 78.3852 47.338 78.1782 47.059 78.1782C46.798 78.1782 46.6 78.3852 46.6 78.6642Z" fill="#BFB33B"/>
<path d="M46.6 72.2755L46.6 76.7485C46.6 77.0455 46.789 77.2435 47.077 77.2435L48.508 77.2435C48.778 77.2435 48.976 77.0455 48.976 76.7665C48.976 76.4875 48.787 76.2805 48.508 76.2805L47.527 76.2805L47.527 74.9935L51.073 74.9935L51.073 75.7855C51.073 76.0645 51.271 76.2715 51.532 76.2715C51.811 76.2715 52 76.0735 52 75.7855L52 73.2385C52 72.9595 51.811 72.7525 51.532 72.7525C51.271 72.7525 51.073 72.9595 51.073 73.2385L51.073 74.0305L47.527 74.0305L47.527 72.7435L48.508 72.7435C48.778 72.7435 48.976 72.5455 48.976 72.2665C48.976 71.9875 48.787 71.7805 48.508 71.7805L47.077 71.7805C46.789 71.7805 46.6 71.9785 46.6 72.2755Z" fill="#BFB33B"/>
<path d="M51.073 63.7162L51.073 64.4632L47.527 64.4632L47.527 63.7162C47.527 63.4372 47.338 63.2302 47.059 63.2302C46.798 63.2302 46.6 63.4372 46.6 63.7162L46.6 66.1732C46.6 66.4522 46.798 66.6592 47.059 66.6592C47.338 66.6592 47.527 66.4612 47.527 66.1732L47.527 65.4262L48.715 65.4262L48.715 68.6572L47.527 68.6572L47.527 67.9102C47.527 67.6312 47.338 67.4242 47.059 67.4242C46.798 67.4242 46.6 67.6312 46.6 67.9102L46.6 70.3672C46.6 70.6462 46.798 70.8532 47.059 70.8532C47.338 70.8532 47.527 70.6552 47.527 70.3672L47.527 69.6202L51.073 69.6202L51.073 70.3672C51.073 70.6462 51.271 70.8532 51.532 70.8532C51.811 70.8532 52 70.6552 52 70.3672L52 67.9102C52 67.6312 51.811 67.4242 51.532 67.4242C51.271 67.4242 51.073 67.6312 51.073 67.9102L51.073 68.6572L49.642 68.6572L49.642 65.4262L51.073 65.4262L51.073 66.1732C51.073 66.4522 51.271 66.6592 51.532 66.6592C51.811 66.6592 52 66.4612 52 66.1732L52 63.7162C52 63.4372 51.811 63.2302 51.532 63.2302C51.271 63.2302 51.073 63.4372 51.073 63.7162Z" fill="#BFB33B"/>
<path d="M46.6 55.4298L46.6 58.6338C46.6 58.9128 46.798 59.1198 47.059 59.1198C47.338 59.1198 47.527 58.9218 47.527 58.6338L47.527 57.8868L51.073 57.8868L51.073 58.6338C51.073 58.9128 51.271 59.1198 51.532 59.1198C51.811 59.1198 52 58.9218 52 58.6338L52 56.0148C52 55.7448 51.82 55.5468 51.559 55.5468C51.307 55.5468 51.118 55.7538 51.118 56.0148L51.118 56.9238L50.425 56.9238L50.425 55.4298C50.425 54.1968 49.669 53.3688 48.508 53.3688C47.356 53.3688 46.6 54.1968 46.6 55.4298ZM49.498 55.4298L49.498 56.9238L47.527 56.9238L47.527 55.4298C47.527 54.7728 47.887 54.4038 48.508 54.4038C49.138 54.4038 49.498 54.7728 49.498 55.4298Z" fill="#BFB33B"/>
<path d="M47.068 49.0992C46.816 49.0992 46.6 49.3152 46.6 49.5762L46.6 52.0332C46.6 52.3122 46.798 52.5192 47.059 52.5192C47.338 52.5192 47.527 52.3212 47.527 52.0332L47.527 51.2862L51.073 51.2862L51.073 52.0332C51.073 52.3122 51.271 52.5192 51.532 52.5192C51.811 52.5192 52 52.3212 52 52.0332L52 47.6052C52 47.3172 51.82 47.1282 51.541 47.1282L50.443 47.1282C50.173 47.1282 49.975 47.3352 49.975 47.6142C49.975 47.8932 50.173 48.0912 50.443 48.0912L51.073 48.0912L51.073 50.3232L47.527 50.3232L47.527 49.5762C47.527 49.3152 47.32 49.0992 47.068 49.0992Z" fill="#BFB33B"/>
<path d="M51.073 40.3009L51.073 41.0389L47.014 42.7129C46.744 42.8119 46.6 43.0009 46.6 43.2619L46.6 45.1069C46.6 45.3859 46.798 45.5929 47.059 45.5929C47.338 45.5929 47.527 45.3949 47.527 45.1069L47.527 44.0899L51.073 45.5479L51.073 46.2679C51.073 46.5469 51.271 46.7539 51.532 46.7539C51.811 46.7539 52 46.5559 52 46.2679L52 44.0629C52 43.7929 51.82 43.5949 51.559 43.5949C51.307 43.5949 51.118 43.7929 51.118 44.0629L51.118 44.6299L50.335 44.3149L50.335 42.2809L51.118 41.9659L51.118 42.5149C51.118 42.7759 51.307 42.9739 51.559 42.9739C51.82 42.9739 52 42.7849 52 42.5149L52 40.3009C52 40.0219 51.811 39.8149 51.532 39.8149C51.271 39.8149 51.073 40.0219 51.073 40.3009ZM49.489 43.9729L47.824 43.2979L49.489 42.6229L49.489 43.9729Z" fill="#BFB33B"/>
<path d="M46.6 32.0463L46.6 34.5033C46.6 34.7823 46.798 34.9893 47.059 34.9893C47.338 34.9893 47.527 34.7913 47.527 34.5033L47.527 33.7653L50.722 33.7653L46.816 37.2933C46.681 37.4193 46.6 37.5813 46.6 37.7703L46.6 38.8233C46.6 39.1023 46.798 39.3093 47.059 39.3093C47.338 39.3093 47.527 39.1113 47.527 38.8233L47.527 38.0763L51.073 38.0763L51.073 38.8233C51.073 39.1023 51.271 39.3093 51.532 39.3093C51.811 39.3093 52 39.1113 52 38.8233L52 36.3663C52 36.0873 51.811 35.8803 51.532 35.8803C51.271 35.8803 51.073 36.0873 51.073 36.3663L51.073 37.1133L48.409 37.1133L51.811 34.0533C52.306 33.6213 52.036 32.8023 51.361 32.8023L47.527 32.8023L47.527 32.0463C47.527 31.7673 47.338 31.5603 47.059 31.5603C46.798 31.5603 46.6 31.7673 46.6 32.0463Z" fill="#BFB33B"/>
<path d="M46.6 25.9923L46.6 30.4653C46.6 30.7623 46.789 30.9603 47.077 30.9603L48.508 30.9603C48.778 30.9603 48.976 30.7623 48.976 30.4833C48.976 30.2043 48.787 29.9973 48.508 29.9973L47.527 29.9973L47.527 28.7103L51.073 28.7103L51.073 29.5023C51.073 29.7813 51.271 29.9883 51.532 29.9883C51.811 29.9883 52 29.7903 52 29.5023L52 26.9553C52 26.6763 51.811 26.4693 51.532 26.4693C51.271 26.4693 51.073 26.6763 51.073 26.9553L51.073 27.7473L47.527 27.7473L47.527 26.4603L48.508 26.4603C48.778 26.4603 48.976 26.2623 48.976 25.9833C48.976 25.7043 48.787 25.4973 48.508 25.4973L47.077 25.4973C46.789 25.4973 46.6 25.6953 46.6 25.9923Z" fill="#BFB33B"/>
<path d="M50.38 19.134C49.642 19.143 49.156 19.719 48.94 21.033L48.751 22.158C48.625 22.932 48.463 23.175 48.157 23.175C47.743 23.175 47.446 22.608 47.455 21.708C47.464 21.312 47.509 20.952 47.59 20.682C47.689 20.745 47.806 20.781 47.923 20.781C48.337 20.781 48.598 20.475 48.598 20.043C48.598 19.62 48.292 19.314 47.878 19.314C47.131 19.314 46.51 20.403 46.51 21.735C46.51 23.175 47.203 24.174 48.211 24.174C48.967 24.174 49.453 23.625 49.66 22.365L49.849 21.249C49.984 20.394 50.146 20.133 50.425 20.133C50.839 20.142 51.145 20.754 51.154 21.735C51.163 22.338 51.028 22.896 50.848 23.265C50.74 23.157 50.587 23.094 50.425 23.094C50.038 23.094 49.75 23.4 49.75 23.823C49.75 24.246 50.047 24.561 50.47 24.561C51.352 24.561 52.09 23.283 52.09 21.717C52.09 20.214 51.397 19.134 50.38 19.134Z" fill="#BFB33B"/>
<path d="M28.068 132.265C27.816 132.265 27.6 132.481 27.6 132.742L27.6 135.199C27.6 135.478 27.798 135.685 28.059 135.685C28.338 135.685 28.527 135.487 28.527 135.199L28.527 134.452L32.073 134.452L32.073 135.199C32.073 135.478 32.271 135.685 32.532 135.685C32.811 135.685 33 135.487 33 135.199L33 130.771C33 130.483 32.82 130.294 32.541 130.294L31.443 130.294C31.173 130.294 30.975 130.501 30.975 130.78C30.975 131.059 31.173 131.257 31.443 131.257L32.073 131.257L32.073 133.489L28.527 133.489L28.527 132.742C28.527 132.481 28.32 132.265 28.068 132.265Z" fill="#BFB33B"/>
<path d="M27.6 126.049L27.6 129.046C27.6 129.325 27.798 129.532 28.059 129.532C28.338 129.532 28.527 129.334 28.527 129.046L28.527 128.029L32.073 128.029L32.073 129.046C32.073 129.325 32.271 129.532 32.532 129.532C32.811 129.532 33 129.334 33 129.046L33 126.049C33 125.77 32.811 125.563 32.532 125.563C32.271 125.563 32.073 125.77 32.073 126.049L32.073 127.066L28.527 127.066L28.527 126.049C28.527 125.77 28.338 125.563 28.059 125.563C27.798 125.563 27.6 125.77 27.6 126.049Z" fill="#BFB33B"/>
<path d="M27.6 118.653L27.6 120.813C27.6 121.083 27.789 121.281 28.041 121.281C28.311 121.281 28.491 121.083 28.491 120.813L28.491 120.345L31.533 121.614L28.491 122.892L28.491 122.424C28.491 122.145 28.311 121.956 28.041 121.956C27.789 121.956 27.6 122.154 27.6 122.424L27.6 124.575C27.6 124.854 27.798 125.061 28.059 125.061C28.338 125.061 28.527 124.863 28.527 124.575L28.527 123.891L32.694 122.109C32.919 122.01 33.054 121.857 33.054 121.623C33.054 121.389 32.928 121.218 32.703 121.128L28.527 119.346L28.527 118.653C28.527 118.365 28.338 118.167 28.059 118.167C27.798 118.167 27.6 118.374 27.6 118.653Z" fill="#BFB33B"/>
<path d="M27.6 114.175L27.6 117.172C27.6 117.451 27.798 117.658 28.059 117.658C28.338 117.658 28.527 117.46 28.527 117.172L28.527 116.155L32.073 116.155L32.073 117.172C32.073 117.451 32.271 117.658 32.532 117.658C32.811 117.658 33 117.46 33 117.172L33 114.175C33 113.896 32.811 113.689 32.532 113.689C32.271 113.689 32.073 113.896 32.073 114.175L32.073 115.192L28.527 115.192L28.527 114.175C28.527 113.896 28.338 113.689 28.059 113.689C27.798 113.689 27.6 113.896 27.6 114.175Z" fill="#BFB33B"/>
<path d="M27.6 105.465L27.6 107.922C27.6 108.201 27.798 108.408 28.059 108.408C28.338 108.408 28.527 108.21 28.527 107.922L28.527 107.184L31.722 107.184L27.816 110.712C27.681 110.838 27.6 111 27.6 111.189L27.6 112.242C27.6 112.521 27.798 112.728 28.059 112.728C28.338 112.728 28.527 112.53 28.527 112.242L28.527 111.495L32.073 111.495L32.073 112.242C32.073 112.521 32.271 112.728 32.532 112.728C32.811 112.728 33 112.53 33 112.242L33 109.785C33 109.506 32.811 109.299 32.532 109.299C32.271 109.299 32.073 109.506 32.073 109.785L32.073 110.532L29.409 110.532L32.811 107.472C33.306 107.04 33.036 106.221 32.361 106.221L28.527 106.221L28.527 105.465C28.527 105.186 28.338 104.979 28.059 104.979C27.798 104.979 27.6 105.186 27.6 105.465Z" fill="#BFB33B"/>
<path d="M30.516 98.8798C30.246 98.8798 30.057 99.0778 30.057 99.3568L30.057 101.004C30.057 101.274 30.246 101.481 30.516 101.481C30.786 101.481 30.984 101.283 30.984 101.004L30.984 99.8248L31.632 99.8248C31.938 100.284 32.109 100.833 32.109 101.364C32.109 102.525 31.335 103.308 30.3 103.308C29.256 103.308 28.491 102.534 28.491 101.256C28.491 100.959 28.536 100.626 28.626 100.311C28.68 100.428 28.815 100.509 29.013 100.509C29.382 100.5 29.634 100.194 29.643 99.7888C29.634 99.3568 29.337 99.0058 28.878 99.0148C28.518 99.0058 28.167 99.2308 27.942 99.5728C27.627 100.041 27.51 100.734 27.51 101.301C27.51 103.101 28.707 104.334 30.282 104.334C31.893 104.334 33.09 103.029 33.09 101.427C33.09 100.896 32.964 100.356 32.676 99.8248C32.901 99.7888 33.054 99.5998 33.054 99.3478C33.054 99.0778 32.856 98.8798 32.586 98.8798L30.525 98.8798L30.516 98.8798Z" fill="#BFB33B"/>
<path d="M27.6 85.0608L27.6 87.1308C27.6 87.4008 27.78 87.5898 28.032 87.5898C28.293 87.5898 28.473 87.4008 28.473 87.1308L28.473 86.7168L31.551 87.8058L28.464 89.1198L28.464 88.7418C28.464 88.4808 28.275 88.2828 28.032 88.2918C27.789 88.2918 27.6 88.4808 27.6 88.7418L27.6 90.7038C27.6 90.9648 27.78 91.1448 28.032 91.1538C28.293 91.1538 28.464 90.9648 28.464 90.7038L28.464 90.3348L31.551 91.6398L28.473 92.7378L28.473 92.3058C28.473 92.0448 28.293 91.8468 28.032 91.8468C27.78 91.8468 27.6 92.0358 27.6 92.3058L27.6 94.3758C27.6 94.6548 27.789 94.8528 28.05 94.8528C28.32 94.8528 28.509 94.6548 28.509 94.3758L28.509 93.7008L32.694 92.1258C32.946 92.0358 33.054 91.8918 33.054 91.6488C33.054 91.4148 32.937 91.2618 32.694 91.1628L29.121 89.7228L32.694 88.2738C32.937 88.1838 33.054 88.0398 33.054 87.7968C33.054 87.5628 32.946 87.4188 32.694 87.3198L28.509 85.7538L28.509 85.0608C28.509 84.7908 28.32 84.5838 28.05 84.5838C27.789 84.5838 27.6 84.7818 27.6 85.0608Z" fill="#BFB33B"/>
<path d="M27.6 80.61L27.6 83.607C27.6 83.886 27.798 84.093 28.059 84.093C28.338 84.093 28.527 83.895 28.527 83.607L28.527 82.59L32.073 82.59L32.073 83.607C32.073 83.886 32.271 84.093 32.532 84.093C32.811 84.093 33 83.895 33 83.607L33 80.61C33 80.331 32.811 80.124 32.532 80.124C32.271 80.124 32.073 80.331 32.073 80.61L32.073 81.627L28.527 81.627L28.527 80.61C28.527 80.331 28.338 80.124 28.059 80.124C27.798 80.124 27.6 80.331 27.6 80.61Z" fill="#BFB33B"/>
<path d="M27.6 74.2213L27.6 78.6943C27.6 78.9913 27.789 79.1893 28.077 79.1893L29.508 79.1893C29.778 79.1893 29.976 78.9913 29.976 78.7123C29.976 78.4333 29.787 78.2263 29.508 78.2263L28.527 78.2263L28.527 76.9393L32.073 76.9393L32.073 77.7313C32.073 78.0103 32.271 78.2173 32.532 78.2173C32.811 78.2173 33 78.0193 33 77.7313L33 75.1843C33 74.9053 32.811 74.6983 32.532 74.6983C32.271 74.6983 32.073 74.9053 32.073 75.1843L32.073 75.9763L28.527 75.9763L28.527 74.6893L29.508 74.6893C29.778 74.6893 29.976 74.4913 29.976 74.2123C29.976 73.9333 29.787 73.7263 29.508 73.7263L28.077 73.7263C27.789 73.7263 27.6 73.9243 27.6 74.2213Z" fill="#BFB33B"/>
<path d="M32.073 65.662L32.073 66.409L28.527 66.409L28.527 65.662C28.527 65.383 28.338 65.176 28.059 65.176C27.798 65.176 27.6 65.383 27.6 65.662L27.6 68.119C27.6 68.398 27.798 68.605 28.059 68.605C28.338 68.605 28.527 68.407 28.527 68.119L28.527 67.372L29.715 67.372L29.715 70.603L28.527 70.603L28.527 69.856C28.527 69.577 28.338 69.37 28.059 69.37C27.798 69.37 27.6 69.577 27.6 69.856L27.6 72.313C27.6 72.592 27.798 72.799 28.059 72.799C28.338 72.799 28.527 72.601 28.527 72.313L28.527 71.566L32.073 71.566L32.073 72.313C32.073 72.592 32.271 72.799 32.532 72.799C32.811 72.799 33 72.601 33 72.313L33 69.856C33 69.577 32.811 69.37 32.532 69.37C32.271 69.37 32.073 69.577 32.073 69.856L32.073 70.603L30.642 70.603L30.642 67.372L32.073 67.372L32.073 68.119C32.073 68.398 32.271 68.605 32.532 68.605C32.811 68.605 33 68.407 33 68.119L33 65.662C33 65.383 32.811 65.176 32.532 65.176C32.271 65.176 32.073 65.383 32.073 65.662Z" fill="#BFB33B"/>
<path d="M27.6 57.3756L27.6 60.5796C27.6 60.8586 27.798 61.0656 28.059 61.0656C28.338 61.0656 28.527 60.8676 28.527 60.5796L28.527 59.8326L32.073 59.8326L32.073 60.5796C32.073 60.8586 32.271 61.0656 32.532 61.0656C32.811 61.0656 33 60.8676 33 60.5796L33 57.9606C33 57.6906 32.82 57.4926 32.559 57.4926C32.307 57.4926 32.118 57.6996 32.118 57.9606L32.118 58.8696L31.425 58.8696L31.425 57.3756C31.425 56.1426 30.669 55.3146 29.508 55.3146C28.356 55.3146 27.6 56.1426 27.6 57.3756ZM30.498 57.3756L30.498 58.8696L28.527 58.8696L28.527 57.3756C28.527 56.7186 28.887 56.3496 29.508 56.3496C30.138 56.3496 30.498 56.7186 30.498 57.3756Z" fill="#BFB33B"/>
<path d="M28.068 51.045C27.816 51.045 27.6 51.261 27.6 51.522L27.6 53.979C27.6 54.258 27.798 54.465 28.059 54.465C28.338 54.465 28.527 54.267 28.527 53.979L28.527 53.232L32.073 53.232L32.073 53.979C32.073 54.258 32.271 54.465 32.532 54.465C32.811 54.465 33 54.267 33 53.979L33 49.551C33 49.263 32.82 49.074 32.541 49.074L31.443 49.074C31.173 49.074 30.975 49.281 30.975 49.56C30.975 49.839 31.173 50.037 31.443 50.037L32.073 50.037L32.073 52.269L28.527 52.269L28.527 51.522C28.527 51.261 28.32 51.045 28.068 51.045Z" fill="#BFB33B"/>
<path d="M32.073 42.2467L32.073 42.9847L28.014 44.6587C27.744 44.7577 27.6 44.9467 27.6 45.2077L27.6 47.0527C27.6 47.3317 27.798 47.5387 28.059 47.5387C28.338 47.5387 28.527 47.3407 28.527 47.0527L28.527 46.0357L32.073 47.4937L32.073 48.2137C32.073 48.4927 32.271 48.6997 32.532 48.6997C32.811 48.6997 33 48.5017 33 48.2137L33 46.0087C33 45.7387 32.82 45.5407 32.559 45.5407C32.307 45.5407 32.118 45.7387 32.118 46.0087L32.118 46.5757L31.335 46.2607L31.335 44.2267L32.118 43.9117L32.118 44.4607C32.118 44.7217 32.307 44.9197 32.559 44.9197C32.82 44.9197 33 44.7307 33 44.4607L33 42.2467C33 41.9677 32.811 41.7607 32.532 41.7607C32.271 41.7607 32.073 41.9677 32.073 42.2467ZM30.489 45.9187L28.824 45.2437L30.489 44.5687L30.489 45.9187Z" fill="#BFB33B"/>
<path d="M27.6 33.9921L27.6 36.4491C27.6 36.7281 27.798 36.9351 28.059 36.9351C28.338 36.9351 28.527 36.7371 28.527 36.4491L28.527 35.7111L31.722 35.7111L27.816 39.2391C27.681 39.3651 27.6 39.5271 27.6 39.7161L27.6 40.7691C27.6 41.0481 27.798 41.2551 28.059 41.2551C28.338 41.2551 28.527 41.0571 28.527 40.7691L28.527 40.0221L32.073 40.0221L32.073 40.7691C32.073 41.0481 32.271 41.2551 32.532 41.2551C32.811 41.2551 33 41.0571 33 40.7691L33 38.3121C33 38.0331 32.811 37.8261 32.532 37.8261C32.271 37.8261 32.073 38.0331 32.073 38.3121L32.073 39.0591L29.409 39.0591L32.811 35.9991C33.306 35.5671 33.036 34.7481 32.361 34.7481L28.527 34.7481L28.527 33.9921C28.527 33.7131 28.338 33.5061 28.059 33.5061C27.798 33.5061 27.6 33.7131 27.6 33.9921Z" fill="#BFB33B"/>
<path d="M27.6 27.9381L27.6 32.4111C27.6 32.7081 27.789 32.9061 28.077 32.9061L29.508 32.9061C29.778 32.9061 29.976 32.7081 29.976 32.4291C29.976 32.1501 29.787 31.9431 29.508 31.9431L28.527 31.9431L28.527 30.6561L32.073 30.6561L32.073 31.4481C32.073 31.7271 32.271 31.9341 32.532 31.9341C32.811 31.9341 33 31.7361 33 31.4481L33 28.9011C33 28.6221 32.811 28.4151 32.532 28.4151C32.271 28.4151 32.073 28.6221 32.073 28.9011L32.073 29.6931L28.527 29.6931L28.527 28.4061L29.508 28.4061C29.778 28.4061 29.976 28.2081 29.976 27.9291C29.976 27.6501 29.787 27.4431 29.508 27.4431L28.077 27.4431C27.789 27.4431 27.6 27.6411 27.6 27.9381Z" fill="#BFB33B"/>
<path d="M31.38 21.0798C30.642 21.0888 30.156 21.6648 29.94 22.9788L29.751 24.1038C29.625 24.8778 29.463 25.1208 29.157 25.1208C28.743 25.1208 28.446 24.5538 28.455 23.6538C28.464 23.2578 28.509 22.8978 28.59 22.6278C28.689 22.6908 28.806 22.7268 28.923 22.7268C29.337 22.7268 29.598 22.4208 29.598 21.9888C29.598 21.5658 29.292 21.2598 28.878 21.2598C28.131 21.2598 27.51 22.3488 27.51 23.6808C27.51 25.1208 28.203 26.1198 29.211 26.1198C29.967 26.1198 30.453 25.5708 30.66 24.3108L30.849 23.1948C30.984 22.3398 31.146 22.0788 31.425 22.0788C31.839 22.0878 32.145 22.6998 32.154 23.6808C32.163 24.2838 32.028 24.8418 31.848 25.2108C31.74 25.1028 31.587 25.0398 31.425 25.0398C31.038 25.0398 30.75 25.3458 30.75 25.7688C30.75 26.1918 31.047 26.5068 31.47 26.5068C32.352 26.5068 33.09 25.2288 33.09 23.6628C33.09 22.1598 32.397 21.0798 31.38 21.0798Z" fill="#BFB33B"/>
</svg>
