<svg width="91" height="140" viewBox="0 0 91 140" fill="none" xmlns="http://www.w3.org/2000/svg">
<path d="M38.168 6.31656C38.168 3.00285 40.8543 0.316559 44.168 0.316559H60.168C61.7047 0.316559 63.1065 0.894268 64.168 1.84435C65.2295 0.894268 66.6313 0.316559 68.168 0.316559H84.168C87.4817 0.316559 90.168 3.00285 90.168 6.31656L90.168 132.317C90.168 135.63 87.4817 138.317 84.168 138.317H68.168C66.6313 138.317 65.2295 137.739 64.168 136.789C63.1065 137.739 61.7047 138.317 60.168 138.317H44.168C40.8543 138.317 38.168 135.63 38.168 132.317L38.168 49.6256L27.7923 133.304C27.3846 136.592 24.3881 138.927 21.0996 138.52L18.1224 138.151C16.6878 137.973 15.4345 137.302 14.5113 136.329C13.2513 137.891 11.2372 138.785 9.09961 138.52L6.12241 138.151C2.83389 137.743 0.49857 134.746 0.906331 131.458L14.073 25.271C14.4807 21.9825 17.4772 19.6471 20.7657 20.0549L23.7429 20.4241C25.1775 20.602 26.4308 21.2725 27.354 22.2451C28.614 20.6838 30.6281 19.7899 32.7657 20.0549L35.7429 20.4241C36.6329 20.5344 37.4531 20.8344 38.168 21.2785V6.31656Z" fill="#FFFEF9"/>
<path fill-rule="evenodd" clip-rule="evenodd" d="M64.168 1.84435C63.1065 0.894268 61.7047 0.316559 60.168 0.316559H44.168C40.8543 0.316559 38.168 3.00285 38.168 6.31656V21.2785C37.4531 20.8344 36.6329 20.5344 35.7429 20.4241L32.7657 20.0549C30.6281 19.7899 28.614 20.6838 27.354 22.2451C26.4308 21.2725 25.1775 20.602 23.7429 20.4241L20.7657 20.0549C17.4772 19.6471 14.4807 21.9825 14.073 25.271L0.906331 131.458C0.49857 134.746 2.83389 137.743 6.12241 138.151L9.09961 138.52C11.2372 138.785 13.2513 137.891 14.5113 136.329C15.4345 137.302 16.6878 137.973 18.1224 138.151L21.0996 138.52C24.3881 138.927 27.3846 136.592 27.7923 133.304L38.168 49.6256L38.168 132.317C38.168 135.63 40.8543 138.317 44.168 138.317H60.168C61.7047 138.317 63.1065 137.739 64.168 136.789C65.2295 137.739 66.6313 138.317 68.168 138.317H84.168C87.4817 138.317 90.168 135.63 90.168 132.317L90.168 6.31656C90.168 3.00285 87.4817 0.316559 84.168 0.316559H68.168C66.6313 0.316559 65.2295 0.894268 64.168 1.84435ZM60.168 4.31656H44.168C43.0634 4.31656 42.168 5.21199 42.168 6.31656L42.168 132.317C42.168 133.421 43.0634 134.317 44.168 134.317H60.168C61.2726 134.317 62.168 133.421 62.168 132.317L62.168 6.31656C62.168 5.21199 61.2726 4.31656 60.168 4.31656ZM66.168 132.317C66.168 133.421 67.0634 134.317 68.168 134.317H84.168C85.2726 134.317 86.168 133.421 86.168 132.317L86.168 6.31656C86.168 5.21199 85.2726 4.31656 84.168 4.31656H68.168C67.0634 4.31656 66.168 5.21199 66.168 6.31656L66.168 132.317ZM23.2507 24.3937L20.2735 24.0245C19.1773 23.8886 18.1785 24.667 18.0426 25.7632L4.87593 131.95C4.74001 133.046 5.51845 134.045 6.61463 134.181L9.59182 134.55C10.688 134.686 11.6868 133.908 11.8227 132.811L24.9894 26.6246C25.1253 25.5284 24.3469 24.5296 23.2507 24.3937ZM35.2507 24.3937L32.2735 24.0245C31.1773 23.8886 30.1785 24.667 30.0426 25.7632L16.8759 131.95C16.74 133.046 17.5185 134.045 18.6146 134.181L21.5918 134.55C22.688 134.686 23.6868 133.908 23.8227 132.811L36.9894 26.6246C37.1253 25.5284 36.3469 24.5296 35.2507 24.3937Z" fill="#BFB33B"/>
</svg>
