<svg width="74" height="94" viewBox="0 0 74 94" fill="none" xmlns="http://www.w3.org/2000/svg">
<path d="M1.17502 5.02527C1.42368 4.45801 1.86923 4.0478 2.30349 3.7524C2.78375 3.4257 3.38679 3.14636 4.08747 2.89874C5.4909 2.40278 7.50784 1.95795 10.2686 1.58009C15.8046 0.822386 24.5833 0.301819 37.9957 0.301819C51.4061 0.301819 60.0228 0.822165 65.3561 1.58119C68.0129 1.95929 69.9312 2.40664 71.2429 2.91403C71.8971 3.1671 72.4708 3.46147 72.9205 3.82106C73.319 4.13971 73.711 4.58492 73.8838 5.17689C73.9567 5.36868 74.0093 5.61173 73.9933 5.89137C73.9884 5.97801 73.9774 6.06176 73.9613 6.14261C73.9332 24.2031 72.2956 44.556 69.8024 54.4534C69.2047 56.8263 68.3743 58.5083 66.6159 59.4613C65.8021 59.9025 64.8864 60.1317 63.9172 60.2832C62.9636 60.4322 61.8446 60.5211 60.5888 60.6208L60.5417 60.6246L60.1092 60.659C59.8234 67.4062 59.3502 85.7678 59.3502 87.0273C59.3502 88.2095 58.9603 89.453 58.0767 90.4172C57.17 91.4069 55.8506 91.9841 54.2409 91.9841C50.9455 91.9841 48.9135 89.5846 48.9135 87.0273C48.9135 86.1937 48.7091 79.4394 48.5023 72.8377C48.3994 69.5492 48.2964 66.3147 48.2192 63.9022L48.1405 61.4519C47.642 61.4854 47.0642 61.5237 46.4706 61.562C45.6078 61.6177 44.6827 61.6754 43.9197 61.7176V88.18C43.9197 89.6532 43.443 91.0635 42.4136 92.1119C41.3769 93.1676 39.9203 93.7133 38.2389 93.7133C34.9173 93.7133 32.0577 91.5093 32.0577 88.18C32.0577 87.0577 31.8531 80.1203 31.6465 73.4126C31.5435 70.07 31.4406 66.7994 31.3633 64.3643C31.3292 63.2865 31.3 62.3724 31.2782 61.6883C30.0995 61.6134 28.8844 61.5415 27.8684 61.4832C27.5429 61.4645 27.238 61.4473 26.9616 61.4317L26.8825 63.9021C26.8055 66.3145 26.7028 69.5491 26.6001 72.8376C26.394 79.4392 26.19 86.1937 26.19 87.0273C26.19 89.6432 23.987 91.9841 20.7515 91.9841C19.1405 91.9841 17.8256 91.4055 16.9263 90.4086C16.0523 89.4398 15.6791 88.1971 15.6791 87.0273C15.6791 85.4441 15.2018 67.6236 14.9156 60.6699C12.7158 60.4981 10.8307 60.2857 9.32166 59.6086C7.32933 58.7145 6.1317 57.113 5.23174 54.591L5.21544 54.5454L5.20214 54.4988C1.87548 42.8464 1.04586 23.1532 1.031 6.14179C1.0149 6.06119 1.00402 5.97771 0.99909 5.89137C0.982361 5.59861 1.04079 5.34595 1.11908 5.15023C1.13696 5.10553 1.15582 5.06387 1.17502 5.02527Z" fill="#BFB33B"/>
<path d="M6.24662 5.76113C5.95866 5.70576 5.69952 5.65113 5.46655 5.59779C6.60048 5.24027 8.28292 4.87697 10.6751 4.54956C16.0121 3.81909 24.6336 3.29898 37.9957 3.29898C51.3599 3.29898 59.8105 3.81931 64.9339 4.54845C67.1586 4.86507 68.6992 5.21359 69.7209 5.55196C69.4398 5.61967 69.1166 5.68978 68.7456 5.76113C64.8388 6.51243 56.2216 7.29519 37.4962 7.29519C18.7705 7.29519 10.1533 6.51243 6.24662 5.76113Z" fill="#FFFEF9"/>
<path fill-rule="evenodd" clip-rule="evenodd" d="M61.4348 9.63227L60.4302 43.799L63.426 43.8871L64.4409 9.37326C63.5366 9.46383 62.5379 9.55064 61.4348 9.63227ZM9.58142 9.27077L9.58134 43.8431L12.5785 43.8431L12.5786 9.55631C11.4681 9.46596 10.4731 9.37021 9.58142 9.27077ZM17.8088 9.892V43.8431H20.806V10.0228C19.7489 9.98281 18.751 9.93905 17.8088 9.892ZM52.3654 10.086V43.8431H55.3625V9.97575C54.415 10.0158 53.4169 10.0527 52.3654 10.086ZM26.0363 10.1772V43.8431H29.0335V10.2326C27.9952 10.2169 26.9966 10.1984 26.0363 10.1772ZM34.6752 10.2862V43.8431H37.6724V10.2923L37.4962 10.2923C36.5299 10.2923 35.5898 10.2903 34.6752 10.2862ZM44.1368 10.2566V43.8431H47.1339V10.2134C46.1711 10.2304 45.1725 10.2449 44.1368 10.2566Z" fill="#FFFEF9"/>
</svg>
