<svg width="116" height="122" viewBox="0 0 116 122" fill="none" xmlns="http://www.w3.org/2000/svg">
<path d="M36.6494 59.8018H79.6494V109.802H36.6494V59.8018Z" fill="#BFB33B"/>
<path fill-rule="evenodd" clip-rule="evenodd" d="M53.972 1.80182C17.5688 1.80182 12.1978 19.9275 2.64941 60.3618H37.3369H78.4994H113.649C104.101 16.4418 93.3591 1.80182 53.972 1.80182ZM37.3369 109.162H15.1817V119.802H101.714V109.162H78.4994H37.3369ZM57.2244 85.8018C53.5244 86.3018 53.0768 88.8018 53.9869 91.3018C55.1725 94.5587 58.1494 94.8018 59.9994 92.8018C61.8494 90.8018 60.9244 85.3018 57.2244 85.8018Z" fill="#FFFEF9"/>
<path fill-rule="evenodd" clip-rule="evenodd" d="M4.54576 58.8618H111.784C107.125 37.9196 102.16 24.2184 93.9192 15.6517C85.5369 6.9385 73.511 3.30182 53.972 3.30182C36.0445 3.30182 26.1485 7.74495 19.4463 16.8107C16.0394 21.4189 13.3957 27.3038 11.0033 34.6198C8.75757 41.4872 6.7584 49.5335 4.54576 58.8618ZM17.0339 15.0272C24.5051 4.92154 35.4962 0.301819 53.972 0.301819C73.82 0.301819 86.8586 3.98514 96.0812 13.5719C105.209 23.0597 110.343 38.0944 115.115 60.0432L115.511 61.8618H79.9994V107.662H103.214V121.302H13.6816V107.662H35.8369V61.8618H0.753906L1.18953 60.0171C3.57472 49.9166 5.71412 41.142 8.15185 33.6874C10.5896 26.2327 13.3541 20.0047 17.0339 15.0272ZM38.8369 61.8618V107.662H76.9994V61.8618H38.8369ZM100.214 110.662H16.6816V118.302H100.214V110.662ZM62.3507 91.0115C62.2058 92.0004 61.8278 93.0341 61.1005 93.8204C59.8872 95.1321 58.1781 95.8292 56.4584 95.4957C54.7066 95.156 53.308 93.822 52.5774 91.8149C52.0597 90.3929 51.8168 88.6887 52.5144 87.1742C53.2577 85.5606 54.8498 84.6091 57.0235 84.3153C58.3593 84.1348 59.5301 84.5015 60.4332 85.2459C61.3004 85.9608 61.8397 86.9529 62.1314 87.9386C62.425 88.9302 62.4976 90.0092 62.3507 91.0115ZM58.525 87.5608C58.2717 87.3521 57.9395 87.2188 57.4253 87.2883C55.8989 87.4946 55.4172 88.043 55.2393 88.4294C55.0156 88.9149 55.004 89.7107 55.3964 90.7887C55.8514 92.0385 56.534 92.4545 57.0295 92.5506C57.5572 92.6529 58.2616 92.4715 58.8982 91.7833C59.096 91.5695 59.2961 91.1657 59.3824 90.5765C59.4668 90.0007 59.4238 89.3609 59.2548 88.7901C59.0841 88.2133 58.814 87.7991 58.525 87.5608Z" fill="#BFB33B"/>
</svg>
