<svg width="79" height="175" viewBox="0 0 79 175" fill="none" xmlns="http://www.w3.org/2000/svg">
<path d="M78.0954 85.8626H21.0955V89.5201C26.1519 89.1138 36.2648 88.301 42.7003 93.5841C49.1358 98.8672 45.918 120.812 45.918 120.812C27.0711 126.095 21.0957 139.532 21.0955 148.041C21.0952 158.607 24.3132 174.863 48.2164 174.863C72.1196 174.863 78.0954 165.516 78.0954 148.041C78.0954 132.997 65.6841 124.334 55.5712 120.812C54.9583 114.852 53.5487 99.4361 56.4906 93.5841C59.4325 87.732 71.2003 89.1138 78.0954 89.5201V85.8626Z" fill="#BFB33B"/>
<path d="M50.5024 136.084C50.8577 128.795 51.2631 121.006 51.619 113.15C52.4473 94.8704 53.0084 76.2233 52.0512 62.647C51.2999 51.9908 49.7443 43.1217 47.697 36.8242C47.0099 34.7107 45.831 31.2979 44.8816 29.0151C44.0461 27.0062 42.6216 23.5657 41.5405 21.1842C40.8057 19.5657 39.5148 16.5325 38.6511 14.6541C37.8609 12.9354 36.3358 10.1034 35.4275 8.11021C35.4174 8.08396 35.4055 8.05856 35.3921 8.03403C34.8851 6.96208 33.4505 4.67198 32.9376 3.55281C32.933 3.54147 32.9279 3.53027 32.9223 3.51923L32.9108 3.49657C32.575 2.83464 31.9254 1.55456 30.4626 2.13537C29.0004 2.71596 30.1161 4.57581 31.0615 5.04493C31.7542 5.3887 33.2048 4.21474 32.9376 3.55281C33.4505 4.67198 34.8851 6.96208 35.3921 8.03403C34.9078 7.14527 32.4029 7.38715 32.3385 8.9441C32.2724 10.544 33.7002 10.7954 34.7849 10.6479C36.2313 10.4513 35.9042 9.15622 35.4275 8.11021C36.3358 10.1034 37.8609 12.9354 38.6511 14.6541C37.5911 12.3471 35.001 14.1186 34.9587 15.1425C34.9058 16.4225 36.3018 17.4418 37.7508 17.1812C38.91 16.9727 39.252 15.9611 38.6511 14.6541C39.5148 16.5325 40.8057 19.5657 41.5405 21.1842C40.7959 19.5507 37.7462 20.1298 37.3955 21.6539C36.9572 23.559 38.34 24.8983 40.5201 24.3473C41.3474 24.1383 42.0432 22.2956 41.5405 21.1842C42.6216 23.5657 44.0461 27.0062 44.8816 29.0151C44.4111 27.8977 43.0918 27.1461 41.6348 27.5987C39.8137 28.1645 38.99 30.6947 41.4629 31.7585C43.9358 32.8224 45.4716 30.4599 44.8816 29.0151C45.831 31.2979 47.0099 34.7107 47.697 36.8242C47.3176 35.691 46.066 35.1542 44.6302 35.0948C42.8355 35.0206 42.2617 37.2326 42.69 38.5405C43.0093 39.5153 43.1641 40.1627 45.8676 39.954C48.0304 39.7869 47.9883 37.7979 47.697 36.8242C49.7443 43.1217 51.2999 51.9908 52.0512 62.647C53.0084 76.2233 52.4473 94.8704 51.619 113.15C51.3599 108.688 50.9737 104.061 50.4083 99.5118C50.2035 93.2754 49.9026 86.9942 49.4893 81.132C48.5542 67.87 42.1799 53.8306 34.1197 44.0167C32.8232 42.4381 31.4734 40.9285 30.0828 39.4958C28.4053 37.7675 26.6685 36.1511 24.8944 34.6604C23.1263 33.1748 21.3212 31.814 19.5007 30.5918C17.987 29.5755 16.4627 28.655 14.9403 27.8381C13.5333 27.0831 11.9879 27.0592 10.9655 28.3148C10.2079 29.2452 10.5404 29.9001 12.3351 29.9743C13.7709 30.0336 14.2936 28.9867 14.9403 27.8381C16.4627 28.655 17.987 29.5755 19.5007 30.5918C18.1669 30.9638 16.6027 31.1123 16.1909 32.3774C15.875 33.3477 16.8294 34.327 18.2651 34.3863C19.4137 34.4338 19.6782 32.0947 19.5007 30.5918C21.3212 31.814 23.1263 33.1748 24.8944 34.6604C24.0782 33.9856 22.5724 34.5644 21.8149 35.4947C21.1504 36.3106 21.0044 37.7049 22.4005 38.7242C23.2834 39.3689 24.7224 38.8202 25.3249 37.5629C25.775 36.6234 25.7734 35.4119 24.8944 34.6604C26.6685 36.1511 28.4053 37.7675 30.0828 39.4958C29.3035 39.6328 27.8303 40.1459 27.3595 40.5319C26.243 41.4474 25.8179 43.0324 26.8683 43.7169C27.7895 44.3173 29.1588 44.4527 29.7663 43.1957C30.2196 42.2576 30.3451 40.5306 30.0828 39.4958C31.4734 40.9285 32.8232 42.4381 34.1197 44.0167C33.5993 44.4226 32.1899 45.3831 31.8141 45.8446C31.0565 46.7749 30.5421 48.4113 32.0275 49.3793C33.0779 50.0638 34.0888 49.3987 34.593 48.2032C34.9916 47.2581 34.2951 44.9856 34.1197 44.0167C42.1799 53.8306 48.5542 67.87 49.4893 81.132C49.9026 86.9942 50.2035 93.2754 50.4083 99.5118C49.033 88.4473 46.5971 77.8473 42.3483 71.2208C40.7691 68.7577 38.6464 64.9156 35.5482 61.5821C34.3393 60.4095 31.7272 57.9324 30.3493 56.8797C28.6065 55.5485 27.0341 54.4183 24.3928 53.1076C24.298 53.0566 24.2063 53.0179 24.1177 52.9906C21.7285 51.9856 19.2484 51.2384 17.2896 50.981C14.1141 50.5638 10.9189 50.6222 9.07223 51.4744C9.04917 51.4823 9.02461 51.4939 8.99801 51.5095C7.16363 52.3951 4.60716 54.6213 3.43047 56.0875C2.39609 57.3763 1.88714 58.2672 1.88714 58.2672C1.11634 59.5176 1.80775 60.1873 2.88457 60.2318C4.32034 60.2912 4.91166 59.0335 4.41294 58.0513C3.91421 57.069 4.08044 57.3964 3.43047 56.0875C4.60716 54.6213 7.16363 52.3951 8.99801 51.5095C8.9451 52.7895 7.39028 55.6101 9.54392 55.6991C12.0565 55.803 11.4445 53.2134 10.3941 52.5289C9.41953 51.8938 9.36881 51.3736 9.07223 51.4744C10.9189 50.6222 14.1141 50.5638 17.2896 50.981C16.219 50.8404 15.8195 51.7875 15.4217 52.7309L15.4193 52.7367C15.0206 53.6819 15.2398 54.7917 16.0445 55.0062C16.6447 55.1663 18.1982 55.0953 18.2776 53.1754C18.345 51.5437 17.7634 51.0511 17.2896 50.981C19.2484 51.2384 21.7285 51.9856 24.1177 52.9906C23.1404 52.6898 22.5374 53.7785 22.1598 54.9385C21.8772 55.8064 21.695 57.4836 23.144 57.2229C24.593 56.9623 26.6287 54.4822 24.3928 53.1076C27.0341 54.4183 28.6065 55.5485 30.3493 56.8797C30.0856 56.8688 29.6314 56.8501 28.5149 57.7655C27.3984 58.681 27.2236 61.0864 27.9972 61.5905C28.7708 62.0947 29.8051 61.3447 30.2038 60.3996C30.6024 59.4545 31.3537 57.8829 30.3493 56.8797C31.7272 57.9324 34.3393 60.4095 35.5482 61.5821C34.9036 62.0897 33.2066 62.845 32.9166 64.3581C32.5509 66.2662 33.8743 67.2825 35.0041 66.0471C36.1338 64.8117 36.2776 63.6423 35.5482 61.5821C38.6464 64.9156 40.7691 68.7577 42.3483 71.2208C46.5971 77.8473 49.033 88.4473 50.4083 99.5118C50.8775 113.795 50.8431 127.843 50.5024 136.084Z" fill="#BFB33B"/>
<path fill-rule="evenodd" clip-rule="evenodd" d="M32.6881 6.24778C32.7008 6.27003 32.7135 6.29225 32.7263 6.31443C31.8341 6.68829 30.8975 7.48108 30.8396 8.88215C30.8137 9.51008 30.9317 10.1177 31.2396 10.6534C31.5487 11.1913 31.9921 11.5572 32.4542 11.7904C33.3239 12.2294 34.3025 12.2273 34.9868 12.1342C35.209 12.104 35.4331 12.0537 35.6512 11.9771C35.6826 12.0392 35.714 12.1011 35.7453 12.1628C35.765 12.2018 35.7847 12.2408 35.8044 12.2796C35.2271 12.5071 34.7156 12.8648 34.3267 13.2664C33.9576 13.6475 33.4927 14.285 33.4598 15.0806C33.4087 16.317 34.0632 17.3351 34.9069 17.951C35.7512 18.5675 36.876 18.8626 38.0162 18.6575C38.2527 18.6149 38.4826 18.549 38.7006 18.4595C38.7496 18.5717 38.7985 18.6837 38.8473 18.7955C38.2791 18.9113 37.7133 19.1375 37.2253 19.4795C36.6657 19.8717 36.1263 20.4798 35.9335 21.3176C35.6179 22.6894 35.9249 24.0995 36.9756 25.0395C38.0089 25.964 39.4575 26.163 40.8875 25.8016C41.2204 25.7175 41.5023 25.564 41.7362 25.3863C41.8224 25.5894 41.9083 25.7923 41.9935 25.9941C41.7287 26.0256 41.46 26.0822 41.1896 26.1663C39.7636 26.6093 38.6692 27.8299 38.4547 29.271C38.344 30.0151 38.4735 30.8077 38.9107 31.5222C39.3448 32.2316 40.0248 32.7729 40.8699 33.1365C42.3433 33.7703 43.7287 33.5856 44.7638 32.8989C44.8502 33.138 44.936 33.378 45.0209 33.6172C44.9095 33.6075 44.7997 33.6005 44.692 33.5961C43.0148 33.5268 41.9451 34.5886 41.4556 35.6903C40.9944 36.7281 40.9316 37.9913 41.2644 39.0073C41.2734 39.0349 41.2832 39.0665 41.2941 39.1014C41.4239 39.5171 41.7043 40.4156 42.5955 40.9668C43.4601 41.5015 44.6182 41.5549 45.9829 41.4495C46.4824 41.4109 46.9484 41.2997 47.3682 41.1097C48.8296 46.8542 49.9518 54.2001 50.5548 62.7525C50.9517 68.3828 51.0858 74.901 51.047 81.9159C51.0267 81.6184 51.0062 81.3219 50.9854 81.0265C50.0252 67.408 43.5047 53.0804 35.2787 43.0647C33.9558 41.454 32.5784 39.9135 31.159 38.4511C29.4468 36.687 27.6729 35.0359 25.8592 33.512C24.0517 31.9933 22.2036 30.5999 20.3366 29.3464C18.7842 28.3041 17.2176 27.3579 15.6494 26.5164C14.764 26.0413 13.7368 25.7413 12.6859 25.8275C11.5945 25.917 10.5747 26.4189 9.80215 27.3677C9.54147 27.6879 9.27159 28.1042 9.15034 28.5997C9.01571 29.1499 9.07277 29.7943 9.48467 30.3544C9.85248 30.8545 10.374 31.1077 10.8029 31.244C11.247 31.3852 11.7487 31.4513 12.273 31.473C13.4468 31.5215 14.3388 31.0868 15.0033 30.4105C15.1741 30.2367 15.3299 30.0453 15.4719 29.8491C15.6743 29.9654 15.8768 30.0835 16.0793 30.2035C15.535 30.5671 15.028 31.1034 14.7644 31.9131C14.3973 33.0407 14.8174 34.1005 15.5175 34.7912C16.2016 35.4663 17.173 35.8425 18.203 35.8851C19.0935 35.9219 19.7521 35.4596 20.1518 34.9455C20.5191 34.473 20.7195 33.9078 20.8371 33.4268C20.8411 33.4105 20.845 33.3941 20.8489 33.3777C21.0399 33.5189 21.2306 33.6617 21.4211 33.806C21.1351 34.0243 20.8743 34.274 20.6516 34.5475C20.1002 35.2247 19.7451 36.1605 19.8415 37.1751C19.9418 38.23 20.5137 39.204 21.5158 39.9357C22.4691 40.6317 23.6166 40.6055 24.515 40.2534C25.4113 39.9021 26.2 39.1899 26.6644 38.2381C26.8762 38.4367 27.0873 38.6372 27.2976 38.8394C26.9732 38.9919 26.6533 39.1711 26.4083 39.372C25.6175 40.0204 25.0176 40.9414 24.8281 41.9281C24.6301 42.9589 24.8867 44.2161 26.0492 44.9737C26.7204 45.4111 27.6245 45.7322 28.5698 45.6467C29.6058 45.5531 30.5741 44.9711 31.1167 43.8484C31.226 43.6221 31.3177 43.3782 31.3939 43.1254C31.5787 43.3356 31.7626 43.5472 31.9455 43.7602C31.7257 43.9261 31.4998 44.1015 31.298 44.2701C31.0961 44.4387 30.842 44.6627 30.6508 44.8974C30.1342 45.5318 29.6429 46.4649 29.582 47.5106C29.5148 48.6653 29.991 49.8427 31.2084 50.636C32.1662 51.2602 33.2554 51.3169 34.2015 50.8299C35.0206 50.4082 35.5845 49.6601 35.9292 48.8913C42.109 57.7388 46.7988 69.022 47.874 79.8407C46.7071 76.2621 45.3025 73.0495 43.6109 70.4111C43.3267 69.9679 43.0171 69.4657 42.6802 68.9194C41.2243 66.5582 39.2606 63.3732 36.6468 60.561L36.6203 60.5325L36.5924 60.5055C35.3998 59.3486 32.7216 56.8045 31.2597 55.6878C29.4814 54.3293 27.8275 53.1393 25.0786 51.7735C24.9399 51.7003 24.7945 51.6362 24.6426 51.5842C22.1941 50.5589 19.6031 49.7721 17.4848 49.4938C15.8299 49.2764 14.1454 49.1792 12.61 49.2534C11.1193 49.3255 9.65731 49.5637 8.48921 50.0916C8.42146 50.1192 8.36027 50.1488 8.306 50.178C7.23867 50.7001 6.04871 51.5561 5.00432 52.4308C3.9404 53.3219 2.92946 54.315 2.26045 55.1486C1.71305 55.8307 1.30161 56.4113 1.02363 56.8272C0.884568 57.0353 0.778671 57.2025 0.705636 57.321C0.66911 57.3803 0.640783 57.4274 0.620616 57.4614L0.598752 57.4986C0.080488 58.3485 -0.225619 59.4886 0.430069 60.5113C1.02624 61.4412 2.0735 61.6996 2.82245 61.7305C4.0247 61.7802 5.07208 61.2581 5.65087 60.3193C6.20318 59.4234 6.22466 58.3065 5.75024 57.3722C5.74699 57.3658 5.74378 57.3594 5.74059 57.3532C5.74013 57.3523 5.73968 57.3514 5.73923 57.3505C5.52748 56.9334 5.44023 56.7616 5.35397 56.5893C5.31378 56.509 5.2738 56.4286 5.22154 56.3232C5.69154 55.8295 6.27753 55.2788 6.91231 54.746C6.93457 55.1107 7.01597 55.5072 7.21503 55.8855C7.69035 56.7887 8.57859 57.1605 9.4818 57.1978C10.3514 57.2338 11.2018 57.0455 11.8587 56.4842C12.5273 55.913 12.7759 55.1433 12.8037 54.4716C12.8307 53.817 12.6586 53.1845 12.4037 52.666C12.3417 52.5399 12.2709 52.4126 12.1913 52.2872C12.3727 52.2718 12.5606 52.2593 12.7549 52.2499C13.1562 52.2305 13.5745 52.2247 14.0052 52.2315C13.7203 52.9489 13.6387 53.7628 13.8252 54.5091C14.0215 55.2946 14.5812 56.1685 15.6579 56.4556C16.2226 56.6062 17.1534 56.6512 18.0294 56.2112C19.0471 55.7001 19.7167 54.6744 19.7761 53.2373C19.7788 53.1733 19.7806 53.1099 19.7817 53.0469C20.2207 53.1709 20.6718 53.3105 21.1301 53.464C20.9635 53.8123 20.8346 54.1629 20.7333 54.4742C20.5595 55.008 20.357 55.9358 20.5322 56.8015C20.6249 57.2595 20.861 57.8727 21.4499 58.3061C22.0617 58.7564 22.7792 58.8126 23.4094 58.6993C24.0891 58.577 24.7149 58.228 25.2074 57.83C25.7107 57.4233 26.1787 56.8824 26.4928 56.2517C26.5255 56.1859 26.557 56.1183 26.5869 56.0488C26.9049 56.2501 27.2088 56.4515 27.5048 56.655C26.5677 57.4599 26.1634 58.7026 26.0563 59.6666C25.9984 60.1875 26.0118 60.7443 26.1364 61.2607C26.2506 61.7342 26.5202 62.4185 27.1781 62.8472C28.2031 63.5152 29.2997 63.2518 30.0116 62.8254C30.7139 62.4049 31.2737 61.7222 31.5857 60.9825C31.6039 60.9393 31.6246 60.8912 31.6471 60.8388C31.7202 60.6685 31.813 60.4526 31.9067 60.2075C32.3439 60.6085 32.7814 61.0169 33.1881 61.4008C33.1757 61.4107 33.1634 61.4207 33.1511 61.4308C32.4959 61.9652 31.6849 62.8148 31.4432 64.0758C31.2022 65.3331 31.4369 66.7395 32.4673 67.5567C33.0067 67.9846 33.6979 68.1749 34.4089 68.0502C35.0932 67.9301 35.6676 67.5441 36.1108 67.0594C36.4787 66.6571 36.7906 66.2289 37.0248 65.7589C38.1961 67.3716 39.1864 68.975 40.0634 70.3949C40.4214 70.9746 40.7606 71.5237 41.0854 72.0304C45.1297 78.3381 47.5372 88.6123 48.9112 99.6293C49.3771 113.86 49.3418 127.835 49.0038 136.016C48.8156 139.877 48.6413 143.601 48.4958 147.121L51.4932 147.245C51.6267 144.015 51.7846 140.612 51.9555 137.083L53.5508 137.11C53.6465 131.458 53.6722 122.682 53.1208 113.14C53.9468 94.8941 54.5102 76.1975 53.5473 62.5415C52.7911 51.8155 51.2217 42.8149 49.1233 36.3605C48.4326 34.236 47.2391 30.7779 46.2664 28.4391C46.2166 28.3192 46.1646 28.1941 46.1106 28.0643C45.2642 26.0281 43.9341 22.8285 42.9061 20.5641C42.6099 19.9117 42.1774 18.9226 41.7149 17.8651C41.1224 16.5103 40.4808 15.0431 40.0138 14.0275M36.8048 7.51544C37.2424 8.47362 37.8305 9.64033 38.4216 10.8074C38.4579 10.8791 38.4942 10.9508 38.5306 11.0225C38.5603 11.0812 38.59 11.1398 38.6197 11.1984C39.1402 12.2261 39.6499 13.236 40.0138 14.0275M36.7339 7.36312C36.7593 7.41256 36.783 7.46335 36.8048 7.51544L36.7339 7.36312ZM36.7339 7.36312C36.482 6.83619 36.0573 6.09079 35.6469 5.37615C35.615 5.32056 35.5832 5.26513 35.5515 5.21003C35.5234 5.16111 35.4954 5.11242 35.4676 5.06406C34.9731 4.2031 34.5332 3.42975 34.3095 2.9463C34.2941 2.91062 34.2775 2.87531 34.2598 2.84039M34.2598 2.84039L34.2483 2.81786C34.2415 2.80447 34.2342 2.78996 34.2265 2.77463C34.0664 2.4573 33.7038 1.73836 33.0824 1.20854C32.7295 0.907662 32.2636 0.638054 31.6793 0.533431C31.0914 0.428183 30.4926 0.509487 29.9089 0.741257C29.1972 1.02387 28.6268 1.55091 28.3808 2.30202C28.1554 2.98989 28.2726 3.65304 28.4475 4.13938C28.7802 5.06502 29.543 5.96605 30.3945 6.3886C31.0578 6.71774 31.7227 6.61018 32.1341 6.48088C32.3277 6.42003 32.5134 6.34012 32.6881 6.24778M29.0689 60.6094C29.0689 60.6094 29.0672 60.6026 29.0621 60.5915C29.0661 60.6044 29.0689 60.6094 29.0689 60.6094ZM23.886 54.6589C23.886 54.6692 23.885 54.6835 23.8819 54.7024C23.8741 54.7497 23.8536 54.8214 23.8073 54.9144C23.7755 54.9782 23.7354 55.0443 23.6881 55.1105C23.7375 54.9795 23.7882 54.8591 23.84 54.751C23.8557 54.7182 23.8711 54.6875 23.886 54.6589ZM33.1389 46.6425C33.1805 46.9067 33.2061 47.1405 33.2126 47.3364C33.2196 47.5474 33.201 47.6358 33.2009 47.6433C33.1266 47.814 33.0452 47.9422 32.9719 48.0306C32.9288 48.0826 32.893 48.1157 32.8676 48.1358C32.8612 48.1321 32.8541 48.1277 32.8463 48.1226C32.677 48.0123 32.6256 47.9258 32.6081 47.89C32.5887 47.8504 32.5709 47.7894 32.577 47.685C32.5913 47.4379 32.7361 47.0877 32.977 46.7918C32.979 46.79 33.0238 46.7422 33.1389 46.6425ZM28.6722 41.5098C28.615 41.9739 28.5136 42.34 28.4155 42.543C28.3804 42.6158 28.3533 42.6432 28.3454 42.6499C28.3408 42.6519 28.3274 42.6564 28.2997 42.6589C28.2483 42.6636 28.1605 42.6592 28.0416 42.6248C27.9524 42.5989 27.8598 42.5601 27.7712 42.5109C27.7721 42.5056 27.7731 42.5 27.7742 42.494C27.8137 42.2884 27.9842 41.9599 28.309 41.693C28.3044 41.6968 28.3052 41.6963 28.3123 41.6919C28.3313 41.6801 28.3959 41.6401 28.526 41.5773C28.5715 41.5553 28.6203 41.5328 28.6722 41.5098ZM23.9855 35.8663C24.0585 35.9521 24.1013 36.057 24.1161 36.1979C24.1373 36.399 24.0944 36.6593 23.972 36.9147C23.8321 37.2067 23.6065 37.3873 23.4204 37.4602C23.3362 37.4932 23.2862 37.4976 23.2626 37.4963C22.8888 37.2163 22.8375 36.9904 22.8281 36.8912C22.8146 36.75 22.8648 36.5806 22.9778 36.4419C23.1659 36.211 23.4788 36.0002 23.7743 35.9091C23.877 35.8775 23.9449 35.868 23.9855 35.8663ZM23.2459 37.4932C23.2459 37.4932 23.2489 37.4949 23.2558 37.4958C23.2494 37.4931 23.2459 37.4932 23.2459 37.4932ZM17.9515 32.5866C17.9426 32.6302 17.9331 32.6728 17.923 32.7141C17.9145 32.7487 17.9061 32.7807 17.8977 32.8101C17.8197 32.7825 17.7577 32.7512 17.7107 32.7217C17.7594 32.684 17.8346 32.6387 17.9515 32.5866ZM17.6199 32.8321C17.619 32.8354 17.618 32.8386 17.617 32.8417L17.6182 32.8377C17.6182 32.8377 17.6193 32.8342 17.6199 32.8321ZM46.2675 37.281C46.3025 37.4064 46.3329 37.5745 46.3389 37.7517C46.3455 37.944 46.3218 38.0954 46.2863 38.1971C46.255 38.2868 46.2226 38.3193 46.1978 38.3381C46.1724 38.3575 46.0598 38.4347 45.7519 38.4584C45.126 38.5068 44.7154 38.4994 44.4489 38.4683C44.3541 38.4573 44.2869 38.4443 44.2414 38.4332C44.2166 38.3686 44.1753 38.2568 44.1154 38.0736C44.0198 37.7819 44.0298 37.2851 44.1971 36.9085C44.2723 36.7392 44.35 36.6614 44.3907 36.6319C44.4133 36.6155 44.4526 36.5888 44.5681 36.5935C45.1335 36.6169 45.5725 36.7328 45.8625 36.885C46.1195 37.0199 46.2212 37.1579 46.2675 37.281ZM43.4943 29.5862C43.5033 29.6122 43.5228 29.6996 43.4868 29.847C43.4494 30 43.3649 30.1586 43.2442 30.283C43.1292 30.4015 42.9923 30.479 42.8349 30.5098C42.6825 30.5397 42.4295 30.5415 42.0555 30.3806C41.6641 30.2123 41.5198 30.0383 41.4697 29.9565C41.4227 29.8797 41.4083 29.8049 41.4221 29.7127C41.4565 29.4813 41.6846 29.1539 42.0797 29.0312C42.7735 28.8156 43.3106 29.1658 43.4943 29.5862ZM40.1744 21.8043C40.1859 21.8308 40.2134 21.9194 40.2097 22.0843C40.206 22.2486 40.1719 22.4371 40.11 22.6177C40.0618 22.7581 40.007 22.8647 39.962 22.9349C39.345 23.0488 39.0612 22.88 38.9759 22.8037C38.9012 22.7369 38.7406 22.5314 38.8505 22.02C38.8626 22.0051 38.8906 21.9758 38.9471 21.9362C39.0795 21.8434 39.2898 21.7553 39.5365 21.7193C39.7849 21.6831 39.9803 21.7124 40.0917 21.755C40.1423 21.7744 40.1636 21.7917 40.1685 21.796C40.1701 21.7974 40.1719 21.7989 40.1744 21.8043ZM39.8981 23.0183C39.8981 23.0183 39.9012 23.0158 39.9071 23.0092C39.9009 23.0147 39.8981 23.0183 39.8981 23.0183ZM37.4321 15.7131C37.1425 15.7505 36.8669 15.6676 36.6759 15.5281C36.5812 15.459 36.5269 15.3935 36.4961 15.3389C36.6124 15.2235 36.7747 15.1169 36.9308 15.0607C37.0419 15.0207 37.1012 15.022 37.1199 15.024C37.1471 15.0454 37.21 15.111 37.2873 15.279M37.1054 15.0151C37.1054 15.0151 37.1087 15.0182 37.1166 15.0214C37.1095 15.0162 37.1054 15.0151 37.1054 15.0151ZM37.4321 15.7131C37.4154 15.6145 37.3754 15.4716 37.2904 15.2858L37.4321 15.7131Z" fill="#BFB33B"/>
<path fill-rule="evenodd" clip-rule="evenodd" d="M29.0689 60.6094C29.0689 60.6094 29.0672 60.6026 29.0621 60.5915C29.0661 60.6044 29.0689 60.6094 29.0689 60.6094ZM23.886 54.6589C23.886 54.6692 23.885 54.6835 23.8819 54.7024C23.8741 54.7497 23.8536 54.8214 23.8073 54.9144C23.7755 54.9782 23.7354 55.0443 23.6881 55.1105C23.7375 54.9795 23.7882 54.8591 23.84 54.751C23.8557 54.7182 23.8711 54.6875 23.886 54.6589ZM33.1389 46.6425C33.1805 46.9067 33.2061 47.1405 33.2126 47.3364C33.2196 47.5474 33.201 47.6358 33.2009 47.6433C33.1266 47.814 33.0452 47.9422 32.9719 48.0306C32.9288 48.0826 32.893 48.1157 32.8676 48.1358C32.8612 48.1321 32.8541 48.1277 32.8463 48.1226C32.677 48.0123 32.6256 47.9258 32.6081 47.89C32.5887 47.8504 32.5709 47.7894 32.577 47.685C32.5913 47.4379 32.7361 47.0877 32.977 46.7918C32.979 46.79 33.0238 46.7422 33.1389 46.6425ZM28.6722 41.5098C28.615 41.9739 28.5136 42.34 28.4155 42.543C28.3804 42.6158 28.3533 42.6432 28.3454 42.6499C28.3408 42.6519 28.3274 42.6564 28.2997 42.6589C28.2483 42.6636 28.1605 42.6592 28.0416 42.6248C27.9524 42.5989 27.8598 42.5601 27.7712 42.5109L27.7742 42.494C27.8137 42.2884 27.9842 41.9599 28.309 41.693C28.3044 41.6968 28.3052 41.6963 28.3123 41.6919C28.3313 41.6801 28.3959 41.6401 28.526 41.5773C28.5715 41.5553 28.6203 41.5328 28.6722 41.5098ZM23.9855 35.8663C24.0585 35.9521 24.1013 36.057 24.1161 36.1979C24.1373 36.399 24.0944 36.6593 23.972 36.9147C23.8321 37.2067 23.6065 37.3873 23.4204 37.4602C23.3362 37.4932 23.2862 37.4976 23.2626 37.4963C22.8888 37.2163 22.8375 36.9904 22.8281 36.8912C22.8146 36.75 22.8648 36.5806 22.9778 36.4419C23.1659 36.211 23.4788 36.0002 23.7743 35.9091C23.877 35.8775 23.9449 35.868 23.9855 35.8663ZM23.2459 37.4932C23.2459 37.4932 23.2489 37.4949 23.2558 37.4958C23.2494 37.4931 23.2459 37.4932 23.2459 37.4932ZM17.9515 32.5866C17.9426 32.6302 17.9331 32.6728 17.923 32.7141C17.9145 32.7487 17.9061 32.7807 17.8977 32.8101C17.8197 32.7825 17.7577 32.7512 17.7107 32.7217C17.7594 32.684 17.8346 32.6387 17.9515 32.5866ZM46.2675 37.281C46.3025 37.4064 46.3329 37.5745 46.3389 37.7517C46.3455 37.944 46.3218 38.0954 46.2863 38.1971C46.255 38.2868 46.2226 38.3193 46.1978 38.3381C46.1724 38.3575 46.0598 38.4347 45.7519 38.4584C45.126 38.5068 44.7154 38.4994 44.4489 38.4683C44.3541 38.4573 44.2869 38.4443 44.2414 38.4332C44.2166 38.3686 44.1753 38.2568 44.1154 38.0736C44.0198 37.7819 44.0298 37.2851 44.1971 36.9085C44.2723 36.7392 44.35 36.6614 44.3907 36.6319C44.4133 36.6155 44.4526 36.5888 44.5681 36.5935C45.1335 36.6169 45.5725 36.7328 45.8625 36.885C46.1195 37.0199 46.2212 37.1579 46.2675 37.281ZM43.4943 29.5862C43.5033 29.6122 43.5228 29.6996 43.4868 29.847C43.4494 30 43.3649 30.1586 43.2442 30.283C43.1292 30.4015 42.9923 30.479 42.8349 30.5098C42.6825 30.5397 42.4295 30.5415 42.0555 30.3806C41.6641 30.2123 41.5198 30.0383 41.4697 29.9565C41.4227 29.8797 41.4083 29.8049 41.4221 29.7127C41.4565 29.4813 41.6846 29.1539 42.0797 29.0312C42.7735 28.8156 43.3106 29.1658 43.4943 29.5862ZM40.1744 21.8043C40.1859 21.8308 40.2134 21.9194 40.2097 22.0843C40.206 22.2486 40.1719 22.4371 40.11 22.6177C40.0618 22.7581 40.007 22.8647 39.962 22.9349C39.345 23.0488 39.0612 22.88 38.9759 22.8037C38.9012 22.7369 38.7406 22.5314 38.8505 22.02C38.8626 22.0051 38.8906 21.9758 38.9471 21.9362C39.0795 21.8434 39.2898 21.7553 39.5365 21.7193C39.7849 21.6831 39.9803 21.7124 40.0917 21.755C40.1423 21.7744 40.1636 21.7917 40.1685 21.796C40.1701 21.7974 40.1719 21.7989 40.1744 21.8043ZM39.8981 23.0183C39.8981 23.0183 39.9012 23.0158 39.9071 23.0092C39.9009 23.0147 39.8981 23.0183 39.8981 23.0183ZM36.6759 15.5281C36.8669 15.6676 37.1425 15.7505 37.4321 15.7131C37.4154 15.6145 37.3754 15.4716 37.2904 15.2858L37.4321 15.7131L37.2873 15.279C37.21 15.111 37.1471 15.0454 37.1199 15.024C37.1012 15.022 37.0419 15.0207 36.9308 15.0607C36.7747 15.1169 36.6124 15.2235 36.4961 15.3389C36.5269 15.3935 36.5812 15.459 36.6759 15.5281ZM37.1054 15.0151C37.1054 15.0151 37.1087 15.0182 37.1166 15.0214C37.1095 15.0162 37.1054 15.0151 37.1054 15.0151Z" fill="#BFB33B"/>
<path fill-rule="evenodd" clip-rule="evenodd" d="M32.7263 6.31443L32.6881 6.24778C32.5134 6.34012 32.3277 6.42003 32.1341 6.48088C31.7227 6.61018 31.0578 6.71774 30.3945 6.3886C29.543 5.96605 28.7802 5.06502 28.4475 4.13938C28.2726 3.65304 28.1554 2.98989 28.3808 2.30202C28.6268 1.55091 29.1972 1.02387 29.9089 0.741257C30.4926 0.509487 31.0914 0.428183 31.6793 0.533431C32.2636 0.638054 32.7295 0.907662 33.0824 1.20854C33.7038 1.73836 34.0664 2.4573 34.2265 2.77463L34.2483 2.81786L34.2598 2.84039C34.2775 2.87531 34.2941 2.91062 34.3095 2.9463C34.5332 3.42975 34.9731 4.2031 35.4676 5.06406L35.5515 5.21003L35.6469 5.37615L36.7339 7.36312L36.8048 7.51544C37.2424 8.47362 37.8305 9.64033 38.4216 10.8074L38.5306 11.0225L38.6197 11.1984L40.0138 14.0275C40.4808 15.0431 41.1224 16.5103 41.7149 17.8651C42.1774 18.9226 42.6099 19.9117 42.9061 20.5641C43.9341 22.8285 45.2642 26.0281 46.1106 28.0643L46.2664 28.4391C47.2391 30.7779 48.4326 34.236 49.1233 36.3605C51.2217 42.8149 52.7911 51.8155 53.5473 62.5415C54.5102 76.1975 53.9468 94.8941 53.1208 113.14C53.6722 122.682 53.6465 131.458 53.5508 137.11L51.9555 137.083C51.7846 140.612 51.6267 144.015 51.4932 147.245L48.4958 147.121C48.6413 143.601 48.8156 139.877 49.0038 136.016C49.3418 127.835 49.3771 113.86 48.9112 99.6293C47.5372 88.6123 45.1297 78.3381 41.0854 72.0304C40.7606 71.5237 40.4214 70.9746 40.0634 70.3949C39.1864 68.975 38.1961 67.3716 37.0248 65.7589C36.7906 66.2289 36.4787 66.6571 36.1108 67.0594C35.6676 67.5441 35.0932 67.9301 34.4089 68.0502C33.6979 68.1749 33.0067 67.9846 32.4673 67.5567C31.4369 66.7395 31.2022 65.3331 31.4432 64.0758C31.6849 62.8148 32.4959 61.9652 33.1511 61.4308L33.1881 61.4008C32.7814 61.0169 32.3439 60.6085 31.9067 60.2075C31.813 60.4526 31.7202 60.6685 31.6471 60.8388C31.6246 60.8912 31.6039 60.9393 31.5857 60.9825C31.2737 61.7222 30.7139 62.4049 30.0116 62.8254C29.2997 63.2518 28.2031 63.5152 27.1781 62.8472C26.5202 62.4185 26.2506 61.7342 26.1364 61.2607C26.0118 60.7443 25.9984 60.1875 26.0563 59.6666C26.1634 58.7026 26.5677 57.4599 27.5048 56.655C27.2088 56.4515 26.9049 56.2501 26.5869 56.0488C26.557 56.1183 26.5255 56.1859 26.4928 56.2517C26.1787 56.8824 25.7107 57.4233 25.2074 57.83C24.7149 58.228 24.0891 58.577 23.4094 58.6993C22.7792 58.8126 22.0617 58.7564 21.4499 58.3061C20.861 57.8727 20.6249 57.2595 20.5322 56.8015C20.357 55.9358 20.5595 55.008 20.7333 54.4742C20.8346 54.1629 20.9635 53.8123 21.1301 53.464C20.6718 53.3105 20.2207 53.1709 19.7817 53.0469C19.7806 53.1099 19.7788 53.1733 19.7761 53.2373C19.7167 54.6744 19.0471 55.7001 18.0294 56.2112C17.1534 56.6512 16.2226 56.6062 15.6579 56.4556C14.5812 56.1685 14.0215 55.2946 13.8252 54.5091C13.6387 53.7628 13.7203 52.9489 14.0052 52.2315C13.5745 52.2247 13.1562 52.2305 12.7549 52.2499C12.5606 52.2593 12.3727 52.2718 12.1913 52.2872C12.2709 52.4126 12.3417 52.5399 12.4037 52.666C12.6586 53.1845 12.8307 53.817 12.8037 54.4716C12.7759 55.1433 12.5273 55.913 11.8587 56.4842C11.2018 57.0455 10.3514 57.2338 9.4818 57.1978C8.57859 57.1605 7.69035 56.7887 7.21503 55.8855C7.01597 55.5072 6.93457 55.1107 6.91231 54.746C6.27753 55.2788 5.69154 55.8295 5.22154 56.3232C5.2738 56.4286 5.31378 56.509 5.35397 56.5893C5.44023 56.7616 5.52748 56.9334 5.73923 57.3505L5.74059 57.3532L5.75024 57.3722C6.22466 58.3065 6.20318 59.4234 5.65087 60.3193C5.07208 61.2581 4.0247 61.7802 2.82245 61.7305C2.0735 61.6996 1.02624 61.4412 0.430069 60.5113C-0.225619 59.4886 0.080488 58.3485 0.598752 57.4986L0.620616 57.4614C0.640783 57.4274 0.66911 57.3803 0.705636 57.321C0.778671 57.2025 0.884568 57.0353 1.02363 56.8272C1.30161 56.4113 1.71305 55.8307 2.26045 55.1486C2.92946 54.315 3.9404 53.3219 5.00432 52.4308C6.04871 51.5561 7.23867 50.7001 8.306 50.178C8.36027 50.1488 8.42146 50.1192 8.48921 50.0916C9.65731 49.5637 11.1193 49.3255 12.61 49.2534C14.1454 49.1792 15.8299 49.2764 17.4848 49.4938C19.6031 49.7721 22.1941 50.5589 24.6426 51.5842C24.7945 51.6362 24.9399 51.7003 25.0786 51.7735C27.8275 53.1393 29.4814 54.3293 31.2597 55.6878C32.7216 56.8045 35.3998 59.3486 36.5924 60.5055L36.6203 60.5325L36.6468 60.561C39.2606 63.3732 41.2243 66.5582 42.6802 68.9194C43.0171 69.4657 43.3267 69.9679 43.6109 70.4111C45.3025 73.0495 46.7071 76.2621 47.874 79.8407C46.7988 69.022 42.109 57.7388 35.9292 48.8913C35.5845 49.6601 35.0206 50.4082 34.2015 50.8299C33.2554 51.3169 32.1662 51.2602 31.2084 50.636C29.991 49.8427 29.5148 48.6653 29.582 47.5106C29.6429 46.4649 30.1342 45.5318 30.6508 44.8974C30.842 44.6627 31.0961 44.4387 31.298 44.2701C31.4998 44.1015 31.7257 43.9261 31.9455 43.7602C31.7626 43.5472 31.5787 43.3356 31.3939 43.1254C31.3177 43.3782 31.226 43.6221 31.1167 43.8484C30.5741 44.9711 29.6058 45.5531 28.5698 45.6467C27.6245 45.7322 26.7204 45.4111 26.0492 44.9737C24.8867 44.2161 24.6301 42.9589 24.8281 41.9281C25.0176 40.9414 25.6175 40.0204 26.4083 39.372C26.6533 39.1711 26.9732 38.9919 27.2976 38.8394C27.0873 38.6372 26.8762 38.4367 26.6644 38.2381C26.2 39.1899 25.4113 39.9021 24.515 40.2534C23.6166 40.6055 22.4691 40.6317 21.5158 39.9357C20.5137 39.204 19.9418 38.23 19.8415 37.1751C19.7451 36.1605 20.1002 35.2247 20.6516 34.5475C20.8743 34.274 21.1351 34.0243 21.4211 33.806C21.2306 33.6617 21.0399 33.5189 20.8489 33.3777L20.8371 33.4268C20.7195 33.9078 20.5191 34.473 20.1518 34.9455C19.7521 35.4596 19.0935 35.9219 18.203 35.8851C17.173 35.8425 16.2016 35.4663 15.5175 34.7912C14.8174 34.1005 14.3973 33.0407 14.7644 31.9131C15.028 31.1034 15.535 30.5671 16.0793 30.2035C15.8768 30.0835 15.6743 29.9654 15.4719 29.8491C15.3299 30.0453 15.1741 30.2367 15.0033 30.4105C14.3388 31.0868 13.4468 31.5215 12.273 31.473C11.7487 31.4513 11.247 31.3852 10.8029 31.244C10.374 31.1077 9.85248 30.8545 9.48467 30.3544C9.07277 29.7943 9.01571 29.1499 9.15034 28.5997C9.27159 28.1042 9.54147 27.6879 9.80215 27.3677C10.5747 26.4189 11.5945 25.917 12.6859 25.8275C13.7368 25.7413 14.764 26.0413 15.6494 26.5164C17.2176 27.3579 18.7842 28.3041 20.3366 29.3464C22.2036 30.5999 24.0517 31.9933 25.8592 33.512C27.6729 35.0359 29.4468 36.687 31.159 38.4511C32.5784 39.9135 33.9558 41.454 35.2787 43.0647C43.5047 53.0804 50.0252 67.408 50.9854 81.0265C51.0062 81.3219 51.0267 81.6184 51.047 81.9159C51.0858 74.901 50.9517 68.3828 50.5548 62.7525C49.9518 54.2001 48.8296 46.8542 47.3682 41.1097C46.9484 41.2997 46.4824 41.4109 45.9829 41.4495C44.6182 41.5549 43.4601 41.5015 42.5955 40.9668C41.7043 40.4156 41.4239 39.5171 41.2941 39.1014C41.2832 39.0665 41.2734 39.0349 41.2644 39.0073C40.9316 37.9913 40.9944 36.7281 41.4556 35.6903C41.9451 34.5886 43.0148 33.5268 44.692 33.5961C44.7997 33.6005 44.9095 33.6075 45.0209 33.6172C44.936 33.378 44.8502 33.138 44.7638 32.8989C43.7287 33.5856 42.3433 33.7703 40.8699 33.1365C40.0248 32.7729 39.3448 32.2316 38.9107 31.5222C38.4735 30.8077 38.344 30.0151 38.4547 29.271C38.6692 27.8299 39.7636 26.6093 41.1896 26.1663C41.46 26.0822 41.7287 26.0256 41.9935 25.9941C41.9083 25.7923 41.8224 25.5894 41.7362 25.3863C41.5023 25.564 41.2204 25.7175 40.8875 25.8016C39.4575 26.163 38.0089 25.964 36.9756 25.0395C35.9249 24.0995 35.6179 22.6894 35.9335 21.3176C36.1263 20.4798 36.6657 19.8717 37.2253 19.4795C37.7133 19.1375 38.2791 18.9113 38.8473 18.7955L38.7006 18.4595C38.4826 18.549 38.2527 18.6149 38.0162 18.6575C36.876 18.8626 35.7512 18.5675 34.9069 17.951C34.0632 17.3351 33.4087 16.317 33.4598 15.0806C33.4927 14.285 33.9576 13.6475 34.3267 13.2664C34.7156 12.8648 35.2271 12.5071 35.8044 12.2796L35.7453 12.1628L35.6512 11.9771C35.4331 12.0537 35.209 12.104 34.9868 12.1342C34.3025 12.2273 33.3239 12.2294 32.4542 11.7904C31.9921 11.5572 31.5487 11.1913 31.2396 10.6534C30.9317 10.1177 30.8137 9.51008 30.8396 8.88215C30.8975 7.48108 31.8341 6.68829 32.7263 6.31443ZM29.0689 60.6094C29.0689 60.6094 29.0672 60.6026 29.0621 60.5915C29.0661 60.6044 29.0689 60.6094 29.0689 60.6094ZM23.886 54.6589C23.886 54.6692 23.885 54.6835 23.8819 54.7024C23.8741 54.7497 23.8536 54.8214 23.8073 54.9144C23.7755 54.9782 23.7354 55.0443 23.6881 55.1105C23.7375 54.9795 23.7882 54.8591 23.84 54.751C23.8557 54.7182 23.8711 54.6875 23.886 54.6589ZM33.1389 46.6425C33.1805 46.9067 33.2061 47.1405 33.2126 47.3364C33.2196 47.5474 33.201 47.6358 33.2009 47.6433C33.1266 47.814 33.0452 47.9422 32.9719 48.0306C32.9288 48.0826 32.893 48.1157 32.8676 48.1358C32.8612 48.1321 32.8541 48.1277 32.8463 48.1226C32.677 48.0123 32.6256 47.9258 32.6081 47.89C32.5887 47.8504 32.5709 47.7894 32.577 47.685C32.5913 47.4379 32.7361 47.0877 32.977 46.7918C32.979 46.79 33.0238 46.7422 33.1389 46.6425ZM28.6722 41.5098C28.615 41.9739 28.5136 42.34 28.4155 42.543C28.3804 42.6158 28.3533 42.6432 28.3454 42.6499C28.3408 42.6519 28.3274 42.6564 28.2997 42.6589C28.2483 42.6636 28.1605 42.6592 28.0416 42.6248C27.9524 42.5989 27.8598 42.5601 27.7712 42.5109L27.7742 42.494C27.8137 42.2884 27.9842 41.9599 28.309 41.693C28.3044 41.6968 28.3052 41.6963 28.3123 41.6919C28.3313 41.6801 28.3959 41.6401 28.526 41.5773C28.5715 41.5553 28.6203 41.5328 28.6722 41.5098ZM23.9855 35.8663C24.0585 35.9521 24.1013 36.057 24.1161 36.1979C24.1373 36.399 24.0944 36.6593 23.972 36.9147C23.8321 37.2067 23.6065 37.3873 23.4204 37.4602C23.3362 37.4932 23.2862 37.4976 23.2626 37.4963C22.8888 37.2163 22.8375 36.9904 22.8281 36.8912C22.8146 36.75 22.8648 36.5806 22.9778 36.4419C23.1659 36.211 23.4788 36.0002 23.7743 35.9091C23.877 35.8775 23.9449 35.868 23.9855 35.8663ZM23.2459 37.4932C23.2459 37.4932 23.2489 37.4949 23.2558 37.4958C23.2494 37.4931 23.2459 37.4932 23.2459 37.4932ZM17.9515 32.5866C17.9426 32.6302 17.9331 32.6728 17.923 32.7141C17.9145 32.7487 17.9061 32.7807 17.8977 32.8101C17.8197 32.7825 17.7577 32.7512 17.7107 32.7217C17.7594 32.684 17.8346 32.6387 17.9515 32.5866ZM46.2675 37.281C46.3025 37.4064 46.3329 37.5745 46.3389 37.7517C46.3455 37.944 46.3218 38.0954 46.2863 38.1971C46.255 38.2868 46.2226 38.3193 46.1978 38.3381C46.1724 38.3575 46.0598 38.4347 45.7519 38.4584C45.126 38.5068 44.7154 38.4994 44.4489 38.4683C44.3541 38.4573 44.2869 38.4443 44.2414 38.4332C44.2166 38.3686 44.1753 38.2568 44.1154 38.0736C44.0198 37.7819 44.0298 37.2851 44.1971 36.9085C44.2723 36.7392 44.35 36.6614 44.3907 36.6319C44.4133 36.6155 44.4526 36.5888 44.5681 36.5935C45.1335 36.6169 45.5725 36.7328 45.8625 36.885C46.1195 37.0199 46.2212 37.1579 46.2675 37.281ZM43.4943 29.5862C43.5033 29.6122 43.5228 29.6996 43.4868 29.847C43.4494 30 43.3649 30.1586 43.2442 30.283C43.1292 30.4015 42.9923 30.479 42.8349 30.5098C42.6825 30.5397 42.4295 30.5415 42.0555 30.3806C41.6641 30.2123 41.5198 30.0383 41.4697 29.9565C41.4227 29.8797 41.4083 29.8049 41.4221 29.7127C41.4565 29.4813 41.6846 29.1539 42.0797 29.0312C42.7735 28.8156 43.3106 29.1658 43.4943 29.5862ZM40.1744 21.8043C40.1859 21.8308 40.2134 21.9194 40.2097 22.0843C40.206 22.2486 40.1719 22.4371 40.11 22.6177C40.0618 22.7581 40.007 22.8647 39.962 22.9349C39.345 23.0488 39.0612 22.88 38.9759 22.8037C38.9012 22.7369 38.7406 22.5314 38.8505 22.02C38.8626 22.0051 38.8906 21.9758 38.9471 21.9362C39.0795 21.8434 39.2898 21.7553 39.5365 21.7193C39.7849 21.6831 39.9803 21.7124 40.0917 21.755C40.1423 21.7744 40.1636 21.7917 40.1685 21.796C40.1701 21.7974 40.1719 21.7989 40.1744 21.8043ZM39.8981 23.0183C39.8981 23.0183 39.9012 23.0158 39.9071 23.0092C39.9009 23.0147 39.8981 23.0183 39.8981 23.0183ZM36.6759 15.5281C36.8669 15.6676 37.1425 15.7505 37.4321 15.7131C37.4154 15.6145 37.3754 15.4716 37.2904 15.2858L37.4321 15.7131L37.2873 15.279C37.21 15.111 37.1471 15.0454 37.1199 15.024C37.1012 15.022 37.0419 15.0207 36.9308 15.0607C36.7747 15.1169 36.6124 15.2235 36.4961 15.3389C36.5269 15.3935 36.5812 15.459 36.6759 15.5281ZM37.1054 15.0151C37.1054 15.0151 37.1087 15.0182 37.1166 15.0214C37.1095 15.0162 37.1054 15.0151 37.1054 15.0151Z" fill="#BFB33B"/>
</svg>
