<svg width="219" height="142" viewBox="0 0 219 142" fill="none" xmlns="http://www.w3.org/2000/svg">
<path fill-rule="evenodd" clip-rule="evenodd" d="M95.4684 141.302H157.026V123.37C157.026 130.548 165.577 141.302 186.771 141.302C209.907 141.302 218.996 127.361 218.996 109.039C218.996 90.7171 201.336 75.9798 186.771 75.9798C172.207 75.9798 157.026 85.3018 157.026 92.8018V0.301819H95.4684V126.963L12.5639 43.3852H0.996094L95.4684 141.302ZM159.918 109.039C159.918 88.3272 177.682 83.9459 186.771 83.9459C195.86 83.9459 211.973 92.9355 211.973 109.039C211.973 129.169 195.86 134.929 186.771 134.929C177.682 134.929 159.918 129.751 159.918 109.039Z" fill="#BFB33B"/>
</svg>
