<svg width="95" height="149" viewBox="0 0 95 149" fill="none" xmlns="http://www.w3.org/2000/svg">
<path d="M7.52343 55.5116C5.84906 54.2601 -0.429707 46.7509 2.08185 45.0822C4.5934 43.4135 3.33759 41.7448 4.17478 38.4074C5.01196 35.07 6.26777 32.9841 6.26777 28.8124C6.26777 24.6406 4.59344 20.0517 7.94214 19.2173C11.2908 18.383 24.6858 16.7143 33.0577 10.0395C41.4295 3.36467 50.2199 0.86162 58.1732 2.11315C64.5358 3.11437 74.7774 8.64891 79.1028 11.291C79.94 10.4567 81.9493 9.03824 83.2887 10.0395C84.9631 11.291 82.8702 14.6284 85.3817 15.4628C87.8933 16.2971 89.9862 19.2174 92.0792 20.4689C94.1722 21.7204 92.4978 24.6406 90.4048 24.6406C88.3119 24.6406 89.9862 30.8983 92.0792 30.8983C94.1722 30.8983 93.7536 36.3215 92.0792 38.4074C90.4048 40.4933 90.4048 39.6589 90.4048 43.4135C90.4048 47.1681 87.8933 45.0822 87.8933 47.1681C87.8933 49.254 85.3817 48.4197 85.3817 50.9227C85.3817 53.4257 84.5445 54.6772 83.2887 56.346C82.7713 57.0336 82.3056 58.1197 81.9376 59.1824C81.7395 60.0113 81.4952 60.8742 81.1958 61.7692C80.7772 65.941 81.6143 70.5299 79.1027 79.2906C76.6515 87.8409 73.0041 94.4043 67.3821 100.144C67.2426 101.537 67.0473 104.655 67.3821 105.99C67.8007 107.659 70.7309 111.413 72.8238 113.499C74.9168 115.585 81.6143 120.452 84.5444 121.843V124.346C84.5444 124.363 84.5433 124.381 84.5411 124.401C84.1128 131.459 81.6099 135.615 79.9399 137.695C78.2655 139.781 76.1726 141.867 73.2424 143.536C70.3123 145.204 56.9173 146.039 53.5686 146.456C50.2198 146.873 30.546 144.787 28.453 143.953C26.3601 143.118 24.8252 142.562 23.8485 141.867C23.8485 141.867 20.9184 140.198 19.6181 138.947C18.3178 137.695 15.5905 135.359 16.0455 131.02C16.6141 125.597 19.6181 123.094 21.5097 120.591C23.4013 118.088 24.6859 113.916 24.6859 110.579C24.6859 107.909 22.5684 90.8325 21.5097 82.628C20.4436 79.7755 19.828 76.9258 19.6181 75.536C19.6161 76.6193 19.3899 77.7063 18.8256 78.4563C17.5698 80.125 12.9653 73.4502 11.2909 70.5299C10.1161 68.4809 6.68625 59.2662 7.52343 55.5116Z" fill="#FFFEF9"/>
<path fill-rule="evenodd" clip-rule="evenodd" d="M57.94 3.59491C50.4845 2.42171 42.1069 4.74293 33.9927 11.2123C29.5754 14.7342 23.9079 16.8865 19.0228 18.2624C16.5663 18.9543 14.2767 19.458 12.401 19.8398C11.6751 19.9876 11.0278 20.114 10.4603 20.2249C9.52166 20.4084 8.80132 20.5491 8.30474 20.6728C7.86609 20.7821 7.70913 20.9582 7.60271 21.1659C7.45171 21.4606 7.34915 21.9563 7.34915 22.7633C7.34914 23.5358 7.43845 24.4143 7.54215 25.4342L7.55075 25.5189C7.65457 26.5407 7.76773 27.6823 7.76773 28.8124C7.76773 31.9864 7.04462 34.2181 6.36253 36.3232C6.097 37.1428 5.83768 37.9431 5.62965 38.7724C5.37384 39.7922 5.34929 40.5009 5.32311 41.2569C5.30954 41.6487 5.29553 42.0532 5.24866 42.5203C5.18558 43.149 5.04745 43.8455 4.65902 44.5382C4.28176 45.211 3.7285 45.7749 2.99365 46.2765C2.9877 46.3609 2.99886 46.5327 3.08407 46.8447C3.28378 47.5762 3.78418 48.5548 4.4886 49.6329C5.17746 50.6872 5.99793 51.7414 6.74735 52.6066C6.90077 52.7837 7.04811 52.9493 7.18795 53.1026C7.78797 52.5614 8.63694 52.1374 9.78925 51.946C10.8232 51.7743 11.7955 52.0458 12.5798 52.4122C13.3712 52.7819 14.0865 53.3015 14.6673 53.7935C14.9593 54.0408 15.2278 54.2902 15.4662 54.525C15.6876 54.3184 15.9405 54.0996 16.2266 53.8758C17.6038 52.7977 19.7318 51.6156 22.7656 51.1117C23.0109 51.0709 23.1591 51.0225 23.246 50.9843C23.2529 50.9813 23.2598 50.9785 23.2667 50.9757C23.3642 50.9362 23.4642 50.8956 23.6858 50.1661C23.7257 50.0348 23.7676 49.8874 23.8137 49.7253C24.0364 48.9425 24.3566 47.8167 25.0194 46.4954C26.0792 44.3832 27.8166 43.2205 29.7861 42.6071C31.6943 42.0128 33.8803 41.9135 35.9878 41.9135C37.134 41.9135 38.0073 41.0486 39.0728 39.1372C39.3011 38.7276 39.5198 38.3061 39.7472 37.8676C39.7671 37.8293 39.787 37.7909 39.8071 37.7523C40.0512 37.2819 40.3077 36.7908 40.5754 36.3273C41.0871 35.4416 41.7545 34.4437 42.6924 33.8206C44.4089 32.6802 46.1198 32.7313 47.6218 32.9616C48.1344 33.0402 48.6003 33.1309 49.0471 33.2178C49.9946 33.4023 50.8561 33.57 51.8943 33.57C52.006 33.57 52.2551 33.5271 52.6658 33.3335C53.0625 33.1465 53.5279 32.858 54.0463 32.472C55.0834 31.6998 56.2162 30.6251 57.2765 29.4678C58.3335 28.314 59.2816 27.1185 59.9553 26.1296C60.2936 25.6331 60.5459 25.2132 60.7072 24.893C60.8099 24.6892 60.8471 24.5805 60.8591 24.5474V21.0279L63.418 23.5782C64.2764 24.4337 66.6407 26.8747 69.3388 29.8998C70.0513 30.6987 70.5817 30.9883 70.9194 31.0987C71.2416 31.2042 71.5217 31.1915 71.8468 31.1238C71.9814 31.0958 72.0916 31.0664 72.2309 31.0292C72.2924 31.0128 72.3595 30.9949 72.4369 30.9749C72.6354 30.9237 72.9735 30.8385 73.3352 30.8349C73.7479 30.8308 74.2617 30.9308 74.7234 31.3099C75.1471 31.6578 75.3708 32.1155 75.5022 32.5084C75.8067 33.4186 76.9625 35.0884 78.4843 36.4582C79.2241 37.1241 79.9735 37.6476 80.6479 37.9554C81.341 38.2718 81.7894 38.2879 82.0407 38.2163C82.6977 38.0292 83.4042 38.1499 83.9528 38.6323C84.404 39.029 84.6086 39.5505 84.7126 39.918C84.9271 40.6754 84.9391 41.6143 84.8846 42.4477C84.8276 43.3188 84.6855 44.2399 84.4986 45.0383C84.3468 45.6868 84.1299 46.4151 83.825 46.9601C83.8225 47.0837 83.831 47.2741 83.8566 47.5647C83.8736 47.7584 83.9014 48.0198 83.9338 48.3238C83.9753 48.7136 84.0243 49.1733 84.0676 49.6502C84.1846 49.286 84.3569 48.9558 84.5848 48.6593C85.0176 48.0962 85.5684 47.7754 85.8835 47.5922C86.2419 47.3838 86.3364 47.3248 86.3857 47.2782C86.3891 47.2586 86.3932 47.2233 86.3932 47.1681C86.3932 46.765 86.4528 46.3403 86.6374 45.9372C86.8329 45.5103 87.1274 45.1981 87.4556 44.9801C87.7547 44.7813 88.0565 44.6788 88.2437 44.6207C88.4005 44.5721 88.4606 44.5562 88.5071 44.544C88.5516 44.5322 88.5837 44.5237 88.6761 44.493C88.7184 44.479 88.7452 44.4682 88.7611 44.4612C88.7955 44.3939 88.9048 44.1231 88.9048 43.4135V43.363C88.9048 42.4683 88.9048 41.7827 88.9331 41.2594C88.9622 40.7234 89.0255 40.2156 89.222 39.726C89.4232 39.2247 89.7178 38.8613 89.9739 38.5635C90.0544 38.47 90.1339 38.3797 90.2162 38.2864C90.414 38.0618 90.6279 37.8192 90.9094 37.4684C91.4699 36.7702 91.9463 35.2548 91.9927 33.8221C92.0147 33.1407 91.931 32.6515 91.8257 32.3861C90.6822 32.2758 89.879 31.4362 89.4192 30.7918C88.8728 30.026 88.4672 29.069 88.2232 28.1572C87.9843 27.2642 87.8542 26.242 88.0124 25.355C88.0919 24.9092 88.2669 24.3701 88.6634 23.9191C89.1033 23.4188 89.7189 23.1406 90.4048 23.1406C90.7651 23.1406 91.2359 22.8483 91.4553 22.3836C91.5521 22.1785 91.5465 22.0431 91.5338 21.9886L91.5335 21.9871C91.5281 21.9635 91.5079 21.875 91.3093 21.7563C90.3187 21.1639 89.3254 20.2488 88.4504 19.4427C88.2549 19.2626 88.0653 19.0878 87.8829 18.9234C86.7784 17.9275 85.8342 17.1937 84.9088 16.8863C83.8704 16.5413 83.192 15.8665 82.8413 15.0051C82.5362 14.2558 82.5212 13.4533 82.5212 12.9076C82.5212 12.7548 82.5223 12.6175 82.5234 12.4923C82.5267 12.0793 82.529 11.798 82.4869 11.5293C82.4641 11.383 82.4352 11.3089 82.4187 11.2764C82.4075 11.2543 82.402 11.2494 82.3906 11.2409C82.365 11.2217 82.1907 11.1003 81.6011 11.3544C81.0473 11.5931 80.4883 12.028 80.1617 12.3535L79.3268 13.1855L78.3209 12.5711C76.1987 11.2748 72.6042 9.2569 68.7617 7.44324C64.8844 5.61321 60.8966 4.06016 57.94 3.59491ZM82.6728 62.0806C82.953 61.2282 83.186 60.4026 83.3786 59.6053C83.7328 58.5943 84.1273 57.7262 84.4872 57.2479C85.1138 56.4153 85.7357 55.5613 86.1796 54.5501C86.6383 53.5051 86.8817 52.358 86.8817 50.9227C86.8817 50.5801 86.9573 50.4944 86.9631 50.4878C87.0012 50.4383 87.0786 50.3676 87.3913 50.1857C87.4148 50.1721 87.4416 50.1568 87.4713 50.1399C87.7337 49.9905 88.2201 49.7136 88.6013 49.302C89.0626 48.804 89.3375 48.1747 89.3856 47.4129C89.4551 47.3928 89.5366 47.3684 89.6219 47.3401C90.0986 47.1817 90.7771 46.8725 91.2729 46.1039C91.7308 45.394 91.9048 44.4878 91.9048 43.4135C91.9048 42.4557 91.9053 41.8535 91.9287 41.4219C91.952 40.9933 91.9934 40.8753 92.0061 40.8434L92.0066 40.8423C92.015 40.8212 92.0375 40.7649 92.2484 40.5197C92.2978 40.4622 92.3578 40.3941 92.427 40.3157C92.6332 40.0816 92.9204 39.7556 93.2489 39.3464C94.3628 37.9587 94.9328 35.7196 94.9911 33.9192C95.0207 33.0045 94.9271 32.0164 94.579 31.1937C94.227 30.3619 93.4699 29.4454 92.1797 29.4C92.1343 29.3684 92.0246 29.2782 91.8613 29.0493C91.5705 28.6417 91.2959 28.0343 91.1213 27.3817C90.9805 26.8557 90.9335 26.409 90.9444 26.1025C92.428 25.8915 93.6158 24.8342 94.1681 23.6645C94.4898 22.9831 94.6524 22.1538 94.4558 21.3088C94.2514 20.4302 93.6921 19.6857 92.849 19.1815C92.15 18.7635 91.4534 18.1244 90.5965 17.338C90.3735 17.1334 90.1395 16.9187 89.8919 16.6954C88.7987 15.7097 87.4407 14.5662 85.8546 14.0393C85.656 13.9733 85.6372 13.9215 85.6237 13.884C85.6224 13.8805 85.6211 13.877 85.6198 13.8737C85.5586 13.7235 85.5212 13.457 85.5212 12.9076C85.5212 12.8306 85.5222 12.7439 85.5233 12.6499C85.5283 12.2087 85.5352 11.6046 85.4509 11.0658C85.3382 10.3449 85.0332 9.47072 84.1868 8.83802C82.873 7.85599 81.3728 8.18604 80.4137 8.59939C79.8774 8.8305 79.3792 9.13794 78.9538 9.45195C76.7188 8.13079 73.4793 6.35256 70.0422 4.73025C66.1266 2.88218 61.8124 1.16735 58.4063 0.631379C49.9553 -0.69847 40.752 1.98642 32.1225 8.86663C28.168 12.0195 22.9521 14.039 18.2095 15.3748C15.8522 16.0387 13.642 16.5257 11.8027 16.9001C11.1705 17.0288 10.5672 17.1468 10.0126 17.2554C8.99821 17.4539 8.1468 17.6205 7.57945 17.7618C6.34375 18.0697 5.45424 18.7801 4.93277 19.7979C4.45588 20.7287 4.34915 21.7974 4.34915 22.7633C4.34914 23.6926 4.45271 24.709 4.55043 25.6681C4.55568 25.7196 4.56092 25.771 4.56612 25.8221C4.67159 26.8602 4.76773 27.8565 4.76773 28.8124C4.76773 31.4932 4.24947 33.0813 3.62436 34.9969C3.33219 35.8922 3.01667 36.859 2.71981 38.0424C2.38517 39.3764 2.33598 40.6452 2.30276 41.5018C2.29143 41.7941 2.28196 42.0383 2.26365 42.2208C2.22209 42.6351 2.15093 42.8773 2.04229 43.071C1.93634 43.26 1.73178 43.5139 1.2517 43.8328C-0.240868 44.8245 -0.108857 46.5403 0.18999 47.6349C0.513494 48.8198 1.21651 50.1096 1.97713 51.2738C2.75332 52.4618 3.65952 53.6239 4.47979 54.5708C4.98187 55.1504 5.48291 55.6857 5.92381 56.1061C5.84027 57.1242 5.93663 58.2641 6.11159 59.3853C6.34745 60.8969 6.75322 62.5337 7.2147 64.0874C8.12676 67.1583 9.317 70.103 9.98959 71.276C10.8591 72.7926 12.4768 75.2665 14.0617 77.1729C14.8391 78.108 15.6921 79.0095 16.5034 79.568C16.8964 79.8385 17.4289 80.135 18.0394 80.2048C18.4002 80.2461 18.7643 80.2035 19.1009 80.0704C19.3637 81.0022 19.6774 81.9937 20.0439 82.9894C20.5726 87.0911 21.3532 93.3097 22.005 98.854C22.6737 104.542 23.1858 109.357 23.1858 110.579C23.1858 113.631 21.9844 117.475 20.313 119.687C20.014 120.082 19.6625 120.499 19.2826 120.95C17.491 123.075 15.0691 125.947 14.5536 130.864C14.0433 135.731 16.9781 138.511 18.3552 139.815C18.435 139.891 18.5095 139.962 18.5778 140.027C19.3447 140.766 20.5146 141.564 21.4115 142.139C21.8758 142.437 22.2968 142.693 22.6018 142.875C22.7546 142.966 22.879 143.039 22.9659 143.089C22.9959 143.107 23.0214 143.122 23.0422 143.134C23.6506 143.556 24.3732 143.906 25.1392 144.236C25.7166 144.484 26.3767 144.745 27.0864 145.025C27.3505 145.129 27.6214 145.236 27.8975 145.346C28.3209 145.515 29.0055 145.661 29.7262 145.793C30.4997 145.934 31.4758 146.085 32.5816 146.24C34.7957 146.55 37.5749 146.878 40.387 147.166C43.199 147.454 46.0576 147.704 48.4302 147.855C50.7396 148.002 52.7488 148.07 53.754 147.944C54.4617 147.856 55.6499 147.747 57.1427 147.61C57.3496 147.592 57.5624 147.572 57.7806 147.552C59.554 147.389 61.6477 147.192 63.7317 146.955C65.8116 146.719 67.9057 146.441 69.6769 146.112C71.3732 145.797 73.002 145.399 73.9847 144.839C77.1245 143.051 79.3549 140.82 81.1096 138.634C82.9472 136.345 85.5824 131.908 86.0366 124.519C86.0415 124.465 86.0444 124.407 86.0444 124.346V120.894L85.1875 120.487C83.8548 119.855 81.5427 118.361 79.2444 116.713C76.9495 115.067 74.8371 113.388 73.8827 112.437C72.8947 111.452 71.6867 110.049 70.6789 108.693C70.1761 108.017 69.7373 107.371 69.4057 106.81C69.0575 106.222 68.8873 105.825 68.837 105.625C68.7248 105.178 68.6792 104.253 68.7038 103.121C68.7219 102.291 68.7743 101.452 68.8278 100.808C74.4345 94.9585 78.0884 88.2715 80.5446 79.704C82.4182 73.1686 82.4917 68.6986 82.5479 65.2807C82.5673 64.1029 82.5846 63.05 82.6728 62.0806ZM65.6971 103.679C65.6958 104.627 65.7452 105.629 65.9272 106.355C66.0861 106.989 66.4392 107.688 66.8236 108.337C67.2245 109.015 67.7275 109.751 68.2712 110.483C69.3563 111.943 70.6599 113.46 71.7649 114.561C72.9035 115.696 75.1863 117.494 77.4959 119.15C79.4227 120.532 81.486 121.901 83.0444 122.756V124.173C83.038 124.186 83.0304 124.2 83.0216 124.217C82.9503 124.351 82.8338 124.537 82.6651 124.775C82.3293 125.25 81.8562 125.836 81.3091 126.469C80.388 127.535 79.3158 128.669 78.4783 129.52H75.3353C74.4705 129.52 73.7488 129.793 73.1575 130.265C72.6194 130.694 72.2464 131.245 71.9716 131.684C71.8631 131.857 71.7626 132.022 71.6662 132.181C71.2218 132.912 70.8644 133.501 70.2143 134.019C69.9046 134.266 69.0299 134.809 67.6782 135.58C66.3711 136.327 64.7228 137.23 62.9573 138.178C59.6604 139.949 55.9811 141.863 53.4114 143.182C51.684 142.696 49.1481 142.046 46.5084 141.494C43.5861 140.883 40.4226 140.367 38.0806 140.367H24.254C24.218 140.346 24.1795 140.323 24.1388 140.298C23.8538 140.128 23.461 139.889 23.0302 139.613C22.137 139.041 21.1916 138.379 20.6583 137.866C20.5966 137.807 20.5334 137.746 20.4688 137.684C19.1162 136.391 17.1841 134.544 17.5372 131.177C17.9488 127.252 19.6956 125.157 21.4417 123.063C21.8699 122.549 22.298 122.036 22.7064 121.495C24.8181 118.701 26.1858 114.202 26.1858 110.579C26.1858 109.131 25.6391 104.072 24.9845 98.5037C24.7045 96.1222 24.4009 93.6175 24.1037 91.2091C24.8984 92.6455 25.809 94.1834 26.8555 95.6872C29.1867 99.0371 32.3001 102.395 36.6031 104.426C40.6618 106.342 43.7073 107.326 46.153 107.825C48.6036 108.324 50.4003 108.324 51.8819 108.324H51.8943C54.6256 108.324 60.154 107.975 65.6971 103.679ZM33.7117 143.367C35.7519 143.641 38.2042 143.926 40.6927 144.181C43.055 144.423 45.4401 144.637 47.5272 144.787C46.992 144.665 46.4454 144.545 45.8943 144.43C42.9982 143.825 40.0921 143.367 38.0806 143.367H33.7117ZM57.224 144.59C57.3172 144.582 57.4112 144.573 57.5059 144.565C59.2775 144.402 61.3436 144.207 63.3932 143.975C65.4468 143.741 67.4602 143.472 69.1293 143.162C70.8733 142.839 72.0177 142.507 72.5001 142.232C75.2206 140.683 77.1761 138.742 78.7701 136.756C79.7728 135.507 81.1624 133.366 82.0953 130.079C81.3842 130.843 80.6955 131.551 80.1615 132.083L79.7225 132.52H75.3353C75.1537 132.52 75.0905 132.56 75.0278 132.61C74.9119 132.703 74.7616 132.881 74.5132 133.277C74.4482 133.381 74.3778 133.499 74.3007 133.628C73.8575 134.37 73.1934 135.481 72.0845 136.365C71.557 136.786 70.4609 137.446 69.1659 138.186C67.8262 138.951 66.152 139.868 64.3768 140.821C62.0041 142.095 59.4377 143.442 57.224 144.59ZM65.9046 99.5041C66.0411 99.3681 66.1764 99.2316 66.3105 99.0947C71.7354 93.5559 75.2687 87.2212 77.6608 78.8772C79.4162 72.754 79.477 68.9087 79.53 65.5636C79.5514 64.2061 79.5716 62.931 79.7032 61.6195L79.7122 61.5303L79.7317 61.4428C79.7915 61.1746 79.8727 60.8436 79.9728 60.4737C79.9573 60.5025 79.9407 60.5317 79.923 60.5612C79.7098 60.9784 79.1918 61.9325 78.4753 62.8225C78.0962 63.2934 77.6226 63.7958 77.0658 64.1908C76.5132 64.5829 75.7802 64.938 74.9167 64.938C74.1387 64.938 73.3337 64.7045 72.6204 64.4218C71.8849 64.1303 71.131 63.739 70.4229 63.3244C69.0079 62.496 67.6678 61.5105 66.8528 60.8459L65.7952 59.9836L66.5539 58.8494C67.0328 58.1334 68.3456 56.9318 70.3122 56.9318C71.0309 56.9318 71.6455 57.1519 72.1419 57.3912L72.3492 56.5592C72.8665 56.688 74.4459 57.0417 76.4183 57.3693C77.2259 57.5034 77.571 57.3936 77.6397 57.367C77.6534 57.3616 77.6597 57.3583 77.6597 57.3583C77.6597 57.3584 77.6435 57.367 77.6159 57.39C77.6032 57.4005 77.5887 57.4136 77.5727 57.4296C77.5615 57.4407 77.5496 57.4532 77.5371 57.4673C77.5219 57.4844 77.5059 57.5037 77.4892 57.5254C77.4809 57.5363 77.4723 57.5477 77.4637 57.5598L77.4506 57.5783L77.444 57.588L77.4407 57.5929L77.439 57.5953C77.4382 57.5966 77.4373 57.5978 78.6841 58.4318C79.9309 59.2659 79.93 59.2671 79.9292 59.2684L79.9275 59.2709L79.924 59.276L79.9168 59.2865L79.9015 59.3082C79.8908 59.3231 79.8792 59.3387 79.8667 59.355C79.8417 59.3875 79.8129 59.4226 79.78 59.4596C79.7142 59.5337 79.6325 59.6149 79.5326 59.6979C79.511 59.7158 79.4887 59.7337 79.4657 59.7515L80.1155 59.9654C80.2266 59.5836 80.3539 59.1761 80.4953 58.7636C80.9672 56.7661 81.1561 54.9794 81.2004 53.4257H79.277C79.277 53.4949 79.2864 53.54 79.2902 53.555C79.2892 53.552 79.2878 53.5477 79.2857 53.5421C79.2711 53.5023 79.239 53.4314 79.1793 53.3261C79.0654 53.1253 78.9218 52.9194 78.7574 52.6838C78.7487 52.6714 78.74 52.6588 78.7312 52.6462C78.6824 52.6324 78.6037 52.6135 78.485 52.5933C77.8463 52.4847 76.6142 52.4227 74.0797 52.4227C71.6311 52.4227 70.0529 52.6295 68.827 53.0659C67.6378 53.4892 66.6691 54.1682 65.5108 55.3225C65.4605 55.3727 65.3043 55.5883 65.1412 56.1459C64.9867 56.6742 64.8641 57.3751 64.7777 58.2414C64.6049 59.9725 64.5939 62.1765 64.6614 64.5956C64.7158 66.5433 64.824 68.6563 64.9301 70.7267C65.0252 72.5833 65.1185 74.4056 65.1697 76.0439C65.232 76.0487 65.2936 76.0556 65.3545 76.0644C65.3461 75.8218 65.326 75.5864 65.2961 75.3811C65.2567 75.1116 65.213 74.9836 65.2052 74.9606C65.204 74.9572 65.2036 74.9561 65.2042 74.9572L67.8856 73.6119C68.0991 74.0373 68.2051 74.5401 68.2646 74.9479C68.3289 75.3884 68.3588 75.8659 68.3588 76.3182C68.3588 76.7665 68.3295 77.2333 68.2589 77.6463C68.2239 77.8515 68.173 78.0777 68.095 78.2962C68.0279 78.4844 67.89 78.8163 67.6038 79.1016C67.4047 79.3 67.1222 79.4937 66.7516 79.5803C66.5716 79.6223 66.4019 79.6318 66.2482 79.622C66.2325 79.6325 66.2177 79.6422 66.2041 79.6512C66.1696 79.6739 66.1406 79.6926 66.1193 79.7061L66.0932 79.7226L66.0849 79.7278L66.0808 79.7303C66.0808 79.7304 66.08 79.7308 65.9905 79.5866C65.9904 79.5866 65.9905 79.5866 65.9905 79.5866L66.0799 79.7309L66.0682 79.7382L65.9739 79.583C65.9739 79.583 65.974 79.583 65.9739 79.583C66.0682 79.7382 66.0683 79.7381 66.0682 79.7382L66.0668 79.739L66.0648 79.7401L66.0594 79.7434L66.0428 79.7534C66.0291 79.7616 66.0103 79.7727 65.9871 79.7863C65.9406 79.8135 65.8756 79.851 65.7966 79.8951C65.6403 79.9824 65.4209 80.1001 65.1761 80.2166C64.9375 80.3303 64.6421 80.4584 64.3398 80.5528C64.2286 80.5875 64.0681 80.634 63.8779 80.666C63.4854 80.8915 63.0628 81.0066 62.6879 81.0745C62.1146 81.1783 61.435 81.2078 60.6846 81.2078C59.5898 81.2078 58.7972 81.0886 58.1632 80.7997C57.3578 80.984 56.1655 81.2078 55.2429 81.2078C54.1363 81.2078 52.7552 80.9366 52.0907 80.7801C50.8305 80.6614 49.576 79.5346 49.1677 77.4999C48.923 76.2806 49.1872 75.1633 49.555 74.3141C49.9195 73.4725 50.4274 72.7943 50.8355 72.3877L52.9531 74.5127C52.803 74.6623 52.5155 75.027 52.3079 75.5064C52.1035 75.9783 52.0189 76.4602 52.1091 76.9096C52.1392 77.0598 52.1729 77.186 52.2079 77.2919C53.1483 76.6778 54.5247 76.3025 56.2915 76.5541C57.2776 76.6945 57.9798 76.9387 58.5388 77.3165C58.8102 77.4999 59.0055 77.6869 59.1404 77.822C59.1924 77.874 59.2291 77.9114 59.2568 77.9395C59.3127 77.9963 59.3316 78.0154 59.364 78.0424C59.3644 78.0427 59.3649 78.0432 59.3656 78.0438C59.3731 78.051 59.3993 78.076 59.5261 78.1094C59.7024 78.1557 60.0432 78.2078 60.6846 78.2078C61.392 78.2078 61.853 78.1769 62.1533 78.1225C62.1736 78.1189 62.1924 78.1152 62.2097 78.1116C62.203 76.0872 62.0765 73.6458 61.9423 71.0578C61.8346 68.9794 61.722 66.8066 61.6626 64.6793C61.5942 62.23 61.6002 59.871 61.7925 57.9435C61.8886 56.9804 62.0354 56.078 62.2618 55.3039C62.4796 54.5592 62.8155 53.7732 63.3931 53.1976C64.7463 51.849 66.08 50.8593 67.821 50.2396C69.5252 49.633 71.5052 49.4227 74.0797 49.4227C76.5682 49.4227 78.057 49.4774 78.9879 49.6357C79.4689 49.7175 79.9244 49.8451 80.3281 50.0883C80.7516 50.3435 80.998 50.6545 81.1536 50.8753C81.1451 50.7393 81.1358 50.6061 81.126 50.4758C81.075 49.7958 81.0178 49.2687 80.9649 48.7804C80.9298 48.4569 80.8965 48.1504 80.8681 47.8277C80.8372 47.4767 80.8138 47.1079 80.8299 46.7731C80.8438 46.484 80.8929 45.9664 81.2044 45.5003C81.2043 45.5003 81.2191 45.4766 81.2458 45.4188C81.2742 45.3573 81.3083 45.2738 81.3463 45.1667C81.4227 44.9514 81.5024 44.6757 81.5776 44.3544C81.7284 43.7101 81.8452 42.9522 81.891 42.2519C81.9171 41.8523 81.917 41.5152 81.9 41.2498C81.014 41.2782 80.1525 41.0271 79.4021 40.6846C78.3628 40.2102 77.3595 39.4821 76.4772 38.6879C74.9325 37.2975 73.5145 35.4772 72.854 33.9675C72.7311 33.9991 72.5934 34.0328 72.4576 34.061C71.8206 34.1935 70.9714 34.2723 69.9864 33.95C69.0167 33.6327 68.0618 32.9752 67.1 31.8967C65.4454 30.0416 63.9208 28.4125 62.8083 27.2503C62.6908 27.4362 62.5657 27.6262 62.4345 27.8188C61.6693 28.9419 60.629 30.2494 59.4885 31.4943C58.3512 32.7358 57.0771 33.9556 55.838 34.8782C55.2184 35.3396 54.5785 35.7485 53.945 36.0471C53.3256 36.3391 52.6198 36.57 51.8943 36.57C50.5527 36.57 49.2307 36.3143 48.1793 36.1109C47.8035 36.0382 47.4623 35.9722 47.1671 35.9269C45.9482 35.74 45.1476 35.7911 44.3526 36.3194C44.0346 36.5306 43.6555 36.9929 43.1731 37.828C42.9437 38.225 42.7162 38.6595 42.4698 39.1342C42.4492 39.174 42.4284 39.2141 42.4075 39.2544C42.1838 39.6857 41.9447 40.1468 41.6932 40.5979C40.6658 42.441 39.0275 44.9135 35.9878 44.9135C33.9093 44.9135 32.1188 45.0228 30.6782 45.4714C29.2989 45.901 28.3155 46.6156 27.7009 47.8407C27.1756 48.8877 26.9394 49.7122 26.7178 50.4855C26.6643 50.6719 26.6118 50.8554 26.5562 51.0382C26.3945 51.5704 26.1831 52.1788 25.7684 52.7159C25.9209 53.0533 26.0613 53.4252 26.1719 53.8197C26.4457 54.7959 26.5803 56.07 26.0779 57.3219C25.734 58.1786 25.1491 58.7694 24.5977 59.1921C24.1646 59.5241 23.6719 59.8075 23.3006 60.0211C23.2248 60.0647 23.154 60.1054 23.0898 60.143C22.6613 60.3943 22.4735 60.536 22.3874 60.6307C22.3879 60.6335 22.3885 60.6366 22.3892 60.6398C22.5104 61.2438 22.9248 61.8272 23.5573 62.7176C23.6076 62.7884 23.6592 62.8611 23.7123 62.936C24.0253 63.3779 24.3979 63.922 24.6499 64.505C24.9107 65.1082 25.0973 65.8766 24.8849 66.7231C24.7293 67.3436 24.6344 67.8513 24.579 68.2257C24.5513 68.413 24.5338 68.5641 24.5235 68.6768C24.5184 68.7331 24.5152 68.7777 24.5134 68.8109C24.5115 68.8455 24.5114 68.8613 24.5114 68.8612V73.5291L21.7922 69.7351C21.1184 68.7949 19.4007 66.6493 17.8904 65.4452C17.855 65.4169 17.8202 65.3885 17.7859 65.3599C17.8039 65.7366 17.814 66.0744 17.814 66.3582C17.814 66.7824 17.8796 67.2034 17.997 67.6218C18.3408 68.8477 19.0552 69.884 19.706 70.8281C19.8315 71.0102 19.9546 71.1888 20.0723 71.3646C20.7399 72.3627 21.101 73.9542 21.1175 75.4171C21.3289 76.7566 21.9165 79.4318 22.9148 82.1029C23.3238 83.1974 23.795 84.2728 24.3273 85.2453C24.6494 85.834 24.9825 86.4704 25.334 87.1423C26.4132 89.2049 27.667 91.6012 29.318 93.9736C31.4866 97.0899 34.2335 99.9899 37.8838 101.713C41.7783 103.552 44.5932 104.445 46.7522 104.885C48.8993 105.323 50.4482 105.324 51.8943 105.324C54.64 105.324 60.4468 104.943 65.9046 99.5041ZM17.9391 76.895C18.0499 76.5277 18.1171 76.0673 18.1181 75.5333C18.1202 74.3749 17.8144 73.3849 17.5787 73.0326C17.4994 72.9141 17.4044 72.7777 17.298 72.6251C16.6833 71.7431 15.6909 70.3193 15.1743 68.6549C14.9442 68.3068 14.6399 67.9217 14.272 67.476C14.1833 67.3685 14.0902 67.2567 13.9944 67.1417C13.6577 66.7375 13.2878 66.2934 12.956 65.8534C12.1695 64.8107 11.141 63.2359 11.4946 61.4741C11.6411 60.7437 12.0032 59.9136 12.8521 59.493C13.3457 59.2485 13.8351 59.228 14.2505 59.2937C14.1751 58.5859 14.102 57.9307 14.0387 57.3817C13.9888 57.3244 13.9322 57.2607 13.8696 57.1918C13.585 56.8786 13.1876 56.4717 12.7282 56.0825C12.2625 55.688 11.7743 55.3472 11.31 55.1302C10.8385 54.91 10.5027 54.8686 10.2808 54.9055C9.3762 55.0557 9.13741 55.3795 9.0841 55.4592C9.04722 55.5143 9.03053 55.5606 9.02338 55.5862L9.02338 55.6768L8.98743 55.8381C8.84078 56.4957 8.8614 57.5493 9.07572 58.9228C9.28421 60.2589 9.65235 61.7579 10.0905 63.2333C10.9778 66.2207 12.0899 68.9079 12.5921 69.7838C13.397 71.1875 14.9188 73.5111 16.3686 75.255C16.9749 75.9842 17.5128 76.5434 17.9391 76.895ZM14.5982 62.8502C14.598 62.85 14.5983 62.8503 14.5982 62.8502V62.8502ZM13.7694 62.2536C13.7602 62.2516 13.7553 62.2499 13.7552 62.2496C13.755 62.2493 13.7596 62.2503 13.7694 62.2536ZM19.1096 55.5337C20.0853 54.9564 21.3955 54.4011 23.0984 54.0984C23.1671 54.2641 23.231 54.4429 23.2834 54.6297C23.4561 55.2456 23.4611 55.7875 23.2937 56.2044C23.219 56.3907 23.0714 56.582 22.7725 56.8112C22.5113 57.0114 22.2304 57.1739 21.8695 57.3825C21.7762 57.4364 21.6776 57.4935 21.5726 57.555C21.141 57.808 20.513 58.1861 20.0545 58.7434C19.5142 59.4001 19.2502 60.2453 19.4478 61.23C19.6619 62.2971 20.2665 63.262 20.7827 63.9978C20.4449 63.6757 20.1015 63.3713 19.7606 63.0994C19.152 62.6142 18.9651 62.053 18.9651 61.3521C18.9651 60.6603 19.1431 59.9677 19.3422 59.1931C19.3756 59.0634 19.4095 58.9314 19.4432 58.7968C19.7044 57.7557 19.5263 56.7475 19.2775 55.9893C19.2259 55.8323 19.1694 55.68 19.1096 55.5337ZM81.8059 40.6763C81.8061 40.676 81.8081 40.6802 81.8115 40.6895C81.8075 40.6813 81.8058 40.6766 81.8059 40.6763ZM52.5143 77.8159C52.5275 77.8206 52.5332 77.8244 52.5328 77.825C52.5323 77.8257 52.5257 77.8233 52.5143 77.8159ZM80.1141 59.9701L79.3714 59.8212C79.3714 59.8212 79.3714 59.8212 79.3714 59.8212C79.8624 59.9197 80.0457 59.9562 80.1141 59.9701C80.1141 59.9703 80.1142 59.97 80.1141 59.9701ZM77.5186 58.8224C77.519 58.8226 77.5148 58.8258 77.5053 58.8311C77.5136 58.8248 77.5183 58.8222 77.5186 58.8224ZM74.9945 61.9235C73.7311 61.7175 72.7656 61.2101 72.0128 60.7688C71.8486 60.6726 71.7067 60.5872 71.5789 60.5104C71.4566 60.4368 71.3472 60.3711 71.2436 60.311C71.4718 60.4559 71.7045 60.5984 71.9387 60.7355C72.5667 61.1032 73.1783 61.4159 73.7257 61.6328C74.2952 61.8585 74.6902 61.938 74.9167 61.938C74.9268 61.938 74.9523 61.936 74.9945 61.9235ZM83.8328 46.8518C83.8331 46.8521 83.8323 46.8596 83.8296 46.8732C83.8311 46.8582 83.8325 46.8515 83.8328 46.8518ZM3.01104 46.2079C3.01359 46.2102 3.01123 46.2267 2.99636 46.2503C3.00107 46.2173 3.0085 46.2055 3.01104 46.2079ZM36.0071 53.785C34.6277 54.5842 33.4738 55.5458 32.8606 56.1569L30.7429 54.032C31.525 53.2525 32.8826 52.1282 34.5031 51.1892C36.1024 50.2625 38.1178 49.4227 40.1736 49.4227C42.36 49.4227 46.5204 49.7443 50.2426 50.3273C52.1028 50.6186 53.9119 50.9839 55.3349 51.4262C56.0421 51.646 56.7109 51.9021 57.2591 52.2071C57.745 52.4775 58.4219 52.9389 58.7279 53.7013C58.8796 54.0792 58.9755 54.5611 59.0468 55.0147C59.1233 55.5013 59.1898 56.084 59.2494 56.7294C59.3688 58.0218 59.4669 59.6378 59.556 61.3797C59.6216 62.6618 59.6825 64.0106 59.7434 65.3616C59.8495 67.7151 59.9559 70.0753 60.0884 72.1007L57.0948 72.2966C56.9607 70.2457 56.8513 67.8237 56.744 65.4452C56.6834 64.1023 56.6234 62.7734 56.5599 61.533C56.4712 59.7985 56.3756 58.2335 56.2622 57.0054C56.2054 56.3907 56.1457 55.8783 56.0832 55.4805C56.052 55.282 56.0219 55.1239 55.994 55.0029C55.9886 54.9794 55.9835 54.9581 55.9786 54.9389C55.9408 54.912 55.8834 54.8748 55.8004 54.8285C55.508 54.6659 55.0585 54.4819 54.4445 54.291C53.2251 53.912 51.5808 53.5734 49.7784 53.2911C46.1752 52.7268 42.1731 52.4227 40.1736 52.4227C38.8806 52.4227 37.4078 52.9734 36.0071 53.785ZM47.618 57.9789L47.415 56.9608C47.1724 57.0092 46.9132 57.0627 46.6429 57.1186C45.2286 57.411 43.5102 57.7662 42.2665 57.7662H37.2434V59.1558C37.0478 59.12 36.8754 59.0853 36.7306 59.0532L35.4583 61.6802C36.2733 62.3448 37.6135 63.3303 39.0285 64.1588C39.7366 64.5733 40.4906 64.9646 41.226 65.2561C41.9394 65.5388 42.7444 65.7723 43.5225 65.7723C45.1966 65.7723 46.6434 65.0795 47.7682 64.3124C48.8779 63.5558 49.7966 62.6401 50.4154 62.0234L50.4411 61.9977C50.4412 61.9976 50.4417 61.9971 50.4419 61.997C50.5126 61.9266 50.5637 61.9059 50.5981 61.8961C50.6412 61.8838 50.71 61.8753 50.8131 61.8893C50.9184 61.9036 51.0375 61.9387 51.157 61.9912C51.2776 62.0443 51.3687 62.1019 51.4147 62.1364L53.2108 59.7334C52.6402 59.3069 51.1073 58.2586 49.8555 57.8427C49.149 57.608 48.4991 57.6985 47.9759 57.8559C47.8573 57.8916 47.7373 57.9334 47.618 57.9789ZM45.9226 61.9373C45.2891 62.1401 44.5565 62.3177 43.7079 62.4234C43.3071 62.4733 42.8978 62.5068 42.4864 62.5267C42.9732 62.707 43.317 62.7723 43.5225 62.7723C44.3094 62.7723 45.1122 62.4632 45.9226 61.9373ZM63.7314 90.0157C63.598 89.9926 63.4612 89.9674 63.3215 89.9395C62.9256 89.8606 62.7709 89.8857 62.7371 89.8926L62.7346 89.8931C62.7137 89.8973 62.6833 89.9033 62.5242 90.0024C62.5055 90.014 62.484 90.0278 62.4596 90.0433C62.2836 90.1554 61.9623 90.3601 61.5637 90.5136C61.1203 90.6844 60.6178 90.7856 60.01 90.8008C60.5114 90.8776 60.9312 90.9962 61.2516 91.0868C61.3205 91.1062 61.3848 91.1244 61.4443 91.1406C61.9619 91.2813 62.1182 91.2787 62.3047 91.2167C62.3044 91.2168 62.3196 91.2117 62.3512 91.196C62.3825 91.1806 62.424 91.1578 62.4758 91.1255C62.581 91.06 62.7092 90.9676 62.8577 90.8461C63.1307 90.6227 63.4307 90.3353 63.7314 90.0157ZM58.9722 90.7232C58.6079 90.6527 58.2818 90.5375 57.9828 90.3852C57.5915 90.1859 57.2548 89.9159 57.0724 89.7696C57.041 89.7445 57.0142 89.723 56.9925 89.7062C56.8109 89.5654 56.7438 89.5343 56.6736 89.5145C56.5957 89.4925 56.3838 89.4519 55.9073 89.531C54.9545 89.6893 53.8351 89.7483 52.7287 89.7531C53.1756 90.1305 53.5885 90.4613 53.957 90.7206C54.4254 91.0503 54.6846 91.1639 54.7684 91.1847C55.2681 91.3092 55.7279 91.2636 56.3947 91.1212C56.4964 91.0994 56.6077 91.074 56.7272 91.0466C57.3197 90.9109 58.1166 90.7285 58.9722 90.7232ZM67.8252 89.5952C67.496 90.1978 66.7773 91.1403 66.0197 91.9605C65.6299 92.3825 65.1964 92.8088 64.7574 93.168C64.3442 93.506 63.8187 93.875 63.2505 94.0637C62.1812 94.4189 61.291 94.2078 60.6574 94.0356C60.5761 94.0135 60.4986 93.992 60.4239 93.9713C59.9052 93.8276 59.5279 93.7231 59.0102 93.7231C58.508 93.7231 58.0853 93.818 57.5046 93.9484C57.3553 93.9819 57.1955 94.0178 57.0213 94.055C56.223 94.2255 55.2178 94.3884 54.0431 94.0957C53.3904 93.9331 52.7512 93.5404 52.2305 93.1741C51.6757 92.7837 51.092 92.303 50.5334 91.8242C50.1844 91.525 49.849 91.2308 49.5285 90.9496C48.7652 90.28 48.0863 89.6844 47.5088 89.2726C47.2977 89.1221 47.143 89.0284 47.0393 88.9767C46.3194 88.618 46.0106 87.7554 46.3391 87.0214C46.6676 86.2873 47.5166 85.9429 48.2637 86.2408C48.4741 86.3246 48.9297 86.4551 49.4572 86.4925C49.9902 86.5302 50.4613 86.4636 50.8066 86.2916C50.9769 86.2067 51.1722 86.1067 51.3852 85.9976C52.1261 85.6182 53.0822 85.1285 53.9549 84.7806C54.5191 84.5557 55.1559 84.3441 55.7639 84.2683C56.3075 84.2006 57.2591 84.1884 57.9761 84.903C58.3197 85.2454 58.6976 85.5329 59.0536 85.6942C59.3968 85.8496 59.6246 85.8494 59.7931 85.7934C60.2 85.6583 60.5415 85.4678 60.9746 85.2264C61.0349 85.1928 61.0971 85.1581 61.1615 85.1225L61.1841 85.1099C61.6111 84.8734 62.3474 84.4654 63.1962 84.4654C63.7084 84.4654 64.1096 84.6739 64.3403 84.8197C64.5885 84.9767 64.8044 85.168 64.9759 85.3351C65.2769 85.6283 65.5912 85.9985 65.8532 86.3071C65.8842 86.3437 65.9145 86.3793 65.944 86.4139C66.2557 86.7799 66.5016 87.0588 66.7119 87.2479C66.7509 87.283 66.7837 87.3103 66.8104 87.3311C67.2258 87.4058 67.5954 87.6535 67.8214 88.0197C68.0946 88.4625 68.1189 89.0151 67.8856 89.4801C67.866 89.5193 67.8457 89.5578 67.8252 89.5952Z" fill="#BFB33B"/>
<path fill-rule="evenodd" clip-rule="evenodd" d="M69.4027 19.647C67.6723 18.5352 66.0688 17.2113 65.1063 16.3188L67.146 14.1189C68.0047 14.9151 69.4694 16.124 71.0243 17.1231C71.8009 17.622 72.5714 18.05 73.2787 18.3491C74.0042 18.6558 74.5657 18.7847 74.9524 18.7847C76.0089 18.7847 77.1941 18.4459 78.3014 17.9609C79.3981 17.4806 80.306 16.9067 80.7746 16.5537L82.5797 18.9499C81.9275 19.4412 80.818 20.1338 79.505 20.7089C78.2026 21.2793 76.5858 21.7847 74.9524 21.7847C73.9941 21.7847 73.0075 21.4915 72.1105 21.1122C71.1953 20.7253 70.2688 20.2035 69.4027 19.647ZM55.7269 19.9572C54.0164 21.2319 51.9452 22.4341 50.4812 23.2743C49.5523 23.8074 48.6671 24.0538 47.7841 24.0538C46.9265 24.0538 46.1851 23.8195 45.5734 23.5854C45.3115 23.4852 45.0701 23.3862 44.8407 23.2921C43.9408 22.9232 43.2235 22.6291 42.1691 22.6291C40.9757 22.6291 40.2535 23.0318 39.2802 23.8232C39.0698 23.9943 38.8428 24.1895 38.5961 24.4016C37.6913 25.1796 36.5198 26.1868 34.9144 27.0826C31.5469 28.9618 28.4176 28.875 27.0449 28.4811L27.8725 25.5974C28.4612 25.7664 30.7678 25.9611 33.4526 24.4629C34.7672 23.7293 35.6431 22.9783 36.521 22.2254C36.8047 21.9821 37.0886 21.7387 37.3876 21.4955C38.6209 20.4928 40.0002 19.6291 42.1691 19.6291C43.8737 19.6291 45.2151 20.1903 46.1455 20.5797C46.3281 20.6561 46.4949 20.7259 46.6455 20.7835C47.137 20.9716 47.4727 21.0538 47.7841 21.0538C48.07 21.0538 48.4456 20.9836 48.9878 20.6724C50.4659 19.8241 52.3876 18.7043 53.9343 17.5517C54.7103 16.9734 55.3349 16.4282 55.7513 15.9464C56.1442 15.4918 56.2081 15.2587 56.2183 15.2215C56.2199 15.2154 56.2202 15.2146 56.2202 15.2189H59.2202C59.2202 16.3048 58.6014 17.2367 58.021 17.9081C57.3998 18.6269 56.5796 19.3218 55.7269 19.9572ZM68.3554 25.3373C67.2826 24.3893 66.2883 23.2832 65.6996 22.354L68.2338 20.7484C68.6258 21.3671 69.4065 22.2625 70.342 23.0892C71.2948 23.9312 72.2352 24.5477 72.9068 24.7725C73.7719 25.0622 74.7439 25.1744 75.8125 25.2978C76.0727 25.3278 76.3387 25.3585 76.6103 25.3926C77.2479 25.4727 77.9464 25.5781 78.5629 25.7759C79.1626 25.9683 79.9175 26.3193 80.4051 27.0541C80.6805 27.4689 80.9624 28.0425 81.2039 28.534L81.2449 28.6174C81.494 29.1243 81.7331 29.6111 81.9785 30.0368C82.074 30.2025 82.1595 30.3389 82.2342 30.4497C82.3368 30.3696 82.4478 30.2819 82.5684 30.1868C82.619 30.1468 82.6713 30.1055 82.7254 30.0629C83.1506 29.7279 83.659 29.3323 84.1696 29.0005C84.6503 28.6881 85.2849 28.3286 85.9559 28.1985C86.3107 28.1298 86.7579 28.1084 87.2243 28.2629C87.7175 28.4262 88.1138 28.7476 88.3908 29.1648C88.8082 29.7937 89.347 30.9313 89.8142 31.9803C90.3003 33.0716 90.7704 34.2092 91.0564 34.9274L88.2693 36.0374C87.9949 35.3483 87.5403 34.2485 87.0737 33.2009C86.7335 32.437 86.4146 31.7649 86.1664 31.2989C86.0663 31.353 85.946 31.4239 85.8044 31.5159C85.4219 31.7645 85.0109 32.0814 84.5823 32.4191C84.5321 32.4587 84.4809 32.4992 84.429 32.5402C84.0717 32.8227 83.6818 33.1309 83.3523 33.3515C82.9033 33.6522 82.3648 33.7899 81.8044 33.6985C81.2912 33.6149 80.8931 33.3611 80.6183 33.1321C80.0919 32.6933 79.6803 32.0571 79.3794 31.535C79.0821 31.0192 78.8016 30.4478 78.5637 29.9634L78.5119 29.8579C78.2569 29.3392 78.0728 28.9755 77.9313 28.7526C77.9015 28.7337 77.8199 28.6881 77.6463 28.6324C77.3172 28.5268 76.8599 28.4475 76.2366 28.3693C76.0398 28.3446 75.8261 28.3204 75.5996 28.2947C74.5193 28.1725 73.1497 28.0176 71.9544 27.6173C70.7121 27.2014 69.4109 26.27 68.3554 25.3373ZM37.5747 29.8519C38.4193 28.8479 39.3659 28.0117 40.0056 27.5298L41.8107 29.926C41.3296 30.2884 40.5529 30.9719 39.8704 31.7832C39.1587 32.6292 38.7062 33.4305 38.6052 34.0393C38.008 37.6382 33.3306 39.9614 29.8582 37.0548C28.6485 36.0422 27.5444 35.3261 26.6288 34.9916C25.7269 34.6622 25.274 34.7845 24.9988 34.9918C23.8958 35.8227 22.1425 36.43 20.6488 36.555C19.9067 36.6171 19.0217 36.5799 18.2561 36.2194C17.8521 36.0293 17.4485 35.7325 17.1497 35.2866C16.8463 34.8336 16.712 34.3173 16.712 33.7938V30.8387H19.712V33.5527C19.8557 33.5767 20.0806 33.5921 20.3986 33.5655C21.4267 33.4794 22.6154 33.0313 23.1937 32.5957C24.5996 31.5365 26.2483 31.6588 27.658 32.1737C29.0541 32.6836 30.4718 33.6561 31.7838 34.7543C33.3547 36.0693 35.4023 35.0152 35.6457 33.5482C35.8809 32.1307 36.7594 30.8212 37.5747 29.8519ZM6.97346 36.2819C6.76449 35.3059 6.91919 34.3535 7.12164 33.7435L9.96894 34.6884C9.89119 34.9227 9.83574 35.3211 9.90697 35.6538C9.93911 35.8039 9.98976 35.9077 10.0459 35.9801C10.0962 36.045 10.1836 36.1283 10.3654 36.2013C10.445 36.2333 10.5251 36.2653 10.6054 36.2974C11.029 36.4668 11.4562 36.6377 11.8183 36.8041C12.2179 36.9878 12.7387 37.2517 13.1283 37.6431C13.3409 37.8566 13.5735 38.1655 13.6915 38.5819C13.8158 39.0208 13.7771 39.4541 13.6363 39.835C13.3919 40.4957 12.8481 40.9789 12.3899 41.3242C11.55 41.9569 10.6345 42.705 10.0793 43.3913C9.79509 43.7427 9.71543 43.9464 9.70294 44.0043C9.70278 44.0051 9.70271 44.0054 9.7027 44.0054C9.70261 44.0054 9.71176 43.9532 9.69 43.8717C9.66479 43.7773 9.6192 43.7225 9.60832 43.7115L7.48232 45.8282C6.77004 45.1127 6.58982 44.2089 6.77038 43.3718C6.92863 42.6381 7.34805 41.9976 7.74684 41.5046C8.40429 40.6918 9.30844 39.9197 10.0755 39.3188C9.90497 39.2486 9.71804 39.1737 9.51134 39.091C9.42662 39.0571 9.33858 39.0218 9.24699 38.985C7.86198 38.4286 7.19818 37.3315 6.97346 36.2819ZM23.4784 44.1353C23.1491 44.6061 22.7663 45.1533 22.3274 45.7044C21.8166 46.3457 21.5803 46.8109 21.3095 47.3439C21.1845 47.5901 21.0521 47.8508 20.8818 48.15C20.324 49.1306 19.5859 49.98 18.0446 50.754C16.465 51.5473 14.5556 51.1935 13.1508 50.672C11.7083 50.1366 10.261 49.2262 9.47336 48.2373L11.82 46.3683C12.1531 46.7865 13.0595 47.4381 14.1948 47.8596C15.3678 48.295 16.2603 48.293 16.6983 48.0731C17.6788 47.5807 17.9915 47.1636 18.2743 46.6666C18.3451 46.542 18.4253 46.3844 18.5187 46.2011C18.8226 45.6039 19.2659 44.7329 19.9808 43.8353C20.3606 43.3584 20.697 42.8777 21.037 42.3916L21.0569 42.3631C21.3882 41.8896 21.7447 41.38 22.1146 40.9466C22.4824 40.5156 22.9517 40.0513 23.5544 39.7487C24.2088 39.42 24.9445 39.3202 25.7224 39.5156C27.1071 39.8633 28.321 40.2402 28.7755 40.3923L27.8231 43.2371C27.4369 43.1079 26.297 42.753 24.9918 42.4253C24.9358 42.4112 24.93 42.4143 24.909 42.4253C24.9065 42.4266 24.9038 42.4281 24.9007 42.4296C24.8204 42.47 24.6593 42.5862 24.3966 42.894C24.1369 43.1983 23.8638 43.5844 23.5128 44.0862L23.4784 44.1353Z" fill="#BFB33B"/>
</svg>
