<svg width="142" height="234" viewBox="0 0 142 234" fill="none" xmlns="http://www.w3.org/2000/svg">
<path fill-rule="evenodd" clip-rule="evenodd" d="M57.2122 120.883V133.592C57.2122 136.769 58.1178 137.404 62.9199 139.31C63.0616 139.367 63.2133 139.426 63.3745 139.489C69.2423 141.795 84.4031 149.004 86.7399 178.07C89.141 207.934 74.0494 222.646 67.1217 225.09C63.5202 226.361 61.7194 226.819 58.1178 226.819V233.781L29.3054 233.883V226.922C26.9044 226.922 22.5445 226.305 20.9019 225.726C17.3005 224.455 0.996094 216.83 0.996094 178.07C0.996094 147.856 17.0486 142.141 23.8431 139.955C24.6217 139.704 25.2564 139.5 25.7039 139.31C28.7052 138.039 29.3054 136.769 29.3054 133.592V120.883H57.2122ZM70.7233 184.424C70.7233 203.232 56.3171 213.018 43.7117 213.018C31.1063 213.018 20.5418 203.741 19.1012 181.883C17.3004 154.56 38.9097 151.383 49.114 153.289C59.3184 155.195 70.7233 160.914 70.7233 184.424Z" fill="#BFB33B"/>
<path d="M71.4919 17.8983C72.5161 16.7531 74.271 12.6461 77.6211 10.731C79.9219 9.41562 84.0308 8.59308 86.8089 10.5156C86.7051 12.2031 83.6743 18.1689 78.8879 17.486C74.1016 16.8032 73.5142 16.9145 71.4919 17.8983C68.0492 19.8752 65.2575 24.4573 63.1079 30.5331C62.6013 31.9651 62.1304 33.48 61.695 35.0634C63.1425 33.9935 64.2788 32.2484 69.5546 31.0641C74.8304 29.8797 80.2016 31.1923 78.2497 32.6568C76.5406 33.9391 71.2647 35.1235 68.3063 35.2884C65.3478 35.4533 62.9126 35.1934 61.695 35.0634C60.6085 39.0146 59.7433 43.3919 59.0978 47.9692C58.794 50.1233 58.5388 52.3217 58.3321 54.5408C60.8469 53.1146 65.8913 49.655 67.2567 48.4047C70.3627 45.5607 72.2357 41.8951 72.68 44.5412C73.1243 47.1874 72.7142 50.4747 68.7205 53.3682C64.7268 56.2617 61.3348 54.7691 58.3321 54.5408C58.0379 57.698 57.8418 60.8971 57.7433 64.0702C57.728 64.5614 57.7038 65.0575 57.6709 65.5581C60.9768 65.3738 64.7245 64.8729 67.4731 62.9343C69.7574 61.3231 72.1727 56.737 72.9293 59.6625C73.6859 62.588 71.8129 66.2536 68.2957 67.0432C65.4819 67.6749 60.5662 66.8805 57.6709 65.5581C56.6055 81.7805 40.2511 99.4847 38.7564 117.592C39.1892 122.721 40.0177 129.435 40.8842 135.963H46.1356C46.619 118.353 50.0726 111.554 56.6655 103.304C60.2371 98.8344 64.0928 96.0703 68.3323 94.3134C68.1238 90.5761 68.693 84.8272 70.8458 80.8492C72.9986 76.8712 77.9296 74.8157 76.0396 78.1855C74.5276 80.8814 70.2714 90.0607 68.3323 94.3134C71.8085 92.8729 75.5426 92.1097 79.5897 91.639C80.7515 88.4087 81.7112 84.1015 86.2304 79.9916C90.7496 75.8817 98.1128 74.8778 96.782 77.6229C95.7173 79.819 84.8768 87.882 79.5897 91.639C81.0783 91.4659 82.6093 91.3323 84.1853 91.2192C88.552 90.9059 93.2646 90.7494 98.3813 90.3427C103.039 89.9725 108.032 89.3949 113.403 88.3027C114.267 84.2868 116.025 75.7193 116.143 73.576C116.291 70.8969 117.326 68.1683 118.707 71.6525C119.812 74.4399 120.927 79.5415 118.479 83.5359C116.03 87.5304 113.403 88.3027 113.403 88.3027C115.121 87.9532 116.879 87.5511 118.676 87.0862C123.678 84.5321 129.277 80.2631 137.347 81.2971C141.43 81.8203 139.386 85.9318 134.143 87.7078C128.901 89.4839 122.775 87.8469 118.676 87.0862C116.879 87.5511 115.121 87.9532 113.403 88.3027C108.032 89.3949 103.039 89.9725 98.3813 90.3427C103.854 92.6926 115.119 97.79 116.394 99.3808C117.989 101.369 111.431 100.845 107.174 99.0045C102.916 97.1644 99.9806 92.4139 98.3813 90.3427C93.2646 90.7494 88.552 90.9059 84.1853 91.2192C88.3254 94.5053 96.701 101.725 97.0828 104.315C97.56 107.553 90.8205 103.774 87.9105 99.4847C85.0005 95.1954 84.6652 92.7308 84.1853 91.2192C82.6093 91.3323 81.0783 91.4659 79.5897 91.639C75.5426 92.1097 71.8085 92.8729 68.3323 94.3134C64.0928 96.0703 60.2371 98.8344 56.6655 103.304C58.4547 102.413 62.83 100.645 66.0176 100.705C70.0022 100.78 73.5619 102.955 74.5158 104.089C75.4697 105.223 70.6 106.385 67.3625 106.862C64.1251 107.339 59.4217 104.832 56.6655 103.304C50.0726 111.554 46.619 118.353 46.1356 135.963H40.8842C40.0177 129.435 39.1892 122.721 38.7564 117.592C38.0003 108.632 36.5758 98.2774 36.583 92.2556C35.5071 89.6446 33.4676 86.4345 31.0216 85.1463C27.9642 83.5362 23.1472 76.979 23.475 72.2124C23.8029 67.4459 30.8229 76.1193 32.7628 79.1139C35.3604 83.1239 35.7697 87.2558 36.583 92.2556C36.5884 87.7417 36.7499 82.9003 36.98 76.0028L37.0029 75.3164C37.1504 70.89 37.0576 63.8825 36.742 56.49C36.742 56.49 27.1865 53.6059 24.5559 49.0042C21.9253 44.4026 22.352 41.4111 21.9572 39.6525C21.5625 37.8939 29.4534 46.3571 30.7522 48.3621C32.0511 50.3671 36.742 56.49 36.742 56.49C36.6604 54.5782 36.5638 52.6406 36.4527 50.7153C36.1272 45.0738 35.6763 39.5374 35.1078 35.0615C31.3207 33.0963 25.423 27.2918 24.3541 24.087C23.2851 20.8821 19.1575 10.7253 21.6068 12.0726C24.056 13.4199 29.4875 19.2899 31.1583 23.7077C32.829 28.1254 34.4874 33.1176 35.1078 35.0615C34.9317 33.6747 34.7443 32.3897 34.5458 31.2349C34.6 28.6598 34.2156 25.3179 36.1382 22.5398C38.0608 19.7618 40.1142 14.0087 39.6535 11.0667C39.1927 8.12467 43.6149 12.9233 43.0902 19.4814C42.6704 24.7279 37.219 29.5031 34.5458 31.2349C34.7443 32.3897 34.9317 33.6747 35.1078 35.0615C35.6763 39.5374 36.1272 45.0738 36.4527 50.7153C38.0528 47.0649 39.6769 48.7549 40.2511 43.0843C40.8253 37.4137 40.0676 29.1465 43.356 34.8985C46.6443 40.6506 44.6568 47.5871 42.7013 49.7734C41.1369 51.5225 37.6975 51.3383 36.4527 50.7153C36.5638 52.6406 36.6604 54.5782 36.742 56.49C37.0576 63.8825 37.1504 70.89 37.0029 75.3164C39.539 72.8998 43.0303 69.5199 43.2794 65.4699C43.5285 61.42 42.6043 58.6819 43.0971 56.8738C43.5899 55.0657 49.9815 62.188 48.1285 67.277C46.2754 72.366 40.509 74.3296 37.0029 75.3164L36.98 76.0028C36.7499 82.9003 36.5884 87.7417 36.583 92.2556C36.5758 98.2774 38.0003 108.632 38.7564 117.592C40.2511 99.4847 56.6055 81.7805 57.6709 65.5581C57.7038 65.0575 57.728 64.5614 57.7433 64.0702C57.8418 60.8971 58.0379 57.698 58.3321 54.5408C58.5388 52.3217 58.794 50.1233 59.0978 47.9692C56.8698 46.3128 50.6481 40.0713 49.9636 36.3108C49.1081 31.6102 49.4703 31.1571 50.9161 32.103C56.7681 35.9315 57.0979 41.8485 59.0978 47.9692C59.7433 43.3919 60.6085 39.0146 61.695 35.0634C62.1304 33.48 62.6013 31.9651 63.1079 30.5331C60.9281 27.588 58.5248 24.8532 57.1435 21.369C55.7622 17.8847 53.8222 15.0252 55.3344 15.5344C56.8467 16.0437 60.1044 18.5924 61.2854 21.1381C62.4664 23.6838 62.9925 28.4622 63.1079 30.5331C65.2575 24.4573 68.0492 19.8752 71.4919 17.8983C69.0454 15.0813 63.8603 8.76775 64.8326 4.91492C65.8049 1.06209 66.3222 1.46852 66.4593 2.15333C66.7028 3.2279 69.0196 6.106 70.4218 9.35165C71.8239 12.5973 71.4047 16.3347 71.4919 17.8983Z" fill="#FFFEF9"/>
<path fill-rule="evenodd" clip-rule="evenodd" d="M66.3349 5.09425C66.3191 5.15544 66.3032 5.218 66.287 5.28196C66.1418 5.85735 66.2003 6.66038 66.5437 7.70393C66.8816 8.73056 67.4519 9.85904 68.1586 11.0104C68.6951 11.8845 69.2933 12.7447 69.8952 13.5521C69.7817 12.3384 69.5389 11.0903 69.0448 9.94653C68.3925 8.4366 67.5167 6.98924 66.733 5.73166C66.662 5.61774 66.5912 5.50443 66.521 5.39222C66.4583 5.2919 66.3962 5.19245 66.3349 5.09425ZM64.9871 2.44147C64.9871 2.44142 64.9873 2.44234 64.9878 2.44429L64.9871 2.44147ZM69.2736 17.6049C68.1323 16.23 66.7496 14.4497 65.6018 12.5797C64.828 11.3189 64.1314 9.97057 63.6941 8.64177C63.2623 7.32989 63.0373 5.89892 63.3782 4.54789C63.6289 3.55472 63.8598 2.79656 64.0756 2.22882C64.2737 1.70748 64.5145 1.19125 64.8499 0.822758C65.0191 0.636973 65.3492 0.335688 65.8556 0.23764C66.4542 0.121757 66.9624 0.348441 67.284 0.636078C67.559 0.881981 67.701 1.16617 67.772 1.3343C67.8442 1.50539 67.8907 1.67341 67.9216 1.8179C67.9252 1.82784 67.9435 1.88215 67.9965 1.99356C68.0613 2.12975 68.1549 2.30393 68.2818 2.52283C68.4895 2.88125 68.7482 3.29524 69.0525 3.78208C69.1254 3.89879 69.201 4.0197 69.2791 4.14502C70.0652 5.40655 71.0489 7.02105 71.7988 8.75678C72.4391 10.239 72.7351 11.7796 72.872 13.1658C73.8618 11.8379 75.1672 10.406 76.8766 9.42875C78.2183 8.66172 80.035 8.06072 81.9193 7.91364C83.8021 7.76667 85.9025 8.0642 87.6625 9.28217L88.358 9.76348L88.3061 10.6077C88.2626 11.3146 87.9579 12.2095 87.5553 13.0566C87.1325 13.9462 86.5265 14.9408 85.7492 15.8589C84.223 17.6616 81.8016 19.4169 78.6761 18.971C76.25 18.6249 75.0658 18.5106 74.2516 18.564C73.5661 18.6089 73.1323 18.77 72.1959 19.2239C69.2657 20.9317 66.6398 25.0475 64.5221 31.0334C64.499 31.0987 64.4759 31.1641 64.453 31.2298C65.6283 30.6291 67.1451 30.0677 69.2261 29.6005C72.0548 28.9655 74.9326 28.9884 76.916 29.3981C77.4187 29.502 77.8951 29.6369 78.315 29.8085C78.7154 29.9722 79.1609 30.2078 79.5154 30.5612C79.8905 30.935 80.269 31.5656 80.1315 32.3715C80.0085 33.093 79.5281 33.5729 79.1499 33.8566C78.5515 34.3056 77.7433 34.6796 76.9193 34.9897C76.0704 35.3091 75.1009 35.5985 74.1113 35.8466C72.1425 36.3402 69.9872 36.697 68.3897 36.7861C66.1436 36.9113 64.189 36.8015 62.8163 36.6817C61.9003 40.2357 61.1554 44.121 60.5831 48.1787C60.4208 49.3291 60.2726 50.4927 60.1382 51.6659C60.8652 51.1941 61.6314 50.682 62.3761 50.1704C64.133 48.9635 65.6501 47.8421 66.2438 47.2984C66.9612 46.6415 67.6192 45.9262 68.227 45.237C68.3905 45.0515 68.5552 44.8623 68.7183 44.6748C69.1335 44.1977 69.5386 43.7322 69.8893 43.3703C70.1387 43.1129 70.4155 42.8491 70.7044 42.6386C70.9586 42.4533 71.4142 42.1635 71.9985 42.1309C72.7541 42.0888 73.3451 42.4819 73.689 42.9901C73.9703 43.4057 74.0921 43.8925 74.1593 44.2928C74.4105 45.7891 74.4333 47.5472 73.7755 49.3709C73.1134 51.2064 71.8062 52.9848 69.6006 54.5829C65.8895 57.2717 62.345 56.6813 59.8169 56.2602C59.7739 56.253 59.7311 56.2459 59.6887 56.2389C59.4775 58.7964 59.3308 61.3747 59.2482 63.9372C61.981 63.6766 64.6371 63.099 66.6085 61.7085C67.0364 61.4068 67.5223 60.9242 68.0768 60.3188C68.2347 60.1465 68.4033 59.958 68.5765 59.7645C68.9556 59.3408 69.3566 58.8927 69.7144 58.5356C69.9858 58.2646 70.2888 57.9867 70.6082 57.7615C70.9064 57.5512 71.3537 57.2885 71.9021 57.2234C72.5577 57.1456 73.1933 57.3706 73.6622 57.8675C74.058 58.2868 74.2607 58.8195 74.3815 59.2869C75.3386 62.9876 73.0131 67.5215 68.6242 68.5068C66.9602 68.8803 64.82 68.8144 62.7962 68.5176C61.4949 68.3267 60.1715 68.0299 58.9663 67.6495C57.9307 75.3048 53.9493 83.1732 50.0282 90.9224C49.9232 91.1301 49.8181 91.3377 49.7132 91.5452C45.2967 100.278 41.011 108.924 40.2618 117.592C40.6652 122.326 41.4042 128.412 42.1992 134.463L44.6839 134.463C44.9935 126.338 45.9768 120.473 47.6957 115.622C49.5224 110.467 52.1468 106.555 55.4937 102.367C58.9507 98.0414 62.6954 95.2139 66.7968 93.3456C66.7302 89.487 67.39 84.0833 69.5266 80.1352C70.7514 77.8721 72.7584 76.1326 74.3251 75.4024C74.7239 75.2165 75.1739 75.0578 75.6302 75.0076C76.0472 74.9617 76.7778 74.9779 77.3622 75.5341C77.9866 76.1283 78.0086 76.9112 77.9281 77.409C77.846 77.9158 77.623 78.4288 77.3479 78.9193C76.1814 80.999 73.2907 87.1398 71.168 91.733C73.5152 91.0474 75.9516 90.591 78.4783 90.2641C78.5265 90.121 78.5753 89.9753 78.6249 89.827C79.6409 86.7908 81.0041 82.717 85.2212 78.8819C87.7055 76.6226 90.9369 75.2305 93.4224 74.7625C94.6107 74.5388 95.9002 74.4725 96.8836 74.8627C97.4142 75.0733 98.0275 75.4916 98.3054 76.2544C98.5781 77.0027 98.3976 77.7288 98.1318 78.2772C97.8933 78.769 97.4716 79.2743 97.0512 79.7248C96.6011 80.2072 96.0344 80.7494 95.3933 81.3261C94.1094 82.4814 92.4601 83.8356 90.6974 85.224C88.8026 86.7163 86.7569 88.2636 84.8573 89.6689C86.5753 89.5531 88.2943 89.4602 90.0548 89.3651C92.6562 89.2245 95.3483 89.0791 98.2625 88.8475C102.6 88.5026 107.212 87.9779 112.142 87.0236C112.559 85.0591 113.104 82.4203 113.58 79.9527C114.151 76.9976 114.593 74.4389 114.645 73.4936C114.686 72.7488 114.789 71.9842 114.953 71.3038C115.106 70.6703 115.352 69.9333 115.776 69.3852C115.994 69.1032 116.363 68.7371 116.92 68.5798C117.543 68.4043 118.126 68.5634 118.566 68.8516C118.964 69.1119 119.255 69.4777 119.473 69.8218C119.7 70.1801 119.907 70.6103 120.101 71.0997C121.251 73.9994 122.592 79.6963 119.757 84.3199C119.597 84.581 119.436 84.8301 119.274 85.0676C119.662 84.8545 120.059 84.6321 120.465 84.4042C124.824 81.9603 130.313 78.8836 137.538 79.8093C138.765 79.9666 139.94 80.4414 140.583 81.4816C141.253 82.5668 141.048 83.7729 140.585 84.7021C139.684 86.508 137.446 88.1727 134.625 89.1286C131.713 90.115 128.626 90.1332 125.825 89.8402C123.734 89.6214 121.695 89.2132 119.979 88.8696C119.539 88.7814 119.12 88.6974 118.726 88.6221C117.015 89.0586 115.341 89.4393 113.702 89.7726C110.399 90.4443 107.24 90.9234 104.218 91.2798C105.992 92.0831 107.862 92.9498 109.614 93.7956C111.455 94.6843 113.184 95.559 114.543 96.3186C115.221 96.6977 115.827 97.0588 116.315 97.3871C116.762 97.687 117.249 98.049 117.565 98.4424C117.866 98.8183 118.268 99.4845 118.101 100.31C117.924 101.177 117.252 101.606 116.831 101.792C116.019 102.15 114.896 102.183 113.893 102.126C111.752 102.004 108.875 101.374 106.579 100.381C104.152 99.3328 102.179 97.4945 100.652 95.7477C99.5831 94.5258 98.6378 93.227 97.9279 92.2517C97.8391 92.1298 97.754 92.0129 97.6729 91.9019C95.0865 92.0958 92.5368 92.2347 90.1084 92.367C89.4231 92.4044 88.7474 92.4412 88.0833 92.4786C89.697 93.8432 91.4705 95.4069 93.0794 96.9434C94.4277 98.231 95.6872 99.5249 96.6445 100.682C97.1226 101.26 97.5466 101.83 97.8717 102.366C98.1808 102.877 98.4754 103.477 98.5667 104.097C98.6549 104.695 98.6277 105.451 98.1576 106.096C97.661 106.778 96.9258 106.995 96.3436 107.027C95.2898 107.086 94.0844 106.6 93.053 106.042C90.8808 104.867 88.2762 102.696 86.6692 100.327C84.2823 96.8087 83.513 94.3811 83.0758 92.8079C81.9438 92.8991 80.8404 93.0036 79.763 93.129C75.7898 93.591 72.2062 94.3318 68.9065 95.6992C66.5862 96.6607 64.3827 97.9419 62.2739 99.6835C63.5312 99.3836 64.8395 99.1827 66.0457 99.2053C68.2929 99.2474 70.3843 99.8783 72.0313 100.638C73.6371 101.378 74.9869 102.319 75.6636 103.124C76.0666 103.603 76.2784 104.285 76.0347 104.999C75.8402 105.569 75.4243 105.935 75.1477 106.14C74.569 106.568 73.7522 106.894 72.9775 107.148C71.3622 107.676 69.2432 108.101 67.5813 108.346C65.5541 108.645 63.2581 108.008 61.2838 107.231C59.7599 106.63 58.2842 105.886 57.0582 105.228C54.204 108.9 52.056 112.299 50.5233 116.624C48.8476 121.353 47.8745 127.283 47.6351 136.004L47.595 137.463L39.5702 137.463L39.3973 136.16C38.5305 129.63 37.6978 122.885 37.2617 117.718C36.9998 114.614 36.6582 111.352 36.3223 108.143C36.1751 106.736 36.0289 105.34 35.891 103.973C35.4568 99.6651 35.1031 95.6249 35.0838 92.561C34.5928 91.4246 33.9139 90.1882 33.1084 89.0945C32.2281 87.8994 31.2672 86.971 30.3227 86.4736C28.4618 85.4935 26.321 83.2028 24.7122 80.6665C23.1033 78.1301 21.7821 74.9665 21.9786 72.1095C22.0284 71.3849 22.2192 70.5273 22.8621 69.9239C23.598 69.2333 24.5102 69.2369 25.1667 69.4064C25.7944 69.5684 26.3957 69.9198 26.9155 70.2894C27.4555 70.6733 28.0095 71.1514 28.5504 71.668C30.6907 73.7121 33.0027 76.7253 34.0217 78.2984C34.5281 79.0801 34.9575 79.8674 35.3259 80.6616C35.3724 79.2027 35.4242 77.649 35.48 75.976L35.5037 75.2664C35.6426 71.0989 35.5662 64.576 35.2861 57.588C35.1075 57.5258 34.9088 57.4552 34.6931 57.3764C33.725 57.0227 32.4025 56.5005 30.9897 55.8266C29.5814 55.1549 28.0535 54.3185 26.6894 53.3297C25.3395 52.3512 24.0602 51.1596 23.2537 49.7487C21.0701 45.929 20.7908 42.8546 20.6314 41.1007C20.5885 40.6277 20.5542 40.2507 20.4937 39.9811C20.4631 39.8449 20.4266 39.6281 20.4509 39.3744C20.4755 39.116 20.5786 38.6929 20.9511 38.3439C21.3338 37.9853 21.78 37.9106 22.069 37.9138C22.3412 37.9168 22.562 37.9857 22.6907 38.0334C23.1381 38.1996 23.5986 38.5552 23.9331 38.8294C24.7065 39.4633 25.7451 40.4697 26.7954 41.5507C28.8711 43.6868 31.2701 46.4026 32.0112 47.5466C32.5618 48.3966 33.7904 50.0762 35.0063 51.7057C34.9896 51.4042 34.9726 51.1028 34.9552 50.8017C34.6488 45.4917 34.2319 40.2929 33.7128 36.0013C31.7747 34.8554 29.5482 33.0116 27.6469 31.0957C26.568 30.0085 25.5628 28.8671 24.7489 27.7723C23.9507 26.6985 23.2725 25.5852 22.9311 24.5616C22.7632 24.0582 22.4849 23.2917 22.1577 22.3904C21.5523 20.7228 20.7794 18.5939 20.2284 16.817C19.8009 15.4383 19.4296 14.0444 19.3564 13.0398C19.3373 12.7773 19.3336 12.4869 19.3734 12.2002C19.4103 11.9349 19.5031 11.5268 19.7895 11.1551C20.1308 10.7121 20.644 10.4567 21.2055 10.4504C21.6776 10.4451 22.071 10.616 22.3297 10.7583C23.8023 11.5684 25.9171 13.5471 27.814 15.7634C29.7313 18.0034 31.6359 20.7302 32.5613 23.1771C32.8325 23.8941 33.1032 24.6259 33.3693 25.3573C33.6241 24.1343 34.0814 22.8761 34.9048 21.6862C35.759 20.4519 36.6965 18.463 37.3623 16.4033C38.0437 14.2954 38.3447 12.4047 38.1715 11.2988C38.1079 10.8924 38.0406 10.2003 38.3767 9.59058C38.5865 9.2098 38.9592 8.86053 39.4896 8.73136C39.966 8.61535 40.3783 8.72443 40.6339 8.82818C41.122 9.02626 41.515 9.39606 41.792 9.70394C42.0994 10.0458 42.4018 10.4684 42.685 10.9447C43.8063 12.8299 44.8755 15.9756 44.5854 19.6011C44.3392 22.6777 42.6446 25.4762 40.8077 27.6455C39.2779 29.4521 37.5501 30.9396 36.1805 31.9308C36.3258 32.851 36.4642 33.8357 36.5959 34.8725C37.0322 38.3081 37.3986 42.3498 37.6927 46.5747C38.0589 46.156 38.5039 45.4498 38.7587 42.9332C38.8904 41.6334 38.95 40.1824 39.0087 38.7521C39.0116 38.6821 39.0145 38.6122 39.0173 38.5424C39.0775 37.0835 39.1412 35.6149 39.3008 34.4961C39.3792 33.9465 39.4946 33.3706 39.6952 32.889C39.8565 32.5017 40.3084 31.6113 41.361 31.4673C42.3467 31.3325 43.0574 31.9805 43.394 32.3378C43.8099 32.7794 44.2268 33.3994 44.6582 34.1541C46.4985 37.3732 46.8436 40.8871 46.4842 43.8535C46.1313 46.7672 45.0686 49.3767 43.8194 50.7734C42.6673 52.0615 40.9607 52.5209 39.5741 52.6294C39.0711 52.6687 38.5566 52.6661 38.06 52.624C38.1266 53.8954 38.1868 55.1663 38.2406 56.426C38.4788 62.0049 38.5912 67.3794 38.5684 71.607C38.9976 71.1281 39.4109 70.6309 39.7922 70.1146C40.9254 68.5802 41.6825 66.9994 41.7823 65.3779C41.8983 63.4914 41.7435 61.9062 41.6054 60.4914L41.604 60.4769C41.5991 60.427 41.5942 60.3769 41.5893 60.3266C41.464 59.0507 41.3277 57.6617 41.6499 56.4794C41.7517 56.1057 41.986 55.6613 42.4599 55.3649C42.9227 55.0756 43.4044 55.059 43.746 55.1085C44.3605 55.1976 44.8983 55.5483 45.2675 55.8329C46.0809 56.4599 46.9757 57.4834 47.7491 58.67C49.2466 60.9674 50.7155 64.5563 49.5379 67.7903C48.4532 70.7692 46.2425 72.7681 43.9499 74.1257C42.088 75.2283 40.1019 75.9499 38.4659 76.4508C38.2427 83.1439 38.0883 87.8594 38.083 92.2574C38.0795 95.1808 38.4253 99.2018 38.8759 103.672C39.0094 104.996 39.1519 106.357 39.2962 107.736C41.2237 101.721 44.1807 95.8372 47.0361 90.1913L47.1767 89.9132C51.5794 81.2083 55.6712 73.1184 56.1741 65.4598C56.2059 64.9758 56.2293 64.4969 56.244 64.0236C56.3435 60.8204 56.5415 57.5904 56.8385 54.4016C57.0203 52.451 57.2391 50.5151 57.4954 48.6096C56.2316 47.5491 54.4447 45.8073 52.8134 43.9057C51.8231 42.7513 50.8616 41.5054 50.0953 40.2825C49.3444 39.0844 48.7096 37.7978 48.4879 36.5794C48.2714 35.3903 48.1244 34.4299 48.0546 33.6755C47.9897 32.9746 47.9694 32.2631 48.1332 31.6822C48.221 31.3712 48.402 30.9481 48.8024 30.6196C49.2388 30.2616 49.7405 30.1734 50.1512 30.2047C50.5218 30.233 50.8403 30.3571 51.0634 30.4621C51.2993 30.573 51.5285 30.7111 51.7374 30.8477C54.9933 32.9779 56.7054 35.7046 57.8487 38.6306C58.177 39.471 58.4598 40.3312 58.7187 41.1955C59.168 38.9291 59.6777 36.742 60.2487 34.6657C60.6164 33.3284 61.01 32.0353 61.43 30.7952C61.1852 30.4718 60.9353 30.1458 60.6826 29.8163C58.8836 27.4696 56.9469 24.9432 55.7491 21.9218C55.421 21.0943 55.0564 20.2955 54.7079 19.5538C54.6222 19.3715 54.5362 19.1898 54.4513 19.0108C54.2007 18.4819 53.9611 17.9761 53.7765 17.5481C53.6512 17.2575 53.5337 16.9632 53.4471 16.6879C53.3703 16.4436 53.2716 16.0761 53.2859 15.6863C53.3016 15.2575 53.4969 14.4567 54.3553 14.1069C54.977 13.8536 55.5671 14.03 55.8132 14.1129C56.8494 14.4619 58.2201 15.3798 59.4284 16.4495C60.6567 17.5369 61.9337 18.9712 62.6461 20.5069C63.203 21.7073 63.6072 23.2651 63.8989 24.7781C65.4073 21.7683 67.1852 19.2755 69.2736 17.6049ZM74.8504 15.5538C75.9085 15.5725 77.2371 15.7353 79.0998 16.0011C80.7606 16.238 82.2478 15.3519 83.4595 13.9205C84.0513 13.2216 84.5215 12.451 84.8458 11.7688C84.9314 11.5886 85.0027 11.4233 85.0617 11.2746C84.203 10.9346 83.204 10.8225 82.1527 10.9045C80.7129 11.0169 79.3247 11.4849 78.3655 12.0332C76.9766 12.8272 75.8535 14.1188 74.9136 15.463C74.8924 15.4933 74.8713 15.5236 74.8504 15.5538ZM60.8983 25.069C60.6366 23.7765 60.3102 22.6003 59.9247 21.7694C59.5013 20.8568 58.6912 19.8603 57.7468 18.9753C58.0101 19.5509 58.2823 20.1713 58.5379 20.8162C59.1478 22.3545 59.9647 23.7249 60.8983 25.069ZM54.8557 16.956C54.8575 16.9566 54.8593 16.9572 54.861 16.9578C54.8178 16.9483 54.8121 16.9413 54.8557 16.956ZM56.1613 43.1529C55.8221 41.9409 55.476 40.8016 55.0544 39.7225C54.2088 37.5583 53.0723 35.6698 51.1237 34.1038C51.1945 34.6289 51.2985 35.2685 51.4394 36.0422C51.5598 36.7041 51.9595 37.6079 52.6373 38.6894C53.2996 39.7462 54.1612 40.8693 55.0903 41.9524C55.4443 42.365 55.804 42.7671 56.1613 43.1529ZM42.487 71.5052C43.6707 69.8132 44.6381 67.8142 44.7766 65.562C44.9073 63.4364 44.7332 61.6532 44.5959 60.2475L44.5898 60.1854C44.5583 59.8623 44.5309 59.5708 44.509 59.3065C44.7466 59.5997 44.9929 59.9354 45.2358 60.3081C46.5941 62.392 47.3945 64.9087 46.719 66.7638C45.9594 68.8498 44.3879 70.3664 42.487 71.5052ZM38.8699 49.6576C39.0217 49.6571 39.179 49.6511 39.3402 49.6385C40.3757 49.5575 41.1709 49.2345 41.5833 48.7734C42.2896 47.9837 43.1984 46.0319 43.506 43.4927C43.799 41.0736 43.5179 38.3289 42.1689 35.8494C42.101 36.6504 42.0584 37.6077 42.0148 38.6659C42.0115 38.7451 42.0083 38.8247 42.005 38.9048C41.9474 40.3088 41.8845 41.8429 41.7435 43.2355C41.4391 46.2409 40.8231 47.5964 39.8445 48.6686C39.6325 48.9008 39.4416 49.0874 39.2638 49.2611C39.1258 49.3959 38.9958 49.5229 38.8699 49.6576ZM42.4902 33.9895C42.4904 33.9905 42.4852 34.0021 42.4738 34.021C42.4842 33.9978 42.4899 33.9884 42.4902 33.9895ZM41.1411 34.326C41.1188 34.3113 41.1073 34.3008 41.1071 34.2993C41.1069 34.2978 41.1181 34.3051 41.1411 34.326ZM36.0627 28.189C36.8729 27.4808 37.7271 26.6412 38.5183 25.7069C40.1803 23.744 41.4213 21.5317 41.595 19.3618C41.7457 17.4783 41.4368 15.7597 40.973 14.3955C40.7921 15.3732 40.5247 16.3739 40.2169 17.3261C39.4905 19.573 38.44 21.8497 37.3717 23.3934C36.6048 24.5015 36.27 25.757 36.1339 27.1133C36.097 27.4809 36.0752 27.8375 36.0627 28.189ZM41.1197 10.666C41.1202 10.6664 41.1205 10.6751 41.1194 10.6907C41.1187 10.6734 41.1193 10.6656 41.1197 10.666ZM32.2697 31.2715C31.5413 29.1365 30.6495 26.603 29.7552 24.2383C29.0099 22.2675 27.3634 19.8504 25.5349 17.7141C24.5688 16.5855 23.6091 15.6015 22.7735 14.8425C22.8668 15.179 22.974 15.5422 23.0938 15.9285C23.6382 17.6842 24.3209 19.5585 24.9002 21.1492C25.2466 22.1003 25.5561 22.95 25.777 23.6124C25.9701 24.1912 26.43 25.0052 27.1565 25.9825C27.8675 26.9389 28.7739 27.9724 29.7763 28.9825C30.583 29.7954 31.4323 30.5735 32.2697 31.2715ZM20.8838 13.3869C20.884 13.387 20.8835 13.3867 20.8838 13.3869C20.8709 13.381 20.8711 13.3799 20.8838 13.3869ZM32.3382 53.146C31.2075 51.6262 30.0592 50.0512 29.4933 49.1776C28.9355 48.3166 26.7397 45.7983 24.6438 43.6413C24.3794 43.3691 24.121 43.1074 23.8723 42.8598C24.0987 44.2983 24.5716 46.0093 25.8581 48.2598C26.3669 49.1498 27.2686 50.0443 28.4501 50.9007C29.6175 51.7469 30.9718 52.4943 32.2812 53.1188C32.3002 53.1279 32.3192 53.137 32.3382 53.146ZM33.8038 85.3455C33.3129 83.4322 32.6334 81.6731 31.5038 79.9295C30.583 78.508 28.415 75.6871 26.4784 73.8375C26 73.3806 25.56 73.0066 25.1771 72.7343C25.099 72.6788 25.0266 72.6299 24.9599 72.587C24.9277 74.4582 25.8328 76.8324 27.2455 79.0596C28.7276 81.396 30.5241 83.189 31.7206 83.8192C32.4717 84.2147 33.1679 84.743 33.8038 85.3455ZM60.1661 103.454C60.8813 103.803 61.6293 104.142 62.3833 104.439C64.2591 105.178 65.9335 105.557 67.1438 105.378C68.7193 105.146 70.6539 104.751 72.0444 104.296C72.1387 104.266 72.228 104.235 72.3122 104.205C71.9008 103.937 71.3849 103.643 70.7751 103.362C69.4076 102.732 67.7269 102.237 65.9895 102.205C64.6399 102.179 62.9335 102.549 61.2718 103.077C60.8922 103.198 60.5217 103.325 60.1661 103.454ZM73.3929 103.704C73.3933 103.704 73.3889 103.708 73.3781 103.717C73.387 103.708 73.3924 103.704 73.3929 103.704ZM87.5208 95.9479C87.9398 96.7453 88.4697 97.6372 89.1518 98.6426C90.4548 100.563 92.675 102.426 94.4807 103.403C94.7519 103.55 94.9922 103.665 95.2011 103.754C94.9858 103.422 94.6957 103.033 94.3328 102.594C93.4829 101.567 92.3183 100.365 91.0074 99.113C89.8923 98.048 88.6908 96.9654 87.5208 95.9479ZM103.221 94.1217C104.552 95.5881 106.071 96.8938 107.769 97.6276C109.468 98.3622 111.596 98.8755 113.308 99.0662C113.234 99.0239 113.157 98.9809 113.079 98.9373C111.797 98.2203 110.129 97.3755 108.31 96.4972C106.661 95.7012 104.903 94.8851 103.221 94.1217ZM115.247 100.35C115.246 100.35 115.242 100.345 115.237 100.335C115.244 100.345 115.247 100.35 115.247 100.35ZM123.061 86.4088C124.051 86.586 125.078 86.7457 126.137 86.8565C128.734 87.1281 131.331 87.0768 133.662 86.2872C136.083 85.467 137.489 84.1878 137.9 83.3632C137.983 83.1976 138.006 83.0974 138.011 83.0457C137.94 82.9912 137.718 82.8569 137.157 82.785C131.427 82.0509 127.133 84.1656 123.061 86.4088ZM138.008 83.0015C138.009 83.001 138.011 83.0067 138.012 83.0196C138.008 83.0084 138.007 83.002 138.008 83.0015ZM115.667 84.8218C116.158 84.2793 116.68 83.5999 117.2 82.752C119.021 79.7816 118.541 75.9222 117.674 73.2179C117.66 73.3629 117.649 73.5103 117.641 73.6584C117.575 74.8564 117.08 77.6531 116.526 80.5216C116.249 81.9531 115.95 83.4402 115.667 84.8218ZM82.6561 87.565C84.65 86.0952 86.8341 84.448 88.8412 82.8672C90.5826 81.4957 92.1735 80.1876 93.3868 79.096C93.9944 78.5493 94.4905 78.0718 94.8577 77.6783C94.8862 77.6478 94.9136 77.618 94.94 77.5891C94.6792 77.6028 94.3591 77.6389 93.9775 77.7107C91.9843 78.086 89.2745 79.2508 87.2396 81.1014C84.8577 83.2675 83.5574 85.459 82.6561 87.565ZM70.5888 85.8752C71.6615 83.5962 72.7391 81.3447 73.5929 79.6374C73.0674 80.1794 72.561 80.8314 72.165 81.5631C71.478 82.8327 70.9615 84.3216 70.5888 85.8752ZM65.2362 65.7466C66.3296 65.3506 67.3808 64.8349 68.3377 64.1601C69.052 63.6563 69.7246 62.9614 70.289 62.3451C70.5068 62.1075 70.7058 61.8848 70.8926 61.6758C71.1438 61.3948 71.3728 61.1385 71.5954 60.9038C71.6429 62.8789 70.2685 65.063 67.9671 65.5796C67.2466 65.7414 66.3003 65.7957 65.2362 65.7466ZM62.6672 53.5941C64.3304 53.7327 65.9372 53.5324 67.8404 52.1535C69.6284 50.858 70.5231 49.546 70.9535 48.353C71.2069 47.6504 71.3144 46.9466 71.3218 46.2539C71.2332 46.3553 71.1409 46.4613 71.0446 46.572C70.87 46.7727 70.6819 46.9888 70.477 47.2212C69.8462 47.9365 69.1053 48.7459 68.2697 49.511C67.498 50.2177 65.8101 51.4512 64.0747 52.6432C63.6126 52.9606 63.1386 53.2809 62.6672 53.5941ZM72.515 45.0345C72.5149 45.035 72.5086 45.0392 72.4964 45.0455C72.509 45.0372 72.515 45.034 72.515 45.0345ZM65.9419 33.8389C66.6523 33.8477 67.4175 33.8356 68.2228 33.7907C69.5838 33.7149 71.5457 33.397 73.3817 32.9367C74.2345 32.7229 75.0366 32.4841 75.7202 32.2347C74.1898 32.0181 72.0371 32.0441 69.8832 32.5276C68.0958 32.9289 66.8531 33.3878 65.9419 33.8389ZM77.3795 31.4321C77.3799 31.4321 77.3765 31.4355 77.3684 31.4421C77.3752 31.4354 77.3792 31.432 77.3795 31.4321Z" fill="#BFB33B"/>
</svg>
