<svg width="194" height="112" viewBox="0 0 194 112" fill="none" xmlns="http://www.w3.org/2000/svg">
<path d="M162.996 0.301822C166.31 0.301822 168.996 2.98811 168.996 6.30182V17.3018C168.996 18.8385 168.418 20.2403 167.468 21.3018C168.418 22.3633 168.996 23.7651 168.996 25.3018V36.3018C168.996 37.0031 168.876 37.6763 168.655 38.3018H187.996C191.31 38.3018 193.996 40.9881 193.996 44.3018V63.3018C193.996 64.8385 193.418 66.2403 192.468 67.3018C193.418 68.3633 193.996 69.7651 193.996 71.3018V90.3018C193.996 91.8385 193.418 93.2403 192.468 94.3018C193.418 95.3633 193.996 96.7651 193.996 98.3018V105.302C193.996 108.616 191.31 111.302 187.996 111.302L6.99609 111.302C3.68239 111.302 0.996094 108.616 0.996094 105.302V98.3018C0.996094 96.7651 1.5738 95.3633 2.52388 94.3018C1.5738 93.2403 0.996094 91.8385 0.996094 90.3018V71.3018C0.996094 69.7651 1.5738 68.3633 2.52388 67.3018C1.5738 66.2403 0.996094 64.8385 0.996094 63.3018V44.3018C0.996094 40.9881 3.68239 38.3018 6.99609 38.3018H27.3375C27.1164 37.6763 26.9961 37.0031 26.9961 36.3018L26.9961 25.3018C26.9961 23.7651 27.5738 22.3633 28.5239 21.3018C27.5738 20.2403 26.9961 18.8385 26.9961 17.3018L26.9961 6.30182C26.9961 2.98811 29.6824 0.301819 32.9961 0.301819L162.996 0.301822Z" fill="#FFFEF9"/>
<path fill-rule="evenodd" clip-rule="evenodd" d="M167.468 21.3018C168.418 20.2403 168.996 18.8385 168.996 17.3018V6.30182C168.996 2.98811 166.31 0.301822 162.996 0.301822L32.9961 0.301819C29.6824 0.301819 26.9961 2.98811 26.9961 6.30182L26.9961 17.3018C26.9961 18.8385 27.5738 20.2403 28.5239 21.3018C27.5738 22.3633 26.9961 23.7651 26.9961 25.3018L26.9961 36.3018C26.9961 37.0031 27.1164 37.6763 27.3375 38.3018H6.99609C3.68239 38.3018 0.996094 40.9881 0.996094 44.3018V63.3018C0.996094 64.8385 1.5738 66.2403 2.52388 67.3018C1.5738 68.3633 0.996094 69.7651 0.996094 71.3018V90.3018C0.996094 91.8385 1.5738 93.2403 2.52388 94.3018C1.5738 95.3633 0.996094 96.7651 0.996094 98.3018V105.302C0.996094 108.616 3.68237 111.302 6.99609 111.302L187.996 111.302C191.31 111.302 193.996 108.616 193.996 105.302V98.3018C193.996 96.7651 193.418 95.3633 192.468 94.3018C193.418 93.2403 193.996 91.8385 193.996 90.3018V71.3018C193.996 69.7651 193.418 68.3633 192.468 67.3018C193.418 66.2403 193.996 64.8385 193.996 63.3018V44.3018C193.996 40.9881 191.31 38.3018 187.996 38.3018H168.655C168.876 37.6763 168.996 37.0031 168.996 36.3018V25.3018C168.996 23.7651 168.418 22.3633 167.468 21.3018ZM164.996 17.3018V6.30182C164.996 5.19725 164.101 4.30182 162.996 4.30182L32.9961 4.30182C31.8915 4.30182 30.9961 5.19725 30.9961 6.30182L30.9961 17.3018C30.9961 18.4053 31.8897 19.3 32.9927 19.3018L162.996 19.3018C164.101 19.3018 164.996 18.4064 164.996 17.3018ZM162.996 23.3018L32.9927 23.3018C31.8897 23.3037 30.9961 24.1984 30.9961 25.3018L30.9961 36.3018C30.9961 37.4047 31.8887 38.299 32.9909 38.3018L32.9961 38.3018H163.001C164.103 38.2994 164.996 37.4049 164.996 36.3018V25.3018C164.996 24.1973 164.101 23.3018 162.996 23.3018ZM163.004 42.3018C163.001 42.3018 162.999 42.3018 162.996 42.3018L32.9961 42.3018C32.9931 42.3018 32.9901 42.3018 32.9871 42.3018H6.99609C5.89153 42.3018 4.99609 43.1972 4.99609 44.3018L4.99609 63.3018C4.99609 64.4064 5.89152 65.3018 6.99609 65.3018L187.996 65.3018L188.001 65.3018C189.103 65.2992 189.996 64.4048 189.996 63.3018V44.3018C189.996 43.1972 189.101 42.3018 187.996 42.3018H163.004ZM188.001 69.3018L6.99609 69.3018C5.89153 69.3018 4.99609 70.1972 4.99609 71.3018L4.99609 90.3018C4.99609 91.4064 5.89152 92.3018 6.99609 92.3018L187.996 92.3018L188.001 92.3018C189.103 92.2992 189.996 91.4048 189.996 90.3018V71.3018C189.996 70.1989 189.103 69.3044 188.001 69.3018ZM4.99609 98.3018C4.99609 97.1989 5.88888 96.3044 6.99122 96.3018L187.996 96.3018C189.101 96.3018 189.996 97.1972 189.996 98.3018V105.302C189.996 106.406 189.101 107.302 187.996 107.302L6.99609 107.302C5.89152 107.302 4.99609 106.406 4.99609 105.302L4.99609 98.3018Z" fill="#BFB33B"/>
<path d="M43.9897 75.5018L41.3437 82.3058L38.6977 75.5018H36.1497L36.1497 85.3018H38.0957L38.0957 78.0638L40.5177 84.4478L40.5037 84.4618L42.1837 84.4618L44.6057 78.0078L44.6057 85.3018H46.5517L46.5517 75.5018H43.9897Z" fill="#222222"/>
<path d="M57.5195 75.5018L54.9575 75.5018L52.6755 79.1278L50.4075 75.5018L47.8455 75.5018L51.6395 81.1018V85.3018H53.7395V81.0878L57.5195 75.5018Z" fill="#222222"/>
<path d="M61.8938 85.3018H63.8678V82.3198L65.6738 82.3198C67.8718 82.3198 69.3558 80.9478 69.3558 78.9038C69.3558 76.8598 67.8718 75.5018 65.6738 75.5018L61.8938 75.5018L61.8938 85.3018ZM63.8678 80.4298L63.8678 77.3918L65.5058 77.3918C66.6538 77.3918 67.2838 77.9238 67.2838 78.9038C67.2838 79.8978 66.6538 80.4298 65.5058 80.4298L63.8678 80.4298Z" fill="#222222"/>
<path d="M72.9349 75.5018H70.8489L70.8489 85.3018L77.0509 85.3018V83.3558L72.9349 83.3558L72.9349 75.5018Z" fill="#222222"/>
<path d="M86.1075 85.3018H88.2915L84.2175 75.4178L81.7115 75.4178L77.6515 85.3018H79.7935L80.7595 82.8658L85.1415 82.8658L86.1075 85.3018ZM81.5015 81.0178L82.9575 77.3778L84.3995 81.0178H81.5015Z" fill="#222222"/>
<path d="M89.634 85.3018L91.622 85.3018L91.622 78.7778L96.76 85.3018L98.342 85.3018L98.342 75.5018L96.34 75.5018L96.34 81.9698L91.272 75.5018L89.634 75.5018L89.634 85.3018Z" fill="#222222"/>
<path d="M107.769 75.5018L99.7885 75.5018V77.4478H102.743L102.743 85.3018H104.829L104.829 77.4478L107.769 77.4478V75.5018Z" fill="#222222"/>
<path d="M117.986 80.2198C118.896 79.8138 119.428 79.0298 119.428 77.9938C119.428 76.4258 118.238 75.5018 116.166 75.5018L112.302 75.5018L112.302 85.3018L116.446 85.3018C118.518 85.3018 119.75 84.3358 119.75 82.6698C119.75 81.4658 119.106 80.5978 117.986 80.2198ZM114.206 77.2518L116.054 77.2518C116.922 77.2518 117.426 77.6858 117.426 78.4138C117.426 79.1698 116.908 79.5618 116.054 79.5618L114.206 79.5618L114.206 77.2518ZM116.334 83.5518L114.206 83.5518V81.1578L116.334 81.1578C117.23 81.1578 117.748 81.5918 117.748 82.3338C117.748 83.1038 117.216 83.5518 116.334 83.5518Z" fill="#222222"/>
<path d="M129.01 85.3018L131.194 85.3018L127.12 75.4178H124.614L120.554 85.3018H122.696L123.662 82.8658H128.044L129.01 85.3018ZM124.404 81.0178L125.86 77.3778L127.302 81.0178H124.404Z" fill="#222222"/>
<path d="M138.22 80.2198C139.13 79.8138 139.662 79.0298 139.662 77.9938C139.662 76.4258 138.472 75.5018 136.4 75.5018H132.536V85.3018H136.68C138.752 85.3018 139.984 84.3358 139.984 82.6698C139.984 81.4658 139.34 80.5978 138.22 80.2198ZM134.44 77.2518H136.288C137.156 77.2518 137.66 77.6858 137.66 78.4138C137.66 79.1698 137.142 79.5618 136.288 79.5618H134.44V77.2518ZM136.568 83.5518H134.44V81.1578H136.568C137.464 81.1578 137.982 81.5918 137.982 82.3338C137.982 83.1038 137.45 83.5518 136.568 83.5518Z" fill="#222222"/>
<path d="M143.714 75.5018H141.628V85.3018H143.714V75.5018Z" fill="#222222"/>
<path d="M145.894 85.3018L152.04 85.3018V83.4538H147.882V81.1018H151.83V79.3658H147.882V77.3498L152.04 77.3498V75.5018L145.894 75.5018V85.3018Z" fill="#222222"/>
<path d="M157.11 85.4418C159.14 85.4418 160.484 84.2658 160.484 82.4318C160.484 81.0318 159.686 80.0938 158.314 79.6178L156.704 79.0018C156.312 78.8478 155.78 78.5958 155.78 78.0638C155.78 77.5598 156.214 77.2098 156.914 77.2098C157.572 77.2098 158.258 77.5178 158.888 78.2178L160.19 76.7758C159.266 75.8238 158.174 75.3618 156.928 75.3618C154.968 75.3618 153.68 76.5098 153.68 78.2038C153.68 79.5338 154.492 80.4158 155.766 80.8498L157.376 81.4798C157.74 81.6198 158.384 81.8998 158.384 82.5438C158.384 83.1038 157.908 83.5518 157.138 83.5518C156.368 83.5518 155.43 83.0898 154.66 82.1938L153.204 83.6218C154.114 84.7838 155.542 85.4418 157.11 85.4418Z" fill="#222222"/>
<path d="M21.8925 57.3018L26.8765 57.3018C28.9765 57.3018 30.2085 56.5038 30.2085 54.9358C30.2085 53.8438 29.6065 53.1438 28.7945 52.8218V52.7938C29.5085 52.4438 29.8865 51.8278 29.8865 51.0578C29.8865 49.6858 28.7105 48.9018 26.7645 48.9018L21.8925 48.9018C21.4585 48.9018 21.1365 49.1958 21.1365 49.6158C21.1365 50.0358 21.4585 50.3438 21.8925 50.3438H23.0545L23.0545 55.8598H21.8925C21.4585 55.8598 21.1365 56.1538 21.1365 56.5738C21.1365 56.9938 21.4585 57.3018 21.8925 57.3018ZM24.5525 52.1498L24.5525 50.3438H26.8065C27.8145 50.3438 28.3325 50.6378 28.3325 51.2398C28.3325 51.8558 27.8145 52.1498 26.8065 52.1498H24.5525ZM24.5525 55.8598L24.5525 53.5638H26.9185C28.0805 53.5638 28.6545 53.9418 28.6545 54.7258C28.6545 55.4958 28.0805 55.8598 26.9185 55.8598H24.5525Z" fill="#222222"/>
<path d="M40.4056 52.0518C40.8396 52.0518 41.1616 51.7578 41.1616 51.3238V49.6158C41.1616 49.1818 40.8676 48.9018 40.4196 48.9018L32.7616 48.9018C32.3276 48.9018 32.0056 49.2098 32.0056 49.6158C32.0056 50.0498 32.3136 50.3438 32.7616 50.3438H33.9236L33.9236 55.8598H32.7616C32.3276 55.8598 32.0056 56.1678 32.0056 56.5738C32.0056 57.0078 32.3136 57.3018 32.7616 57.3018L40.4896 57.3018C40.9376 57.3018 41.2316 57.0218 41.2316 56.5878V54.8798C41.2316 54.4598 40.9096 54.1518 40.4756 54.1518C40.0416 54.1518 39.7336 54.4598 39.7336 54.8798V55.8598H35.4216L35.4216 53.7178H37.1856L37.1856 54.1098C37.1856 54.5298 37.4936 54.8098 37.9136 54.8098C38.3336 54.8098 38.6276 54.5158 38.6276 54.1098L38.6276 51.9258C38.6276 51.5198 38.3336 51.2118 37.9136 51.2118C37.4936 51.2118 37.1856 51.5058 37.1856 51.9258V52.3178L35.4216 52.3178L35.4216 50.3438L39.6636 50.3438V51.3238C39.6636 51.7438 39.9716 52.0518 40.4056 52.0518Z" fill="#222222"/>
<path d="M51.8093 54.7818C51.7953 53.6338 50.8993 52.8778 48.8553 52.5418L47.1053 52.2478C45.9013 52.0518 45.5233 51.7998 45.5233 51.3238C45.5233 50.6798 46.4053 50.2178 47.8053 50.2318C48.4213 50.2458 48.9813 50.3158 49.4013 50.4418C49.3033 50.5958 49.2473 50.7778 49.2473 50.9598C49.2473 51.6038 49.7233 52.0098 50.3953 52.0098C51.0533 52.0098 51.5293 51.5338 51.5293 50.8898C51.5293 49.7278 49.8353 48.7618 47.7633 48.7618C45.5233 48.7618 43.9693 49.8398 43.9693 51.4078C43.9693 52.5838 44.8233 53.3398 46.7833 53.6618L48.5193 53.9558C49.8493 54.1658 50.2553 54.4178 50.2553 54.8518C50.2413 55.4958 49.2893 55.9718 47.7633 55.9858C46.8253 55.9998 45.9573 55.7898 45.3833 55.5098C45.5513 55.3418 45.6493 55.1038 45.6493 54.8518C45.6493 54.2498 45.1733 53.8018 44.5153 53.8018C43.8573 53.8018 43.3673 54.2638 43.3673 54.9218C43.3673 56.2938 45.3553 57.4418 47.7913 57.4418C50.1293 57.4418 51.8093 56.3638 51.8093 54.7818Z" fill="#222222"/>
<path d="M61.1838 48.9018L54.2258 48.9018C53.7638 48.9018 53.4558 49.1958 53.4558 49.6438L53.4558 51.8698C53.4558 52.2898 53.7638 52.5978 54.1978 52.5978C54.6318 52.5978 54.9538 52.3038 54.9538 51.8698L54.9538 50.3438L56.9558 50.3438L56.9558 55.8598L55.7238 55.8598C55.2898 55.8598 54.9678 56.1678 54.9678 56.5738C54.9678 57.0078 55.2758 57.3018 55.7238 57.3018L59.6858 57.3018C60.1198 57.3018 60.4418 57.0078 60.4418 56.5738C60.4418 56.1678 60.1198 55.8598 59.6858 55.8598H58.4538L58.4538 50.3438L60.4558 50.3438L60.4558 51.8698C60.4558 52.2898 60.7638 52.5978 61.1978 52.5978C61.6318 52.5978 61.9538 52.3038 61.9538 51.8698L61.9538 49.6438C61.9538 49.1958 61.6458 48.9018 61.1838 48.9018Z" fill="#222222"/>
<path d="M73.6108 49.6298C73.6108 49.2378 73.2748 48.9018 72.8688 48.9018H69.0468C68.6128 48.9018 68.2908 49.2098 68.2908 49.6158C68.2908 50.0498 68.5988 50.3438 69.0468 50.3438H70.2088L70.2088 55.8598H69.0468C68.6128 55.8598 68.2908 56.1678 68.2908 56.5738C68.2908 57.0078 68.5988 57.3018 69.0468 57.3018L75.9348 57.3018C76.3828 57.3018 76.6768 57.0218 76.6768 56.5878L76.6768 54.8798C76.6768 54.4598 76.3548 54.1518 75.9208 54.1518C75.4868 54.1518 75.1788 54.4598 75.1788 54.8798L75.1788 55.8598L71.7068 55.8598L71.7068 50.3438H72.8688C73.2748 50.3438 73.6108 50.0218 73.6108 49.6298Z" fill="#222222"/>
<path d="M87.2971 55.8598H86.1491L83.5451 49.5458C83.3911 49.1258 83.0971 48.9018 82.6911 48.9018L79.8211 48.9018C79.3871 48.9018 79.0651 49.2098 79.0651 49.6158C79.0651 50.0498 79.3731 50.3438 79.8211 50.3438L81.4031 50.3438L79.1351 55.8598H78.0151C77.5811 55.8598 77.2591 56.1678 77.2591 56.5738C77.2591 57.0078 77.5671 57.3018 78.0151 57.3018H81.4451C81.8651 57.3018 82.1731 57.0218 82.1731 56.6158C82.1731 56.2238 81.8651 55.9298 81.4451 55.9298H80.5631L81.0531 54.7118L84.2171 54.7118L84.7071 55.9298H83.8531C83.4471 55.9298 83.1391 56.2238 83.1391 56.6158C83.1391 57.0218 83.4331 57.3018 83.8531 57.3018L87.2971 57.3018C87.7311 57.3018 88.0531 57.0078 88.0531 56.5738C88.0531 56.1678 87.7311 55.8598 87.2971 55.8598ZM81.5851 53.3958L82.6351 50.8058L83.6851 53.3958H81.5851Z" fill="#222222"/>
<path d="M94.2576 48.9018L89.5956 48.9018C89.1616 48.9018 88.8396 49.2098 88.8396 49.6158C88.8396 50.0498 89.1476 50.3438 89.5956 50.3438H91.1776L91.1776 55.8598L89.5956 55.8598C89.1616 55.8598 88.8396 56.1678 88.8396 56.5738C88.8396 57.0078 89.1476 57.3018 89.5956 57.3018L94.2576 57.3018C94.6916 57.3018 95.0136 57.0078 95.0136 56.5738C95.0136 56.1678 94.6916 55.8598 94.2576 55.8598L92.6756 55.8598L92.6756 50.3438L94.2576 50.3438C94.6916 50.3438 95.0136 50.0498 95.0136 49.6158C95.0136 49.2098 94.6916 48.9018 94.2576 48.9018Z" fill="#222222"/>
<path d="M101.032 48.9018L97.2655 48.9018C96.8315 48.9018 96.5095 49.2098 96.5095 49.6158C96.5095 50.0498 96.8175 50.3438 97.2655 50.3438L98.4275 50.3438L98.4275 55.8598L97.2655 55.8598C96.8315 55.8598 96.5095 56.1678 96.5095 56.5738C96.5095 57.0078 96.8175 57.3018 97.2655 57.3018L101.032 57.3018C104.098 57.3018 106.03 55.6918 106.03 53.1018C106.03 50.5258 104.098 48.9018 101.032 48.9018ZM101.032 55.8598H99.9255L99.9255 50.3438H101.032C103.118 50.3438 104.434 51.4078 104.434 53.1018C104.434 54.7958 103.118 55.8598 101.032 55.8598Z" fill="#222222"/>
<path d="M118.191 48.9018L113.207 48.9018C112.773 48.9018 112.451 49.2098 112.451 49.6158C112.451 50.0498 112.759 50.3438 113.207 50.3438H114.369L114.369 55.8598H113.207C112.773 55.8598 112.451 56.1678 112.451 56.5738C112.451 57.0078 112.759 57.3018 113.207 57.3018L117.281 57.3018C117.701 57.3018 118.009 57.0218 118.009 56.6158C118.009 56.2238 117.687 55.9298 117.281 55.9298H115.867V54.8518H118.191C120.109 54.8518 121.397 53.6758 121.397 51.8698C121.397 50.0778 120.109 48.9018 118.191 48.9018ZM118.191 53.4098H115.867L115.867 50.3438H118.191C119.213 50.3438 119.787 50.9038 119.787 51.8698C119.787 52.8498 119.213 53.4098 118.191 53.4098Z" fill="#222222"/>
<path d="M128.039 49.6298C128.039 49.2378 127.703 48.9018 127.297 48.9018L123.475 48.9018C123.041 48.9018 122.719 49.2098 122.719 49.6158C122.719 50.0498 123.027 50.3438 123.475 50.3438H124.637L124.637 55.8598H123.475C123.041 55.8598 122.719 56.1678 122.719 56.5738C122.719 57.0078 123.027 57.3018 123.475 57.3018L130.363 57.3018C130.811 57.3018 131.105 57.0218 131.105 56.5878V54.8798C131.105 54.4598 130.783 54.1518 130.349 54.1518C129.915 54.1518 129.607 54.4598 129.607 54.8798V55.8598L126.135 55.8598L126.135 50.3438L127.297 50.3438C127.703 50.3438 128.039 50.0218 128.039 49.6298Z" fill="#222222"/>
<path d="M141.725 55.8598H140.577L137.973 49.5458C137.819 49.1258 137.525 48.9018 137.119 48.9018L134.249 48.9018C133.815 48.9018 133.493 49.2098 133.493 49.6158C133.493 50.0498 133.801 50.3438 134.249 50.3438L135.831 50.3438L133.563 55.8598H132.443C132.009 55.8598 131.687 56.1678 131.687 56.5738C131.687 57.0078 131.995 57.3018 132.443 57.3018L135.873 57.3018C136.293 57.3018 136.601 57.0218 136.601 56.6158C136.601 56.2238 136.293 55.9298 135.873 55.9298H134.991L135.481 54.7118H138.645L139.135 55.9298H138.281C137.875 55.9298 137.567 56.2238 137.567 56.6158C137.567 57.0218 137.861 57.3018 138.281 57.3018L141.725 57.3018C142.159 57.3018 142.481 57.0078 142.481 56.5738C142.481 56.1678 142.159 55.8598 141.725 55.8598ZM136.013 53.3958L137.063 50.8058L138.113 53.3958H136.013Z" fill="#222222"/>
<path d="M154.565 48.9018L150.743 48.9018C150.309 48.9018 149.987 49.2098 149.987 49.6158C149.987 50.0498 150.295 50.3438 150.743 50.3438L151.891 50.3438V55.3138L146.403 49.2378C146.207 49.0278 145.955 48.9018 145.661 48.9018H144.023C143.589 48.9018 143.267 49.2098 143.267 49.6158C143.267 50.0498 143.575 50.3438 144.023 50.3438H145.185V55.8598H144.023C143.589 55.8598 143.267 56.1678 143.267 56.5738C143.267 57.0078 143.575 57.3018 144.023 57.3018H147.845C148.279 57.3018 148.601 57.0078 148.601 56.5738C148.601 56.1678 148.279 55.8598 147.845 55.8598L146.683 55.8598V51.7158L151.443 57.0078C152.115 57.7778 153.389 57.3578 153.389 56.3078V50.3438H154.565C154.999 50.3438 155.321 50.0498 155.321 49.6158C155.321 49.2098 154.999 48.9018 154.565 48.9018Z" fill="#222222"/>
<path d="M163.983 48.9018L157.025 48.9018C156.563 48.9018 156.255 49.1958 156.255 49.6438V51.8698C156.255 52.2898 156.563 52.5978 156.997 52.5978C157.431 52.5978 157.753 52.3038 157.753 51.8698V50.3438H159.755V55.8598L158.523 55.8598C158.089 55.8598 157.767 56.1678 157.767 56.5738C157.767 57.0078 158.075 57.3018 158.523 57.3018L162.485 57.3018C162.919 57.3018 163.241 57.0078 163.241 56.5738C163.241 56.1678 162.919 55.8598 162.485 55.8598H161.253V50.3438H163.255V51.8698C163.255 52.2898 163.563 52.5978 163.997 52.5978C164.431 52.5978 164.753 52.3038 164.753 51.8698V49.6438C164.753 49.1958 164.445 48.9018 163.983 48.9018Z" fill="#222222"/>
<path d="M174.651 54.7818C174.637 53.6338 173.741 52.8778 171.697 52.5418L169.947 52.2478C168.743 52.0518 168.365 51.7998 168.365 51.3238C168.365 50.6798 169.247 50.2178 170.647 50.2318C171.263 50.2458 171.823 50.3158 172.243 50.4418C172.145 50.5958 172.089 50.7778 172.089 50.9598C172.089 51.6038 172.565 52.0098 173.237 52.0098C173.895 52.0098 174.371 51.5338 174.371 50.8898C174.371 49.7278 172.677 48.7618 170.605 48.7618C168.365 48.7618 166.811 49.8398 166.811 51.4078C166.811 52.5838 167.665 53.3398 169.625 53.6618L171.361 53.9558C172.691 54.1658 173.097 54.4178 173.097 54.8518C173.083 55.4958 172.131 55.9718 170.605 55.9858C169.667 55.9998 168.799 55.7898 168.225 55.5098C168.393 55.3418 168.491 55.1038 168.491 54.8518C168.491 54.2498 168.015 53.8018 167.357 53.8018C166.699 53.8018 166.209 54.2638 166.209 54.9218C166.209 56.2938 168.197 57.4418 170.633 57.4418C172.971 57.4418 174.651 56.3638 174.651 54.7818Z" fill="#222222"/>
</svg>
