<svg width="119" height="139" viewBox="0 0 119 139" fill="none" xmlns="http://www.w3.org/2000/svg">
<path d="M48.0957 0.301819C44.782 0.301819 42.0957 2.98811 42.0957 6.30182V11.3268C41.4701 11.1057 40.797 10.9854 40.0957 10.9854H34.0957C32.1838 10.9854 30.4807 11.8797 29.382 13.2728C28.4559 12.3688 27.2317 11.7566 25.8455 11.6051L19.881 10.9535C16.5869 10.5936 13.6248 12.9722 13.2649 16.2663L0.747189 130.841C0.387297 134.135 2.76595 137.098 6.06006 137.457L12.0246 138.109C15.3187 138.469 18.2808 136.09 18.6407 132.796L28.0957 46.2542L28.0957 132.242C28.0957 135.556 30.782 138.242 34.0957 138.242H40.0957C41.6164 138.242 43.0049 137.676 44.0624 136.744C45.1278 137.712 46.5429 138.302 48.0957 138.302H64.0957C65.6324 138.302 67.0342 137.724 68.0957 136.774C69.1572 137.724 70.559 138.302 72.0957 138.302H88.0957C89.6324 138.302 91.0342 137.724 92.0957 136.774C93.1572 137.724 94.559 138.302 96.0957 138.302H112.096C115.409 138.302 118.096 135.616 118.096 132.302L118.096 6.30182C118.096 2.98811 115.409 0.301819 112.096 0.301819H96.0957C94.559 0.301819 93.1572 0.879527 92.0957 1.82961C91.0342 0.879527 89.6324 0.301819 88.0957 0.301819H72.0957C70.559 0.301819 69.1572 0.879527 68.0957 1.82961C67.0342 0.879527 65.6324 0.301819 64.0957 0.301819H48.0957Z" fill="#FFFEF9"/>
<path fill-rule="evenodd" clip-rule="evenodd" d="M64.0957 0.301819C65.6324 0.301819 67.0342 0.879528 68.0957 1.82961C69.1572 0.879528 70.559 0.301819 72.0957 0.301819H88.0957C89.6324 0.301819 91.0342 0.879528 92.0957 1.82961C93.1572 0.879528 94.559 0.301819 96.0957 0.301819H112.096C115.409 0.301819 118.096 2.98811 118.096 6.30182L118.096 132.302C118.096 135.616 115.409 138.302 112.096 138.302H96.0957C94.559 138.302 93.1572 137.724 92.0957 136.774C91.0342 137.724 89.6324 138.302 88.0957 138.302H72.0957C70.559 138.302 69.1572 137.724 68.0957 136.774C67.0342 137.724 65.6324 138.302 64.0957 138.302H48.0957C46.5429 138.302 45.1278 137.712 44.0624 136.744C43.0049 137.676 41.6164 138.242 40.0957 138.242H34.0957C30.782 138.242 28.0957 135.556 28.0957 132.242L28.0957 46.2542L18.6407 132.796C18.2808 136.09 15.3187 138.469 12.0246 138.109L6.06006 137.457C2.76595 137.098 0.387297 134.135 0.747189 130.841L13.2649 16.2663C13.6248 12.9722 16.5869 10.5936 19.881 10.9535L25.8455 11.6051C27.2317 11.7566 28.4559 12.3688 29.382 13.2728C30.4807 11.8797 32.1838 10.9854 34.0957 10.9854H40.0957C40.797 10.9854 41.4701 11.1057 42.0957 11.3268V6.30182C42.0957 2.98811 44.782 0.301819 48.0957 0.301819H64.0957ZM48.0957 4.30182H64.0957C65.2003 4.30182 66.0957 5.19725 66.0957 6.30182L66.0957 132.302C66.0957 133.406 65.2003 134.302 64.0957 134.302H48.0957C46.9911 134.302 46.0957 133.406 46.0957 132.302L46.0957 6.30182C46.0957 5.19725 46.9911 4.30182 48.0957 4.30182ZM94.0957 132.302C94.0957 133.406 94.9911 134.302 96.0957 134.302H112.096C113.2 134.302 114.096 133.406 114.096 132.302L114.096 6.30182C114.096 5.19725 113.2 4.30182 112.096 4.30182H96.0957C94.9911 4.30182 94.0957 5.19725 94.0957 6.30182L94.0957 132.302ZM90.0957 6.30182C90.0957 5.19725 89.2003 4.30182 88.0957 4.30182H72.0957C70.9911 4.30182 70.0957 5.19725 70.0957 6.30182L70.0957 132.302C70.0957 133.406 70.9911 134.302 72.0957 134.302H88.0957C89.2003 134.302 90.0957 133.406 90.0957 132.302L90.0957 6.30182ZM42.0957 16.9854C42.0957 15.8808 41.2003 14.9854 40.0957 14.9854H34.0957C32.9911 14.9854 32.0957 15.8808 32.0957 16.9854L32.0957 132.242C32.0957 133.347 32.9911 134.242 34.0957 134.242H40.0957C41.2002 134.242 42.0956 133.347 42.0957 132.242L42.0957 16.9854ZM25.4111 15.5814L19.4466 14.9298C18.3486 14.8098 17.3612 15.6027 17.2412 16.7008L4.72353 131.276C4.60356 132.374 5.39645 133.361 6.49448 133.481L12.459 134.133C13.557 134.253 14.5444 133.46 14.6644 132.362L27.182 17.7868C27.302 16.6888 26.5091 15.7014 25.4111 15.5814Z" fill="#BFB33B"/>
<path d="M108.216 97.557C108.216 95.913 107.244 94.821 105.768 94.821C104.544 94.821 103.836 95.577 103.476 96.525L102.84 97.953C102.66 98.337 102.372 98.889 101.772 98.889C101.184 98.889 100.776 98.397 100.776 97.653C100.776 97.029 101.052 96.429 101.664 95.889L100.74 95.037C99.9597 95.781 99.5757 96.645 99.5757 97.653C99.5757 99.201 100.5 100.233 101.844 100.233C103.008 100.233 103.68 99.441 104.016 98.565L104.664 97.137C104.808 96.801 105.12 96.165 105.828 96.165C106.488 96.165 106.992 96.705 106.992 97.533C106.992 98.277 106.596 99.069 105.852 99.657L106.752 100.617C107.688 99.921 108.216 98.805 108.216 97.557Z" fill="#222222"/>
<path d="M108.216 89.4011C108.216 86.9051 106.368 85.0331 103.896 85.0331C101.424 85.0331 99.5757 86.9051 99.5757 89.4011C99.5757 91.9091 101.424 93.8051 103.896 93.8051C106.368 93.8051 108.216 91.9091 108.216 89.4011ZM106.944 89.4011C106.944 91.1651 105.672 92.4251 103.896 92.4251C102.12 92.4251 100.848 91.1651 100.848 89.4011C100.848 87.6611 102.12 86.4131 103.896 86.4131C105.672 86.4131 106.944 87.6611 106.944 89.4011Z" fill="#222222"/>
<path d="M99.6957 82.113L99.6957 83.445L108.096 83.445L108.096 82.113L99.6957 82.113Z" fill="#222222"/>
<path d="M99.6957 78.6677L99.6957 79.9997L108.096 79.9997L108.096 75.0677L106.836 75.0677L106.836 78.6677L99.6957 78.6677Z" fill="#222222"/>
<path d="M103.44 68.0397L103.44 65.6517L104.292 65.6517L104.292 68.0397L106.764 68.0397L106.764 68.9037L104.292 68.9037L104.292 71.2917L103.44 71.2917L103.44 68.9037L100.956 68.9037L100.956 68.0397L103.44 68.0397Z" fill="#222222"/>
<path d="M108.216 58.768C108.216 57.124 107.244 56.032 105.768 56.032C104.544 56.032 103.836 56.788 103.476 57.736L102.84 59.164C102.66 59.548 102.372 60.1 101.772 60.1C101.184 60.1 100.776 59.608 100.776 58.864C100.776 58.24 101.052 57.64 101.664 57.1L100.74 56.248C99.9597 56.992 99.5757 57.856 99.5757 58.864C99.5757 60.412 100.5 61.444 101.844 61.444C103.008 61.444 103.68 60.652 104.016 59.776L104.664 58.348C104.808 58.012 105.12 57.376 105.828 57.376C106.488 57.376 106.992 57.916 106.992 58.744C106.992 59.488 106.596 60.28 105.852 60.868L106.752 61.828C107.688 61.132 108.216 60.016 108.216 58.768Z" fill="#222222"/>
<path d="M108.216 51.164C108.216 49.04 106.86 47.648 104.808 47.648L99.6957 47.648L99.6957 48.98L104.772 48.98C106.104 48.98 106.944 49.832 106.944 51.164C106.944 52.496 106.104 53.348 104.772 53.348L99.6957 53.348L99.6957 54.68L104.808 54.68C106.872 54.68 108.216 53.3 108.216 51.164Z" fill="#222222"/>
<path d="M108.096 45.7224L108.096 44.4384L101.832 44.4384L108.096 39.6744L108.096 38.6544L99.6957 38.6544L99.6957 39.9384L105.924 39.9384L99.6957 44.6544L99.6957 45.7224L108.096 45.7224Z" fill="#222222"/>
<path d="M75.6957 112.431L75.6957 113.763L84.0957 113.763L84.0957 108.831L82.8357 108.831L82.8357 112.431L75.6957 112.431Z" fill="#222222"/>
<path d="M75.6957 106.08L75.6957 107.412L84.0957 107.412L84.0957 106.08L75.6957 106.08Z" fill="#222222"/>
<path d="M79.1877 99.7905L80.3637 99.7905L80.3637 97.7745L82.0077 97.7745C82.6077 98.3865 82.9557 99.1905 82.9557 100.103C82.9557 101.819 81.6717 103.115 79.8837 103.115C78.1317 103.115 76.8477 101.855 76.8477 100.103C76.8477 99.0945 77.2677 98.1945 78.0117 97.6065L77.0637 96.7185C76.1157 97.5345 75.5757 98.7225 75.5757 100.091C75.5757 102.599 77.4357 104.495 79.9077 104.495C82.3317 104.495 84.2157 102.647 84.2157 100.079C84.2157 98.6265 83.6157 97.3665 82.5597 96.5145L79.1877 96.5145L79.1877 99.7905Z" fill="#222222"/>
<path d="M84.0957 94.8142L84.0957 93.4822L80.3277 93.4822L80.3277 89.1622L84.0957 89.1622L84.0957 87.8182L75.6957 87.8182L75.6957 89.1622L79.0677 89.1622L79.0677 93.4822L75.6957 93.4822L75.6957 94.8142L84.0957 94.8142Z" fill="#222222"/>
<path d="M75.6957 80.0687L75.6957 86.4047L76.9557 86.4047L76.9557 83.9087L84.0957 83.9087L84.0957 82.5647L76.9557 82.5647L76.9557 80.0687L75.6957 80.0687Z" fill="#222222"/>
<path d="M79.4397 73.0455L79.4397 70.6575L80.2917 70.6575L80.2917 73.0455L82.7637 73.0455L82.7637 73.9095L80.2917 73.9095L80.2917 76.2975L79.4397 76.2975L79.4397 73.9095L76.9557 73.9095L76.9557 73.0455L79.4397 73.0455Z" fill="#222222"/>
<path d="M75.6957 57.3778L81.9717 59.0098L76.0557 60.8698L76.0557 61.9738L81.9837 63.7978L75.6957 65.4298L75.6957 66.8458L84.0957 64.4098L84.0957 63.3418L78.0837 61.4098L84.0957 59.4778L84.0957 58.4098L75.6957 55.9858L75.6957 57.3778Z" fill="#222222"/>
<path d="M84.0957 48.0443L84.0957 46.6403L75.6237 50.1923L75.6237 51.7643L84.0957 55.3043L84.0957 53.9243L81.7077 52.9523L81.7077 49.0163L84.0957 48.0443ZM80.5197 52.4603L76.9077 50.9843L80.5197 49.5083L80.5197 52.4603Z" fill="#222222"/>
<path d="M75.6957 39.6273L75.6957 45.9633L76.9557 45.9633L76.9557 43.4673L84.0957 43.4673L84.0957 42.1233L76.9557 42.1233L76.9557 39.6273L75.6957 39.6273Z" fill="#222222"/>
<path d="M84.0957 38.2126L84.0957 33.3046L82.8957 33.3046L82.8957 36.9286L80.3037 36.9286L80.3037 33.4606L79.1637 33.4606L79.1637 36.9286L76.8957 36.9286L76.8957 33.3046L75.6957 33.3046L75.6957 38.2126L84.0957 38.2126Z" fill="#222222"/>
<path d="M84.0957 25.3052L80.8317 27.4652C80.5557 26.2052 79.6557 25.4492 78.3237 25.4492C76.7157 25.4492 75.6957 26.5532 75.6957 28.3172L75.6957 31.5212L84.0957 31.5212L84.0957 30.2612L80.9877 30.2612L80.9877 28.8572L84.0957 26.8292L84.0957 25.3052ZM76.8837 30.2612L76.8837 28.4732C76.8837 27.3572 77.4117 26.7332 78.3717 26.7332C79.3557 26.7332 79.8837 27.3572 79.8837 28.4732L79.8837 30.2612L76.8837 30.2612Z" fill="#222222"/>
</svg>
