<svg width="40" height="116" viewBox="0 0 40 116" fill="none" xmlns="http://www.w3.org/2000/svg">
<path d="M36.5889 8.22368L29.4598 19.7029L36.5889 25.1692L29.4598 31.7288L36.5889 36.6484L29.4598 42.6614L36.5889 48.1276L29.4598 55.7805L36.5889 114.27H2.58887L9.16951 55.7805L2.58887 48.1276L9.16951 42.6614L2.58887 36.6484L9.16951 31.7288L2.58887 25.1692L9.16951 19.7029L2.58887 8.22368H19.5889H36.5889Z" fill="#FFFEF9"/>
<path fill-rule="evenodd" clip-rule="evenodd" d="M21.4613 6.72369C21.5287 6.39311 21.5982 6.03474 21.6648 5.66313C21.8051 4.87932 21.9364 4.01348 22.0032 3.21473C22.0658 2.46515 22.0895 1.59851 21.9157 0.905029L19.0057 1.63465C19.0498 1.81041 19.0735 2.24761 19.0136 2.96486C18.9577 3.63293 18.8438 4.3969 18.7117 5.13425C18.6073 5.71742 18.4941 6.26953 18.3955 6.72369H0L7.24102 19.3549L0.362893 25.0683L6.88177 31.5662L0.238532 36.5327L6.88687 42.6075L0.456746 47.9487L7.60583 56.2626L0.910665 115.77H38.2828L31.0333 56.292L38.8119 47.942L31.8524 42.6057L39.0569 36.5291L31.8576 31.5609L38.9178 25.0647L31.4512 19.3396L39.2862 6.72369H21.4613ZM28.6257 18.2029L33.8916 9.72369H5.17779L10.0386 18.2029H28.6257ZM9.71128 21.2029L6.74221 23.6692H32.1675L28.951 21.2029H9.71128ZM32.7434 26.6692H6.21845L9.78945 30.2288H28.8748L32.7434 26.6692ZM28.9925 33.2288H9.66826L7.10047 35.1484H31.7743L28.9925 33.2288ZM32.4839 38.1484H6.45424L9.75163 41.1614H28.9117L32.4839 38.1484ZM28.951 44.1614H9.71128L6.74221 46.6276H32.1675L28.951 44.1614ZM33.1416 49.6276H5.85705L9.858 54.2805H28.8072L33.1416 49.6276ZM28.1316 57.2805H10.5102L4.26712 112.77H34.895L28.1316 57.2805Z" fill="#BFB33B"/>
</svg>
