<svg width="193" height="35" viewBox="0 0 193 35" fill="none" xmlns="http://www.w3.org/2000/svg">
<path d="M193 6.90504C193 3.59133 190.314 0.905036 187 0.905036L6 0.905029C2.68629 0.905029 0 3.59132 0 6.90503V13.905C0 15.4417 0.577707 16.8435 1.52779 17.905C0.577707 18.9665 0 20.3683 0 21.905V28.905C0 32.2187 2.68629 34.905 6 34.905L187 34.905C190.314 34.905 193 32.2187 193 28.905V21.905C193 20.3683 192.422 18.9665 191.472 17.905C192.422 16.8435 193 15.4417 193 13.905V6.90504Z" fill="#FFFEF9"/>
<path fill-rule="evenodd" clip-rule="evenodd" d="M189 28.905V21.905C189 20.8005 188.105 19.905 187 19.905L6 19.905C4.89543 19.905 4 20.8005 4 21.905L4 28.905C4 30.0096 4.89543 30.905 6 30.905L187 30.905C188.105 30.905 189 30.0096 189 28.905ZM193 21.905C193 18.5913 190.314 15.905 187 15.905L6 15.905C2.6863 15.905 5.61352e-07 18.5913 3.80995e-07 21.905L0 28.905C-1.80358e-07 32.2187 2.68628 34.905 6 34.905L187 34.905C190.314 34.905 193 32.2187 193 28.905V21.905Z" fill="#BFB33B"/>
<path fill-rule="evenodd" clip-rule="evenodd" d="M189 13.905V6.90504C189 5.80046 188.105 4.90504 187 4.90504L6 4.90503C4.89543 4.90503 4 5.80046 4 6.90503L4 13.905C4 15.0096 4.89543 15.905 6 15.905L187 15.905C188.105 15.905 189 15.0096 189 13.905ZM193 6.90504C193 3.59133 190.314 0.905036 187 0.905036L6 0.905029C2.6863 0.905029 5.61352e-07 3.59132 3.80995e-07 6.90503L0 13.905C-1.80358e-07 17.2187 2.68628 19.905 6 19.905L187 19.905C190.314 19.905 193 17.2187 193 13.905V6.90504Z" fill="#BFB33B"/>
</svg>
