<svg width="57" height="149" viewBox="0 0 57 149" fill="none" xmlns="http://www.w3.org/2000/svg">
<path d="M36.5907 145.382C35.8017 145.999 34.856 146.433 33.8111 146.604L25.917 147.902C22.6472 148.439 19.6443 146.212 19.21 142.927L1.64766 10.097C1.21332 6.81185 3.51193 3.71306 6.78177 3.17562L14.6759 1.87815C17.0378 1.48994 19.2604 2.54436 20.4763 4.39798C21.2653 3.78064 22.211 3.34736 23.2559 3.17562L31.15 1.87815C34.4198 1.34072 37.4226 3.56816 37.857 6.85328L55.4193 139.683C55.8537 142.968 53.555 146.067 50.2852 146.604L42.3911 147.902C40.0292 148.29 37.8066 147.236 36.5907 145.382Z" fill="#FFFEF9"/>
<path fill-rule="evenodd" clip-rule="evenodd" d="M36.5907 145.382C35.8017 145.999 34.856 146.433 33.8111 146.604L25.917 147.902C22.6472 148.439 19.6443 146.212 19.21 142.927L1.64766 10.097C1.21332 6.81185 3.51193 3.71306 6.78177 3.17562L14.6759 1.87815C17.0378 1.48994 19.2604 2.54436 20.4763 4.39798C21.2653 3.78064 22.211 3.34736 23.2559 3.17562L31.15 1.87815C34.4198 1.34072 37.4226 3.56816 37.857 6.85328L55.4193 139.683C55.8537 142.968 53.555 146.067 50.2852 146.604L42.3911 147.902C40.0292 148.29 37.8066 147.236 36.5907 145.382ZM33.2868 142.639L25.3927 143.936C24.3027 144.115 23.3018 143.373 23.157 142.278L5.59471 9.44823C5.44992 8.35319 6.21613 7.32026 7.30607 7.14111L15.2002 5.84364C16.2901 5.66449 17.291 6.40697 17.4358 7.50201L34.9981 140.332C35.1429 141.427 34.3767 142.46 33.2868 142.639ZM49.7609 142.639L41.8668 143.936C40.7769 144.115 39.7759 143.373 39.6311 142.278L22.0688 9.44823C21.924 8.35319 22.6902 7.32026 23.7802 7.14111L31.6743 5.84364C32.7642 5.66449 33.7652 6.40697 33.91 7.50201L51.4723 140.332C51.617 141.427 50.8508 142.46 49.7609 142.639Z" fill="#BFB33B"/>
</svg>
