<svg width="194" height="113" viewBox="0 0 194 113" fill="none" xmlns="http://www.w3.org/2000/svg">
<path d="M193.724 6.90504C193.724 3.59133 191.038 0.905036 187.724 0.905036L6.72388 0.905029C3.41017 0.905029 0.723877 3.59132 0.723877 6.90503V25.905C0.723877 27.4417 1.30158 28.8435 2.25166 29.905C1.30158 30.9665 0.723877 32.3683 0.723877 33.905V52.905C0.723877 54.4417 1.30158 55.8435 2.25166 56.905C1.30158 57.9665 0.723877 59.3683 0.723877 60.905V79.905C0.723877 81.4417 1.30158 82.8435 2.25166 83.905C1.30158 84.9666 0.723877 86.3683 0.723877 87.905V106.905C0.723877 110.219 3.41017 112.905 6.72388 112.905L187.724 112.905C191.038 112.905 193.724 110.219 193.724 106.905V87.905C193.724 86.3683 193.146 84.9666 192.196 83.905C193.146 82.8435 193.724 81.4417 193.724 79.905V60.905C193.724 59.3683 193.146 57.9665 192.196 56.905C193.146 55.8435 193.724 54.4417 193.724 52.905V33.905C193.724 32.3683 193.146 30.9665 192.196 29.905C193.146 28.8435 193.724 27.4417 193.724 25.905V6.90504Z" fill="#FFFEF9"/>
<path fill-rule="evenodd" clip-rule="evenodd" d="M2.25166 29.905C1.30158 28.8435 0.723877 27.4417 0.723877 25.905V6.90503C0.723877 3.59132 3.41017 0.905029 6.72388 0.905029L187.724 0.905036C191.038 0.905036 193.724 3.59133 193.724 6.90504V25.905C193.724 27.4417 193.146 28.8435 192.196 29.905C193.146 30.9665 193.724 32.3683 193.724 33.905V52.905C193.724 54.4417 193.146 55.8435 192.196 56.905C193.146 57.9665 193.724 59.3683 193.724 60.905V79.905C193.724 81.4417 193.146 82.8435 192.196 83.905C193.146 84.9666 193.724 86.3683 193.724 87.905V106.905C193.724 110.219 191.038 112.905 187.724 112.905L6.72388 112.905C3.41015 112.905 0.723877 110.219 0.723877 106.905V87.905C0.723877 86.3683 1.30158 84.9665 2.25166 83.905C1.30158 82.8435 0.723877 81.4417 0.723877 79.905V60.905C0.723877 59.3683 1.30158 57.9665 2.25166 56.905C1.30158 55.8435 0.723877 54.4417 0.723877 52.905V33.905C0.723877 32.3683 1.30158 30.9665 2.25166 29.905ZM189.724 6.90504V25.905C189.724 27.008 188.831 27.9024 187.729 27.905L187.724 27.905L6.72388 27.905C5.61931 27.905 4.72388 27.0096 4.72388 25.905L4.72388 6.90503C4.72388 5.80046 5.61931 4.90503 6.72388 4.90503L187.724 4.90504C188.828 4.90504 189.724 5.80046 189.724 6.90504ZM6.71904 31.905C5.6167 31.9076 4.72388 32.8021 4.72388 33.905L4.72388 52.905C4.72388 54.0096 5.61931 54.905 6.72388 54.905L187.729 54.905C188.831 54.9024 189.724 54.008 189.724 52.905V33.905C189.724 32.8005 188.828 31.905 187.724 31.905L6.71904 31.905ZM6.71904 58.905C5.6167 58.9076 4.72388 59.8021 4.72388 60.905L4.72388 79.905C4.72388 81.008 5.61669 81.9024 6.71904 81.905L6.72388 81.905L187.724 81.905C188.828 81.905 189.724 81.0096 189.724 79.905V60.905C189.724 59.8005 188.828 58.905 187.724 58.905L6.72388 58.905L6.71904 58.905ZM4.72388 87.905C4.72388 86.8021 5.61666 85.9076 6.71901 85.905L187.724 85.905C188.828 85.905 189.724 86.8005 189.724 87.905V106.905C189.724 108.01 188.828 108.905 187.724 108.905L6.72388 108.905C5.61931 108.905 4.72388 108.01 4.72388 106.905L4.72388 87.905Z" fill="#BFB33B"/>
<path d="M43.1951 20.905H44.6791V17.503L46.7511 17.503C48.8231 17.503 50.1811 16.229 50.1811 14.297C50.1811 12.365 48.8231 11.105 46.7511 11.105L43.1951 11.105L43.1951 20.905ZM44.6791 16.061L44.6791 12.533L46.6391 12.533C47.9271 12.533 48.6271 13.149 48.6271 14.297C48.6271 15.445 47.9271 16.061 46.6391 16.061L44.6791 16.061Z" fill="#222222"/>
<path d="M53.4854 11.105L51.9314 11.105L51.9314 20.905L57.6854 20.905V19.435L53.4854 19.435L53.4854 11.105Z" fill="#222222"/>
<path d="M66.9436 20.905H68.5816L64.4376 11.021L62.6036 11.021L58.4736 20.905H60.0836L61.2176 18.119L65.8096 18.119L66.9436 20.905ZM61.7916 16.733L63.5136 12.519L65.2356 16.733L61.7916 16.733Z" fill="#222222"/>
<path d="M70.1833 20.905L71.6813 20.905L71.6813 13.597L77.2394 20.905L78.4294 20.905L78.4294 11.105L76.9314 11.105L76.9314 18.371L71.4293 11.105L70.1833 11.105L70.1833 20.905Z" fill="#222222"/>
<path d="M87.4684 11.105L80.0764 11.105V12.575L82.9884 12.575L82.9884 20.905L84.5564 20.905L84.5564 12.575L87.4684 12.575V11.105Z" fill="#222222"/>
<path d="M99.8201 13.807L100.856 12.701C99.9041 11.595 98.5182 10.965 96.9221 10.965C93.9962 10.965 91.7841 13.135 91.7841 16.019C91.7841 18.875 93.9682 21.045 96.9221 21.045C98.6301 21.045 100.1 20.317 101.094 19.043L99.9601 18.007C99.2181 19.001 98.1401 19.561 96.9081 19.561C94.9062 19.561 93.3941 18.063 93.3941 15.991C93.3941 13.947 94.8782 12.449 96.8941 12.449C98.0841 12.449 99.1341 12.939 99.8201 13.807Z" fill="#222222"/>
<path d="M110.311 20.905L111.949 20.905L107.805 11.021L105.971 11.021L101.841 20.905L103.451 20.905L104.585 18.119L109.177 18.119L110.311 20.905ZM105.159 16.733L106.881 12.519L108.603 16.733L105.159 16.733Z" fill="#222222"/>
<path d="M120.803 20.905L118.283 17.097C119.753 16.775 120.635 15.725 120.635 14.171C120.635 12.295 119.347 11.105 117.289 11.105L113.551 11.105L113.551 20.905H115.021V17.279L116.659 17.279L119.025 20.905L120.803 20.905ZM115.021 12.491L117.107 12.491C118.409 12.491 119.137 13.107 119.137 14.227C119.137 15.375 118.409 15.991 117.107 15.991L115.021 15.991L115.021 12.491Z" fill="#222222"/>
<path d="M122.642 20.905L128.368 20.905V19.505L124.14 19.505V16.481L128.186 16.481V15.151L124.14 15.151L124.14 12.505L128.368 12.505V11.105L122.642 11.105L122.642 20.905Z" fill="#222222"/>
<path d="M136.922 11.105L133.058 11.105V12.491L135.354 12.491V20.905L136.922 20.905V11.105Z" fill="#222222"/>
<path d="M142.999 21.045C145.379 21.045 146.835 19.099 146.835 16.005C146.835 12.911 145.379 10.965 142.999 10.965C140.633 10.965 139.135 12.883 139.135 16.005C139.135 19.127 140.633 21.045 142.999 21.045ZM142.999 19.617C141.571 19.617 140.717 18.259 140.717 16.005C140.717 13.751 141.571 12.393 142.999 12.393C144.427 12.393 145.267 13.751 145.267 16.005C145.267 18.259 144.427 19.617 142.999 19.617Z" fill="#222222"/>
<path d="M152.112 11.105L148.248 11.105V12.491L150.544 12.491V20.905H152.112V11.105Z" fill="#222222"/>
<path d="M32.0083 47.905H34.0943L34.0943 43.761L38.5743 43.761L38.5743 47.905L40.6743 47.905L40.6743 38.105L38.5743 38.105L38.5743 41.801L34.0943 41.801L34.0943 38.105H32.0083L32.0083 47.905Z" fill="#222222"/>
<path d="M47.4558 48.045C50.3818 48.045 52.5798 45.889 52.5798 43.005C52.5798 40.121 50.3818 37.965 47.4558 37.965C44.4878 37.965 42.2618 40.121 42.2618 43.005C42.2618 45.889 44.4878 48.045 47.4558 48.045ZM47.4558 46.071C45.6638 46.071 44.4318 44.825 44.4318 43.005C44.4318 41.185 45.6638 39.939 47.4558 39.939C49.2058 39.939 50.4238 41.185 50.4238 43.005C50.4238 44.825 49.2058 46.071 47.4558 46.071Z" fill="#222222"/>
<path d="M58.1887 48.045C60.7367 48.045 62.4447 46.407 62.4447 43.999L62.4447 38.105H60.3587L60.3587 43.929C60.3587 45.245 59.5187 46.071 58.1887 46.071C56.8727 46.071 56.0187 45.245 56.0187 43.929L56.0187 38.105L53.9327 38.105L53.9327 43.999C53.9327 46.421 55.6407 48.045 58.1887 48.045Z" fill="#222222"/>
<path d="M67.5606 48.045C69.5906 48.045 70.9346 46.869 70.9346 45.035C70.9346 43.635 70.1366 42.697 68.7646 42.221L67.1546 41.605C66.7626 41.451 66.2306 41.199 66.2306 40.667C66.2306 40.163 66.6646 39.813 67.3646 39.813C68.0226 39.813 68.7086 40.121 69.3386 40.821L70.6406 39.379C69.7166 38.427 68.6246 37.965 67.3786 37.965C65.4186 37.965 64.1306 39.113 64.1306 40.807C64.1306 42.137 64.9426 43.019 66.2166 43.453L67.8266 44.083C68.1906 44.223 68.8346 44.503 68.8346 45.147C68.8346 45.707 68.3586 46.155 67.5886 46.155C66.8186 46.155 65.8806 45.693 65.1106 44.797L63.6546 46.225C64.5646 47.387 65.9926 48.045 67.5606 48.045Z" fill="#222222"/>
<path d="M72.4771 47.905L78.623 47.905L78.623 46.057L74.465 46.057V43.705L78.413 43.705L78.413 41.969L74.465 41.969V39.953L78.623 39.953V38.105L72.4771 38.105L72.4771 47.905Z" fill="#222222"/>
<path d="M80.5435 47.905H82.5175L82.5175 44.923H84.3235C86.5215 44.923 88.0055 43.551 88.0055 41.507C88.0055 39.463 86.5215 38.105 84.3235 38.105H80.5435L80.5435 47.905ZM82.5175 43.033V39.995H84.1555C85.3035 39.995 85.9335 40.527 85.9335 41.507C85.9335 42.501 85.3035 43.033 84.1555 43.033H82.5175Z" fill="#222222"/>
<path d="M91.5845 38.105L89.4985 38.105L89.4985 47.905H95.7005L95.7005 45.959L91.5845 45.959L91.5845 38.105Z" fill="#222222"/>
<path d="M104.757 47.905L106.941 47.905L102.867 38.021H100.361L96.3011 47.905H98.4431L99.4091 45.469L103.791 45.469L104.757 47.905ZM100.151 43.621L101.607 39.981L103.049 43.621H100.151Z" fill="#222222"/>
<path d="M108.284 47.905L110.272 47.905V41.381L115.41 47.905L116.992 47.905L116.992 38.105L114.99 38.105L114.99 44.573L109.922 38.105H108.284L108.284 47.905Z" fill="#222222"/>
<path d="M126.418 38.105L118.438 38.105V40.051L121.392 40.051L121.392 47.905H123.478L123.478 40.051L126.418 40.051V38.105Z" fill="#222222"/>
<path d="M131.012 48.045C133.042 48.045 134.386 46.869 134.386 45.035C134.386 43.635 133.588 42.697 132.216 42.221L130.606 41.605C130.214 41.451 129.682 41.199 129.682 40.667C129.682 40.163 130.116 39.813 130.816 39.813C131.474 39.813 132.16 40.121 132.79 40.821L134.092 39.379C133.168 38.427 132.076 37.965 130.83 37.965C128.87 37.965 127.582 39.113 127.582 40.807C127.582 42.137 128.394 43.019 129.668 43.453L131.278 44.083C131.642 44.223 132.286 44.503 132.286 45.147C132.286 45.707 131.81 46.155 131.04 46.155C130.27 46.155 129.332 45.693 128.562 44.797L127.106 46.225C128.016 47.387 129.444 48.045 131.012 48.045Z" fill="#222222"/>
<path d="M146.634 47.905H148.818L144.744 38.021H142.238L138.178 47.905L140.32 47.905L141.286 45.469H145.668L146.634 47.905ZM142.028 43.621L143.484 39.981L144.926 43.621H142.028Z" fill="#222222"/>
<path d="M155.005 42.165L149.853 42.165V43.999L155.005 43.999V42.165Z" fill="#222222"/>
<path d="M164.098 38.105L156.538 38.105V40.009L160.752 40.009L156.16 47.905L163.818 47.905V46.001L159.492 46.001L164.098 38.105Z" fill="#222222"/>
<path d="M53.0142 74.9051H54.9882V71.9231H56.7942C58.9922 71.9231 60.4762 70.5511 60.4762 68.5071C60.4762 66.4631 58.9922 65.1051 56.7942 65.1051H53.0142L53.0142 74.9051ZM54.9882 70.0331L54.9882 66.9951H56.6262C57.7742 66.9951 58.4042 67.5271 58.4042 68.5071C58.4042 69.5011 57.7742 70.0331 56.6262 70.0331H54.9882Z" fill="#222222"/>
<path d="M64.0552 65.1051H61.9692L61.9692 74.9051L68.1712 74.9051V72.9591L64.0552 72.9591L64.0552 65.1051Z" fill="#222222"/>
<path d="M77.2278 74.9051H79.4118L75.3378 65.0211L72.8318 65.0211L68.7718 74.9051H70.9138L71.8798 72.4691L76.2618 72.4691L77.2278 74.9051ZM72.6218 70.6211L74.0778 66.9811L75.5198 70.6211L72.6218 70.6211Z" fill="#222222"/>
<path d="M80.7544 74.9051L82.7424 74.9051L82.7424 68.3811L87.8804 74.9051H89.4624L89.4624 65.1051H87.4604L87.4604 71.5731L82.3924 65.1051L80.7544 65.1051L80.7544 74.9051Z" fill="#222222"/>
<path d="M98.8889 65.1051L90.9089 65.1051V67.0511H93.8629L93.8629 74.9051H95.9489L95.9489 67.0511L98.8889 67.0511V65.1051Z" fill="#222222"/>
<path d="M103.422 74.9051H105.508L105.508 70.7611L109.988 70.7611L109.988 74.9051H112.088L112.088 65.1051H109.988V68.8011L105.508 68.8011V65.1051H103.422L103.422 74.9051Z" fill="#222222"/>
<path d="M114.278 74.9051L120.424 74.9051V73.0571H116.266L116.266 70.7051H120.214L120.214 68.9691H116.266V66.9531H120.424V65.1051L114.278 65.1051L114.278 74.9051Z" fill="#222222"/>
<path d="M124.43 65.1051L122.344 65.1051L122.344 74.9051L128.546 74.9051V72.9591H124.43L124.43 65.1051Z" fill="#222222"/>
<path d="M129.987 74.9051L131.961 74.9051V71.9231H133.767C135.965 71.9231 137.449 70.5511 137.449 68.5071C137.449 66.4631 135.965 65.1051 133.767 65.1051L129.987 65.1051V74.9051ZM131.961 70.0331V66.9951H133.599C134.747 66.9951 135.377 67.5271 135.377 68.5071C135.377 69.5011 134.747 70.0331 133.599 70.0331H131.961Z" fill="#222222"/>
<path d="M141.224 65.1051L139.138 65.1051L139.152 71.0971L141.21 71.0971L141.224 65.1051ZM140.202 72.2171C139.32 72.2171 138.662 72.8191 138.662 73.6311C138.662 74.4291 139.32 75.0451 140.202 75.0451C141.07 75.0451 141.714 74.4291 141.714 73.6311C141.714 72.8191 141.07 72.2171 140.202 72.2171Z" fill="#222222"/>
<path d="M42.6336 92.5051L37.6496 92.5051C37.2156 92.5051 36.8936 92.8131 36.8936 93.2191C36.8936 93.6531 37.2016 93.9471 37.6496 93.9471H38.8116L38.8116 99.4631H37.6496C37.2156 99.4631 36.8936 99.7711 36.8936 100.177C36.8936 100.611 37.2016 100.905 37.6496 100.905L41.7236 100.905C42.1436 100.905 42.4516 100.625 42.4516 100.219C42.4516 99.8271 42.1296 99.5331 41.7236 99.5331L40.3096 99.5331V98.4551L42.6336 98.4551C44.5516 98.4551 45.8396 97.2791 45.8396 95.4731C45.8396 93.6811 44.5516 92.5051 42.6336 92.5051ZM42.6336 97.0131L40.3096 97.0131L40.3096 93.9471L42.6336 93.9471C43.6556 93.9471 44.2296 94.5071 44.2296 95.4731C44.2296 96.4531 43.6556 97.0131 42.6336 97.0131Z" fill="#222222"/>
<path d="M52.4811 93.2331C52.4811 92.8411 52.1451 92.5051 51.7391 92.5051L47.9171 92.5051C47.4831 92.5051 47.1611 92.8131 47.1611 93.2191C47.1611 93.6531 47.4691 93.9471 47.9171 93.9471H49.0791L49.0791 99.4631L47.9171 99.4631C47.4831 99.4631 47.1611 99.7711 47.1611 100.177C47.1611 100.611 47.4691 100.905 47.9171 100.905L54.8051 100.905C55.2531 100.905 55.5471 100.625 55.5471 100.191V98.4831C55.5471 98.0631 55.2251 97.7551 54.7911 97.7551C54.3571 97.7551 54.0491 98.0631 54.0491 98.4831V99.4631H50.5771L50.5771 93.9471H51.7391C52.1451 93.9471 52.4811 93.6251 52.4811 93.2331Z" fill="#222222"/>
<path d="M66.1674 99.4631L65.0194 99.4631L62.4154 93.1491C62.2614 92.7291 61.9674 92.5051 61.5614 92.5051H58.6914C58.2574 92.5051 57.9354 92.8131 57.9354 93.2191C57.9354 93.6531 58.2434 93.9471 58.6914 93.9471H60.2734L58.0054 99.4631L56.8854 99.4631C56.4514 99.4631 56.1294 99.7711 56.1294 100.177C56.1294 100.611 56.4374 100.905 56.8854 100.905L60.3154 100.905C60.7354 100.905 61.0434 100.625 61.0434 100.219C61.0434 99.8271 60.7354 99.5331 60.3154 99.5331H59.4334L59.9234 98.3151H63.0874L63.5774 99.5331H62.7234C62.3174 99.5331 62.0094 99.8271 62.0094 100.219C62.0094 100.625 62.3034 100.905 62.7234 100.905L66.1674 100.905C66.6014 100.905 66.9234 100.611 66.9234 100.177C66.9234 99.7711 66.6014 99.4631 66.1674 99.4631ZM60.4554 96.9991L61.5054 94.4091L62.5554 96.9991H60.4554Z" fill="#222222"/>
<path d="M79.008 92.5051H75.186C74.752 92.5051 74.43 92.8131 74.43 93.2191C74.43 93.6531 74.738 93.9471 75.186 93.9471H76.334L76.334 98.9171L70.846 92.8411C70.65 92.6311 70.398 92.5051 70.104 92.5051H68.466C68.032 92.5051 67.71 92.8131 67.71 93.2191C67.71 93.6531 68.018 93.9471 68.466 93.9471H69.628L69.628 99.4631H68.466C68.032 99.4631 67.71 99.7711 67.71 100.177C67.71 100.611 68.018 100.905 68.466 100.905H72.288C72.722 100.905 73.044 100.611 73.044 100.177C73.044 99.7711 72.722 99.4631 72.288 99.4631H71.126L71.126 95.3191L75.886 100.611C76.558 101.381 77.832 100.961 77.832 99.9111L77.832 93.9471H79.008C79.442 93.9471 79.764 93.6531 79.764 93.2191C79.764 92.8131 79.442 92.5051 79.008 92.5051Z" fill="#222222"/>
<path d="M88.4253 92.5051L81.4673 92.5051C81.0053 92.5051 80.6973 92.7991 80.6973 93.2471V95.4731C80.6973 95.8931 81.0053 96.2011 81.4393 96.2011C81.8733 96.2011 82.1953 95.9071 82.1953 95.4731V93.9471L84.1973 93.9471L84.1973 99.4631H82.9653C82.5313 99.4631 82.2093 99.7711 82.2093 100.177C82.2093 100.611 82.5173 100.905 82.9653 100.905H86.9273C87.3613 100.905 87.6833 100.611 87.6833 100.177C87.6833 99.7711 87.3613 99.4631 86.9273 99.4631H85.6953L85.6953 93.9471H87.6973V95.4731C87.6973 95.8931 88.0053 96.2011 88.4393 96.2011C88.8733 96.2011 89.1953 95.9071 89.1953 95.4731V93.2471C89.1953 92.7991 88.8873 92.5051 88.4253 92.5051Z" fill="#222222"/>
<path d="M101.272 92.5051L96.2882 92.5051C95.8542 92.5051 95.5322 92.8131 95.5322 93.2191C95.5322 93.6531 95.8402 93.9471 96.2882 93.9471H97.4502L97.4502 99.4631H96.2882C95.8542 99.4631 95.5322 99.7711 95.5322 100.177C95.5322 100.611 95.8402 100.905 96.2882 100.905L100.362 100.905C100.782 100.905 101.09 100.625 101.09 100.219C101.09 99.8271 100.768 99.5331 100.362 99.5331H98.9482L98.9482 98.4551H101.272C103.19 98.4551 104.478 97.2791 104.478 95.4731C104.478 93.6811 103.19 92.5051 101.272 92.5051ZM101.272 97.0131H98.9482V93.9471L101.272 93.9471C102.294 93.9471 102.868 94.5071 102.868 95.4731C102.868 96.4531 102.294 97.0131 101.272 97.0131Z" fill="#222222"/>
<path d="M114.2 95.6551C114.634 95.6551 114.956 95.3611 114.956 94.9271V93.2191C114.956 92.7851 114.662 92.5051 114.214 92.5051L106.556 92.5051C106.122 92.5051 105.8 92.8131 105.8 93.2191C105.8 93.6531 106.108 93.9471 106.556 93.9471L107.718 93.9471L107.718 99.4631L106.556 99.4631C106.122 99.4631 105.8 99.7711 105.8 100.177C105.8 100.611 106.108 100.905 106.556 100.905L114.284 100.905C114.732 100.905 115.026 100.625 115.026 100.191V98.4831C115.026 98.0631 114.704 97.7551 114.27 97.7551C113.836 97.7551 113.528 98.0631 113.528 98.4831V99.4631H109.216V97.3211H110.98V97.7131C110.98 98.1331 111.288 98.4131 111.708 98.4131C112.128 98.4131 112.422 98.1191 112.422 97.7131L112.422 95.5291C112.422 95.1231 112.128 94.8151 111.708 94.8151C111.288 94.8151 110.98 95.1091 110.98 95.5291V95.9211H109.216V93.9471H113.458V94.9271C113.458 95.3471 113.766 95.6551 114.2 95.6551Z" fill="#222222"/>
<path d="M121.739 101.045C124.357 101.045 126.331 99.1831 126.331 96.7051C126.331 94.2271 124.357 92.3651 121.739 92.3651C119.135 92.3651 117.175 94.2271 117.175 96.7051C117.175 99.1831 119.135 101.045 121.739 101.045ZM121.739 99.5191C120.045 99.5191 118.771 98.3151 118.771 96.7051C118.771 95.0951 120.045 93.8911 121.739 93.8911C123.447 93.8911 124.721 95.0951 124.721 96.7051C124.721 98.3151 123.447 99.5191 121.739 99.5191Z" fill="#222222"/>
<path d="M133.593 92.5051L128.609 92.5051C128.175 92.5051 127.853 92.8131 127.853 93.2191C127.853 93.6531 128.161 93.9471 128.609 93.9471H129.771V99.4631H128.609C128.175 99.4631 127.853 99.7711 127.853 100.177C127.853 100.611 128.161 100.905 128.609 100.905L132.683 100.905C133.103 100.905 133.411 100.625 133.411 100.219C133.411 99.8271 133.089 99.5331 132.683 99.5331L131.269 99.5331V98.4551L133.593 98.4551C135.511 98.4551 136.799 97.2791 136.799 95.4731C136.799 93.6811 135.511 92.5051 133.593 92.5051ZM133.593 97.0131L131.269 97.0131V93.9471L133.593 93.9471C134.615 93.9471 135.189 94.5071 135.189 95.4731C135.189 96.4531 134.615 97.0131 133.593 97.0131Z" fill="#222222"/>
<path d="M143.44 93.2331C143.44 92.8411 143.104 92.5051 142.698 92.5051L138.876 92.5051C138.442 92.5051 138.12 92.8131 138.12 93.2191C138.12 93.6531 138.428 93.9471 138.876 93.9471H140.038V99.4631H138.876C138.442 99.4631 138.12 99.7711 138.12 100.177C138.12 100.611 138.428 100.905 138.876 100.905L145.764 100.905C146.212 100.905 146.506 100.625 146.506 100.191V98.4831C146.506 98.0631 146.184 97.7551 145.75 97.7551C145.316 97.7551 145.008 98.0631 145.008 98.4831V99.4631H141.536V93.9471H142.698C143.104 93.9471 143.44 93.6251 143.44 93.2331Z" fill="#222222"/>
<path d="M156.09 95.6551C156.524 95.6551 156.846 95.3611 156.846 94.9271V93.2191C156.846 92.7851 156.552 92.5051 156.104 92.5051L148.446 92.5051C148.012 92.5051 147.69 92.8131 147.69 93.2191C147.69 93.6531 147.998 93.9471 148.446 93.9471L149.608 93.9471V99.4631L148.446 99.4631C148.012 99.4631 147.69 99.7711 147.69 100.177C147.69 100.611 147.998 100.905 148.446 100.905H156.174C156.622 100.905 156.916 100.625 156.916 100.191V98.4831C156.916 98.0631 156.594 97.7551 156.16 97.7551C155.726 97.7551 155.418 98.0631 155.418 98.4831V99.4631H151.106V97.3211H152.87V97.7131C152.87 98.1331 153.178 98.4131 153.598 98.4131C154.018 98.4131 154.312 98.1191 154.312 97.7131V95.5291C154.312 95.1231 154.018 94.8151 153.598 94.8151C153.178 94.8151 152.87 95.1091 152.87 95.5291V95.9211H151.106V93.9471H155.348V94.9271C155.348 95.3471 155.656 95.6551 156.09 95.6551Z" fill="#222222"/>
</svg>
