<svg width="53" height="101" viewBox="0 0 53 101" fill="none" xmlns="http://www.w3.org/2000/svg">
<path fill-rule="evenodd" clip-rule="evenodd" d="M32.9577 2.40503H20.3785C12.5164 3.86003 4.6545 8.71003 2.55818 19.865C0.546735 30.5684 14.4386 46.055 21.9512 52.36H32.4339C39.0729 44.4384 51.3581 29.565 50.2545 19.865C49.206 10.65 39.2473 3.37503 32.9577 2.40503Z" fill="#BFB33B"/>
<path d="M20.3785 99.405H32.9577C38.7232 98.92 50.2545 94.07 51.3027 84.855C45.7119 84.0467 40.2956 82.43 25.6198 82.43C18.4916 82.43 7.97414 84.0467 3.60645 84.855C5.17886 96.01 14.0888 98.92 20.3785 99.405Z" fill="#BFB33B"/>
<path fill-rule="evenodd" clip-rule="evenodd" d="M20.2409 0.905029H33.0728L33.1864 0.922556C36.6956 1.46375 41.0177 3.69984 44.5796 6.93238C48.1524 10.1748 51.166 14.6075 51.7449 19.6955C52.0589 22.4549 51.4139 25.4609 50.2707 28.4555C49.1216 31.4655 47.426 34.5753 45.5137 37.584C41.9912 43.1263 37.6464 48.4592 34.3911 52.3584C34.4054 52.3754 34.4197 52.3925 34.434 52.4095C37.7096 56.3082 42.2595 61.7236 45.9963 67.2861C48.0337 70.319 49.8602 73.4399 51.1133 76.4232C52.3564 79.3824 53.0974 82.3502 52.7932 85.0246C52.1982 90.2549 48.6452 94.1105 44.7162 96.6618C40.7853 99.2143 36.2254 100.635 33.0835 100.9L33.0208 100.905H20.3208L20.2632 100.901C16.9699 100.647 12.884 99.7538 9.38024 97.3718C5.82263 94.9531 2.96686 91.0637 2.12121 85.0644C1.28218 79.1121 4.25766 72.166 8.12919 66.123C11.615 60.6819 16.0109 55.6907 19.6676 52.3657C15.9624 49.0593 11.2314 44.0668 7.45075 38.6169C5.32606 35.5541 3.47203 32.3047 2.27753 29.0943C1.08694 25.8944 0.512698 22.6283 1.08406 19.588C3.32408 7.66831 11.8062 2.46602 20.1056 0.930075L20.2409 0.905029ZM22.5034 53.86C18.9165 56.9591 14.2721 62.0958 10.6552 67.7413C7.25139 73.0544 4.93883 78.5388 4.97899 83.0882C9.99657 82.2308 19.1405 80.93 25.6199 80.93C37.4173 80.93 43.3578 81.9728 48.0666 82.7994C48.6737 82.906 49.2603 83.009 49.8363 83.1056C49.7208 81.4935 49.2092 79.6366 48.3475 77.585C47.1983 74.8494 45.4869 71.9077 43.506 68.959C39.8643 63.5381 35.4159 58.2426 32.1291 54.3299C31.9956 54.171 31.864 54.0143 31.7344 53.86H22.5034ZM31.7336 50.86C35.0191 46.9326 39.4422 41.544 42.9818 35.9748C44.8328 33.0625 46.4164 30.1401 47.4679 27.3856C48.5253 24.6159 49.002 22.1252 48.7642 20.0346C48.2946 15.9075 45.8046 12.0953 42.5635 9.15393C39.354 6.24122 35.6087 4.36571 32.8385 3.90503H20.518C13.1402 5.30817 5.97336 9.81402 4.03245 20.1421C3.59809 22.4534 4.00603 25.1369 5.08922 28.0481C6.16849 30.9488 7.8798 33.9721 9.91572 36.9069C13.8396 42.5634 18.8596 47.7354 22.5019 50.86H31.7336ZM49.5494 86.0995C48.8847 85.9895 48.2139 85.8719 47.5213 85.7504C42.8291 84.9277 37.139 83.93 25.6199 83.93C19.3294 83.93 10.2628 85.2238 5.34459 86.0692C6.27884 90.3912 8.47759 93.1304 11.0669 94.8908C13.9653 96.8613 17.4533 97.6682 20.4371 97.905H32.8929C35.5186 97.6704 39.5714 96.4256 43.0823 94.1457C46.193 92.1258 48.6835 89.4279 49.5494 86.0995Z" fill="#BFB33B"/>
</svg>
