<svg width="78" height="147" viewBox="0 0 78 147" fill="none" xmlns="http://www.w3.org/2000/svg">
<path d="M16.5 118.175C16.5 105.377 21.4064 95.8681 32.5599 92.1105V79.405H56.2673V92.1105C66.6656 96.6974 73.0223 103.135 73.4742 114.034C74.0643 128.264 64.4031 138.192 56.2673 140.266V146.405H32.5599V139.63C24.6678 136.599 16.5 130.972 16.5 118.175Z" fill="#BFB33B"/>
<path d="M14.3823 61.3102C25.9813 57.8721 35.3171 68.1865 44.3699 95.405L40.308 74.2032C35.6 59.4207 24.8497 40.7975 15.7968 25.2097C13.8165 26.3558 8.62437 25.8189 7.59269 22.0581C6.17795 16.9009 11.4751 14.493 14.3823 15.7549C18.343 17.4739 18.0601 22.9176 15.7968 25.2097C24.8497 40.7975 35.6 59.4207 40.308 74.2032L35.6 44.1195C33.5254 43.069 26.6603 33.404 24.8497 28.3614C22.5865 22.0582 25.4155 14.3224 29.9419 24.3503C33.5631 32.3726 35.9772 42.9735 35.6 44.1195L40.308 74.2032L44.3699 95.405C44.2337 87.7695 43.2981 84.5832 44.3699 73.1732C44.628 70.5946 37.8631 13.1763 37.8631 13.1763C37.8631 13.1763 31.8263 10.8757 33.1551 6.29996C34.5696 1.42928 41.8244 0.793714 43.0787 6.29996C44.1883 11.1707 37.8631 13.1763 37.8631 13.1763C37.8631 13.1763 44.628 70.5946 44.3699 73.1732C45.5235 60.8926 47.4818 45.5521 50.5938 36.9568C50.1223 32.2771 47.6516 21.8863 50.5938 16.6145C54.2715 10.0247 58.7978 16.6145 56.5347 26.0693C55.6816 29.6335 52.1969 35.7152 50.5938 36.9568C47.4818 45.5521 45.5235 60.8926 44.3699 73.1732C43.2981 84.5832 44.2337 87.7695 44.3699 95.405C44.3878 95.1061 44.4088 94.7973 44.433 94.4794C45.3052 82.3565 48.8155 57.7014 56.5347 48.9902C56.4404 42.114 59.4768 25.5536 64.4559 26.9289C70.6797 28.6479 66.4362 39.2489 63.0414 44.1195C60.3256 48.0161 57.572 48.9902 56.5347 48.9902C48.8155 57.7014 45.3052 82.3565 44.433 94.4794C45.1747 84.7394 48.9354 66.4595 58.7979 64.4618C61.4383 62.9338 67.0586 63.3731 70.6797 67.0404C74.3008 70.7077 77.7522 81.6525 76.0548 83.9446C74.3575 86.2367 63.3242 73.4583 61.061 69.3325C58.7979 65.2069 58.7979 65.0349 58.7979 64.4619V64.4618C48.9354 66.4595 45.1747 84.7394 44.433 94.4794C44.4102 94.7967 44.3892 95.1054 44.3699 95.405C35.3171 68.1865 25.9813 57.8721 14.3823 61.3102C12.4019 67.8999 9.1769 81.6525 5.32943 86.2367C0.520104 91.9669 1.08591 78.7874 2.50023 71.9111C3.88964 65.156 6.03174 61.454 9.85586 61.0237C12.402 60.7372 14.3823 61.3102 14.3823 61.3102Z" fill="#BFB33B"/>
<path fill-rule="evenodd" clip-rule="evenodd" d="M38.1214 0.909639C40.9195 0.806117 43.7389 2.445 44.5412 5.96681L43.0786 6.29997L44.5412 5.96681C45.2826 9.22148 43.4648 11.4735 41.8017 12.7533C40.9753 13.3894 40.125 13.843 39.4863 14.1378C39.5292 14.5032 39.5818 14.9513 39.643 15.474C39.8275 17.0494 40.0908 19.3029 40.4059 22.015C41.0362 27.4392 41.874 34.6987 42.7037 42.0393C43.3489 47.7474 43.9895 53.5067 44.524 58.4909C45.6407 50.3071 47.1235 42.2924 49.0655 36.7758C48.9717 35.9511 48.8244 34.9639 48.6561 33.8361C48.6047 33.4915 48.5513 33.1337 48.4969 32.7635C48.244 31.0421 47.9769 29.0998 47.8183 27.1279C47.509 23.2806 47.5721 18.9505 49.2838 15.8835C50.2731 14.1109 51.5469 12.7867 53.129 12.5053C54.8634 12.1969 56.2198 13.2358 57.0482 14.5056C58.6711 16.9931 59.1747 21.483 57.9934 26.4185C57.52 28.3962 56.3596 30.9466 55.1566 33.1124C54.5474 34.2093 53.9065 35.2448 53.3034 36.0985C52.8449 36.7475 52.3546 37.3697 51.876 37.8268C48.9744 46.1054 47.0831 60.5605 45.9351 72.5552C46.1003 71.745 46.2725 70.9355 46.4519 70.1295C47.4375 65.7014 48.6461 61.348 50.1092 57.5312C51.4762 53.965 53.0985 50.7783 55.0335 48.4377C55.0651 44.7985 55.8167 39.154 57.1496 34.4558C57.8491 31.9903 58.7439 29.6555 59.8584 27.9934C60.9184 26.4125 62.6088 24.8626 64.8551 25.483C66.9234 26.0543 68.1938 27.428 68.765 29.1935C69.3034 30.8578 69.2021 32.7909 68.8254 34.6416C68.0684 38.3598 66.0578 42.415 64.2719 44.9772C61.7767 48.5572 59.0759 50.0703 57.2938 50.4123C55.6809 52.3847 54.2144 55.2035 52.9104 58.605C51.5636 62.1186 50.4247 66.1613 49.4778 70.3468C50.0487 69.3927 50.6665 68.496 51.3344 67.6771C53.1789 65.4157 55.4678 63.6755 58.2682 63.0414C59.9724 62.1482 62.3192 61.9269 64.6258 62.3247C67.0753 62.747 69.6854 63.8986 71.7469 65.9865C73.8111 68.077 75.6667 72.0063 76.7915 75.555C77.3635 77.3598 77.7777 79.1628 77.9326 80.7019C78.0099 81.47 78.0271 82.2152 77.9496 82.8834C77.8752 83.5251 77.697 84.2474 77.2602 84.8372C76.4842 85.8851 75.2884 85.7881 74.5919 85.5828C73.8776 85.3723 73.1339 84.9262 72.4389 84.4268C71.0152 83.4039 69.3296 81.8117 67.6826 80.0785C64.4021 76.6261 60.9715 72.2884 59.7458 70.0539C58.6996 68.1467 58.1092 67.0349 57.7807 66.3288C56.28 66.9362 54.9099 68.0399 53.6592 69.5732C52.0475 71.5492 50.6995 74.1629 49.5994 77.0943C47.3994 82.9564 46.293 89.8102 45.9288 94.5907C45.9063 94.903 45.8856 95.2066 45.8667 95.5011L42.9465 95.8784C38.4344 82.3124 33.9139 73.1706 29.2078 67.8558C26.8707 65.2164 24.5398 63.5809 22.201 62.7782C20.1096 62.0604 17.9236 61.9777 15.5828 62.5403C15.2805 63.5789 14.9438 64.786 14.5791 66.0937C13.8179 68.8227 12.9345 71.9901 11.9856 74.9793C11.2111 77.4192 10.3685 79.8257 9.46686 81.9263C8.57532 84.0033 7.58335 85.8843 6.47828 87.201C5.82353 87.9811 5.11071 88.6311 4.31998 88.9435C3.89988 89.1094 3.42341 89.1931 2.92313 89.1127C2.41732 89.0314 1.99354 88.7993 1.65994 88.5012C1.04185 87.9489 0.708825 87.1527 0.50645 86.4507C0.291893 85.7065 0.161066 84.8378 0.0859 83.9243C-0.212249 80.3012 0.305115 75.1374 1.03087 71.6089C1.73834 68.1693 2.66721 65.3365 4.00782 63.2772C5.38819 61.1569 7.24491 59.808 9.68801 59.5331C11.1104 59.373 12.368 59.4532 13.2702 59.5724C13.7224 59.6321 14.0905 59.7024 14.3518 59.7594C17.377 58.9347 20.3239 58.9621 23.1749 59.9407C26.1318 60.9555 28.8755 62.9552 31.4538 65.8669C34.3541 69.1423 37.1099 73.6467 39.779 79.4146L38.8515 74.5737C34.2978 60.3319 24.0513 42.419 15.131 27.0504C13.8418 27.3524 12.3116 27.2976 10.9407 26.9202C8.95398 26.3732 6.8487 25.0164 6.14602 22.4549C5.2642 19.2404 6.49793 16.7179 8.4896 15.2824C10.3574 13.9363 12.9644 13.5043 14.9794 14.3789C17.5875 15.5109 18.7462 17.8769 18.9191 20.1538C19.0565 21.9626 18.5921 23.8823 17.6102 25.3457C24.0814 36.4925 31.401 49.2127 36.7179 60.9654L34.2186 44.995C33.9958 44.819 33.7799 44.624 33.5771 44.4291C33.139 44.008 32.6582 43.4843 32.1571 42.8953C31.1531 41.7153 30.0136 40.2095 28.8927 38.5918C26.6738 35.3894 24.4118 31.581 23.4378 28.8683C22.809 27.117 22.5343 25.2733 22.554 23.6471C22.5731 22.0785 22.8698 20.4847 23.6059 19.393C23.9903 18.823 24.5838 18.2655 25.4301 18.084C26.2918 17.8992 27.0992 18.1712 27.7591 18.6179C28.994 19.4538 30.1606 21.189 31.309 23.7332C33.1634 27.8415 34.6972 32.5804 35.7199 36.4282C36.2318 38.3544 36.6216 40.0791 36.8605 41.4102C36.9796 42.0731 37.0652 42.6605 37.1076 43.137C37.1288 43.3743 37.1413 43.6066 37.1381 43.8195C37.1368 43.9029 37.1332 44.0108 37.12 44.1318L41.7859 73.9462L42.5145 77.7492C42.5953 76.3342 42.7126 74.776 42.8764 73.033C42.8766 73.0311 42.8767 73.0292 42.8769 73.0274C42.8764 73.0317 42.8765 73.0301 42.8766 73.0211C42.8769 72.9999 42.8779 72.9377 42.8745 72.8168C42.8699 72.6566 42.8594 72.4412 42.8422 72.1687C42.808 71.6249 42.7498 70.8902 42.6701 69.9867C42.5109 68.1817 42.2687 65.7365 41.97 62.8661C41.3728 57.1273 40.552 49.7135 39.7227 42.3762C38.8934 35.0399 38.0561 27.7837 37.426 22.3613C37.111 19.6502 36.8478 17.3977 36.6633 15.823C36.5844 15.1491 36.5199 14.5994 36.472 14.191C36.3985 14.1541 36.3215 14.1146 36.2414 14.0724C35.6334 13.7522 34.8184 13.2624 34.0365 12.5946C32.4924 11.2759 30.811 8.99282 31.7145 5.88162C32.6225 2.75507 35.4037 1.01018 38.1214 0.909639ZM37.9091 11.555C37.9998 11.5169 38.1003 11.4731 38.2084 11.4234C38.7181 11.1896 39.3675 10.8412 39.972 10.3759C41.1942 9.43533 41.9842 8.24916 41.6161 6.63312C41.164 4.64868 39.7289 3.85222 38.2323 3.90759C36.6554 3.96593 35.102 4.97416 34.5955 6.71829C34.1702 8.18282 34.8427 9.3379 35.9848 10.3134C36.546 10.7927 37.1572 11.1641 37.6395 11.4181C37.7364 11.4691 37.8268 11.5148 37.9091 11.555ZM33.4501 39.7324C33.2717 38.9552 33.0611 38.1037 32.8205 37.1988C31.8252 33.4541 30.3413 28.8813 28.5746 24.9674C27.4598 22.4976 26.5754 21.4393 26.0775 21.1023C26.0763 21.1015 26.0751 21.1007 26.0739 21.0999C25.8258 21.4926 25.5697 22.3762 25.5538 23.6836C25.5382 24.9673 25.7585 26.4542 26.2613 27.8545C27.0979 30.1845 29.1737 33.7298 31.3587 36.8832C32.0714 37.9118 32.7832 38.8806 33.4501 39.7324ZM26.1751 20.9697C26.1751 20.9698 26.1737 20.9711 26.1708 20.9732C26.1737 20.9706 26.1751 20.9696 26.1751 20.9697ZM25.9344 21.0227C25.9303 21.0218 25.9281 21.021 25.9281 21.0209C25.9281 21.0207 25.9301 21.0212 25.9344 21.0227ZM34.1362 43.8224C34.1361 43.8223 34.1363 43.8182 34.1372 43.8107C34.1367 43.8189 34.1363 43.8226 34.1362 43.8224ZM14.8777 23.9937C15.5729 23.1764 16.0347 21.789 15.9277 20.381C15.8177 18.9332 15.1375 17.7179 13.785 17.1308C12.8927 16.7436 11.3975 16.8846 10.2437 17.7162C9.21365 18.4586 8.5062 19.7186 9.03913 21.6613C9.36813 22.8606 10.3748 23.6527 11.7371 24.0278C13.0309 24.384 14.2614 24.2529 14.8777 23.9937ZM12.4716 62.5001C11.7969 62.4346 10.9504 62.41 10.0235 62.5143C8.64247 62.6697 7.51607 63.387 6.522 64.914C5.48818 66.502 4.6513 68.8978 3.96936 72.2133C3.28079 75.561 2.80809 80.4252 3.07579 83.6783C3.14209 84.4839 3.24997 85.1373 3.38905 85.6197C3.42975 85.7608 3.46931 85.8738 3.50507 85.9632C3.66763 85.8305 3.89283 85.6149 4.18036 85.2724C4.99902 84.2969 5.85297 82.7398 6.7101 80.743C7.55712 78.7697 8.36595 76.4667 9.1262 74.0717C10.0726 71.0902 10.9071 68.0935 11.6485 65.4316C11.9366 64.397 12.2106 63.413 12.4716 62.5001ZM60.6336 65.341C60.9359 65.9566 61.4604 66.9418 62.376 68.6111C63.4135 70.5023 66.6312 74.6168 69.8574 78.012C71.4638 79.7026 72.9962 81.1331 74.1894 81.9904C74.5025 82.2154 74.7638 82.3799 74.9742 82.4957C75.0138 82.1171 75.0095 81.6168 74.9477 81.0022C74.8197 79.7299 74.463 78.1377 73.9317 76.4614C72.8498 73.0479 71.1692 69.6712 69.6122 68.0943C68.0527 66.5149 66.042 65.6131 64.116 65.281C62.77 65.0489 61.5593 65.109 60.6336 65.341ZM58.087 46.9103C59.0728 46.3465 60.4118 45.2689 61.8107 43.2618C63.4197 40.9534 65.2282 37.2728 65.8857 34.0431C66.2161 32.4198 66.2209 31.0759 65.9106 30.1169C65.6331 29.259 65.1 28.663 64.0564 28.3747C63.8132 28.3076 63.2568 28.3119 62.3501 29.6642C61.4978 30.9352 60.7059 32.9125 60.0357 35.2746C58.9495 39.103 58.2758 43.6014 58.087 46.9103ZM51.6005 33.2401C51.9085 32.7488 52.2235 32.2147 52.5341 31.6556C53.6875 29.5791 54.696 27.3066 55.0758 25.7202C56.1575 21.2008 55.5296 17.6684 54.5356 16.1448C54.0557 15.409 53.7323 15.4451 53.6544 15.459C53.4242 15.4999 52.753 15.8232 51.9035 17.3455C50.673 19.5503 50.5003 23.0515 50.8087 26.8875C50.959 28.7571 51.2141 30.6195 51.465 32.3273C51.5103 32.6354 51.5557 32.9402 51.6005 33.2401Z" fill="#BFB33B"/>
</svg>
