<svg width="91" height="69" viewBox="0 0 91 69" fill="none" xmlns="http://www.w3.org/2000/svg">
<path d="M12.4131 66.905C8.94208 66.7357 2 66.905 2 56.2384C2 45.5717 8.94208 45.741 12.4131 45.5717C8.94208 45.4024 2 45.5717 2 34.905C2 24.2384 8.94208 24.4077 12.4131 24.2384C8.94208 24.0691 2 24.2384 2 13.5717C2 2.90503 8.94208 3.07434 12.4131 2.90503H78.2509C80.6023 2.905 89 2.905 89 13.5717C89 24.2384 80.2664 24.2384 78.2509 24.2384C80.6023 24.2383 89 24.2383 89 34.905C89 45.5717 80.2664 45.5717 78.2509 45.5717C80.6023 45.5717 89 45.5717 89 56.2384C89 66.9051 80.2664 66.905 78.2509 66.905H12.4131Z" fill="#FFFEF9"/>
<path fill-rule="evenodd" clip-rule="evenodd" d="M83.5339 5.98553C81.641 4.93102 79.4375 4.90504 78.251 4.90506H12.4615C12.3429 4.91077 12.2239 4.91624 12.1046 4.92173C10.3163 5.00401 8.46788 5.08906 6.94001 6.01319C5.54276 6.85833 4 8.70891 4 13.5717C4 18.4345 5.54276 20.2851 6.94001 21.1303C8.46788 22.0544 10.3163 22.1394 12.1046 22.2217C12.2239 22.2272 12.3429 22.2327 12.4616 22.2384H78.2509C78.2595 22.2384 78.2682 22.2384 78.2769 22.2384C79.2909 22.2379 81.491 22.2073 83.4208 21.1508C84.3556 20.639 85.22 19.8883 85.864 18.7521C86.5121 17.6087 87 15.963 87 13.5717C87 11.1676 86.5278 9.51416 85.8982 8.368C85.2745 7.2327 84.4391 6.48986 83.5339 5.98553ZM86.1034 24.2005C87.3241 23.3935 88.4676 22.2705 89.3438 20.7247C90.3962 18.8681 91 16.5138 91 13.5717C91 10.6425 90.4224 8.29592 89.404 6.44208C88.3797 4.57737 86.9687 3.32021 85.4806 2.4912C82.6308 0.90356 79.5121 0.90463 78.3054 0.905043L12.3644 0.905056L12.3157 0.907431C12.1769 0.914201 12.0252 0.920187 11.862 0.926623C10.1922 0.992494 7.32492 1.1056 4.86983 2.59057C1.92828 4.36978 0 7.76787 0 13.5717C0 19.0504 1.71823 22.3853 4.38504 24.2384C1.71823 26.0915 0 29.4264 0 34.9051C0 40.3837 1.71823 43.7186 4.38504 45.5717C1.71823 47.4248 0 50.7598 0 56.2384C0 62.0422 1.92828 65.4403 4.86983 67.2195C7.32492 68.7045 10.1922 68.8176 11.862 68.8835C12.0252 68.8899 12.1769 68.8959 12.3157 68.9027L12.3644 68.9051H78.2915C79.3463 68.9053 82.4555 68.9062 85.3417 67.326C86.8423 66.5045 88.2873 65.2552 89.3438 63.3913C90.3962 61.5348 91 59.1804 91 56.2384C91 53.3092 90.4224 50.9626 89.404 49.1087C88.5238 47.5065 87.3582 46.3528 86.1034 45.5338C87.3241 44.7269 88.4676 43.6038 89.3438 42.058C90.3962 40.2014 91 37.8471 91 34.9051C91 31.9758 90.4224 29.6293 89.404 27.7754C88.5238 26.1731 87.3582 25.0194 86.1034 24.2005ZM78.2809 26.2384C78.2708 26.2384 78.2608 26.2384 78.2509 26.2384H12.4616C12.3429 26.2441 12.2239 26.2496 12.1046 26.2551C10.3163 26.3373 8.46787 26.4224 6.94001 27.3465C5.54276 28.1917 4 30.0422 4 34.9051C4 39.7679 5.54276 41.6185 6.94001 42.4636C8.46787 43.3877 10.3163 43.4728 12.1046 43.555C12.2239 43.5605 12.3429 43.566 12.4615 43.5717H78.2509C78.262 43.5717 78.2732 43.5717 78.2846 43.5717C79.3021 43.5711 81.4959 43.538 83.4208 42.4841C84.3556 41.9723 85.22 41.2216 85.864 40.0855C86.5121 38.942 87 37.2964 87 34.9051C87 32.5009 86.5278 30.8475 85.8982 29.7013C85.2745 28.566 84.4391 27.8232 83.5339 27.3189C81.6568 26.2731 79.4743 26.2389 78.2809 26.2384ZM78.2509 47.5717H12.4615C12.3429 47.5774 12.2239 47.5829 12.1046 47.5884C10.3163 47.6707 8.46787 47.7557 6.94001 48.6799C5.54276 49.525 4 51.3756 4 56.2384C4 61.1012 5.54276 62.9518 6.94001 63.7969C8.46787 64.721 10.3163 64.8061 12.1046 64.8884C12.2239 64.8939 12.3429 64.8993 12.4615 64.9051H78.2509C79.253 64.9051 81.4744 64.8831 83.4208 63.8174C84.3556 63.3057 85.22 62.5549 85.864 61.4188C86.5121 60.2754 87 58.6297 87 56.2384C87 53.8343 86.5278 52.1808 85.8982 51.0347C85.2745 49.8994 84.4391 49.1565 83.5339 48.6522C81.6568 47.6065 79.4743 47.5722 78.2809 47.5717C78.2708 47.5717 78.2608 47.5717 78.2509 47.5717Z" fill="#BFB33B"/>
</svg>
