<svg width="116" height="188" viewBox="0 0 116 188" fill="none" xmlns="http://www.w3.org/2000/svg">
<path d="M50.4032 94.3233H28.948L31.687 141.63C23.4701 141.776 3.84091 147.938 2.01494 160.903C-0.267523 177.11 9.77533 186.747 42.6428 186.309C75.5103 185.871 78.7058 176.672 78.7058 163.532C78.7058 147.7 56.4898 141.484 46.2948 141.63L50.4032 94.3233Z" fill="#BFB33B"/>
<path fill-rule="evenodd" clip-rule="evenodd" d="M27.3586 92.8233H52.0391L47.9285 140.156C53.2354 140.382 60.648 141.981 67.0099 145.256C74.0482 148.879 80.2058 154.79 80.2058 163.532C80.2058 170.162 79.4232 176.386 73.9469 180.847C68.6116 185.192 59.1294 187.589 42.6628 187.809C26.1606 188.029 15.0303 185.74 8.29442 181.082C4.88591 178.725 2.61175 175.766 1.36549 172.276C0.127102 168.809 -0.0640263 164.909 0.52957 160.694C1.54595 153.477 7.46309 148.378 13.7666 145.126C19.405 142.218 25.7075 140.595 30.1025 140.215L27.3586 92.8233ZM30.5374 95.8233L33.2747 143.102L31.7136 143.13C27.8591 143.198 21.1222 144.707 15.1421 147.793C9.12031 150.899 4.30985 155.364 3.50025 161.113C2.95262 165.001 3.16092 168.384 4.19074 171.267C5.21267 174.129 7.07549 176.591 10.0008 178.614C15.9326 182.717 26.2575 185.027 42.6228 184.809C59.0237 184.591 67.573 182.169 72.0523 178.521C76.3906 174.987 77.2058 170.042 77.2058 163.532C77.2058 156.442 72.2553 151.33 65.6369 147.923C59.035 144.525 51.1765 143.06 46.3162 143.13L44.6568 143.154L48.7673 95.8233H30.5374Z" fill="#BFB33B"/>
<path d="M88.7508 27.9062C84.1443 26.2902 81.4043 19.9779 83.5872 16.5958C86.3157 12.3682 89.7867 15.1689 89.6463 12.0721C89.506 8.97533 88.3682 8.81369 89.2317 6.82101C90.0951 4.82834 94.6952 2.40503 94.6952 2.40503C94.6952 2.40503 93.2136 7.38675 95.1098 7.65615C97.006 7.92555 95.8169 9.48734 95.7922 11.0223C95.7676 12.5572 99.9499 19.8821 98.0891 24.8099C96.2283 29.7377 92.0675 29.0697 88.7508 27.9062C84.0993 32.0529 74.2768 37.1957 72.5456 38.4882C81.2079 36.0651 86.2965 34.2881 94.2069 35.7966C95.0249 33.6693 97.0961 30.4379 103.164 31.3C109.054 32.1369 104.959 36.3627 108.346 37.0361C111.055 37.5749 114.224 37.8713 114.224 37.8713C114.224 37.8713 108.468 37.6111 106.998 41.0754C104.381 47.2419 98.3956 47.1607 95.7635 43.9022C93.1313 40.6437 93.7227 37.8431 94.2069 35.7966C86.2965 34.2881 81.2079 36.0651 72.5456 38.4882C67.9781 41.4353 63.9499 43.857 58.2879 47.6162C54.688 50.0063 51.739 53.4974 49.3336 57.6899C50.7151 56.5401 55.445 54.8275 63.3134 57.1762C63.9426 55.4707 65.9434 52.2807 68.9129 53.1641C72.6249 54.2684 74.2287 57.9577 76.1516 58.0386C77.69 58.1033 80.5285 57.1861 81.7555 56.7194C82.0922 58.4339 82.2566 61.9059 80.2204 62.0782C77.675 62.2934 76.8051 60.2468 75.6696 61.4316C74.534 62.6164 75.1677 65.519 69.9897 66.0092C64.3033 66.5474 63.859 59.6895 63.3134 57.1762C55.445 54.8275 50.7151 56.5401 49.3336 57.6899C47.6381 60.6452 46.2126 63.949 45.0197 67.4614C43.562 71.7535 42.4515 76.357 41.6196 81.0166C42.4668 77.6114 45.2989 70.9626 50.6616 71.3399C50.7591 70.1999 51.4802 68.3024 53.7984 68.3241C56.6962 68.3512 57.4858 70.9633 60.736 71.2328C63.3363 71.4484 66.4781 71.664 67.6694 71.4486C67.1376 72.0141 66.7576 73.7806 66.5648 75.1378C66.3238 76.8343 64.5659 78.3153 63.0757 77.9112C61.5856 77.5072 60.7982 76.2415 59.5534 76.8339C58.3085 77.4262 58.0341 79.3902 55.3593 79.1226C50.7817 78.6645 50.4504 73.8098 50.6616 71.3399C45.2989 70.9626 42.4668 77.6114 41.6196 81.0166C41.3851 82.3299 41.1728 83.6477 40.9811 84.9643C41.0862 81.5177 40.5372 73.9783 37.4999 71.393C37.4999 71.393 36.3109 72.9548 31.3808 72.2544C26.4508 71.5539 23.6247 65.5756 23.2412 62.8288C22.8577 60.0821 21.8474 54.9386 21.8474 54.9386C21.8474 54.9386 23.3151 58.224 26.5407 60.0284C29.7663 61.8329 35.698 62.291 37.7346 65.6572C39.3638 68.3502 38.9055 69.6696 37.4999 71.393C40.5372 73.9783 41.0862 81.5177 40.9811 84.9643C41.1728 83.6477 41.3851 82.3299 41.6196 81.0166C42.4515 76.357 43.562 71.7535 45.0197 67.4614C45.0752 62.0848 44.9145 50.793 43.8278 48.6386C41.165 48.7731 35.0824 46.473 34.2314 42.6599C33.1675 37.8934 34.8161 35.82 35.4632 33.9889C36.1103 32.1578 35.0472 27.8402 34.7476 26.772C38.0261 27.7506 44.0973 30.6194 45.9703 33.5587C52.2975 43.4876 45.0855 44.7789 43.8278 48.6386C44.9145 50.793 45.0752 62.0848 45.0197 67.4614C46.2126 63.949 47.6381 60.6452 49.3336 57.6899C51.739 53.4974 54.688 50.0063 58.2879 47.6162C59.5835 44.8516 62.0751 38.1159 61.6774 33.2903C58.0501 34.3134 54.2372 30.7657 52.2394 24.8341C50.3347 19.179 53.9085 18.5329 53.3086 15.9477C52.6765 13.224 52.1108 12.1238 52.1108 12.1238C52.1108 12.1238 56.1764 16.1124 58.3993 15.5172C62.6223 14.3864 65.2945 15.3722 66.0751 22.7615C67.1475 32.9136 63.1558 31.9619 61.6774 33.2903C62.0751 38.1159 59.5835 44.8516 58.2879 47.6162C63.9499 43.857 67.9781 41.4353 72.5456 38.4882C74.2768 37.1957 84.0993 32.0529 88.7508 27.9062Z" fill="#FFFEF9"/>
<path fill-rule="evenodd" clip-rule="evenodd" d="M96.1332 2.83263C96.3052 2.25411 96.1138 1.62882 95.6473 1.24579C95.1809 0.862768 94.5303 0.796621 93.9963 1.07793L94.6954 2.40504C93.9963 1.07793 93.9965 1.07782 93.9963 1.07793L93.9954 1.0784L93.9902 1.08115L93.9775 1.08789L93.933 1.11171C93.8951 1.1321 93.841 1.16141 93.7728 1.19894C93.6365 1.27395 93.4433 1.38209 93.2098 1.51774C92.7443 1.78809 92.1106 2.17232 91.4443 2.62517C90.7826 3.07487 90.0618 3.61035 89.4354 4.18542C88.8366 4.73519 88.1986 5.43287 87.8555 6.22465C87.5886 6.84067 87.4349 7.41102 87.4137 7.99188C87.3925 8.57107 87.5085 9.05406 87.6209 9.44605C87.6546 9.56371 87.6896 9.67861 87.7247 9.79412C87.9084 10.3986 88.0973 11.0198 88.148 12.1401C88.1508 12.2015 88.1514 12.2522 88.1507 12.2934C88.1488 12.2939 88.1469 12.2944 88.145 12.2949C88.0003 12.3312 87.8431 12.3592 87.612 12.4005C87.5548 12.4107 87.4931 12.4217 87.4259 12.4338C86.8019 12.5466 85.9203 12.7217 84.9942 13.22C84.0493 13.7284 83.1371 14.5273 82.3271 15.7824C80.8526 18.0669 81.1557 21.077 82.2545 23.5271C83.0517 25.3045 84.3546 27.0017 86.0451 28.1814C83.9465 29.7778 81.2884 31.4668 78.7776 32.9837C77.526 33.7398 76.3313 34.4413 75.2778 35.06C74.97 35.2407 74.6743 35.4143 74.3927 35.5802C73.2248 36.2682 72.2214 36.8671 71.6931 37.2533C70.018 38.3337 68.3989 39.3538 66.7346 40.4023C65.0388 41.4706 63.2962 42.5685 61.4 43.7898C61.6301 43.0997 61.8545 42.3746 62.0626 41.6296C62.7269 39.2506 63.2562 36.5584 63.2181 34.1167C63.2689 34.0942 63.321 34.0716 63.3775 34.047C63.4823 34.0015 63.6024 33.9494 63.7584 33.8787C64.3913 33.5919 65.2265 33.162 65.9613 32.3232C67.4419 30.6329 68.1136 27.7792 67.567 22.6039C67.1705 18.8509 66.2636 16.2032 64.462 14.7704C62.5758 13.2702 60.2159 13.478 58.0115 14.0682C57.9389 14.0877 57.6493 14.1016 57.058 13.8543C56.5091 13.6246 55.8949 13.2519 55.2924 12.8223C54.6985 12.3989 54.1614 11.9531 53.7699 11.6098C53.5753 11.4393 53.4195 11.2965 53.314 11.1979C53.2612 11.1486 53.2212 11.1105 53.1953 11.0857L53.1672 11.0586L53.1615 11.0531C53.1616 11.0532 53.1614 11.0529 53.1615 11.0531C52.6359 10.5378 51.8139 10.4796 51.2213 10.9161C50.6314 11.3507 50.4422 12.1473 50.7722 12.8003L50.7799 12.8164C50.7894 12.8366 50.8072 12.8751 50.8321 12.9329C50.8821 13.0485 50.9609 13.2415 51.0607 13.5201C51.2603 14.0775 51.5438 14.9776 51.8476 16.2868C51.9064 16.5402 51.8811 16.7325 51.7495 17.0378C51.6725 17.2164 51.5691 17.4093 51.4212 17.6751C51.406 17.7023 51.3903 17.7304 51.3742 17.7593C51.2437 17.9933 51.0853 18.2772 50.9364 18.5829C50.5871 19.2999 50.2643 20.1839 50.1906 21.3269C50.1176 22.4578 50.2937 23.7561 50.8181 25.3129C51.8731 28.4453 53.4422 31.0623 55.3405 32.7819C56.757 34.0651 58.4319 34.9016 60.2077 34.9631C60.1327 36.7843 59.7275 38.8374 59.1731 40.8227C58.5244 43.1458 57.7049 45.2604 57.0994 46.6097C53.4195 49.1517 50.4407 52.7465 48.0327 56.9435C47.48 57.9068 46.9562 58.9039 46.4599 59.9299C46.4331 58.8741 46.3973 57.8095 46.3508 56.7744C46.2656 54.8767 46.1434 53.0558 45.9706 51.5603C45.8843 50.8133 45.7831 50.1271 45.6626 49.5427C45.6019 49.2478 45.5304 48.9485 45.4426 48.6651C45.693 48.1937 46.1019 47.7013 46.6866 47.0664C46.7681 46.9779 46.8533 46.8863 46.9413 46.7918C47.6084 46.075 48.4366 45.1852 49.046 44.1188C49.7758 42.8416 50.2078 41.306 49.9707 39.3778C49.7397 37.4991 48.8853 35.3415 47.2355 32.7526C46.085 30.9471 43.8098 29.3444 41.6174 28.1204C39.3671 26.864 36.9287 25.8576 35.1769 25.3347C34.6531 25.1783 34.0857 25.3193 33.696 25.7025C33.3063 26.0858 33.1559 26.6508 33.3036 27.1771C33.4421 27.6712 33.7675 28.9567 33.9781 30.323C34.0835 31.006 34.1554 31.6796 34.167 32.2685C34.1792 32.8859 34.1211 33.2854 34.0491 33.4891C33.9497 33.7704 33.8282 34.0439 33.6723 34.3951C33.6113 34.5324 33.5451 34.6816 33.4728 34.8477C33.2321 35.4012 32.9651 36.059 32.757 36.8353C32.3321 38.4205 32.1849 40.376 32.7676 42.9866C33.3391 45.5474 35.5669 47.3562 37.65 48.4561C39.3046 49.3298 41.1716 49.9183 42.7125 50.0913C42.7164 50.1099 42.7204 50.1289 42.7244 50.1482C42.8205 50.6147 42.9097 51.206 42.9904 51.9046C43.1517 53.3003 43.27 55.0424 43.3538 56.909C43.5164 60.529 43.5459 64.5346 43.5223 67.208C42.6633 69.7646 41.926 72.4216 41.2956 75.1268C41.1279 74.5785 40.9374 74.0437 40.721 73.5337C40.382 72.7345 39.9629 71.9568 39.4391 71.2761C39.8491 70.6197 40.1647 69.8859 40.2483 69.0353C40.3807 67.6875 39.9058 66.348 39.0182 64.8808C37.6999 62.7018 35.2284 61.6052 33.0861 60.8438C32.4205 60.6072 31.7015 60.3763 31.0215 60.1579C30.6066 60.0246 30.2062 59.896 29.8413 59.7737C28.8144 59.4293 27.9506 59.0983 27.2732 58.7194C25.907 57.9551 24.8843 56.8579 24.1929 55.9181C23.8507 55.4529 23.5996 55.0396 23.4366 54.7481C23.3553 54.6027 23.2966 54.4889 23.26 54.4154C23.2418 54.3787 23.2291 54.3522 23.222 54.337L23.2168 54.3261C23.2169 54.3262 23.2167 54.3259 23.2168 54.3261C23.2167 54.3258 23.2164 54.325 23.2163 54.3248C23.2164 54.3251 23.2161 54.3245 23.2163 54.3248C23.2161 54.3244 23.2155 54.3231 23.2153 54.3226C22.9028 53.6288 22.12 53.2787 21.3943 53.5088C20.667 53.7394 20.2287 54.4791 20.3757 55.2278L20.4193 55.4512C20.4475 55.5961 20.4882 55.8065 20.5383 56.0677C20.6385 56.5903 20.7761 57.3155 20.9256 58.1258C21.226 59.7548 21.569 61.6986 21.7558 63.0363C21.9846 64.6749 22.8901 67.0799 24.3843 69.1789C25.8793 71.279 28.1373 73.3086 31.17 73.7395C33.7994 74.113 35.5732 73.9041 36.7614 73.5101C36.9289 73.4546 37.084 73.3956 37.2276 73.3344C37.4853 73.7102 37.731 74.1672 37.9593 74.7054C38.3817 75.701 38.7064 76.8834 38.9457 78.137C39.4169 80.6051 39.5282 83.1928 39.4844 84.8345C37.7616 96.7184 37.6977 108.479 38.1869 116.03L41.1806 115.836C40.7016 108.442 40.7653 96.8555 42.4656 85.1805C42.6527 83.8959 42.8595 82.6108 43.0874 81.3309C43.4869 79.7475 44.339 77.4591 45.6605 75.6421C46.6554 74.2744 47.8023 73.3137 49.1247 72.9671C49.1661 74.0795 49.3479 75.351 49.8212 76.5403C50.6141 78.533 52.2576 80.3197 55.2102 80.6151C56.0682 80.701 56.8206 80.615 57.4883 80.3681C58.1555 80.1215 58.6488 79.7471 59.0269 79.3873C59.2637 79.1619 59.5236 78.8668 59.7009 78.6655C59.763 78.595 59.815 78.536 59.8523 78.4955C60.0597 78.2705 60.1525 78.2101 60.1981 78.1884C60.2031 78.186 60.2074 78.1841 60.2111 78.1825C60.2472 78.1923 60.3336 78.2229 60.5063 78.3168C60.5668 78.3497 60.6479 78.3982 60.7461 78.457C61.1651 78.7077 61.8968 79.1457 62.6834 79.359C64.0374 79.7261 65.3362 79.205 66.2336 78.4773C67.1427 77.7402 67.8694 76.6209 68.0501 75.3488C68.1412 74.7074 68.2738 73.9921 68.4376 73.3902C68.5196 73.0886 68.6023 72.8427 68.6799 72.6604C68.7408 72.5173 68.779 72.4606 68.7812 72.4558C69.2083 71.9845 69.2922 71.2935 68.9877 70.7328C68.6788 70.1639 68.0398 69.8574 67.4027 69.9726C66.9979 70.0457 66.0809 70.0587 64.7954 70.0037C63.567 69.9511 62.1557 69.8453 60.8602 69.7379C59.6801 69.6401 58.9641 69.1507 58.0073 68.4671C57.9842 68.4506 57.9609 68.4339 57.9374 68.4171C56.9925 67.7412 55.7358 66.8421 53.8126 66.8242C52.1754 66.8089 50.9793 67.5 50.2177 68.47C49.8692 68.9139 49.6259 69.3958 49.4606 69.8626C47.8263 70.0297 46.4369 70.7277 45.2815 71.6743C45.6407 70.4078 46.0264 69.1623 46.4402 67.9438C47.5727 64.6094 48.9111 61.4909 50.4824 58.7045C51.6119 57.9611 55.4178 56.6041 62.0095 58.3659C62.2345 59.6499 62.5911 61.667 63.358 63.3569C63.8681 64.4809 64.6157 65.6187 65.7531 66.4305C66.9225 67.265 68.383 67.668 70.1312 67.5025C73.0429 67.2269 74.6452 66.2191 75.5892 64.8198C75.9763 64.246 76.2157 63.6518 76.3808 63.2421C76.3948 63.2073 76.4083 63.1739 76.4212 63.1419C76.5106 62.9218 76.5759 62.7747 76.6256 62.6744C76.6621 62.6919 76.7031 62.7118 76.7491 62.7347C76.7827 62.7514 76.8176 62.7689 76.854 62.7871C77.5375 63.1296 78.6999 63.7121 80.347 63.5728C81.3482 63.4882 82.1022 62.9688 82.5924 62.2741C83.0449 61.6329 83.2568 60.874 83.3603 60.2072C83.568 58.8689 83.4148 57.3836 83.2276 56.4304C83.1423 55.9966 82.8701 55.6225 82.4836 55.4079C82.0971 55.1934 81.6356 55.1603 81.2224 55.3175C80.6511 55.5348 79.6847 55.8639 78.6864 56.1283C77.6423 56.4049 76.7389 56.562 76.2149 56.54C76.2055 56.5396 76.0516 56.5264 75.6557 56.2167C75.328 55.9603 74.989 55.6301 74.5455 55.1979C74.451 55.1059 74.3518 55.0092 74.2469 54.9077C73.129 53.825 71.5749 52.391 69.3409 51.7264C67.1739 51.0817 65.3963 51.9807 64.204 53.1105C63.4761 53.8003 62.9036 54.6241 62.4866 55.3898C58.6341 54.4001 55.4722 54.3402 53.0681 54.7208C54.8497 52.3481 56.859 50.3656 59.1178 48.8658C62.642 46.526 65.5047 44.7228 68.2787 42.9755C69.9007 41.9538 71.4925 40.9512 73.1683 39.8716C73.79 39.6973 74.3913 39.5272 74.9749 39.3622C81.9143 37.3998 86.3334 36.1501 92.4257 37.0193C92.3086 37.7686 92.2419 38.6155 92.3226 39.5272C92.4701 41.1944 93.0983 42.9897 94.5968 44.8448C96.2553 46.898 98.9477 47.931 101.623 47.5045C104.354 47.069 106.897 45.1532 108.379 41.6614C108.819 40.624 109.991 39.978 111.494 39.6371C112.199 39.4772 112.876 39.4094 113.381 39.3827C113.631 39.3694 113.834 39.3666 113.971 39.3669C114.039 39.367 114.09 39.3679 114.122 39.3687L114.154 39.3697L114.156 39.3698C114.156 39.3697 114.156 39.3698 114.156 39.3698C114.156 39.3698 114.158 39.3698 114.158 39.3698C114.158 39.3698 114.158 39.3699 114.159 39.3699C114.159 39.3699 114.159 39.3699 114.159 39.3699C114.971 39.4052 115.664 38.7866 115.72 37.975C115.777 37.1626 115.175 36.4537 114.364 36.3778C114.364 36.3778 114.364 36.3778 114.364 36.3778L114.362 36.3777L114.357 36.3771L114.332 36.3747L114.231 36.3649C114.142 36.356 114.011 36.3427 113.846 36.325C113.513 36.2896 113.042 36.2367 112.487 36.1673C111.372 36.0279 109.942 35.8243 108.638 35.565C108.464 35.5303 108.381 35.4912 108.351 35.4741C108.349 35.47 108.347 35.4647 108.345 35.4582C108.319 35.387 108.289 35.2577 108.264 34.9995C108.253 34.8865 108.244 34.7701 108.234 34.6308L108.23 34.5818C108.219 34.4282 108.205 34.2502 108.185 34.0667C108.105 33.3342 107.908 32.3051 107.071 31.4224C106.248 30.5549 105.02 30.0486 103.375 29.8149C100.042 29.3414 97.6053 29.9731 95.8561 31.1989C94.635 32.0545 93.8443 33.1336 93.3221 34.1205C89.2016 33.4756 85.7572 33.7063 82.1875 34.4119C84.6333 32.8871 87.1591 31.2011 89.0859 29.5966C90.6384 30.076 92.4677 30.4359 94.2317 30.1186C96.4876 29.7128 98.3942 28.2487 99.4926 25.3398C100.616 22.3647 99.8802 18.8652 99.0634 16.2037C98.7037 15.0314 98.2992 13.937 97.9695 13.0449C97.9143 12.8955 97.8612 12.7518 97.8107 12.6143C97.6304 12.123 97.4901 11.7284 97.3956 11.4174C97.3094 11.1334 97.2956 11.0241 97.293 11.0243C97.2931 11.0237 97.2929 11.0244 97.293 11.0243C97.299 10.8169 97.3436 10.5711 97.4238 10.2268C97.4344 10.1809 97.4466 10.1302 97.4597 10.0756C97.5297 9.78392 97.6263 9.38127 97.6637 9.01807C97.7092 8.57535 97.7131 7.84335 97.224 7.18522C96.8152 6.6351 96.2361 6.36667 95.6757 6.23676C95.6347 5.98044 95.6311 5.58808 95.6836 5.08513C95.7415 4.52965 95.8533 3.96418 95.9548 3.52646C96.0048 3.31052 96.0509 3.13208 96.0839 3.00951C96.1003 2.94834 96.1135 2.90144 96.1221 2.87111L96.1315 2.83846L96.1332 2.83263ZM91.369 27.0858C92.2046 27.2471 92.9938 27.2931 93.7006 27.166C94.8195 26.9647 95.9237 26.299 96.686 24.28C97.4234 22.3273 96.9985 19.7005 96.1954 17.0838C95.8625 15.9989 95.4903 14.9913 95.1599 14.0968C95.1034 13.9439 95.0481 13.7942 94.9945 13.648C94.8153 13.1598 94.6474 12.6918 94.5251 12.2892C94.4175 11.9348 94.2854 11.4498 94.2926 10.9982C94.3015 10.4426 94.4142 9.92341 94.5019 9.54656C94.5228 9.45689 94.5417 9.37683 94.5588 9.30464C94.5784 9.22158 94.5956 9.14892 94.6104 9.084C93.4742 8.7909 92.9744 7.81447 92.7911 7.08995C92.6563 6.55717 92.63 5.97835 92.6508 5.44228C92.2233 5.75107 91.8139 6.07432 91.4643 6.39532C90.9577 6.86036 90.6969 7.21285 90.6082 7.41741C90.4434 7.79773 90.4156 7.99483 90.4117 8.10149C90.4077 8.20982 90.423 8.33442 90.5046 8.61902C90.5296 8.70603 90.5586 8.80058 90.5902 8.90372C90.7839 9.53539 91.0763 10.4891 91.145 12.0042C91.1925 13.0521 90.9361 14.0796 89.9913 14.7278C89.6044 14.9933 89.1933 15.1247 88.8759 15.2045C88.6191 15.269 88.3327 15.3197 88.0957 15.3617C88.0481 15.3701 88.0026 15.3782 87.9596 15.386C87.3923 15.4885 86.9034 15.5995 86.4156 15.8619C85.9467 16.1142 85.4019 16.5505 84.8477 17.4092C84.1393 18.5068 84.1148 20.3439 84.9918 22.2995C85.7012 23.8812 86.891 25.2693 88.3144 26.0671C88.7159 25.579 89.0823 25.1405 89.4172 24.7397C90.3818 23.5854 91.0847 22.7443 91.6095 21.9321C92.3127 20.8439 92.5777 19.9701 92.4674 18.5726C92.3386 16.9413 92.0558 15.8173 91.8242 15.1296C91.7082 14.7853 91.6045 14.5485 91.5379 14.4107C91.5046 14.3417 91.4806 14.2972 91.4688 14.2763C91.463 14.2658 91.4602 14.2612 91.4608 14.2623L91.4645 14.2682L91.4683 14.2744L91.4721 14.2803L91.4728 14.2815C91.4732 14.282 91.4736 14.2826 92.7361 13.4726C93.9986 12.6626 93.999 12.6632 93.9993 12.6638L94.0001 12.665L94.0017 12.6676L94.0052 12.6731L94.0132 12.6857C94.0189 12.6949 94.0254 12.7057 94.0328 12.7179C94.0475 12.7424 94.0654 12.773 94.086 12.8099C94.1273 12.8836 94.1797 12.9823 94.2398 13.1068C94.3601 13.3561 94.5111 13.7084 94.6673 14.172C94.9799 15.1001 95.3104 16.4669 95.4581 18.3364C95.6241 20.4397 95.1618 21.9624 94.1292 23.5603C93.5052 24.526 92.6153 25.5923 91.5541 26.8639C91.493 26.9372 91.4313 27.0111 91.369 27.0858ZM95.3759 37.5747C97.1252 37.985 97.943 38.3684 99.0754 38.8993C99.2652 38.9883 99.4638 39.0814 99.6771 39.1795C100.439 39.5298 100.978 39.9252 101.316 40.2186C101.485 40.3653 101.604 40.486 101.673 40.5618C101.708 40.5997 101.731 40.6262 101.741 40.639C101.746 40.6446 101.748 40.6475 101.748 40.6475L101.745 40.6432L101.741 40.639L101.738 40.6347C101.738 40.6343 101.737 40.6332 102.934 39.7287C104.13 38.8242 104.13 38.8238 104.13 38.8234L104.129 38.8226L104.125 38.8169L104.118 38.8079L104.1 38.7854C104.087 38.7684 104.07 38.7473 104.049 38.7226C104.008 38.6732 103.953 38.609 103.883 38.5329C103.743 38.3806 103.544 38.1799 103.283 37.9529C102.76 37.4989 101.984 36.9383 100.93 36.4538C100.728 36.3608 100.536 36.2707 100.349 36.1832C99.1977 35.6445 98.2487 35.2003 96.4588 34.7513C96.7567 34.3512 97.1232 33.9742 97.5777 33.6557C98.5855 32.9495 100.218 32.3966 102.953 32.7851C104.253 32.9699 104.722 33.3056 104.894 33.4869C105.052 33.653 105.147 33.8793 105.203 34.3921C105.217 34.5199 105.227 34.6526 105.239 34.8056L105.242 34.855C105.252 34.9891 105.264 35.142 105.278 35.2924C105.311 35.6246 105.369 36.056 105.527 36.4888C105.695 36.9469 105.977 37.4132 106.447 37.795C106.708 38.0068 106.998 38.1695 107.309 38.2923C106.617 38.842 106.013 39.5572 105.617 40.4894C104.482 43.1641 102.725 44.2909 101.15 44.5419C99.5205 44.8018 97.9042 44.165 96.9305 42.9597C95.7969 41.5563 95.4046 40.322 95.3109 39.2627C95.2592 38.6783 95.2949 38.1213 95.3759 37.5747ZM65.4852 60.3749C65.6401 60.9632 65.8334 61.552 66.0899 62.1172C66.4699 62.9545 66.9336 63.5873 67.4959 63.9886C68.0261 64.367 68.7535 64.6195 69.8485 64.5158C72.1149 64.3013 72.7847 63.6127 73.1022 63.142C73.3066 62.8391 73.4369 62.518 73.6235 62.0581L73.6548 61.9807C73.8207 61.5715 74.0866 60.9157 74.5868 60.3937C75.1279 59.8292 75.817 59.5052 76.6185 59.5676C77.2135 59.614 77.75 59.8815 78.0455 60.0289C78.0588 60.0355 78.0716 60.0419 78.0839 60.048L78.1183 60.0651C78.79 60.3989 79.297 60.6509 80.0941 60.5835C80.0984 60.5832 80.1009 60.5842 80.1029 60.585C80.1088 60.5875 80.1104 60.5882 80.1412 60.5445C80.2201 60.4327 80.3279 60.1842 80.3958 59.7471C80.4444 59.4338 80.4628 59.0896 80.4596 58.7417C80.1361 58.8402 79.7975 58.9375 79.4546 59.0283C78.3881 59.3108 77.1031 59.58 76.0888 59.5373C75.1367 59.4973 74.369 59.019 73.8073 58.5796C73.338 58.2125 72.8551 57.741 72.412 57.3082C72.3263 57.2246 72.2421 57.1424 72.1598 57.0626C71.0671 56.0044 69.9634 55.0415 68.4854 54.6018C67.6828 54.3631 66.9753 54.6174 66.2675 55.2881C65.9025 55.6339 65.5837 56.0545 65.3234 56.4762C66.0104 56.8866 66.5235 57.3237 66.9667 57.7011L67.0171 57.7441C67.7058 58.3303 68.1978 58.7306 69.087 58.9987C70.6058 59.4568 70.9936 59.4376 71.4393 59.4156C71.6916 59.4032 71.9625 59.3898 72.4676 59.4616L72.0457 62.4318C72.029 62.4294 71.9901 62.4312 71.9288 62.4339C71.5511 62.4507 70.3239 62.5052 68.2208 61.871C66.9712 61.4941 66.147 60.916 65.4852 60.3749ZM52.1282 72.9842C52.9754 73.1403 54.0426 73.4245 55.2122 73.8528C56.2064 74.2169 56.7251 74.4526 57.0066 74.5947C57.1441 74.6641 57.2337 74.7155 57.3124 74.7611C57.3172 74.7639 57.323 74.7673 57.3298 74.7713C57.3949 74.8094 57.5479 74.8991 57.7126 74.9658L58.7784 72.3334C59.3151 72.5261 59.921 72.6704 60.6123 72.7277C61.9169 72.8358 63.3767 72.9457 64.6671 73.001C64.9236 73.0119 65.1808 73.0212 65.4344 73.0277C65.281 73.6697 65.163 74.3419 65.0799 74.9268C65.0196 75.3512 64.7468 75.8206 64.3442 76.1471C63.9299 76.483 63.6047 76.5005 63.4685 76.4635C63.117 76.3682 62.8882 76.2324 62.5416 76.0265C62.3763 75.9284 62.1842 75.8143 61.9392 75.6811C61.6186 75.5068 61.1757 75.2938 60.6466 75.2128C60.0753 75.1253 59.4893 75.2033 58.909 75.4794C58.3323 75.7539 57.9239 76.1612 57.6462 76.4626C57.5095 76.6109 57.4103 76.7245 57.3251 76.8221C57.1977 76.9681 57.1018 77.078 56.9587 77.2142C56.7782 77.3859 56.6235 77.4894 56.4481 77.5542C56.2732 77.6189 55.9882 77.678 55.5089 77.63C53.8839 77.4674 53.0728 76.5978 52.6086 75.4311C52.3055 74.6696 52.1684 73.8016 52.1282 72.9842ZM56.6639 71.1923C56.5319 71.1422 56.392 71.09 56.2438 71.0358C55.0664 70.6046 53.8924 70.271 52.844 70.0666C53.0496 69.9229 53.3414 69.8199 53.7846 69.824C54.7115 69.8327 55.2842 70.2085 56.2632 70.9081L56.3063 70.9388C56.4207 71.0206 56.5397 71.1057 56.6639 71.1923ZM37.22 68.9811C37.2413 68.8986 37.255 68.8195 37.2627 68.7421C37.3035 68.3261 37.1929 67.6594 36.4513 66.4337C35.7331 65.2464 34.2205 64.4308 32.0814 63.6705C31.4408 63.4429 30.8232 63.245 30.1901 63.0421C29.7666 62.9064 29.3363 62.7685 28.8874 62.618C27.8313 62.2638 26.744 61.8608 25.8086 61.3375C25.2893 61.0471 24.8118 60.7248 24.3747 60.386C24.5118 61.1941 24.6361 61.9709 24.727 62.6214C24.8817 63.7296 25.581 65.6871 26.8283 67.4391C28.0747 69.1899 29.6947 70.4997 31.592 70.7693C33.0219 70.9724 34.0598 70.9637 34.794 70.8771C34.4522 70.6119 34.0685 70.3348 33.6551 70.0595C32.3748 69.2069 31.1427 68.5933 30.4532 68.441L31.1004 65.5116C32.3615 65.7903 33.9799 66.6714 35.318 67.5626C35.9685 67.9958 36.6321 68.4843 37.22 68.9811ZM44.0711 45.4857C44.2101 45.3281 44.3476 45.1777 44.4797 45.0342C44.5704 44.9358 44.6593 44.8397 44.7465 44.7456C45.4369 44.0002 46.0154 43.3756 46.4412 42.6304C46.8807 41.8612 47.144 40.9711 46.9931 39.744C46.8362 38.4675 46.2193 36.7403 44.7055 34.3648C43.983 33.231 42.2861 31.9296 40.155 30.7398C39.0446 30.1199 37.8875 29.5689 36.8176 29.1207C36.8619 29.3638 36.9042 29.6133 36.9431 29.8658C37.0601 30.6245 37.1513 31.4405 37.1664 32.2095C37.181 32.95 37.1293 33.7768 36.8777 34.4887C36.7357 34.8906 36.5452 35.3191 36.3736 35.7051C36.3213 35.8228 36.2707 35.9364 36.2238 36.0442C36.0067 36.5435 35.8067 37.0452 35.6547 37.6121C35.3596 38.713 35.2144 40.1773 35.6955 42.3332C35.975 43.5855 37.2141 44.8334 39.0507 45.8032C39.8235 46.2112 40.6159 46.5238 41.3463 46.7441C41.0661 46.0873 40.7766 45.3885 40.5001 44.6904C39.8287 42.9955 39.1686 41.1453 38.9746 39.9357L41.9367 39.4606C42.071 40.2975 42.6033 41.8539 43.2893 43.5857C43.5442 44.2293 43.8113 44.8752 44.0711 45.4857ZM62.6148 31.1026C63.0657 30.8921 63.411 30.6817 63.7047 30.3464C64.3214 29.6424 65.1093 27.8959 64.5836 22.919C64.1994 19.2828 63.38 17.743 62.5946 17.1183C61.8938 16.5609 60.8061 16.4256 58.7875 16.9662C57.7486 17.2443 56.6965 16.955 55.9002 16.6219C55.5454 16.4734 55.1941 16.296 54.8545 16.1034C54.9439 16.9243 54.764 17.6233 54.5044 18.2254C54.3605 18.5594 54.188 18.8726 54.0426 19.1338C54.0265 19.1628 54.0107 19.1912 53.9951 19.2192C53.8605 19.4607 53.7436 19.6704 53.6334 19.8966C53.4023 20.3711 53.2263 20.8706 53.1844 21.52C53.1417 22.1816 53.2332 23.0846 53.6611 24.3554C54.6039 27.1545 55.9401 29.2771 57.3546 30.5585C58.1706 31.2977 58.966 31.7238 59.718 31.8867C59.2845 30.4732 58.7461 28.9141 58.1091 27.0694C57.7338 25.9824 57.3242 24.7962 56.8816 23.4822L59.7247 22.5246C60.14 23.7576 60.5342 24.8995 60.9026 25.9662C61.5673 27.8911 62.1475 29.5715 62.6148 31.1026ZM88.1363 12.45C88.1362 12.4498 88.1369 12.4462 88.139 12.4399C88.1375 12.4471 88.1365 12.4503 88.1363 12.45Z" fill="#BFB33B"/>
</svg>
