<svg width="122" height="58" viewBox="0 0 122 58" fill="none" xmlns="http://www.w3.org/2000/svg">
<path fill-rule="evenodd" clip-rule="evenodd" d="M3.25977 5.47143C3.25977 5.47143 11.7426 8.17143 60.0344 8.17143C108.326 8.17143 119.26 5.47143 119.26 5.47143C117.626 20.1286 100.428 46.6232 88.9761 51.3228C74.6608 57.1972 44.1632 58.8756 28.6032 48.3856C16.1551 39.9935 7.20164 15.1223 3.25977 5.47143ZM15.1048 13.5713L39.6033 14.825C40.5808 21.7447 42.6969 30.3325 44.5563 35.6799C46.4156 41.0273 48.8201 48.4111 47.6519 48.3856C29.0781 47.9789 19.1893 24.2749 15.1048 13.5713ZM60.0344 49.5831C65.0136 49.5831 66.4814 46.0843 69.3213 39.9578C72.9746 32.0764 74.105 23.1657 75.2832 14.825H48.8902C49.3894 21.3882 50.7286 30.2455 53.224 38.8883C54.8766 44.612 55.6776 49.5831 60.0344 49.5831ZM84.1803 14.825L108.326 13.5713C105.422 23.2222 93.8881 38.8806 91.6098 41.0273C84.7994 47.4442 81.1142 48.094 75.5126 48.5136C70.8194 48.8652 74.9259 44.7277 76.7508 41.0273C81.1527 32.1014 82.629 24.3682 84.1803 14.825Z" fill="#FFFEF9"/>
<path fill-rule="evenodd" clip-rule="evenodd" d="M6.46205 8.08368C8.43365 13.034 11.141 19.8074 14.526 26.4976C18.801 34.9467 23.9591 42.8428 29.7209 46.7272C37.0274 51.653 48.0793 53.8358 59.2839 53.9911C70.4572 54.1458 81.3762 52.2796 88.2165 49.4725C90.6985 48.454 93.6904 46.1508 96.8685 42.8499C100.014 39.5832 103.213 35.4749 106.128 31.0338C111.283 23.1789 115.381 14.5419 116.826 7.90884C114.983 8.16432 112.131 8.49067 107.91 8.81553C99.074 9.4956 84.2139 10.1714 60.0342 10.1714C35.8564 10.1714 21.6036 9.49573 13.3725 8.81462C10.3087 8.56109 8.07162 8.3062 6.46205 8.08368ZM119.26 5.47143L119.731 3.52791L121.442 3.94332L121.247 5.69299C120.378 13.4903 115.465 24.096 109.472 33.2286C106.451 37.8308 103.101 42.1434 99.75 45.6242C96.4316 49.0709 92.9793 51.8418 89.7351 53.173C82.2603 56.2404 70.7728 58.1506 59.2285 57.9907C47.7154 57.8312 35.7385 55.6082 27.4849 50.0439C20.7988 45.5363 15.2561 36.8007 10.9568 28.3035C7.43406 21.341 4.61373 14.2567 2.63815 9.29444C2.18261 8.15019 1.77198 7.11877 1.40802 6.22767L0.529297 4.0763L2.78758 3.52791L3.25953 5.47143C2.78758 3.52791 2.78829 3.52774 2.78907 3.52755L2.79089 3.52711L2.79551 3.526L2.80868 3.52286L2.85094 3.51297C2.88625 3.5048 2.93589 3.49351 3.00032 3.47931C3.12919 3.45091 3.31727 3.41086 3.56823 3.36084C4.07011 3.26081 4.82374 3.12085 5.85847 2.95439C7.92773 2.62151 11.1229 2.18241 15.6793 1.74484C24.791 0.869789 39.3559 -4.7205e-05 61.2595 1.92138e-09C83.1631 4.72088e-05 97.7281 0.869884 106.84 1.74491C111.396 2.18247 114.591 2.62155 116.661 2.95442C117.695 3.12086 118.449 3.26082 118.951 3.36085C119.202 3.41086 119.39 3.45091 119.519 3.47931C119.583 3.4935 119.633 3.50479 119.668 3.51296L119.71 3.52285L119.724 3.52599L119.728 3.5271L119.73 3.52754C119.731 3.52773 119.731 3.52791 119.26 5.47143ZM100.993 5.2602C91.9817 4.57874 79.0819 4.00004 61.2595 4C42.9756 3.99996 29.8726 4.60901 20.834 5.31325C29.3526 5.78835 41.8587 6.17143 60.0342 6.17143C78.8752 6.17143 92.0016 5.75979 100.993 5.2602ZM12.1419 11.4171L41.3526 12.9119L41.5834 14.5452C42.5435 21.3416 44.6299 29.8027 46.4451 35.023C47.3761 37.7004 48.4615 40.938 49.1682 43.5195C49.5166 44.7918 49.8001 46.0008 49.9088 46.931C49.9591 47.3622 49.9984 47.9296 49.8907 48.4625C49.8371 48.7276 49.7094 49.1847 49.3506 49.6048C48.9203 50.1086 48.2898 50.4 47.6079 50.3851C37.3963 50.1615 29.7757 43.5295 24.3256 36.0139C18.8555 28.4707 15.2857 19.6557 13.236 14.2844L12.1419 11.4171ZM111.06 11.4267L110.241 14.1477C108.699 19.2704 104.948 25.8037 101.406 31.2095C99.6163 33.9407 97.845 36.4366 96.3716 38.3923C94.9358 40.298 93.6924 41.8127 92.9811 42.4829C89.4761 45.7854 86.6487 47.7256 83.8684 48.8691C81.0844 50.0141 78.4929 50.296 75.6617 50.508C74.9684 50.56 74.2731 50.545 73.6396 50.3802C72.9834 50.2095 72.2467 49.8338 71.771 49.0689C71.3079 48.3243 71.2984 47.5399 71.3826 46.9785C71.4662 46.4212 71.6678 45.8943 71.87 45.4544C72.2579 44.6109 72.8511 43.6688 73.3811 42.8272L73.4346 42.7421C74.0145 41.821 74.5547 40.958 74.9568 40.1427C79.219 31.5002 80.6595 24.0175 82.206 14.5041L82.4649 12.9114L111.06 11.4267ZM18.0945 15.727C20.1821 20.9226 23.2726 27.7482 27.5638 33.6657C32.3113 40.2124 38.2885 45.3275 45.7287 46.2441C45.623 45.7655 45.4827 45.2058 45.3102 44.5757C44.6419 42.1347 43.5954 39.0068 42.667 36.3367C40.9082 31.2787 38.9427 23.4549 37.8691 16.7389L18.0945 15.727ZM85.8928 16.7388C84.4193 25.6164 82.8318 33.2181 78.5443 41.9119C78.0395 42.9355 77.3909 43.9658 76.8381 44.844L76.8198 44.873C76.4271 45.4968 76.0951 46.0269 75.838 46.4825C78.3718 46.2802 80.3106 46.0073 82.3469 45.1698C84.5122 44.2792 86.9326 42.6861 90.238 39.5716C90.6659 39.1685 91.7186 37.9209 93.1768 35.9853C94.5975 34.0997 96.3184 31.6754 98.0601 29.0172C100.913 24.6625 103.732 19.8161 105.423 15.7247L85.8928 16.7388ZM46.732 12.825H77.5854L77.2633 15.1048C77.2057 15.5129 77.1481 15.9233 77.0901 16.336C75.976 24.2716 74.7504 33.0005 71.1356 40.7989C71.0368 41.0121 70.9388 41.2241 70.8415 41.4346C69.5947 44.1325 68.4613 46.5851 67.0268 48.3356C66.2128 49.329 65.2533 50.1667 64.0524 50.7435C62.8515 51.3204 61.5198 51.5831 60.0342 51.5831C58.5271 51.5831 57.2215 51.1402 56.1359 50.2952C55.0915 49.4822 54.3652 48.3865 53.816 47.2561C52.9959 45.5681 52.3952 43.3854 51.8041 41.2377C51.6376 40.6328 51.4719 40.0307 51.3023 39.4431C48.7632 30.6493 47.4037 21.6546 46.8957 14.9767L46.732 12.825ZM51.0711 16.825C51.6708 22.9909 52.9566 30.7531 55.1453 38.3335C55.3603 39.0782 55.5548 39.7825 55.7384 40.4471C56.3066 42.5048 56.7701 44.1831 57.4138 45.5081C57.816 46.3359 58.2101 46.8407 58.5929 47.1387C58.9345 47.4046 59.3629 47.5831 60.0342 47.5831C61.0382 47.5831 61.7571 47.4085 62.3206 47.1379C62.8841 46.8672 63.4027 46.4473 63.9329 45.8002C65.0308 44.4604 65.9578 42.4595 67.3368 39.4829C67.3926 39.3624 67.4492 39.2404 67.5065 39.1167C70.6947 32.2387 71.8944 24.5089 72.9814 16.825H51.0711Z" fill="#BFB33B"/>
</svg>
