<svg width="119" height="63" viewBox="0 0 119 63" fill="none" xmlns="http://www.w3.org/2000/svg">
<path d="M57.5643 36.2574C30.7339 36.2574 24.4551 14.9545 24.4551 1.5H16.463H8.47088H1.81226C1.81226 19.0677 12.1413 48.32 45.0051 54.2502V60.9239H71.2641V54.0231C104.012 47.4989 117.312 17.895 117.312 1.5H110.082H101.805H93.5277C93.5277 14.9545 84.3947 36.2574 57.5643 36.2574Z" fill="#FFFEF9"/>
<path fill-rule="evenodd" clip-rule="evenodd" d="M118.812 0H92.0276V1.5C92.0276 7.93295 89.8331 16.2778 84.4385 22.9839C79.0886 29.6345 70.529 34.7574 57.5642 34.7574C44.6133 34.7574 36.8046 29.6501 32.1756 23.0618C27.4878 16.3896 25.9551 8.03821 25.9551 1.5V0H0.31221V1.5C0.31221 19.2452 10.6231 48.88 43.5051 55.4911V62.4239H72.764V55.2417C105.483 48.0701 118.812 18.2417 118.812 1.50005L118.812 0ZM69.764 55.8251V59.4239H46.5051V56.0195C49.943 56.5409 53.6245 56.8179 57.5642 56.8179C61.9031 56.8179 65.9655 56.4711 69.764 55.8251ZM115.775 3C114.996 19.1001 101.885 46.3931 70.9709 52.552C66.8684 53.3693 62.4075 53.8179 57.5642 53.8179C53.1065 53.8179 49.0183 53.4502 45.2714 52.7741C14.3137 47.1878 3.90723 20.2737 3.33725 3H7.04516C7.59969 11.3667 10.5597 22.8075 17.8215 32.3978C25.5632 42.622 38.1328 50.6513 57.5642 50.6513C76.9895 50.6513 90.1048 42.6298 98.5496 32.45C106.514 22.8487 110.292 11.3751 111.413 3H115.775ZM108.385 3C107.26 10.8796 103.661 21.5897 96.2407 30.5346C88.331 40.0693 76.0437 47.6513 57.5642 47.6513C39.091 47.6513 27.3993 40.0771 20.2132 30.5868C13.4319 21.631 10.6091 10.888 10.0521 3H15.029C15.4799 10.2403 17.9216 20.1272 23.9544 28.4485C30.4556 37.416 41.0787 44.4846 57.5642 44.4846C74.0417 44.4846 85.1621 37.4258 92.3076 28.5058C98.9836 20.1718 102.169 10.2489 103.139 3H108.385ZM100.11 3C99.1378 9.77107 96.121 18.9469 89.9662 26.6302C83.34 34.9021 73.0538 41.4846 57.5642 41.4846C42.0827 41.4846 32.3456 34.9119 26.3832 26.6876C20.8038 18.9916 18.4881 9.77994 18.0351 3H22.98C23.2005 9.68657 24.9272 17.9636 29.7209 24.7864C34.939 32.2132 43.6848 37.7574 57.5642 37.7574C71.4298 37.7574 80.8519 32.2288 86.7761 24.8643C92.2448 18.066 94.679 9.77551 94.9925 3H100.11Z" fill="#BFB33B"/>
</svg>
