<svg width="188" height="182" viewBox="0 0 188 182" fill="none" xmlns="http://www.w3.org/2000/svg">
<path d="M35.696 78.5H69.9182C69.9182 82.3326 65.0293 91.5307 65.0293 97.6628C65.0293 105.328 76.5849 105.328 76.5849 117.305C76.5849 129.281 65.0293 132.635 65.0293 140.3C65.0293 147.965 81.0293 153.235 81.0293 164.733C81.0293 176.23 65.4737 181.5 52.1404 181.5C38.8071 181.5 21.0293 177.188 21.0293 164.733C21.0293 152.277 40.1404 147.007 40.1404 140.3C40.1404 133.593 27.696 130.24 27.2515 117.305C26.8071 104.37 40.5849 106.765 40.1404 97.6628C39.7849 90.3809 37.0293 81.8535 35.696 78.5Z" fill="#BFB33B"/>
<path d="M5.2999 86.9721C7.90228 78.4828 13.0555 71.2767 16.5178 68.9565C18.1797 72.0956 21.6697 81.8131 22.3345 95.5705C23.1654 112.767 16.5178 124.641 8.62372 123.413C0.72966 122.184 0.314178 103.236 5.2999 86.9721Z" fill="#FFFEF9"/>
<path d="M109.975 1.65076C124.909 1.2424 147.364 0.912059 160.921 11.387C181.165 27.0276 191.783 48.8334 182.823 54.5768C173.863 60.3203 157.27 42.2695 148.31 34.4748C140.157 27.3824 120.19 5.7024 111.909 2.14657C111.164 1.82683 110.514 1.65363 109.975 1.65076Z" fill="#FFFEF9"/>
<path fill-rule="evenodd" clip-rule="evenodd" d="M109.751 0.156412C109.82 0.152717 109.888 0.150904 109.956 0.150807C117.417 -0.0530681 126.861 -0.241165 136.155 0.949885C145.441 2.13988 154.753 4.72563 161.838 10.2001C172.107 18.134 179.983 27.6635 184.165 36.0222C186.251 40.1915 187.47 44.1736 187.527 47.5799C187.585 51.0248 186.437 54.0418 183.632 55.8397C180.855 57.6199 177.608 57.4582 174.427 56.375C171.251 55.2937 167.909 53.2234 164.669 50.8047C160.262 47.5146 155.793 43.3738 152.019 39.8781C150.283 38.269 148.693 36.7965 147.325 35.6066C144.772 33.3852 141.054 29.7315 136.932 25.6796C134.421 23.2121 131.76 20.5969 129.12 18.0676C125.605 14.6996 122.107 11.4623 118.982 8.8518C115.889 6.26747 113.283 4.40255 111.44 3.57907C110.83 3.44256 110.233 3.30369 109.653 3.16046C95.0227 3.59126 77.4414 7.24486 63.9403 27.5118C58.5745 35.5666 55.4497 48.8306 53.777 62.3708C52.1125 75.8439 51.9149 89.3201 52.244 97.593L50.7906 97.6508C50.8246 99.0818 50.8405 100.442 50.8405 101.712H47.8405C47.8405 92.9666 47.0748 79.9379 44.7989 69.2589C43.6576 63.9039 42.1611 59.2621 40.2666 56.0555C38.3555 52.8208 36.3003 51.4404 34.0873 51.6172C28.4722 52.0659 24.6535 55.003 22.1132 58.5761C19.6802 61.9985 18.461 65.9605 18.0656 68.6904C19.9026 72.4206 23.1861 82.1152 23.8327 95.4982C24.2571 104.281 22.7815 111.827 20.0858 117.085C17.4199 122.286 13.2891 125.657 8.39311 124.895C5.75774 124.485 3.91801 122.6 2.72395 120.144C1.53481 117.698 0.87561 114.491 0.635315 110.932C0.153473 103.794 1.32939 94.8066 3.8658 86.5325C5.21132 82.1433 7.21268 78.0935 9.3282 74.8343C11.2255 71.9112 13.28 69.5235 15.1181 68.1163C15.5914 65.0023 16.9574 60.6508 19.6682 56.8378C22.6053 52.7066 27.1653 49.1608 33.8484 48.6268C37.7844 48.3123 40.7253 50.9342 42.8495 54.5295C44.9904 58.1531 46.5684 63.1691 47.733 68.6336C48.4146 71.8319 48.963 75.2257 49.398 78.6488C49.6539 73.3526 50.0984 67.6793 50.7996 62.003C52.4786 48.4124 55.6591 34.5318 61.4435 25.8486C75.7483 4.37524 94.5586 0.577012 109.751 0.156412ZM123.298 3.04643C127.368 3.1399 131.592 3.38966 135.774 3.92555C144.838 5.08703 153.532 7.57357 160.004 12.5741C169.979 20.2807 177.534 29.4744 181.482 37.3646C183.461 41.3198 184.481 44.8436 184.528 47.63C184.574 50.3777 183.688 52.2403 182.013 53.3141C180.31 54.4056 178.124 54.4648 175.394 53.5352C172.658 52.6037 169.612 50.7511 166.464 48.4007C162.18 45.2024 157.956 41.2873 154.242 37.8442C152.459 36.1912 150.793 34.647 149.295 33.3432C146.802 31.1744 143.209 27.6431 139.153 23.6557C136.629 21.1747 133.925 18.5171 131.195 15.9015C127.665 12.5184 124.109 9.22574 120.906 6.54956C120.358 6.09174 119.816 5.64865 119.283 5.22379C127.444 6.9719 137.023 9.51254 146.474 15.9112C159.055 24.428 167.425 35.1921 171.903 40.9509C172.306 41.4685 172.677 41.9457 173.017 42.3772L175.373 40.5209C175.038 40.0946 174.668 39.6193 174.265 39.1006C169.788 33.3396 161.151 22.2239 148.156 13.4269C139.58 7.62096 130.858 4.83828 123.298 3.04643ZM16.6919 73.2028C18.3324 77.7643 20.3502 85.5841 20.8362 95.6429C21.2428 104.057 19.8101 111.047 17.4162 115.717C14.9925 120.445 11.8524 122.397 8.85437 121.931C7.54272 121.727 6.37022 120.783 5.422 118.832C4.46883 116.872 3.85562 114.094 3.62851 110.73C3.17554 104.02 4.28473 95.4018 6.73405 87.4118C7.99094 83.3117 9.86736 79.5138 11.8446 76.4676C12.2691 75.8136 12.6946 75.1998 13.1159 74.629C10.4221 83.6236 7.12375 97.1917 7.12375 107.444H10.1237C10.1237 96.7028 13.9505 81.9048 16.6919 73.2028Z" fill="#BFB33B"/>
</svg>
