<svg width="146" height="123" viewBox="0 0 146 123" fill="none" xmlns="http://www.w3.org/2000/svg">
<path d="M29.6654 63.0139C35.2535 71.7467 47.8102 68.4984 50.6651 67.0134C68.4536 57.7609 68.5842 42.1107 56.008 32.8227C46.4874 25.7913 37.8563 30.5294 30.8459 36.0411C23.8354 41.5529 22.6802 52.0979 29.6654 63.0139Z" fill="#FFFEF9"/>
<path d="M13.3895 29.1919C14.9113 28.581 19.0492 27.3398 23.4268 27.2621C27.6464 27.1872 31.0661 31.6506 32.392 34.1341C32.4404 34.2281 32.4872 34.3183 32.5321 34.4043C30.1338 35.0046 24.6806 36.2167 22.054 36.2634C19.4275 36.31 15.1833 31.5685 13.3895 29.1919Z" fill="#BFB33B"/>
<path fill-rule="evenodd" clip-rule="evenodd" d="M32.392 34.1341C32.4404 34.2281 32.4872 34.3183 32.5321 34.4043C34.3905 32.2286 37.8729 27.0056 36.9352 23.5191C35.9975 20.0325 34.8435 16.6958 34.3837 15.4633C32.3417 17.4504 28.3329 22.0483 28.6333 24.5423C28.9222 26.9409 31.1753 31.7683 32.392 34.1341Z" fill="#BFB33B"/>
<path fill-rule="evenodd" clip-rule="evenodd" d="M67.0216 51.6049C68.4215 44.5989 65.4583 37.4366 59.2043 31.9074C54.3261 27.5944 49.2655 26.4542 44.395 27.1574C42.2456 27.4678 40.162 28.1328 38.173 28.9979C38.9127 27.1449 39.4012 24.9875 38.8666 22.9996C37.9095 19.4411 36.7349 16.0437 36.2576 14.7642L35.186 11.8917L32.9889 14.0299C31.9053 15.0844 30.308 16.8209 29.0021 18.651C28.3501 19.5648 27.7331 20.5539 27.2939 21.5307C26.8759 22.4604 26.5076 23.6183 26.6477 24.7814C26.6918 25.1479 26.7692 25.546 26.8717 25.9645C25.8116 25.5146 24.6455 25.2401 23.3914 25.2624C18.7184 25.3454 14.3381 26.656 12.6444 27.3359L10.218 28.3099L11.7932 30.3968C12.7435 31.6559 14.3338 33.5328 16.0593 35.1118C16.9208 35.9001 17.8646 36.6593 18.8187 37.2293C19.7286 37.7728 20.8766 38.2846 22.0896 38.263C23.2598 38.2422 24.834 38.0275 26.4119 37.7527C22.3769 43.9935 22.4354 52.942 27.2172 62.0955C30.0414 67.5019 35.2006 69.4751 39.7387 69.9773C44.2262 70.474 48.508 69.5935 50.3215 68.8443C59.9912 64.8493 65.623 58.604 67.0216 51.6049ZM29.3438 33.094C28.8557 32.4521 28.2826 31.7983 27.6443 31.214C26.2772 29.9628 24.8444 29.2372 23.4624 29.2618C21.0149 29.3052 18.6345 29.7438 16.8296 30.2049C17.4274 30.8664 18.0862 31.5446 18.7597 32.1609C19.5118 32.8491 20.2336 33.4151 20.8701 33.7954C21.5507 34.202 21.9182 34.2654 22.0185 34.2637C23.1402 34.2437 25.0071 33.9618 27.0001 33.5776C27.8024 33.4229 28.6006 33.2566 29.3438 33.094ZM32.8751 30.5493C32.5837 29.9149 32.2887 29.2474 32.0107 28.5808C31.2557 26.7698 30.7265 25.1958 30.619 24.3031C30.6089 24.2192 30.6291 23.8671 30.942 23.1712C31.2338 22.5223 31.6903 21.7702 32.2582 20.9744C32.6725 20.3938 33.126 19.8176 33.5816 19.2746C34.0342 20.6666 34.5458 22.3353 35.0038 24.0385C35.2722 25.0364 34.9341 26.6368 33.9859 28.5739C33.6499 29.2602 33.267 29.9291 32.8751 30.5493ZM48.7941 65.1474L49.5578 66.9958L48.7941 65.1474C47.6334 65.6269 44.0314 66.428 40.1787 66.0016C36.3765 65.5808 32.7388 64.0264 30.7625 60.2434C25.0529 49.3137 27.3195 40.1963 33.6255 36.0789C37.3001 33.6796 41.1186 31.672 44.9666 31.1164C48.6864 30.5793 52.5661 31.3775 56.5549 34.9041C62.0137 39.7303 64.1554 45.535 63.0991 50.8211C62.0415 56.1141 57.6559 61.4862 48.7941 65.1474Z" fill="#BFB33B"/>
<path d="M48.6814 55.151C48.6814 65.5187 61.0088 69.5506 64.214 69.8386C84.1844 71.633 92.7298 58.5212 87.143 43.9193C82.9135 32.8651 73.0897 32.2039 64.214 33.0679C55.3382 33.9319 48.6814 42.1913 48.6814 55.151Z" fill="#FFFEF9"/>
<path fill-rule="evenodd" clip-rule="evenodd" d="M86.8193 64.283C91.3041 58.7214 91.994 51.0011 89.0109 43.2045C86.6841 37.1231 82.7266 33.7693 78.084 32.1374C73.5638 30.5485 68.5281 30.6384 64.0202 31.0772C53.7645 32.0756 46.6814 41.5628 46.6814 55.1509C46.6814 61.2506 50.3406 65.3883 54.1303 67.9347C57.8779 70.4527 62.0807 71.6549 64.035 71.8305C74.4555 72.7668 82.3389 69.839 86.8193 64.283ZM83.7056 61.7721C80.3173 65.9738 73.9428 68.7047 64.3929 67.8466C63.1421 67.7342 59.5786 66.7764 56.3612 64.6146C53.1859 62.4811 50.6814 59.419 50.6814 55.1509C50.6814 42.8197 56.912 35.7881 64.4077 35.0584C68.7756 34.6333 73.0897 34.6218 76.7576 35.9111C80.3033 37.1574 83.3724 39.6612 85.275 44.6339C87.8788 51.4392 87.0894 57.5758 83.7056 61.7721Z" fill="#BFB33B"/>
<path d="M97.5665 79.3826C121.197 76.4241 134.153 39.1048 137.751 19.618L140.282 2.47272C139.54 1.82354 137.645 0.952641 136.007 2.66243C134.37 4.37222 134.007 11.2135 133.962 18.2449C130.864 18.1054 128.065 19.2107 125.018 23.5709C120.452 30.1056 106.264 52.2588 89.0277 54.2968C71.7918 56.3349 51.5636 42.6364 40.5633 36.0758C38.325 33.9013 36.5576 38.0588 41.2641 51.867C45.555 64.4561 54.8425 72.5972 68.0665 76.6693C81.2905 80.7414 88.705 80.492 97.5665 79.3826Z" fill="#FFFEF9"/>
<path fill-rule="evenodd" clip-rule="evenodd" d="M138.652 3.24835L136.556 17.4429C136.239 17.3053 135.869 17.1549 135.473 17.0288C135.511 13.9615 135.621 11.0242 135.879 8.61819C136.025 7.25376 136.215 6.10358 136.452 5.21694C136.704 4.27621 136.956 3.84088 137.091 3.69996C137.574 3.19485 137.991 3.13799 138.316 3.1739C138.431 3.18662 138.544 3.21313 138.652 3.24835ZM132.476 16.7768C132.517 13.7469 132.629 10.7813 132.896 8.2979C133.051 6.85936 133.261 5.53918 133.554 4.44248C133.833 3.39987 134.24 2.33887 134.924 1.62489C136.078 0.420205 137.428 0.0576287 138.645 0.192016C139.78 0.317273 140.716 0.859634 141.27 1.3433L141.886 1.88201L139.231 19.8638L139.226 19.8903C137.406 29.7466 133.225 44.1088 126.487 56.4186C119.792 68.6499 110.324 79.2972 97.7529 80.8709C88.7241 82.0013 81.0901 82.2492 67.6251 78.1029C54.0094 73.9101 44.3119 65.4583 39.8443 52.351C37.4753 45.4005 36.6625 40.6865 36.8116 37.8978C36.8495 37.1886 36.9521 36.5429 37.1414 35.99C37.3254 35.4523 37.6357 34.8751 38.1771 34.4763C38.7783 34.0334 39.4895 33.9399 40.1437 34.1141C40.6663 34.2532 41.1094 34.5473 41.4687 34.8692C42.5266 35.5014 43.6605 36.1928 44.8613 36.925C49.962 40.0353 56.2698 43.8817 63.0893 47.0505C71.5993 51.0048 80.6538 53.7766 88.8517 52.8072C96.9281 51.8522 104.474 46.1342 110.686 39.5876C116.088 33.8951 120.295 27.7818 122.812 24.1248C123.173 23.6005 123.499 23.1266 123.789 22.7118C125.397 20.4104 127.018 18.8537 128.75 17.9049C129.99 17.2258 131.232 16.8884 132.476 16.7768ZM135.132 20.0981C135.222 20.1351 135.316 20.1749 135.413 20.2174C135.632 20.3134 135.843 20.4112 136.054 20.5099C134.17 30.0847 130.143 43.4906 123.855 54.9782C117.265 67.0179 108.44 76.5095 97.3802 77.8942C88.6861 78.9827 81.4909 79.2336 68.508 75.2357C55.6757 71.2842 46.7982 63.454 42.6839 51.3831C40.6386 45.3825 39.8802 41.364 39.8013 38.9804C40.8006 42.1004 42.7765 47.0608 45.8008 52.256C49.9496 59.3827 56.205 67.1849 64.8763 71.2293L66.1444 68.5105C58.2727 64.839 52.4064 57.64 48.3935 50.7466C47.4106 49.0583 46.5469 47.4023 45.7983 45.8392C55.4607 56.3666 70.7185 64.0986 88.4402 63.3122C99.9972 62.7994 110.175 55.3728 118.15 46.4006C121.458 42.6788 124.424 38.6502 126.992 34.6548C125.412 38.6111 123.667 42.6713 121.994 46.2465C119.736 51.0702 115.759 56.4111 111.598 60.7448C109.523 62.9053 107.43 64.7872 105.518 66.212C103.576 67.6593 101.932 68.5508 100.745 68.8608L101.503 71.7634C103.253 71.3064 105.268 70.1396 107.311 68.6175C109.384 67.0728 111.6 65.0739 113.762 62.8226C118.073 58.3327 122.274 52.7256 124.711 47.5182C127.077 42.4636 129.575 36.4731 131.569 31.136C133.18 26.8234 134.502 22.8326 135.132 20.0981ZM45.4785 40.8134C54.2808 52.1926 69.8682 61.1334 88.3072 60.3152C98.661 59.8557 108.137 53.1504 115.908 44.4075C122.891 36.5511 128.324 27.2407 131.588 19.9695C131.116 20.098 130.653 20.2835 130.191 20.5361C128.988 21.1951 127.686 22.3712 126.248 24.4301C125.968 24.8305 125.65 25.2934 125.294 25.8099C122.786 29.4558 118.44 35.7744 112.862 41.6526C106.53 48.3258 98.3634 54.7034 89.2039 55.7865C80.1658 56.8552 70.4882 53.7966 61.8251 49.7711C55.8212 46.9813 50.1836 43.6658 45.4785 40.8134Z" fill="#BFB33B"/>
<path d="M0.709549 51.4023H140.708C140.708 55.9711 139.632 67.0666 135.324 74.8987C131.016 82.7308 107.422 83.7098 96.1634 83.2203L103.506 122.381H37.9121L47.7022 83.2203C38.2384 83.2203 20.9751 84.9825 10.0102 78.3252C-0.954773 71.6679 0.709549 59.2345 0.709549 51.4023Z" fill="#BFB33B"/>
</svg>
