<svg width="185" height="48" viewBox="0 0 185 48" fill="none" xmlns="http://www.w3.org/2000/svg">
<path d="M184.529 6C184.529 2.6863 181.843 4.37061e-06 178.529 4.37061e-06L6.5293 0C3.21559 -8.13648e-08 0.529297 2.68629 0.529297 6V20C0.529297 21.5367 1.107 22.9385 2.05708 24C1.107 25.0615 0.529297 26.4633 0.529297 28V42C0.529297 45.3137 3.21559 48 6.52929 48L178.529 48C181.843 48 184.529 45.3137 184.529 42V28C184.529 26.4633 183.952 25.0615 183.002 24C183.952 22.9385 184.529 21.5367 184.529 20V6Z" fill="#FFFEF9"/>
<path fill-rule="evenodd" clip-rule="evenodd" d="M2.05708 24C1.107 22.9385 0.529297 21.5367 0.529297 20V6C0.529297 2.68629 3.21559 -8.13648e-08 6.5293 0L178.529 4.37061e-06C181.843 4.37061e-06 184.529 2.6863 184.529 6V20C184.529 21.5367 183.952 22.9385 183.002 24C183.952 25.0615 184.529 26.4633 184.529 28V42C184.529 45.3137 181.843 48 178.529 48L6.52929 48C3.21559 48 0.529297 45.3137 0.529297 42V28C0.529297 26.4633 1.107 25.0615 2.05708 24ZM180.529 6V20C180.529 21.1034 179.636 21.9982 178.533 22L178.529 22L6.52929 22C5.42473 22 4.5293 21.1046 4.5293 20L4.5293 6C4.5293 4.89543 5.42473 4 6.5293 4L178.529 4C179.634 4 180.529 4.89543 180.529 6ZM6.52588 26C5.42288 26.0018 4.5293 26.8966 4.5293 28L4.5293 42C4.5293 43.1046 5.42473 44 6.52929 44L178.529 44C179.634 44 180.529 43.1046 180.529 42V28C180.529 26.8954 179.634 26 178.529 26L6.52588 26Z" fill="#BFB33B"/>
</svg>
