<svg width="125" height="138" viewBox="0 0 125 138" fill="none" xmlns="http://www.w3.org/2000/svg">
<path d="M6 0C2.68629 0 0 2.68629 0 6L8.56255e-06 132C8.7775e-06 135.314 2.6863 138 6.00001 138H22C23.5367 138 24.9385 137.422 26 136.472C27.0615 137.422 28.4633 138 30 138H46C47.5367 138 48.9385 137.422 50 136.472C51.0615 137.422 52.4633 138 54 138H70C71.8199 138 73.4506 137.19 74.551 135.91C75.5267 136.597 76.7163 137 78 137H81C84.3137 137 87 134.314 87 131L87 52.1051L96.905 131.987C97.3127 135.276 100.309 137.611 103.598 137.203L106.575 136.834C108.01 136.656 109.263 135.986 110.186 135.013C111.446 136.574 113.46 137.468 115.598 137.203L118.575 136.834C121.863 136.426 124.199 133.43 123.791 130.141L110.624 23.9544C110.217 20.6659 107.22 18.3306 103.932 18.7384L100.954 19.1075C99.5197 19.2854 98.2665 19.956 97.3433 20.9285C96.0833 19.3672 94.0691 18.4733 91.9316 18.7384L88.9544 19.1075C87.7644 19.2551 86.6992 19.7416 85.8437 20.4583C84.752 18.9678 82.989 18 81 18H78C77.2987 18 76.6255 18.1203 76 18.3414V6C76 2.68629 73.3137 0 70 0H54C52.4633 0 51.0615 0.577709 50 1.52779C48.9385 0.577709 47.5367 0 46 0H30C28.4633 0 27.0615 0.577709 26 1.52779C24.9385 0.577709 23.5367 0 22 0H6Z" fill="#FFFEF9"/>
<path fill-rule="evenodd" clip-rule="evenodd" d="M22 0C23.5367 0 24.9385 0.577709 26 1.52779C27.0615 0.577709 28.4633 0 30 0H46C47.5367 0 48.9385 0.577709 50 1.52779C51.0615 0.577709 52.4633 0 54 0H70C73.3137 0 76 2.68629 76 6V18.3414C76.6255 18.1203 77.2987 18 78 18H81C82.989 18 84.752 18.9678 85.8437 20.4583C86.6992 19.7416 87.7644 19.2551 88.9544 19.1075L91.9316 18.7384C94.0691 18.4733 96.0833 19.3672 97.3433 20.9285C98.2665 19.956 99.5197 19.2854 100.954 19.1075L103.932 18.7384C107.22 18.3306 110.217 20.6659 110.624 23.9544L123.791 130.141C124.199 133.43 121.863 136.426 118.575 136.834L115.598 137.203C113.46 137.468 111.446 136.574 110.186 135.013C109.263 135.986 108.01 136.656 106.575 136.834L103.598 137.203C100.309 137.611 97.3127 135.276 96.905 131.987L87 52.1051L87 131C87 134.314 84.3137 137 81 137H78C76.7163 137 75.5267 136.597 74.551 135.91C73.4506 137.19 71.8199 138 70 138H54C52.4633 138 51.0615 137.422 50 136.472C48.9385 137.422 47.5367 138 46 138H30C28.4633 138 27.0615 137.422 26 136.472C24.9385 137.422 23.5367 138 22 138H6.00001C2.6863 138 8.7775e-06 135.314 8.56255e-06 132L0 6C0 2.68629 2.68629 0 6 0H22ZM6 4H22C23.1046 4 24 4.89543 24 6L24 132C24 133.105 23.1046 134 22 134H6.00001C4.89544 134 4.00001 133.105 4.00001 132L4 6C4 4.89543 4.89543 4 6 4ZM72 6C72 4.89543 71.1046 4 70 4H54C52.8954 4 52 4.89543 52 6V132C52 133.105 52.8954 134 54 134H70C71.1046 134 72 133.105 72 132L72 6ZM76 131C76 132.105 76.8954 133 78 133H81C82.1046 133 83 132.105 83 131L83 24C83 22.8954 82.1046 22 81 22H78C76.8954 22 76 22.8954 76 24L76 131ZM48 132L48 6C48 4.89543 47.1046 4 46 4H30C28.8954 4 28 4.89543 28 6L28 132C28 133.105 28.8954 134 30 134H46C47.1046 134 48 133.105 48 132ZM89.4466 23.0771L92.4238 22.708C93.52 22.572 94.5188 23.3505 94.6547 24.4466L107.821 130.633C107.957 131.73 107.179 132.728 106.083 132.864L103.105 133.234C102.009 133.369 101.01 132.591 100.875 131.495L87.7079 25.308C87.572 24.2118 88.3504 23.213 89.4466 23.0771ZM104.424 22.708L101.447 23.0771C100.35 23.213 99.572 24.2118 99.7079 25.308L112.875 131.495C113.01 132.591 114.009 133.369 115.105 133.234L118.083 132.864C119.179 132.728 119.957 131.73 119.821 130.633L106.655 24.4466C106.519 23.3505 105.52 22.572 104.424 22.708Z" fill="#BFB33B"/>
<path d="M33.6 105.354L33.6 106.686L42 106.686L42 101.754L40.74 101.754L40.74 105.354L33.6 105.354Z" fill="#222222"/>
<path d="M42 100.335L42 95.4266L40.8 95.4266L40.8 99.0506L38.208 99.0506L38.208 95.5826L37.068 95.5826L37.068 99.0506L34.8 99.0506L34.8 95.4266L33.6 95.4266L33.6 100.335L42 100.335Z" fill="#222222"/>
<path d="M42 87.1272L42 85.7232L33.528 89.2752L33.528 90.8472L42 94.3872L42 93.0072L39.612 92.0352L39.612 88.0992L42 87.1272ZM38.424 91.5432L34.812 90.0672L38.424 88.5912L38.424 91.5432Z" fill="#222222"/>
<path d="M42 84.3502L42 83.0302L38.508 83.0302L38.508 79.6582L37.284 79.6582L37.284 83.0302L34.86 83.0302L34.86 79.5022L33.6 79.5022L33.6 84.3502L42 84.3502Z" fill="#222222"/>
<path d="M42.12 72.7278C42.12 71.0838 41.148 69.9918 39.672 69.9918C38.448 69.9918 37.74 70.7478 37.38 71.6958L36.744 73.1238C36.564 73.5078 36.276 74.0598 35.676 74.0598C35.088 74.0598 34.68 73.5678 34.68 72.8238C34.68 72.1998 34.956 71.5998 35.568 71.0598L34.644 70.2078C33.864 70.9518 33.48 71.8158 33.48 72.8238C33.48 74.3718 34.404 75.4038 35.748 75.4038C36.912 75.4038 37.584 74.6118 37.92 73.7358L38.568 72.3078C38.712 71.9718 39.024 71.3358 39.732 71.3358C40.392 71.3358 40.896 71.8758 40.896 72.7038C40.896 73.4478 40.5 74.2398 39.756 74.8278L40.656 75.7878C41.592 75.0918 42.12 73.9758 42.12 72.7278Z" fill="#222222"/>
<path d="M42 68.4479L42 67.1159L38.232 67.1159L38.232 62.7959L42 62.7959L42 61.4519L33.6 61.4519L33.6 62.7959L36.972 62.7959L36.972 67.1159L33.6 67.1159L33.6 68.4479L42 68.4479Z" fill="#222222"/>
<path d="M42 52.8264L42 51.4224L33.528 54.9744L33.528 56.5464L42 60.0864L42 58.7064L39.612 57.7344L39.612 53.7984L42 52.8264ZM38.424 57.2424L34.812 55.7664L38.424 54.2904L38.424 57.2424Z" fill="#222222"/>
<path d="M42 50.0494L42 48.7774L39.084 48.7774L39.084 47.0014C39.084 45.2254 37.992 44.0614 36.336 44.0614C34.68 44.0614 33.6 45.2254 33.6 47.0014L33.6 50.0494L42 50.0494ZM37.848 48.7774L34.824 48.7774L34.824 47.0974C34.824 45.9934 35.352 45.3934 36.336 45.3934C37.32 45.3934 37.848 45.9934 37.848 47.0974L37.848 48.7774Z" fill="#222222"/>
<path d="M42 42.5612L42 37.6532L40.8 37.6532L40.8 41.2772L38.208 41.2772L38.208 37.8092L37.068 37.8092L37.068 41.2772L34.8 41.2772L34.8 37.6532L33.6 37.6532L33.6 42.5612L42 42.5612Z" fill="#222222"/>
<path d="M42.12 33.4818C42.12 31.8377 41.148 30.7458 39.672 30.7458C38.448 30.7458 37.74 31.5018 37.38 32.4498L36.744 33.8778C36.564 34.2618 36.276 34.8138 35.676 34.8138C35.088 34.8138 34.68 34.3218 34.68 33.5778C34.68 32.9538 34.956 32.3538 35.568 31.8138L34.644 30.9618C33.864 31.7058 33.48 32.5698 33.48 33.5778C33.48 35.1258 34.404 36.1578 35.748 36.1578C36.912 36.1578 37.584 35.3658 37.92 34.4898L38.568 33.0618C38.712 32.7258 39.024 32.0898 39.732 32.0898C40.392 32.0898 40.896 32.6297 40.896 33.4577C40.896 34.2017 40.5 34.9937 39.756 35.5817L40.656 36.5417C41.592 35.8457 42.12 34.7298 42.12 33.4818Z" fill="#222222"/>
<path d="M66 125.811L66 124.539L63.084 124.539L63.084 122.763C63.084 120.987 61.992 119.823 60.336 119.823C58.68 119.823 57.6 120.987 57.6 122.763L57.6 125.811L66 125.811ZM61.848 124.539L58.824 124.539L58.824 122.859C58.824 121.755 59.352 121.155 60.336 121.155C61.32 121.155 61.848 121.755 61.848 122.859L61.848 124.539Z" fill="#222222"/>
<path d="M57.6 116.991L57.6 118.323L66 118.323L66 113.391L64.74 113.391L64.74 116.991L57.6 116.991Z" fill="#222222"/>
<path d="M66 105.455L66 104.051L57.528 107.603L57.528 109.175L66 112.715L66 111.335L63.612 110.363L63.612 106.427L66 105.455ZM62.424 109.871L58.812 108.395L62.424 106.919L62.424 109.871Z" fill="#222222"/>
<path d="M66 102.678L66 101.394L59.736 101.394L66 96.6303L66 95.6103L57.6 95.6103L57.6 96.8943L63.828 96.8943L57.6 101.61L57.6 102.678L66 102.678Z" fill="#222222"/>
<path d="M57.6 87.8626L57.6 94.1986L58.86 94.1986L58.86 91.7026L66 91.7026L66 90.3586L58.86 90.3586L58.86 87.8626L57.6 87.8626Z" fill="#222222"/>
<path d="M66 83.6354L66 82.3154L62.508 82.3154L62.508 78.9434L61.284 78.9434L61.284 82.3154L58.86 82.3154L58.86 78.7874L57.6 78.7874L57.6 83.6354L66 83.6354Z" fill="#222222"/>
<path d="M66 70.9975L62.736 73.1575C62.46 71.8975 61.56 71.1415 60.228 71.1415C58.62 71.1415 57.6 72.2455 57.6 74.0095L57.6 77.2135L66 77.2135L66 75.9535L62.892 75.9535L62.892 74.5495L66 72.5215L66 70.9975ZM58.788 75.9535L58.788 74.1655C58.788 73.0495 59.316 72.4255 60.276 72.4255C61.26 72.4255 61.788 73.0495 61.788 74.1655L61.788 75.9535L58.788 75.9535Z" fill="#222222"/>
<path d="M66.12 65.5445C66.12 63.0485 64.272 61.1765 61.8 61.1765C59.328 61.1765 57.48 63.0485 57.48 65.5445C57.48 68.0525 59.328 69.9485 61.8 69.9485C64.272 69.9485 66.12 68.0525 66.12 65.5445ZM64.848 65.5445C64.848 67.3085 63.576 68.5685 61.8 68.5685C60.024 68.5685 58.752 67.3085 58.752 65.5445C58.752 63.8045 60.024 62.5565 61.8 62.5565C63.576 62.5565 64.848 63.8045 64.848 65.5445Z" fill="#222222"/>
<path d="M57.6 52.7965L63.924 55.3765L57.6 57.9565L57.6 59.5885L66 59.5885L66 58.3285L59.328 58.3285L65.28 55.9285L65.28 54.8125L59.28 52.4125L66 52.4125L66 51.1525L57.6 51.1525L57.6 52.7965Z" fill="#222222"/>
<path d="M66 46.2408L66 44.9088L62.232 44.9088L62.232 40.5888L66 40.5888L66 39.2448L57.6 39.2448L57.6 40.5888L60.972 40.5888L60.972 44.9088L57.6 44.9088L57.6 46.2408L66 46.2408Z" fill="#222222"/>
<path d="M66.12 33.2594C66.12 30.7634 64.272 28.8914 61.8 28.8914C59.328 28.8914 57.48 30.7634 57.48 33.2594C57.48 35.7674 59.328 37.6634 61.8 37.6634C64.272 37.6634 66.12 35.7674 66.12 33.2594ZM64.848 33.2594C64.848 35.0234 63.576 36.2834 61.8 36.2834C60.024 36.2834 58.752 35.0234 58.752 33.2594C58.752 31.5194 60.024 30.2714 61.8 30.2714C63.576 30.2714 64.848 31.5194 64.848 33.2594Z" fill="#222222"/>
<path d="M57.6 20.5113L63.924 23.0913L57.6 25.6713L57.6 27.3033L66 27.3033L66 26.0433L59.328 26.0433L65.28 23.6433L65.28 22.5273L59.28 20.1273L66 20.1273L66 18.8673L57.6 18.8673L57.6 20.5113Z" fill="#222222"/>
<path d="M66 16.7682L66 11.8602L64.8 11.8602L64.8 15.4842L62.208 15.4842L62.208 12.0162L61.068 12.0162L61.068 15.4842L58.8 15.4842L58.8 11.8602L57.6 11.8602L57.6 16.7682L66 16.7682Z" fill="#222222"/>
<path d="M18.52 116.956L18.52 115.684L15.604 115.684L15.604 113.908C15.604 112.132 14.512 110.968 12.856 110.968C11.2 110.968 10.12 112.132 10.12 113.908L10.12 116.956L18.52 116.956ZM14.368 115.684L11.344 115.684L11.344 114.004C11.344 112.9 11.872 112.3 12.856 112.3C13.84 112.3 14.368 112.9 14.368 114.004L14.368 115.684Z" fill="#222222"/>
<path d="M18.64 105.592C18.64 103.096 16.792 101.224 14.32 101.224C11.848 101.224 10 103.096 10 105.592C10 108.1 11.848 109.996 14.32 109.996C16.792 109.996 18.64 108.1 18.64 105.592ZM17.368 105.592C17.368 107.356 16.096 108.616 14.32 108.616C12.544 108.616 11.272 107.356 11.272 105.592C11.272 103.852 12.544 102.604 14.32 102.604C16.096 102.604 17.368 103.852 17.368 105.592Z" fill="#222222"/>
<path d="M10.12 93.9957L10.12 100.332L11.38 100.332L11.38 97.8357L18.52 97.8357L18.52 96.4917L11.38 96.4917L11.38 93.9957L10.12 93.9957Z" fill="#222222"/>
<path d="M18.64 90.1931C18.64 88.5491 17.668 87.4571 16.192 87.4571C14.968 87.4571 14.26 88.2131 13.9 89.1611L13.264 90.5891C13.084 90.9731 12.796 91.5251 12.196 91.5251C11.608 91.5251 11.2 91.0331 11.2 90.2891C11.2 89.6651 11.476 89.0651 12.088 88.5251L11.164 87.6731C10.384 88.4171 10 89.2811 10 90.2891C10 91.8371 10.924 92.8691 12.268 92.8691C13.432 92.8691 14.104 92.0771 14.44 91.2011L15.088 89.7731C15.232 89.4371 15.544 88.8011 16.252 88.8011C16.912 88.8011 17.416 89.3411 17.416 90.1691C17.416 90.9131 17.02 91.7051 16.276 92.2931L17.176 93.2531C18.112 92.5571 18.64 91.4411 18.64 90.1931Z" fill="#222222"/>
<path d="M18.52 80.2881L18.52 79.0041L12.256 79.0041L18.52 74.2401L18.52 73.2201L10.12 73.2201L10.12 74.5041L16.348 74.5041L10.12 79.2201L10.12 80.2881L18.52 80.2881Z" fill="#222222"/>
<path d="M18.52 65.4873L18.52 64.2153L15.604 64.2153L15.604 62.4393C15.604 60.6633 14.512 59.4993 12.856 59.4993C11.2 59.4993 10.12 60.6633 10.12 62.4393L10.12 65.4873L18.52 65.4873ZM14.368 64.2153L11.344 64.2153L11.344 62.5353C11.344 61.4313 11.872 60.8313 12.856 60.8313C13.84 60.8313 14.368 61.4313 14.368 62.5353L14.368 64.2153Z" fill="#222222"/>
<path d="M10.12 56.667L10.12 57.999L18.52 57.999L18.52 53.067L17.26 53.067L17.26 56.667L10.12 56.667Z" fill="#222222"/>
<path d="M18.52 45.1315L18.52 43.7275L10.048 47.2795L10.048 48.8515L18.52 52.3915L18.52 51.0115L16.132 50.0395L16.132 46.1035L18.52 45.1315ZM14.944 49.5475L11.332 48.0715L14.944 46.5955L14.944 49.5475Z" fill="#222222"/>
<path d="M18.52 42.3545L18.52 41.0705L12.256 41.0705L18.52 36.3065L18.52 35.2865L10.12 35.2865L10.12 36.5705L16.348 36.5705L10.12 41.2865L10.12 42.3545L18.52 42.3545Z" fill="#222222"/>
<path d="M10.12 27.5387L10.12 33.8747L11.38 33.8747L11.38 31.3787L18.52 31.3787L18.52 30.0347L11.38 30.0347L11.38 27.5387L10.12 27.5387Z" fill="#222222"/>
<path d="M18.64 23.736C18.64 22.092 17.668 21 16.192 21C14.968 21 14.26 21.756 13.9 22.704L13.264 24.132C13.084 24.516 12.796 25.068 12.196 25.068C11.608 25.068 11.2 24.576 11.2 23.832C11.2 23.208 11.476 22.608 12.088 22.068L11.164 21.216C10.384 21.96 10 22.824 10 23.832C10 25.38 10.924 26.412 12.268 26.412C13.432 26.412 14.104 25.62 14.44 24.744L15.088 23.316C15.232 22.98 15.544 22.344 16.252 22.344C16.912 22.344 17.416 22.884 17.416 23.712C17.416 24.456 17.02 25.248 16.276 25.836L17.176 26.796C18.112 26.1 18.64 24.984 18.64 23.736Z" fill="#222222"/>
</svg>
