<svg width="190" height="107" viewBox="0 0 190 107" fill="none" xmlns="http://www.w3.org/2000/svg">
<path fill-rule="evenodd" clip-rule="evenodd" d="M43.8624 102.323H119.102C119.102 88.2263 115.919 75.2437 109.092 66.1782C103.084 58.2 94.2541 53.2556 82.2896 53.2556C63.0196 53.2556 51.3739 63.767 46.5135 80.9437C44.7323 87.2382 43.8624 94.4277 43.8624 102.323Z" fill="#BFB33B"/>
<path fill-rule="evenodd" clip-rule="evenodd" d="M31.1202 11.5483C41.8946 8.11624 53.9698 10.234 60.5845 14.1399C67.7969 18.3986 71.9957 22.753 74.4412 27.1234C76.883 31.4869 77.7896 36.2452 77.7896 41.6898V48.9403C69.2711 49.6559 62.0237 52.4427 56.175 57.154C50.1741 61.9878 45.9298 68.6176 43.2127 76.4437H27.5086C24.1449 76.4437 19.1621 76.2334 15.2775 72.4919C11.4696 68.8243 7.51727 60.5201 9.54858 41.2789C10.5172 32.1037 13.4131 25.5308 17.193 20.8735C20.977 16.2113 25.8404 13.2301 31.1202 11.5483ZM40.8389 85.4437H27.5086C24.0277 85.4437 15.7015 85.396 9.03404 78.9742C2.28978 72.4784 -1.55321 60.714 0.598328 40.334C1.72112 29.6985 5.16682 21.4094 10.205 15.2018C15.2393 8.99916 21.6706 5.11275 28.3886 2.97281C41.6101 -1.23871 56.343 1.18345 65.1606 6.39009C73.3806 11.2438 78.8903 16.6437 82.2952 22.7285C85.7039 28.8201 86.7896 35.218 86.7896 41.6898V48.9761C97.1247 50.0113 105.292 54.6354 111.255 61.6782H149.397L159.068 50.8585H189.498V59.8585H163.095L121.116 106.823H39.3624V102.323C39.3624 96.3499 39.8403 90.6925 40.8389 85.4437ZM141.352 70.6782L122.942 91.2749C122.024 83.8486 120.125 76.8207 117.094 70.6782H141.352ZM114.486 97.8231H48.465C48.7341 92.0459 49.5317 86.8046 50.8435 82.169C53.0851 74.2471 56.7865 68.2181 61.8209 64.1629C66.8233 60.1332 73.508 57.7556 82.2896 57.7556C92.8266 57.7556 100.331 62.0246 105.497 68.8852C110.85 75.9929 113.874 86.1617 114.486 97.8231Z" fill="#BFB33B"/>
</svg>
