<svg width="124" height="69" viewBox="0 0 124 69" fill="none" xmlns="http://www.w3.org/2000/svg">
<path d="M18.3743 6.73587L103.84 3.64365C103.931 5.20351 103.918 5.74905 103.918 5.74905C103.918 5.74905 105.486 3.58411 108.738 2.56298C112.223 1.46886 120.9 1.17209 122.115 8.40304C123.374 15.8862 118.88 19.0602 112.635 19.2861C107.057 19.4879 103.992 16.8887 103.215 13.6042C102.84 16.8855 102.038 22.2318 98.7543 27.4218H104.366C104.4 28.9857 104.368 29.531 104.368 29.531C104.368 29.531 106.007 27.4218 109.283 26.5179C112.793 25.5494 121.444 25.5665 122.395 32.845C123.378 40.3774 118.789 43.3903 112.561 43.3903C106.999 43.3903 104.04 40.6788 103.385 37.3646C102.415 43.8065 99.507 58.2106 79.6149 63.0041V68.2565H45.4957V63.5898C28.612 61.182 21.6033 50.4623 20.1244 37.3646C19.1389 40.9801 16.9021 43.0892 10.946 43.0892C4.63048 43.0892 0.460218 39.4738 1.76781 32.2427C2.51725 28.0982 5.27687 26.2736 7.66803 25.6143C10.946 24.7104 17.8298 25.3129 19.3307 29.8324C19.225 28.8118 19.2213 28.735 19.2104 28.5062C19.2027 28.3457 19.1915 28.1103 19.1389 27.4218H23.0361C21.373 24.159 20.3048 20.5064 19.7217 16.6251C18.864 20.2699 16.6972 22.4563 10.7243 22.6724C4.39113 22.9016 0.078603 19.4439 1.1287 12.1784C1.73057 8.01417 4.43202 6.09274 6.80607 5.34782C10.0606 4.32663 16.9854 4.67833 18.6538 9.13519C18.5109 8.1203 18.5044 8.04379 18.4852 7.81575C18.4717 7.65577 18.4519 7.42123 18.3743 6.73587Z" fill="#BFB33B"/>
</svg>
