<svg width="113" height="151" viewBox="0 0 113 151" fill="none" xmlns="http://www.w3.org/2000/svg">
<path d="M2 148.823V50.5618C2 17.1449 29.7438 2.82333 55.969 2.82333C82.1942 2.82333 109.774 21.5209 110.623 50.5618C111.471 79.6026 110.623 148.823 110.623 148.823H97.8936H84.74H72.8594H62.2517H49.9468H38.0662H25.7612H14.3049H2Z" fill="#FFFEF9"/>
<path fill-rule="evenodd" clip-rule="evenodd" d="M20.3597 15.7539C10.6396 23.1363 4 34.4835 4 50.5618V146.823H12.3049V51.3574C12.3049 44.1869 14.7976 34.649 21.5492 26.8731C28.3576 19.0316 39.3475 13.1558 55.969 13.1558C72.612 13.1558 83.3499 19.147 90.0556 27.0385C96.6967 34.8537 99.2224 44.3383 99.8842 51.1644C100.534 57.8617 100.529 82.3747 100.371 105.027C100.291 116.395 100.172 127.351 100.072 135.465C100.023 139.522 99.9779 142.869 99.9456 145.202C99.9371 145.814 99.9295 146.356 99.9228 146.823H108.646C108.65 146.507 108.653 146.156 108.658 145.77C108.679 143.822 108.709 141.005 108.742 137.535C108.809 130.594 108.888 121.037 108.941 110.573C109.047 89.6328 109.047 65.101 108.624 50.6202C107.816 22.9834 81.4671 4.82333 55.969 4.82333C43.185 4.82333 30.1485 8.31942 20.3597 15.7539ZM110.623 148.823C112.623 148.848 112.623 148.848 112.623 148.847L112.623 148.845L112.632 148.062C112.638 147.548 112.647 146.79 112.658 145.814C112.679 143.864 112.709 141.046 112.742 137.573C112.808 130.628 112.888 121.064 112.941 110.593C113.047 89.6624 113.047 65.0634 112.622 50.5033C111.732 20.0584 82.9213 0.823334 55.969 0.823334C42.5278 0.823334 28.5798 4.48801 17.9404 12.5685C7.23233 20.7011 0 33.2231 0 50.5618V150.823H112.598L112.623 148.847L110.623 148.823ZM95.9224 146.823C95.9293 146.344 95.9371 145.783 95.946 145.146C95.9783 142.815 96.023 139.471 96.0727 135.416C96.1721 127.306 96.2914 116.357 96.371 104.999C96.5306 82.2011 96.5265 57.9812 95.9029 51.5504C95.2919 45.2484 92.9588 36.6322 87.0075 29.6286C81.121 22.7013 71.533 17.1558 55.969 17.1558C40.3835 17.1558 30.5413 22.6177 24.5695 29.4956C18.5408 36.4391 16.3049 45.002 16.3049 51.3574V146.823H23.7612V52.9487C23.7612 47.5017 25.9826 40.2704 31.1068 34.3805C36.289 28.4239 44.3913 23.8969 55.969 23.8969C67.5335 23.8969 75.1053 28.2187 79.8474 34.1454C84.5194 39.9846 86.2908 47.1833 86.7338 52.7912C87.1667 58.2703 87.164 82.3639 87.0582 104.923C87.0052 116.239 86.9256 127.219 86.8593 135.37C86.8261 139.445 86.7963 142.813 86.7747 145.163C86.769 145.791 86.7638 146.347 86.7593 146.823H95.9224ZM82.7591 146.823C82.7637 146.339 82.769 145.771 82.7749 145.126C82.7965 142.778 82.8263 139.411 82.8594 135.337C82.9257 127.189 83.0053 116.215 83.0583 104.905C83.1647 82.2119 83.162 58.3682 82.7462 53.1062C82.3407 47.9729 80.7257 41.6457 76.7241 36.6444C72.7924 31.7305 66.403 27.8969 55.969 27.8969C45.5481 27.8969 38.5466 31.923 34.1246 37.0059C29.6445 42.1555 27.7612 48.4502 27.7612 52.9487V146.823H36.0662V53.7443C36.0662 50.0167 37.1726 45.2677 40.2613 41.4059C43.4129 37.4653 48.4815 34.6381 55.969 34.6381C63.4663 34.6381 68.3208 37.4771 71.2271 41.4801C74.0541 45.3739 74.8594 50.12 74.8594 53.7443V146.823H82.7591ZM70.8594 146.823V53.7443C70.8594 50.6057 70.1454 46.7987 67.9902 43.8301C65.9141 40.9706 62.3235 38.6381 55.969 38.6381C49.6047 38.6381 45.7219 40.9824 43.3851 43.9043C40.9852 46.9049 40.0662 50.709 40.0662 53.7443V146.823H47.9468V57.2679L47.95 57.2112C47.9658 56.933 47.9754 56.5948 47.9862 56.2124C48.0314 54.617 48.0984 52.251 48.7309 50.2558C49.1456 48.9475 49.8498 47.5932 51.0893 46.5702C52.3558 45.5249 53.9921 44.9814 55.969 44.9814C57.883 44.9814 59.502 45.4327 60.7983 46.3489C62.0909 47.2625 62.8857 48.5134 63.3745 49.8032C64.2581 52.1346 64.2545 54.959 64.252 57.0076C64.2518 57.1155 64.2517 57.2213 64.2517 57.3247V146.823H70.8594ZM60.2517 146.823V57.3247C60.2517 55.0155 60.2494 52.8443 59.6341 51.2208C59.3503 50.4718 58.9734 49.9574 58.4895 49.6154C58.0093 49.2759 57.247 48.9814 55.969 48.9814C54.7539 48.9814 54.066 49.2998 53.6354 49.6551C53.1779 50.0328 52.8123 50.6178 52.5439 51.4644C52.1001 52.8647 52.0505 54.4348 52.0013 55.9926C51.9866 56.4579 51.9719 56.9222 51.9468 57.3805V146.823H60.2517Z" fill="#BFB33B"/>
</svg>
