<svg width="214" height="200" viewBox="0 0 214 200" fill="none" xmlns="http://www.w3.org/2000/svg">
<path fill-rule="evenodd" clip-rule="evenodd" d="M177.341 198.882H119.905V151.579C119.621 151.58 119.331 151.582 119.034 151.585C106.886 151.674 84.2129 151.84 84.2129 120.657C84.2129 88.7117 108.008 87.0735 119.905 87.0735V78.8824H177.341V87.0735C188.965 87.4831 212.213 91.9882 212.213 120.657C212.213 149.326 188.965 151.237 177.341 151.579V198.882ZM119.905 92.8073L119.465 92.8252C109.347 93.2343 89.9565 94.0185 89.9565 120.657C89.9565 145.995 107.499 145.783 117.919 145.657L117.92 145.657C118.616 145.648 119.28 145.64 119.905 145.64V92.8073ZM177.341 92.8073C186.914 93.4899 206.059 95.2646 206.059 120.657C206.059 144.969 188.508 145.378 178.613 145.608C178.173 145.619 177.748 145.628 177.341 145.64V92.8073Z" fill="#BFB33B"/>
<path fill-rule="evenodd" clip-rule="evenodd" d="M118.905 77.8824H178.341V86.1164C184.21 86.4242 192.595 87.7856 199.684 92.4317C207.242 97.3845 213.213 105.998 213.213 120.657C213.213 127.961 211.731 133.631 209.271 138.024C206.809 142.42 203.398 145.482 199.628 147.611C192.534 151.619 184.15 152.336 178.341 152.547V199.882H118.905V152.586C112.875 152.63 103.987 152.684 96.596 148.73C92.8424 146.721 89.478 143.684 87.0618 139.126C84.6513 134.578 83.2129 128.571 83.2129 120.657C83.2129 104.392 89.299 95.6371 97.088 91.0253C104.358 86.7206 112.951 86.1292 118.905 86.0777V77.8824ZM118.905 88.0779C113.023 88.131 104.897 88.7262 98.107 92.7463C91.0242 96.9399 85.2129 104.977 85.2129 120.657C85.2129 128.335 86.6086 134 88.8289 138.189C91.0435 142.367 94.1065 145.129 97.5395 146.966C104.421 150.648 112.799 150.63 118.905 150.585V146.645C118.59 146.648 118.267 146.652 117.934 146.656C117.933 146.656 117.933 146.656 117.932 146.656L117.834 146.658C112.679 146.72 105.47 146.807 99.552 143.584C93.4598 140.265 88.9565 133.587 88.9565 120.657C88.9565 107.053 93.9365 99.8312 100.411 96.042C106.556 92.446 113.886 92.0528 118.905 91.8471V88.0779ZM118.905 93.8489C113.862 94.0587 107.059 94.4689 101.422 97.7682C95.6718 101.133 90.9565 107.623 90.9565 120.657C90.9565 133.064 95.2246 138.949 100.509 141.827C105.929 144.78 112.646 144.72 117.905 144.657C117.906 144.657 117.906 144.657 117.907 144.657L117.913 144.657C118.25 144.652 118.581 144.648 118.905 144.645V93.8489ZM178.341 150.545C184.093 150.332 192.018 149.613 198.644 145.87C202.139 143.896 205.266 141.082 207.526 137.047C209.788 133.007 211.213 127.688 211.213 120.657C211.213 106.647 205.56 98.6738 198.588 94.1044C191.958 89.7596 184.033 88.4289 178.341 88.1193V91.8779C183.11 92.2403 189.989 93.0091 195.816 96.6157C202.131 100.524 207.059 107.661 207.059 120.657C207.059 126.853 205.941 131.604 204.049 135.241C202.153 138.888 199.505 141.362 196.538 143.035C190.695 146.328 183.625 146.492 178.722 146.606L178.636 146.608C178.537 146.61 178.438 146.613 178.341 146.615V150.545ZM178.341 144.614C178.423 144.612 178.506 144.611 178.589 144.609C183.579 144.492 190.184 144.32 195.556 141.292C198.213 139.794 200.572 137.593 202.275 134.319C203.983 131.034 205.059 126.617 205.059 120.657C205.059 108.261 200.414 101.814 194.764 98.3163C189.43 95.015 183.066 94.2506 178.341 93.8841V144.614ZM120.905 79.8824V197.882H176.341V79.8824H120.905Z" fill="#BFB33B"/>
<path d="M88.9433 15.6226C89.4646 8.56244 106.873 20.8188 113.411 31.0538C114.031 32.1505 114.725 33.4997 115.43 35.0328C118.949 42.6822 122.753 54.9105 119.153 63.2032C114.831 73.158 113.081 69.3267 112.747 66.1667C114.093 57.1384 114.612 40.2295 105.916 44.8207C95.045 50.5596 117.077 75.5285 112.669 85.7361C108.262 95.9437 105.738 86.1014 103.89 77.7219C102.043 69.3423 92.8575 60.4503 92.9284 54.0247C92.9993 47.5991 96.3654 43.9111 91.3517 46.2303C84.3883 49.4514 82.9484 54.3794 85.9257 60.8157C88.9029 67.2519 96.1308 74.8362 99.9513 83.0955C103.199 90.1168 96.8166 90.9384 92.8132 89.5938C88.8099 88.2493 77.8574 76.2681 77.5145 69.6787C77.1715 63.0894 83.2742 49.9668 77.982 52.4149C72.6898 54.8629 70.304 70.1729 73.2813 76.6091C76.2585 83.0454 82.6663 92.5118 69.2951 86.2665C55.924 80.0212 64.7811 69.9292 62.8701 65.7981C60.9591 61.6669 54.1789 62.36 47.5979 68.6008C41.0169 74.8415 30.769 99.4707 26.9153 84.5609C23.0616 69.6512 37.0922 66.3573 44.6915 55.7389C52.2907 45.1205 13.4782 59.1676 5.34411 55.4719C-2.79002 51.7763 1.87278 43.5817 20.4481 42.8027C39.0234 42.0236 45.033 49.8984 51.1608 47.0638C57.2886 44.2292 9.93324 31.3904 17.5482 19.3441C25.1632 7.29782 49.9665 42.2889 58.9835 41.3142C68.0005 40.3396 23.5327 12.627 29.5409 8.07193C35.5491 3.51687 48.0124 5.90141 52.6137 15.8483C57.2149 25.7951 64.4267 37.7308 73.7459 34.4855C83.065 31.2401 41.0126 5.39616 48.8116 1.7885C56.6106 -1.81915 76.5706 29.6272 83.7732 29.8471C90.9758 30.0669 73.1688 18.2978 70.3426 10.7261C67.5164 3.15454 74.2815 5.3526 79.0574 12.0223C83.8334 18.692 87.1156 28.3009 97.39 26.3895C107.664 24.478 88.2918 24.4478 88.9433 15.6226Z" fill="#FFFEF9"/>
<path fill-rule="evenodd" clip-rule="evenodd" d="M41.1928 7.9641C45.2714 9.1303 49.1582 11.9505 51.2525 16.478C53.5662 21.4797 56.5996 27.1307 60.3108 31.1338C64.0193 35.1338 68.7462 37.815 74.2395 35.902C75.0402 35.6232 75.7841 35.1452 76.2257 34.3546C76.6701 33.5592 76.6677 32.7001 76.4901 31.9508C76.1571 30.5457 75.0891 29.0183 73.8251 27.54C71.2284 24.503 66.9934 20.7765 62.8362 17.1434C62.6642 16.9931 62.4923 16.843 62.3207 16.693C58.2816 13.1642 54.3593 9.73749 51.8399 6.95602C50.5015 5.47835 49.7133 4.34512 49.4359 3.583C49.3631 3.38325 49.3457 3.26275 49.3424 3.20258C49.364 3.18891 49.3959 3.17108 49.4417 3.14992C49.894 2.94069 50.5949 2.90602 51.7077 3.3448C52.815 3.78138 54.1287 4.61179 55.6197 5.79483C58.5967 8.15693 61.975 11.6737 65.4141 15.3998C66.189 16.2394 66.9671 17.0898 67.7428 17.9375C70.3716 20.8104 72.9723 23.6525 75.3232 25.9383C76.8483 27.4211 78.3163 28.718 79.6639 29.6598C80.959 30.565 82.3656 31.3048 83.7277 31.3464C84.256 31.3625 84.7813 31.3294 85.2547 31.1935C85.7326 31.0562 86.2915 30.7723 86.6528 30.1931C87.0198 29.6049 87.0174 28.9792 86.9194 28.5079C86.8243 28.0501 86.6194 27.6227 86.4037 27.2562C85.5812 25.8584 83.7718 24.0188 81.8737 22.1418C81.5177 21.7898 81.1539 21.4322 80.7854 21.0699C79.1073 19.4203 77.3319 17.675 75.7599 15.9338C73.8157 13.7802 72.347 11.806 71.7482 10.2016C71.4219 9.32746 71.2578 8.65541 71.1999 8.16024C71.1566 7.78999 71.1785 7.56904 71.2026 7.45455C71.2688 7.45497 71.3718 7.46365 71.5192 7.49693C72.1658 7.64288 73.1599 8.14781 74.3375 9.10516C75.4878 10.0402 76.7159 11.3283 77.8382 12.8956C78.7145 14.1195 79.532 15.4347 80.3836 16.805C80.6588 17.2478 80.9376 17.6964 81.2231 18.1494C82.3691 19.9679 83.6052 21.8278 85.048 23.4282C86.4979 25.0365 88.2 26.4331 90.3023 27.2802C92.4206 28.1338 94.8448 28.3888 97.6646 27.8642C98.9395 27.627 99.922 27.3925 100.557 27.112C100.819 26.9964 101.359 26.7362 101.673 26.1862C101.866 25.848 101.954 25.4323 101.868 24.9997C101.789 24.606 101.591 24.3226 101.438 24.1497C101.156 23.8296 100.79 23.6201 100.547 23.4933C100.269 23.3478 99.9467 23.2093 99.6208 23.0782C99.2774 22.94 98.8455 22.7779 98.3923 22.6079C98.0365 22.4744 97.6676 22.336 97.3182 22.2003C95.5939 21.5311 93.7477 20.7096 92.3806 19.5962C91.05 18.5126 90.3247 17.2886 90.4396 15.7331C90.4789 15.2007 90.6333 15.1324 90.6431 15.1281C90.643 15.1281 90.6433 15.128 90.6431 15.1281C90.7347 15.0736 91.0577 14.9622 91.8088 15.0935C93.3011 15.3545 95.518 16.4006 98.094 18.1038C103.185 21.4699 108.99 26.9346 112.126 31.8275C112.285 32.11 112.45 32.4106 112.619 32.7278C111.169 32.3748 109.701 32.059 108.224 31.7608C99.715 30.0437 91.423 32.6525 82.9576 36.6689C79.0574 38.5193 75.0616 40.6986 70.9574 42.937C70.5991 43.1325 70.2399 43.3284 69.8799 43.5246C65.3814 45.9757 60.7343 48.4797 55.8398 50.7438L57.0993 53.4666C62.0927 51.1567 66.8172 48.6099 71.3153 46.1589C71.6715 45.9648 72.0261 45.7714 72.3793 45.5788C76.5015 43.3306 80.4237 41.1916 84.2435 39.3793C92.5536 35.4366 100.102 33.1824 107.63 34.7016C109.945 35.1686 112.186 35.6703 114.35 36.2819C115.984 39.9367 117.625 44.5237 118.487 49.1516C119.405 54.0773 119.405 58.8583 117.778 62.6059C116.716 65.0513 115.856 66.5423 115.196 67.385C114.985 67.6534 114.82 67.825 114.7 67.9339C114.687 67.9066 114.673 67.8767 114.659 67.8442C114.48 67.4267 114.34 66.8329 114.26 66.1909C114.926 61.6307 115.393 55.0826 114.578 50.1422C114.173 47.6908 113.403 45.2939 111.867 43.8549C111.053 43.0919 110.035 42.611 108.836 42.5513C107.671 42.4933 106.458 42.8387 105.216 43.4942C103.532 44.3832 102.428 45.6909 101.853 47.3039C101.295 48.8692 101.267 50.624 101.52 52.4095C102.021 55.9503 103.706 60.1095 105.495 64.2032C105.868 65.0581 106.247 65.9118 106.624 66.7615C108.09 70.0659 109.529 73.3084 110.521 76.3139C111.792 80.1656 112.153 83.1497 111.293 85.1415C110.765 86.3638 110.292 87.221 109.883 87.7936C109.516 88.3057 109.263 88.502 109.148 88.5687C109.044 88.4954 108.848 88.3082 108.587 87.8969C108.001 86.9709 107.422 85.448 106.862 83.5254C106.312 81.6353 105.817 79.4909 105.355 77.3989C104.419 73.1505 101.749 68.8422 99.377 65.0153C99.2389 64.7925 99.1018 64.5713 98.9661 64.3518C97.7019 62.3068 96.5471 60.4003 95.7088 58.6206C94.8641 56.8275 94.4146 55.3115 94.4286 54.0413C94.4522 51.8989 94.8358 50.247 95.1625 48.8399C95.3085 48.2115 95.443 47.6319 95.5292 47.0792C95.5895 46.6918 95.6471 46.1697 95.5394 45.6682C95.4807 45.3947 95.3607 45.0661 95.1128 44.7643C94.8538 44.4489 94.5203 44.2424 94.1663 44.1331C93.5413 43.9399 92.9079 44.0653 92.4576 44.1914C91.9558 44.332 91.3756 44.5667 90.7223 44.8689C87.028 46.5778 84.5367 48.8626 83.4963 51.8195C82.4595 54.7661 82.9864 58.0338 84.5646 61.4454C86.0221 64.5964 88.4321 67.9772 90.8771 71.4071C91.0515 71.6517 91.226 71.8966 91.4005 72.1417C94.0649 75.8857 96.7467 79.7399 98.5902 83.7252C99.3312 85.3272 99.4178 86.3589 99.2974 86.974C99.1905 87.5204 98.8932 87.8891 98.3877 88.1628C97.8346 88.4622 97.0345 88.6351 96.0777 88.6331C95.1347 88.6311 94.1452 88.4587 93.2911 88.1719C92.6018 87.9404 91.3616 87.1246 89.7779 85.7195C88.2483 84.3623 86.5469 82.5905 84.9497 80.6499C83.3512 78.7077 81.883 76.6277 80.8016 74.6591C79.7021 72.6575 79.0809 70.911 79.0127 69.6008C78.9378 68.1612 79.2173 66.2686 79.6558 64.1629C79.8719 63.1255 80.1192 62.0681 80.3671 61.0204C80.394 60.9066 80.421 60.7927 80.4479 60.679C80.6671 59.7536 80.8843 58.8363 81.0706 57.9748C81.2794 57.0092 81.4572 56.0781 81.5586 55.2453C81.6571 54.4361 81.6989 53.6063 81.5701 52.8881C81.4439 52.185 81.0741 51.2146 80.0292 50.7927C79.0914 50.414 78.1116 50.7024 77.3525 51.0535C75.5632 51.8812 74.2256 53.6711 73.2495 55.6628C72.2507 57.7009 71.5145 60.1869 71.0545 62.7516C70.5933 65.3223 70.3994 68.0287 70.5175 70.5285C70.6345 73.0072 71.0629 75.3855 71.9202 77.2389C72.3265 78.1172 72.8379 79.1347 73.3398 80.1332C73.731 80.9115 74.1165 81.6783 74.4418 82.3587C75.2626 84.0753 75.8144 85.4603 75.9311 86.3818C75.9567 86.5843 75.9542 86.7142 75.9468 86.7906C75.9199 86.7951 75.8863 86.7996 75.8449 86.8033C75.5027 86.8337 74.8786 86.7747 73.8549 86.4707C72.8524 86.1729 71.5632 85.6702 69.9302 84.9074C66.7838 83.4378 65.1072 81.8194 64.2215 80.2701C63.338 78.7246 63.1438 77.0775 63.2806 75.3585C63.3892 73.9947 63.6899 72.6944 63.9942 71.3792C64.0862 70.9812 64.1786 70.5819 64.2661 70.1791C64.446 69.3504 64.6055 68.4931 64.645 67.6803C64.6844 66.8681 64.6111 65.9882 64.2318 65.1683C62.8998 62.2887 59.9164 61.3266 56.7507 61.8285C53.6063 62.3269 50.001 64.255 46.566 67.5124C44.7722 69.2135 42.804 72.0785 40.8796 74.9987C40.4778 75.6083 40.0761 76.2235 39.6751 76.8375C38.1061 79.2399 36.548 81.6257 35.0411 83.6031C34.0983 84.8403 33.2157 85.8631 32.4072 86.6004C31.5707 87.3634 30.9581 87.6858 30.5634 87.762C30.322 87.8086 30.1 87.7939 29.7597 87.4128C29.3351 86.9372 28.8283 85.9668 28.3679 84.1856C27.467 80.6999 27.6346 78.0041 28.4159 75.7523C29.2053 73.477 30.6667 71.5226 32.5746 69.5962C33.9368 68.2207 35.4503 66.9298 37.0612 65.5557C37.7429 64.9741 38.4421 64.3777 39.1546 63.7538C41.5047 61.6958 43.9101 59.4086 45.9116 56.6119C46.4395 55.8743 46.8424 55.1418 47.0388 54.4211C47.2415 53.6771 47.2427 52.8601 46.8323 52.1102C46.4343 51.3829 45.7759 50.9529 45.1403 50.6967C44.5058 50.441 43.7746 50.3081 43.0232 50.2429C40.0904 49.9884 35.4874 50.6807 30.6577 51.5322C29.2379 51.7825 27.7879 52.0488 26.3325 52.3162C22.7261 52.9786 19.0864 53.6471 15.7915 54.0931C13.4866 54.4051 11.4056 54.5998 9.67423 54.609C7.89824 54.6184 6.67394 54.4285 5.96487 54.1063C4.12463 53.2702 3.32374 52.3175 3.08915 51.5852C2.8848 50.9473 2.99606 50.1024 3.96925 49.0752C4.96809 48.021 6.77843 46.912 9.56542 46.0198C12.332 45.1341 15.9686 44.4919 20.5112 44.3013C29.5486 43.9223 35.5021 45.6412 40.0019 47.1283C40.3927 47.2574 40.7782 47.387 41.1583 47.5147C42.9345 48.1115 44.5912 48.6681 46.108 48.9577C48.0215 49.323 49.8875 49.3057 51.7909 48.4252C52.3707 48.157 53.2475 47.5322 53.209 46.368C53.179 45.4636 52.5639 44.8071 52.1861 44.4552C51.3209 43.6495 49.8236 42.7841 48.113 41.8987C46.3533 40.9877 44.1837 39.9654 41.8498 38.8666L41.749 38.8191C39.433 37.7288 36.9441 36.5571 34.4689 35.3172C29.4123 32.7843 24.5612 30.0375 21.4524 27.2432C19.8956 25.8439 18.8985 24.5391 18.4659 23.3607C18.0648 22.2679 18.1251 21.2393 18.8164 20.1456C19.5568 18.9744 20.4079 18.4865 21.3519 18.3553C22.3816 18.2122 23.7094 18.4703 25.3584 19.2028C28.6678 20.6729 32.611 23.7447 36.7624 27.3146C38.2349 28.5809 39.736 29.9123 41.2293 31.2367C43.8571 33.5673 46.4607 35.8765 48.8421 37.7722C50.7236 39.2699 52.5427 40.5736 54.2143 41.4759C55.8417 42.3545 57.5521 42.9777 59.145 42.8056C59.8452 42.7299 60.7742 42.4859 61.3226 41.6602C61.8997 40.7912 61.6943 39.8418 61.4553 39.2396C61.2038 38.6058 60.7682 37.9598 60.2722 37.3388C59.7633 36.7015 59.1268 36.0123 58.403 35.2887C55.715 32.6014 51.5135 29.1385 47.2235 25.6026C46.931 25.3615 46.638 25.1201 46.3451 24.8785C41.7082 21.0543 37.0628 17.1867 33.9472 14.0017C32.3734 12.393 31.2968 11.0638 30.7812 10.0747C30.5478 9.62701 30.4899 9.3611 30.4817 9.2414C33.0114 7.34634 37.086 6.78981 41.1928 7.9641ZM76.0396 86.7663C76.0394 86.7661 76.036 86.7674 76.0302 86.7707C76.037 86.7682 76.0398 86.7665 76.0396 86.7663ZM114.866 68.2059C114.866 68.2053 114.862 68.2005 114.853 68.1934C114.861 68.2029 114.866 68.2065 114.866 68.2059ZM116.506 33.7907C122.809 35.7342 128.679 38.7732 133.637 44.6622C138.741 50.7243 142.771 59.6767 145.453 73.2329C150.47 98.5924 154.319 133.549 157.361 161.181C158.16 168.438 158.903 175.19 159.598 181.13L156.618 181.478C155.918 175.493 155.171 168.706 154.369 161.423C151.327 133.795 147.499 99.0327 142.51 73.8152C139.884 60.544 136.004 52.131 131.342 46.5944C127.5 42.0315 123.054 39.3339 118.126 37.5045C119.462 40.8334 120.706 44.6851 121.436 48.602C122.4 53.776 122.503 59.2555 120.529 63.8006C119.43 66.3326 118.45 68.0957 117.557 69.2357C116.741 70.2761 115.65 71.2387 114.296 71.0946C112.91 70.9471 112.216 69.7557 111.903 69.0292C111.543 68.1899 111.347 67.1936 111.255 66.3246L111.235 66.1345L111.263 65.9454C111.929 61.4842 112.369 55.1823 111.618 50.6306C111.233 48.3001 110.587 46.7664 109.816 46.0441C109.477 45.7265 109.119 45.5691 108.687 45.5476C108.222 45.5244 107.549 45.6549 106.616 46.1472C105.583 46.6929 104.997 47.4209 104.679 48.3117C104.344 49.2502 104.275 50.4674 104.49 51.9892C104.925 55.0632 106.434 58.8602 108.244 63.0021C108.599 63.8148 108.965 64.6398 109.334 65.4714C110.807 68.7898 112.327 72.2123 113.37 75.3737C114.65 79.2539 115.391 83.2188 114.047 86.3308C113.473 87.6604 112.902 88.7285 112.323 89.5387C111.758 90.3291 111.095 90.9996 110.292 91.346C109.395 91.733 108.482 91.6454 107.699 91.1986C106.996 90.7979 106.463 90.1504 106.053 89.5015C105.226 88.1954 104.552 86.3245 103.982 84.364C103.401 82.3708 102.888 80.1426 102.426 78.0448C101.603 74.3143 99.1866 70.4092 96.7186 66.4211C96.6173 66.2573 96.5158 66.0934 96.4144 65.9293C95.1602 63.9007 93.9165 61.8557 92.9948 59.8991C92.0794 57.9558 91.4074 55.9507 91.4288 54.0082C91.4563 51.5118 91.9876 49.2083 92.3222 47.7575C92.3509 47.6328 92.3782 47.5144 92.4036 47.4027C92.2746 47.4584 92.1343 47.5212 91.9818 47.5917C88.7127 49.104 87.0023 50.8937 86.3262 52.8152C85.6465 54.7469 85.8882 57.1613 87.2874 60.1859C88.622 63.071 90.8737 66.2318 93.384 69.7554C93.5367 69.9697 93.6903 70.1853 93.8447 70.4022C96.4936 74.1243 99.336 78.1918 101.313 82.4657C102.196 84.3745 102.53 86.0785 102.242 87.5501C101.94 89.0905 101 90.1597 99.8159 90.801C98.6789 91.4166 97.3357 91.6358 96.0713 91.6331C94.7931 91.6304 93.4835 91.4012 92.3359 91.0158C91.0236 90.575 89.3935 89.389 87.7869 87.9635C86.1263 86.4902 84.3175 84.6027 82.6333 82.5563C80.9504 80.5114 79.3659 78.2765 78.1722 76.1035C76.9966 73.9633 76.1201 71.7412 76.0168 69.7567C75.9202 67.9016 76.2749 65.6829 76.7188 63.5513C76.944 62.4701 77.1999 61.3774 77.4476 60.3299C77.4747 60.2156 77.5016 60.102 77.5283 59.989C77.7486 59.0587 77.9587 58.1716 78.1384 57.3408C78.3402 56.4072 78.4957 55.5803 78.5806 54.8828C78.639 54.4031 78.6574 54.0331 78.6489 53.7595C78.6369 53.7649 78.6246 53.7705 78.612 53.7763C77.7553 54.1726 76.8101 55.2145 75.9434 56.983C75.0995 58.7051 74.4331 60.9079 74.0073 63.2813C73.5827 65.6486 73.4075 68.1294 73.5141 70.387C73.6217 72.6655 74.0116 74.6146 74.643 75.9794C75.0603 76.8817 75.5062 77.7656 75.9678 78.6806C76.3529 79.4441 76.7489 80.2291 77.1483 81.0645C77.9485 82.738 78.7213 84.536 78.9073 86.0049C79.0005 86.7414 78.9831 87.6521 78.4924 88.4431C77.9491 89.3189 77.0487 89.7079 76.111 89.7914C75.22 89.8708 74.1743 89.695 73.0008 89.3465C71.806 88.9917 70.3705 88.4242 68.6607 87.6255C65.1214 85.9725 62.891 83.9875 61.6171 81.7589C60.3409 79.5266 60.1229 77.2214 60.2901 75.1205C60.4182 73.5111 60.7881 71.9169 61.1002 70.5722C61.1844 70.2093 61.2644 69.8646 61.3343 69.5426C61.5071 68.7467 61.6216 68.089 61.6485 67.5348C61.6754 66.9799 61.6075 66.6407 61.509 66.4278C60.9301 65.1763 59.5678 64.4194 57.2204 64.7915C54.8517 65.167 51.7764 66.7058 48.6303 69.6892C47.1337 71.1084 45.353 73.6623 43.3846 76.6494C43.0014 77.2309 42.6124 77.8267 42.2195 78.4284C40.6448 80.8401 39.0073 83.348 37.4272 85.4215C36.4368 86.7211 35.429 87.9047 34.4288 88.817C33.4567 89.7036 32.3427 90.474 31.1318 90.7077C29.7677 90.9709 28.5055 90.5124 27.522 89.4109C26.6228 88.4039 25.9664 86.8825 25.4634 84.9363C24.4375 80.9671 24.5785 77.66 25.5816 74.769C26.5765 71.9015 28.3751 69.5732 30.4431 67.4851C31.8989 66.0152 33.5638 64.5949 35.2171 63.1844C35.8773 62.6211 36.5357 62.0595 37.1782 61.4968C39.4757 59.4848 41.6739 57.3784 43.472 54.8659C43.894 54.2763 44.0784 53.8741 44.1444 53.6322C44.1536 53.5984 44.1598 53.5704 44.1641 53.5478C44.1312 53.5291 44.0843 53.5056 44.0188 53.4792C43.7664 53.3775 43.361 53.2835 42.7639 53.2316C40.3024 53.0181 36.1188 53.6156 31.1785 54.4866C29.8084 54.7282 28.3887 54.9889 26.9505 55.2531C23.3161 55.9206 19.5633 56.6099 16.1939 57.066C13.8349 57.3853 11.6086 57.5988 9.69014 57.6089C7.81632 57.6189 6.04839 57.4394 4.72393 56.8376C2.49711 55.8259 0.830549 54.3684 0.232166 52.5004C-0.396445 50.5381 0.293792 48.5927 1.79145 47.012C3.26345 45.4583 5.59329 44.1415 8.65069 43.1626C11.7286 42.1773 15.6404 41.503 20.3855 41.304C29.9234 40.9039 36.2624 42.7329 40.9432 44.2798C41.3785 44.4236 41.7932 44.5627 42.1902 44.6959C43.9577 45.2886 45.3726 45.7631 46.6705 46.0109C47.6979 46.207 48.5721 46.2422 49.3898 46.0778C48.7697 45.6634 47.8839 45.1582 46.7339 44.5629C45.0348 43.6833 42.9214 42.6869 40.572 41.5809L40.4583 41.5273C38.1504 40.4408 35.6334 39.2559 33.1253 37.9995C28.0609 35.4627 22.884 32.5639 19.4469 29.4743C17.7307 27.9317 16.3253 26.235 15.6497 24.3945C14.9426 22.4683 15.0682 20.4606 16.2806 18.5426C17.444 16.7023 19.0338 15.6486 20.9389 15.3838C22.7585 15.131 24.6882 15.6225 26.5763 16.4612C30.341 18.1335 34.59 21.4898 38.7184 25.04C40.2741 26.3778 41.8121 27.7424 43.319 29.0794C45.896 31.3658 48.3821 33.5716 50.7105 35.425C52.5413 36.8824 54.1989 38.0584 55.6393 38.836C56.8263 39.4768 57.7272 39.7695 58.3788 39.8246C58.2641 39.6504 58.116 39.4462 57.928 39.2109C57.5139 38.6924 56.9617 38.0898 56.282 37.4103C53.7011 34.8301 49.6061 31.4545 45.257 27.8695C44.9843 27.6448 44.7107 27.4192 44.4364 27.193C39.8346 23.3978 35.0531 19.4223 31.8026 16.0996C30.1934 14.4545 28.852 12.8637 28.121 11.4616C27.7571 10.7634 27.4693 9.97301 27.481 9.16354C27.4939 8.26535 27.8782 7.4504 28.635 6.87663C32.1162 4.2374 37.2591 3.71908 42.0176 5.07969C46.823 6.45372 51.4685 9.79919 53.9753 15.2185C56.2629 20.1637 59.136 25.454 62.5108 29.0942C65.8884 32.7373 69.427 34.4013 73.2529 33.0689C73.4733 32.9922 73.5675 32.9237 73.6009 32.8935C73.6043 32.8589 73.6039 32.7818 73.571 32.6427C73.4184 31.9991 72.7909 30.9468 71.5449 29.4896C69.1215 26.6553 65.0781 23.0868 60.862 19.4023C60.6643 19.2295 60.4662 19.0565 60.2679 18.8833C56.2999 15.417 52.2581 11.8864 49.6165 8.97001C48.2548 7.46678 47.11 5.96371 46.6169 4.60929C46.3647 3.9165 46.2179 3.0883 46.4788 2.26262C46.7573 1.38131 47.4078 0.785302 48.1822 0.427117C49.6796 -0.265568 51.3085 -0.0373728 52.8081 0.553901C54.3133 1.14737 55.8948 2.18354 57.4843 3.44472C60.6683 5.97102 64.1925 9.65312 67.6186 13.3651C68.4189 14.2322 69.2138 15.1009 69.9998 15.9597C72.6161 18.8187 75.1327 21.5688 77.4145 23.7874C78.8954 25.2272 80.2295 26.395 81.3825 27.2009C82.3387 27.8691 83.0352 28.1904 83.5012 28.3014C82.7896 27.3265 81.4717 25.9635 79.7642 24.275C79.4221 23.9367 79.068 23.5886 78.7056 23.2324C77.026 21.5815 75.1712 19.7586 73.5332 17.9442C71.5688 15.7684 69.7518 13.4321 68.9376 11.2507C68.5573 10.232 68.3146 9.3164 68.2202 8.50858C68.1272 7.71356 68.166 6.92212 68.4541 6.22417C68.7636 5.47448 69.3317 4.91323 70.0894 4.63952C70.7925 4.38552 71.53 4.42388 72.1798 4.57055C73.4682 4.86138 74.8842 5.68331 76.2299 6.77733C77.6031 7.89363 79.0116 9.38146 80.2773 11.149C81.2163 12.4604 82.1065 13.8929 82.9699 15.2824C83.236 15.7107 83.4996 16.1348 83.7613 16.5501C84.8951 18.3493 86.0171 20.0228 87.2762 21.4194C88.5282 22.8082 89.8715 23.8722 91.4235 24.4976C92.7834 25.0456 94.3807 25.2882 96.3371 25.0375C96.3027 25.0242 96.2679 25.0107 96.2327 24.9971C94.4796 24.3167 92.247 23.3564 90.4861 21.9223C88.6887 20.4585 87.2368 18.3693 87.4477 15.5122C87.5377 14.2931 88.0343 13.1896 89.1094 12.5498C90.0952 11.9632 91.2692 11.9536 92.3257 12.1384C94.4484 12.5096 97.0901 13.8436 99.7486 15.6013C105.115 19.1493 111.269 24.9129 114.676 30.2463L114.697 30.2803L114.717 30.3154C115.274 31.3008 115.884 32.4744 116.506 33.7907ZM99.4107 24.3341C99.4096 24.3338 99.3978 24.3396 99.3784 24.3522C99.402 24.3407 99.4117 24.3344 99.4107 24.3341ZM73.5989 32.9078C73.5969 32.913 73.5963 32.9159 73.5965 32.9161C73.5967 32.9163 73.5978 32.9137 73.5989 32.9078ZM59.0671 39.7757C59.0668 39.7755 59.0619 39.7771 59.0532 39.7812C59.0631 39.778 59.0674 39.7759 59.0671 39.7757ZM58.6986 40.438C58.6999 40.4471 58.7012 40.452 58.7015 40.4522C58.7018 40.4525 58.7012 40.4479 58.6986 40.438ZM50.3061 46.8281C50.3065 46.8281 50.3035 46.8231 50.2959 46.813C50.3018 46.8231 50.3056 46.8282 50.3061 46.8281ZM49.3024 3.23329C49.3027 3.23337 49.3055 3.23101 49.3096 3.22595C49.304 3.23067 49.302 3.23321 49.3024 3.23329Z" fill="#BFB33B"/>
</svg>
