<svg width="77" height="98" viewBox="0 0 77 98" fill="none" xmlns="http://www.w3.org/2000/svg">
<path fill-rule="evenodd" clip-rule="evenodd" d="M76.688 3.71608H76.688V19.9378C76.688 20.4643 76.5063 20.9415 76.3204 21.3093C76.1253 21.6955 75.8623 22.0833 75.5687 22.4603C74.9811 23.2149 74.1727 24.0502 73.2446 24.9131C71.3812 26.6457 68.8975 28.6161 66.3605 30.4647C63.8197 32.3161 61.1909 34.0703 59.0237 35.3682C57.9425 36.0157 56.9553 36.5622 56.14 36.9518C55.7334 37.1461 55.3474 37.312 55.0001 37.4323C54.7272 37.5268 54.3821 37.6281 54.0282 37.6531V37.6581H53.9242C53.9053 37.6586 53.8864 37.6589 53.8675 37.6589V37.6581H42.5912V91.8518H60.9119V97.5345H16.7976V91.8518H36.645V37.6581H25.8775V37.6589C25.8573 37.6589 25.837 37.6586 25.8168 37.6581H25.5829V37.6425C25.2945 37.6117 25.0106 37.5415 24.7598 37.4668C24.402 37.3601 24.0069 37.2116 23.5904 37.0355C22.7564 36.683 21.757 36.1864 20.6621 35.5928C18.4681 34.4033 15.8068 32.7791 13.1648 31.016C10.5232 29.2532 7.87522 27.3343 5.71389 25.5514C4.63366 24.6603 3.65996 23.7908 2.86418 22.9818C2.08399 22.1886 1.41048 21.3895 0.994479 20.6388C0.747236 20.1927 0.512465 19.6261 0.512451 19.0078V2.26806H0.512497V0.823334H76.688V3.71608ZM68.0365 3.71608H73.7952V18.6619H68.0365V3.71608ZM67.3372 21.5547H72.5308C72.1739 21.9345 71.7533 22.3498 71.2748 22.7947C69.5281 24.4187 67.1453 26.3136 64.6569 28.1268C62.1722 29.9373 59.6165 31.6414 57.5375 32.8865C56.4956 33.5104 55.5943 34.0065 54.8928 34.3417C54.5411 34.5097 54.2616 34.6267 54.0535 34.6988C53.9234 34.7438 53.8531 34.7599 53.8302 34.7651L53.8289 34.7654H51.5646C53.3275 33.4202 55.5729 31.6886 57.8199 29.9057C60.2431 27.9829 62.6859 25.9865 64.5298 24.346C65.4481 23.5291 66.2447 22.7767 66.8213 22.1528C67.0069 21.952 67.1824 21.751 67.3372 21.5547ZM47.213 34.4337C47.0407 34.5633 46.8926 34.6745 46.7713 34.7654H44.594C46.2374 33.3698 48.3649 31.5488 50.4938 29.687C52.7244 27.7362 54.9695 25.7292 56.6622 24.1163C57.5055 23.3128 58.2325 22.5874 58.7566 22.006C58.8947 21.8527 59.0262 21.7013 59.146 21.5547H63.3041C63.0861 21.7552 62.8534 21.9656 62.6071 22.1848C60.8251 23.7702 58.4332 25.7262 56.0218 27.6396C53.6147 29.5496 51.2056 31.4033 49.397 32.7804C48.4931 33.4687 47.7399 34.0373 47.213 34.4337ZM22.2223 30.7058C24.404 32.2068 26.5025 33.6237 28.2075 34.7654H25.8811L25.8779 34.7649C25.8547 34.7614 25.7644 34.7477 25.5861 34.6945C25.3642 34.6284 25.0746 34.5223 24.7166 34.371C24.0015 34.0688 23.0925 33.6199 22.0408 33.0497C19.9418 31.9117 17.3574 30.3361 14.7705 28.6098C12.1832 26.8832 9.61917 25.023 7.55467 23.3199C6.80286 22.6997 6.12527 22.107 5.5411 21.5547H9.84737C10.9614 22.5598 12.6432 23.8653 14.5375 25.2634C16.8668 26.9826 19.6081 28.9072 22.2223 30.7058ZM8.14599 18.6619H3.40519V3.71608H8.14599V18.6619ZM11.0387 18.6619V3.71608H18.3242V18.6619H11.0387ZM21.2169 18.6619V3.71608H27.9934V18.6619H21.2169ZM30.8862 18.6619V3.71608H37.6627V18.6619H30.8862ZM40.5554 18.6619V3.71608H47.3319V18.6619H40.5554ZM50.2247 18.6619V3.71608H57.0012V18.6619H50.2247ZM59.8939 18.6619V3.71608H65.1437V18.6619H59.8939ZM49.7543 21.5547H55.1529C54.9979 21.7051 54.8357 21.8611 54.6667 22.0221C53.0197 23.5915 50.8118 25.566 48.5895 27.5095C47.302 28.6355 46.014 29.7473 44.8339 30.7585C45.1046 30.2824 45.3797 29.7965 45.6548 29.3077C46.7533 27.356 47.8593 25.3475 48.6933 23.7331C49.1092 22.9281 49.4668 22.2032 49.7236 21.6242L49.7543 21.5547ZM40.5554 21.5547H46.5551C46.4238 21.8188 46.2794 22.1033 46.1233 22.4054C45.3133 23.9733 44.2274 25.9462 43.1339 27.8888C42.2219 29.5092 41.3093 31.1002 40.5554 32.4042V21.5547ZM31.9689 21.5547H37.6627V33.1897C37.0573 31.9976 36.281 30.4598 35.4687 28.8267C34.2054 26.2869 32.8808 23.5675 31.9689 21.5547ZM23.5085 21.5547H28.8066C29.7353 23.7198 31.3867 27.1155 32.8787 30.115C33.0996 30.5593 33.3179 30.9965 33.5309 31.4216C32.5737 30.5223 31.5114 29.5166 30.4204 28.4703C28.5548 26.6812 26.6125 24.7799 24.9715 23.0915C24.442 22.5468 23.9512 22.0316 23.5085 21.5547ZM14.4179 21.5547H19.6562C20.4598 22.5431 21.6136 23.7872 22.8971 25.1077C24.5718 26.8307 26.5413 28.7582 28.4181 30.5581C29.5012 31.5969 30.5558 32.5953 31.508 33.4903C31.2792 33.3381 31.0364 33.1764 30.7809 33.006C28.9467 31.7825 26.4627 30.112 23.8619 28.3226C21.2595 26.5322 18.5478 24.6279 16.2553 22.9359C15.5981 22.4508 14.9823 21.9882 14.4179 21.5547Z" fill="#BFB33B"/>
</svg>
