<svg width="121" height="136" viewBox="0 0 121 136" fill="none" xmlns="http://www.w3.org/2000/svg">
<path fill-rule="evenodd" clip-rule="evenodd" d="M26.8121 106.473C26.8121 119.458 37.2341 130.82 61.552 130.82C85.87 130.82 94.2076 117.835 94.2076 106.473C94.2076 99.0274 90.3285 92.7433 84.7212 88.0779C81.7722 85.6242 78.3453 83.6182 74.7532 82.1264V56.1564H45.5717V82.1264C41.854 83.5739 38.5248 85.6144 35.7401 88.0779C30.1978 92.9808 26.8121 99.5592 26.8121 106.473Z" fill="#BFB33B"/>
<path fill-rule="evenodd" clip-rule="evenodd" d="M25.3315 3.31383C36.0199 -0.526553 48.9828 -0.345694 57.769 6.83823C58.8553 7.7264 59.8962 8.65882 60.8925 9.62916C62.5097 8.44583 64.2426 7.34055 66.0973 6.32424C87.0557 -5.16045 115.087 3.61722 119.651 28.3636C122.625 44.484 117.503 57.4165 110.308 67.7001C105.116 75.1191 98.508 81.5459 93.2028 86.7053C92.7404 87.155 92.2879 87.595 91.8471 88.0253C96.2154 92.9418 99.2076 99.1721 99.2076 106.473C99.2076 113.376 96.6596 120.872 90.3657 126.604C84.0793 132.329 74.5858 135.82 61.5521 135.82C48.6759 135.82 38.7642 132.817 31.9617 127.438C25.0481 121.972 21.8121 114.404 21.8121 106.473C21.8121 99.6772 24.4392 93.3307 28.7136 88.1652C27.9135 87.4369 27.0453 86.667 26.1263 85.8521C14.7072 75.726 -4.54085 58.6573 1.76722 28.2547C4.35891 15.7638 14.5341 7.19336 25.3315 3.31383ZM36.2159 81.4041C34.7473 79.9882 33.1728 78.559 31.5527 77.0883C20.1783 66.7633 6.55593 54.3977 11.5587 30.2863C13.2328 22.2178 20.0801 15.8266 28.7129 12.7248C37.4546 9.58386 46.3295 10.402 51.4392 14.5799C52.1505 15.1615 52.8416 15.7709 53.5125 16.406C43.0379 28.4393 40.5717 44.1905 40.5717 56.1565V78.8736C39.0504 79.6282 37.5951 80.4748 36.2159 81.4041ZM60.0149 24.2302C53.8302 32.0515 51.3563 41.9407 50.7368 51.1565H69.4859C68.6023 42.5827 65.5144 32.5558 60.0149 24.2302ZM69.7533 61.1565H50.5717V85.5453L47.3858 86.7857C44.2048 88.0243 41.3857 89.7592 39.053 91.8228C34.3856 95.9518 31.8121 101.236 31.8121 106.473C31.8121 111.527 33.7872 116.133 38.164 119.594C42.652 123.142 50.1104 125.82 61.5521 125.82C72.8364 125.82 79.6706 122.819 83.6325 119.211C87.5869 115.609 89.2076 110.932 89.2076 106.473C89.2076 100.913 86.3368 95.9264 81.5233 91.9214C78.999 89.8211 76.014 88.0641 72.8355 86.744L69.7533 85.4639V61.1565ZM84.211 81.492C85.0747 80.6409 85.9565 79.7833 86.8494 78.9147C91.9948 73.9099 97.5142 68.5411 102.114 61.9671C108.266 53.1752 112.169 42.9259 109.817 30.1775C106.797 13.8048 87.4636 6.01903 70.9028 15.0939C69.6527 15.7789 68.4802 16.5103 67.3801 17.2821C75.901 29.3983 79.7533 44.5843 79.7533 56.1565V78.9215C81.2814 79.6904 82.7744 80.548 84.211 81.492Z" fill="#BFB33B"/>
</svg>
