<svg width="153" height="58" viewBox="0 0 153 58" fill="none" xmlns="http://www.w3.org/2000/svg">
<path d="M152.635 6.82334C152.635 3.50963 149.949 0.82334 146.635 0.82334L6.6355 0.823334C3.32179 0.823334 0.635498 3.50963 0.635498 6.82333V11.8233C0.635498 13.36 1.21321 14.7618 2.16328 15.8233C1.21321 16.8849 0.635498 18.2866 0.635498 19.8233V25.8233C0.635498 27.36 1.21321 28.7618 2.16328 29.8233C1.21321 30.8849 0.635498 32.2866 0.635498 33.8233V38.8233C0.635498 40.36 1.21321 41.7618 2.16328 42.8233C1.21321 43.8848 0.635498 45.2866 0.635498 46.8233V51.8233C0.635498 55.137 3.32179 57.8233 6.6355 57.8233L146.635 57.8233C149.949 57.8233 152.635 55.1371 152.635 51.8233V46.8233C152.635 45.2866 152.058 43.8849 151.108 42.8233C152.058 41.7618 152.635 40.3601 152.635 38.8233V33.8233C152.635 32.2866 152.058 30.8849 151.108 29.8233C152.058 28.7618 152.635 27.3601 152.635 25.8233V19.8233C152.635 18.2866 152.058 16.8849 151.108 15.8233C152.058 14.7618 152.635 13.3601 152.635 11.8233V6.82334Z" fill="#FFFEF9"/>
<path fill-rule="evenodd" clip-rule="evenodd" d="M2.16328 15.8233C1.21321 14.7618 0.635498 13.36 0.635498 11.8233V6.82333C0.635498 3.50963 3.32179 0.823334 6.6355 0.823334L146.635 0.82334C149.949 0.82334 152.635 3.50963 152.635 6.82334V11.8233C152.635 13.3601 152.058 14.7618 151.108 15.8233C152.058 16.8849 152.635 18.2866 152.635 19.8233V25.8233C152.635 27.3601 152.058 28.7618 151.108 29.8233C152.058 30.8849 152.635 32.2866 152.635 33.8233V38.8233C152.635 40.3601 152.058 41.7618 151.108 42.8233C152.058 43.8849 152.635 45.2866 152.635 46.8233V51.8233C152.635 55.1371 149.949 57.8233 146.635 57.8233L6.6355 57.8233C3.32179 57.8233 0.635498 55.137 0.635498 51.8233V46.8233C0.635498 45.2866 1.21321 43.8848 2.16328 42.8233C1.21321 41.7618 0.635498 40.36 0.635498 38.8233V33.8233C0.635498 32.2866 1.21321 30.8848 2.16328 29.8233C1.21321 28.7618 0.635498 27.36 0.635498 25.8233V19.8233C0.635498 18.2866 1.21321 16.8849 2.16328 15.8233ZM148.635 6.82334V11.8233C148.635 12.9265 147.742 13.8211 146.64 13.8233L146.635 13.8233L6.6355 13.8233C5.53093 13.8233 4.6355 12.9279 4.6355 11.8233L4.6355 6.82333C4.6355 5.71876 5.53093 4.82333 6.6355 4.82333L146.635 4.82334C147.74 4.82334 148.635 5.71877 148.635 6.82334ZM146.64 17.8233L6.6355 17.8233C5.53093 17.8233 4.6355 18.7188 4.6355 19.8233L4.6355 25.8233C4.6355 26.9279 5.53093 27.8233 6.6355 27.8233L146.635 27.8233L146.64 27.8233C147.743 27.8207 148.635 26.9263 148.635 25.8233V19.8233C148.635 18.7202 147.742 17.8256 146.64 17.8233ZM146.64 31.8233C147.743 31.8259 148.635 32.7204 148.635 33.8233V38.8233C148.635 39.9268 147.742 40.8215 146.639 40.8233L146.635 40.8233L6.6355 40.8233C5.53093 40.8233 4.6355 39.9279 4.6355 38.8233L4.6355 33.8233C4.6355 32.7188 5.53093 31.8233 6.6355 31.8233L146.64 31.8233ZM6.63066 44.8233C5.52832 44.8259 4.6355 45.7204 4.6355 46.8233L4.6355 51.8233C4.6355 52.9279 5.53093 53.8233 6.6355 53.8233L146.635 53.8233C147.74 53.8233 148.635 52.9279 148.635 51.8233V46.8233C148.635 45.7188 147.74 44.8233 146.635 44.8233L6.63066 44.8233Z" fill="#BFB33B"/>
</svg>
