<svg width="183" height="47" viewBox="0 0 183 47" fill="none" xmlns="http://www.w3.org/2000/svg">
<path d="M182.498 6.82334C182.498 3.50963 179.812 0.82334 176.498 0.82334L6.49829 0.823334C3.18459 0.823334 0.498291 3.50963 0.498291 6.82333V25.8233C0.498291 27.36 1.076 28.7618 2.02608 29.8233C1.076 30.8849 0.498291 32.2866 0.498291 33.8233V40.8233C0.498291 44.137 3.18458 46.8233 6.49829 46.8233L176.498 46.8233C179.812 46.8233 182.498 44.1371 182.498 40.8233V33.8233C182.498 32.2866 181.921 30.8849 180.971 29.8233C181.921 28.7618 182.498 27.3601 182.498 25.8233V6.82334Z" fill="#FFFEF9"/>
<path fill-rule="evenodd" clip-rule="evenodd" d="M2.02608 29.8233C1.076 28.7618 0.498291 27.36 0.498291 25.8233V6.82333C0.498291 3.50963 3.18459 0.823334 6.49829 0.823334L176.498 0.82334C179.812 0.82334 182.498 3.50963 182.498 6.82334V25.8233C182.498 27.3601 181.921 28.7618 180.971 29.8233C181.921 30.8849 182.498 32.2866 182.498 33.8233V40.8233C182.498 44.1371 179.812 46.8233 176.498 46.8233L6.49829 46.8233C3.18458 46.8233 0.498291 44.137 0.498291 40.8233V33.8233C0.498291 32.2866 1.076 30.8848 2.02608 29.8233ZM178.498 6.82334V25.8233C178.498 26.9265 177.605 27.8211 176.502 27.8233L6.49829 27.8233C5.39372 27.8233 4.49829 26.9279 4.49829 25.8233L4.49829 6.82333C4.49829 5.71876 5.39372 4.82333 6.49829 4.82333L176.498 4.82334C177.603 4.82334 178.498 5.71877 178.498 6.82334ZM6.4941 31.8233C5.39146 31.8256 4.49829 32.7202 4.49829 33.8233L4.49829 40.8233C4.49829 41.9279 5.39372 42.8233 6.49829 42.8233L176.498 42.8233C177.603 42.8233 178.498 41.9279 178.498 40.8233V33.8233C178.498 32.7188 177.603 31.8233 176.498 31.8233L6.4941 31.8233Z" fill="#BFB33B"/>
<path d="M38.0464 20.8233L40.0204 20.8233V17.8413L41.8264 17.8413C44.0244 17.8413 45.5084 16.4693 45.5084 14.4253C45.5084 12.3813 44.0244 11.0233 41.8264 11.0233L38.0464 11.0233L38.0464 20.8233ZM40.0204 15.9513L40.0204 12.9133L41.6584 12.9133C42.8064 12.9133 43.4364 13.4453 43.4364 14.4253C43.4364 15.4193 42.8064 15.9513 41.6584 15.9513L40.0204 15.9513Z" fill="#BFB33B"/>
<path d="M49.0875 11.0233L47.0015 11.0233L47.0015 20.8233L53.2035 20.8233V18.8773L49.0875 18.8773L49.0875 11.0233Z" fill="#BFB33B"/>
<path d="M62.26 20.8233H64.444L60.37 10.9393L57.864 10.9393L53.804 20.8233H55.946L56.912 18.3873L61.294 18.3873L62.26 20.8233ZM57.654 16.5393L59.11 12.8993L60.552 16.5393L57.654 16.5393Z" fill="#BFB33B"/>
<path d="M65.7866 20.8233H67.7746L67.7746 14.2993L72.9126 20.8233L74.4946 20.8233L74.4946 11.0233L72.4926 11.0233L72.4926 17.4913L67.4246 11.0233L65.7866 11.0233L65.7866 20.8233Z" fill="#BFB33B"/>
<path d="M83.9211 11.0233L75.9411 11.0233V12.9693L78.8951 12.9693L78.8951 20.8233H80.9811L80.9811 12.9693L83.9211 12.9693V11.0233Z" fill="#BFB33B"/>
<path d="M85.3647 20.8233L87.4507 20.8233L87.4507 16.6793L91.9307 16.6793L91.9307 20.8233L94.0307 20.8233L94.0307 11.0233L91.9307 11.0233V14.7193L87.4507 14.7193V11.0233L85.3647 11.0233L85.3647 20.8233Z" fill="#BFB33B"/>
<path d="M100.812 20.9633C103.738 20.9633 105.936 18.8073 105.936 15.9233C105.936 13.0393 103.738 10.8833 100.812 10.8833C97.8442 10.8833 95.6182 13.0393 95.6182 15.9233C95.6182 18.8073 97.8442 20.9633 100.812 20.9633ZM100.812 18.9893C99.0202 18.9893 97.7882 17.7433 97.7882 15.9233C97.7882 14.1033 99.0202 12.8573 100.812 12.8573C102.562 12.8573 103.78 14.1033 103.78 15.9233C103.78 17.7433 102.562 18.9893 100.812 18.9893Z" fill="#BFB33B"/>
<path d="M109.599 11.0233L107.513 11.0233L107.513 20.8233L113.715 20.8233V18.8773L109.599 18.8773L109.599 11.0233Z" fill="#BFB33B"/>
<path d="M119.748 20.9633C122.674 20.9633 124.872 18.8073 124.872 15.9233C124.872 13.0393 122.674 10.8833 119.748 10.8833C116.78 10.8833 114.554 13.0393 114.554 15.9233C114.554 18.8073 116.78 20.9633 119.748 20.9633ZM119.748 18.9893C117.956 18.9893 116.724 17.7433 116.724 15.9233C116.724 14.1033 117.956 12.8573 119.748 12.8573C121.498 12.8573 122.716 14.1033 122.716 15.9233C122.716 17.7433 121.498 18.9893 119.748 18.9893Z" fill="#BFB33B"/>
<path d="M131.279 14.9293V16.7353L133.393 16.7353V18.1073C132.735 18.6813 131.937 19.0033 131.041 19.0033C129.319 19.0033 128.017 17.7293 128.017 15.9093C128.017 14.1313 129.263 12.8573 131.041 12.8573C132.119 12.8573 133.085 13.3193 133.701 14.1453L135.101 12.7033C134.135 11.5133 132.693 10.8833 131.055 10.8833C128.087 10.8833 125.847 13.0533 125.847 15.9373C125.847 18.7513 128.017 20.9633 131.083 20.9633C132.805 20.9633 134.303 20.2633 135.353 18.9893V14.9293L131.279 14.9293Z" fill="#BFB33B"/>
<path d="M145.85 11.0233L143.288 11.0233L141.006 14.6493L138.738 11.0233L136.176 11.0233L139.97 16.6233V20.8233L142.07 20.8233V16.6093L145.85 11.0233Z" fill="#BFB33B"/>
</svg>
