<svg width="37" height="99" viewBox="0 0 37 99" fill="none" xmlns="http://www.w3.org/2000/svg">
<path d="M36.1294 0.500061H0.129395C0.129395 14.449 9.95984 14.449 13.362 14.449C10.0702 14.449 2.85984 15.8578 2.85984 25.1789C2.85984 34.5 5.03743 36.9818 13.6188 36.9818C8.15794 36.9818 2.85984 36.9818 2.85984 47.3541C2.85984 57.7263 6.76893 58.7993 13.6188 58.7993C3.64842 58.7993 2.85984 62.5 2.85984 70.9599C2.85984 79.4198 7.24567 80.9745 13.7816 81.7406L0.129395 98.5001H36.1294L22.7531 81.7406C29.4317 80.2592 33.2848 80.9198 33.2848 70.9599C33.2848 61 31 58.7993 23.8968 58.7993C33.2848 58.7993 33.2848 54.7775 33.2848 46.6387C33.2848 38.5 30.5945 36.9818 23.0596 36.9818C32.6875 36.9818 33.2848 32.4271 33.2848 24.4636C33.2848 16.5 29.3387 14.449 23.5417 14.449C31.4317 14.449 36.1294 13 36.1294 0.500061Z" fill="#BFB33B"/>
</svg>
