<svg width="42" height="41" viewBox="0 0 42 41" fill="none" xmlns="http://www.w3.org/2000/svg">
<path d="M1.90906 3.04962C1.90906 3.04962 3.10226 3.04962 3.89772 3.87194C5.3039 5.32555 5.09092 7.98348 7.0796 7.98348C9.06826 7.98348 9.466 3.04984 11.4547 3.04984" stroke="#2F6FE8" stroke-width="1.5"/>
<path d="M30.5454 3.04962C30.5454 3.04962 31.7386 3.04962 32.5341 3.87194C33.9402 5.32555 33.7273 7.98348 35.716 7.98348C37.7047 7.98348 38.1024 3.04984 40.0911 3.04984" stroke="#2F6FE8" stroke-width="1.5"/>
<path d="M11.455 3.04962C11.455 3.04962 12.6482 3.04962 13.4436 3.87194C14.8498 5.32555 14.6368 7.98348 16.6255 7.98348C18.6142 7.98348 19.0119 3.04984 21.0005 3.04984" stroke="#2F6FE8" stroke-width="1.5"/>
<path d="M21 3.04962C21 3.04962 22.1932 3.04962 22.9887 3.87194C24.3947 5.32555 24.1819 7.98348 26.1706 7.98348C28.1593 7.98348 28.5569 3.04984 30.5456 3.04984" stroke="#2F6FE8" stroke-width="1.5"/>
<path d="M40.0909 34.2977H1.90906V40.8761H40.0909V34.2977Z" fill="#E8D1EB"/>
<path d="M1.91296 17.8517H40.0871C40.0871 17.8517 40.8505 24.4301 20.9998 24.4301C1.14914 24.4301 1.91296 17.8517 1.91296 17.8517Z" fill="#B7AC43"/>
</svg>
