<svg width="54" height="66" viewBox="0 0 54 66" fill="none" xmlns="http://www.w3.org/2000/svg">
<g clip-path="url(#clip0_14_8)">
<path d="M12.0569 59.3846L12.0536 59.3817C7.95141 55.8912 5.18749 51.111 4.20675 45.8502L4.64224 45.7889C5.60866 50.9497 8.32128 55.6371 12.3428 59.0607C16.5117 62.6612 21.8572 64.6211 27.3744 64.573C32.8918 64.525 38.2023 62.4721 42.3074 58.7992C46.158 55.3947 48.7522 50.8155 49.6946 45.7924L50.1299 45.8533C49.1738 50.9749 46.5304 55.6459 42.602 59.118L42.5998 59.12C38.4599 62.8009 33.1331 64.8863 27.5823 64.9979C27.4526 65 27.3194 65 27.1792 65C21.6259 64.9869 16.2614 62.9945 12.0569 59.3846Z" fill="#E8D1EB" stroke="#E8D1EB" stroke-width="2"/>
<path d="M53.8514 36.4075C53.5008 34.3557 52.586 32.4408 51.2085 30.8752C49.831 29.3097 48.0448 28.1548 46.0481 27.5386C44.5705 27.0839 43.0111 26.9558 41.4787 27.1632C42.2719 25.8402 42.7655 24.3607 42.925 22.8281C43.1406 20.7578 42.775 18.6684 41.8689 16.7926C40.9627 14.9168 39.5514 13.3282 37.7922 12.2036L37.0691 11.7354L36.3771 12.2588C35.268 13.098 31.6614 16.2604 31.3486 21.7019C31.1962 24.5258 31.9854 27.3208 33.5933 29.6521L27.0011 32.6842L20.4067 29.6609C22.016 27.3303 22.8053 24.5348 22.6514 21.7107C22.3386 16.2692 18.7231 13.098 17.6229 12.2676L16.9375 11.7464L16.2144 12.2146C14.4565 13.3405 13.0463 14.9294 12.1402 16.8048C11.2342 18.6803 10.8678 20.769 11.0817 22.8392C11.2414 24.3676 11.7334 25.8431 12.5235 27.1632C10.9905 26.9548 9.43033 27.0822 7.95194 27.5364C5.95531 28.1531 4.16934 29.3085 2.79227 30.8744C1.41521 32.4404 0.500898 34.3556 0.150832 36.4075L0 37.2534L0.751941 37.6774C2.72003 38.7496 4.92549 39.3166 7.16895 39.327C8.62874 39.3266 10.0773 39.0732 11.4499 38.5784C16.0658 36.9221 18.1664 33.2407 18.885 31.6418L26.4909 35.1134L27.0011 34.0092L27.5091 35.1134L35.115 31.6374C35.8336 33.2363 37.9342 36.9177 42.5501 38.574C43.9227 39.0686 45.3713 39.322 46.8311 39.3226C49.0746 39.3125 51.2801 38.7455 53.2481 37.6729L54 37.2489L53.8514 36.4075ZM16.8089 14.7653C17.9645 15.8518 20.003 18.2568 20.2092 21.8322C20.4067 25.3413 18.7409 27.9295 17.7449 29.1508C16.434 28.2961 13.8876 26.1959 13.5061 22.5808C13.352 21.1068 13.5742 19.6179 14.1519 18.252C14.7296 16.8862 15.6443 15.6877 16.8111 14.7675L16.8089 14.7653ZM10.6203 36.2905C7.22884 37.5073 4.20776 36.5842 2.75046 35.9526C3.14194 34.5235 3.88934 33.2158 4.92343 32.1507C5.95751 31.0857 7.24484 30.2976 8.66617 29.8597C12.1575 28.7908 15.0987 30.3013 16.4007 31.1648C15.671 32.5583 13.9342 35.1134 10.6226 36.2927L10.6203 36.2905ZM33.7885 21.8432C33.9948 18.259 36.0355 15.854 37.1889 14.7763C38.3559 15.6955 39.2709 16.8931 39.8491 18.2582C40.4272 19.6233 40.6498 21.1116 40.4961 22.5852C40.1146 26.2004 37.5704 28.3005 36.2573 29.1552C35.268 27.9295 33.5867 25.3413 33.7885 21.8432ZM43.3774 36.2927C40.0658 35.1046 38.329 32.5583 37.597 31.167C38.9035 30.2991 41.8425 28.7952 45.3316 29.8619C46.7515 30.3008 48.0372 31.0892 49.0697 32.1543C50.1022 33.2193 50.8482 34.5265 51.2384 35.9548C49.7922 36.5842 46.7689 37.5095 43.3774 36.2927Z" fill="#BFB33B"/>
<path d="M38.5242 0.775104C36.973 0.0928826 35.262 -0.147559 33.5817 0.0805184C31.9014 0.308596 30.3175 0.996253 29.0063 2.06701C28.1652 2.75509 27.4629 3.59592 26.9368 4.54483C26.409 3.59642 25.7062 2.75576 24.8651 2.06701C23.5539 0.996253 21.97 0.308596 20.2897 0.0805184C18.6094 -0.147559 16.8984 0.0928826 15.3472 0.775104L14.5553 1.1174L14.6152 1.97426C14.695 3.07846 15.2274 6.92548 18.7719 9.56009C20.5869 10.9013 22.7912 11.6176 25.0514 11.6006C25.2865 11.6006 25.5083 11.6006 25.7169 11.5808V48.9026H18.3394V51.3318H35.9956V48.9026H28.1568V11.5808C28.3631 11.5918 28.5849 11.6006 28.8222 11.6006C31.0825 11.6179 33.2868 10.9016 35.1017 9.56009C38.644 6.92548 39.1764 3.09171 39.2607 1.97426L39.3205 1.1174L38.5242 0.775104ZM20.2315 7.62112C18.6416 6.40766 17.5547 4.65516 17.1771 2.6964C18.2248 2.39153 19.3313 2.34562 20.4008 2.56266C21.4702 2.7797 22.4704 3.25313 23.3146 3.94194C25.3265 5.59161 25.6858 7.88833 25.7169 9.1427C23.7634 9.30561 21.8163 8.76315 20.2315 7.61449V7.62112ZM33.64 7.62112C32.0547 8.76888 30.1079 9.31124 28.1546 9.14933C28.1856 7.89496 28.5449 5.59823 30.5568 3.94856C31.401 3.25976 32.4012 2.78632 33.4707 2.56928C34.5401 2.35224 35.6467 2.39815 36.6943 2.70303C36.3141 4.65712 35.2274 6.40458 33.64 7.61449V7.62112Z" fill="#2F6FE8"/>
</g>
<defs>
<clipPath id="clip0_14_8">
<rect width="54" height="66" fill="white"/>
</clipPath>
</defs>
</svg>
