<svg xmlns="http://www.w3.org/2000/svg" viewBox="0 0 243.45 298.86"><defs><style>.cls-1{fill:#003441;}</style></defs><g id="Слой_2" data-name="Слой 2"><g id="Слой_1-2" data-name="Слой 1"><path class="cls-1" d="M122.53,298.86a109.27,109.27,0,0,1-71.11-26.52,110.6,110.6,0,0,1-37.65-68.56l10.89-1.54A99.67,99.67,0,0,0,58.58,264a97.56,97.56,0,0,0,129.16-1.13,99.88,99.88,0,0,0,32.57-60.61l10.89,1.53a110.83,110.83,0,0,1-36.15,67.3,109.32,109.32,0,0,1-70.62,27.76C123.8,298.86,123.16,298.86,122.53,298.86Z"/><path class="cls-1" d="M242.78,164.86A51,51,0,0,0,207.6,124.7,47.9,47.9,0,0,0,187,123a47.94,47.94,0,0,0,6.52-19.63,50.93,50.93,0,0,0-23.14-48.11l-3.26-2.12L164,55.51c-5,3.8-21.26,18.12-22.67,42.76a58.09,58.09,0,0,0,10.12,36L121.73,148,92,134.31a58,58,0,0,0,10.12-36c-1.41-24.64-17.71-39-22.67-42.76l-3.09-2.36-3.26,2.12a51,51,0,0,0-23.14,48.11A47.94,47.94,0,0,0,56.46,123a47.91,47.91,0,0,0-20.61,1.69A51,51,0,0,0,.68,164.86L0,168.69l3.39,1.92a60.86,60.86,0,0,0,28.93,7.47,56.74,56.74,0,0,0,19.3-3.39c20.81-7.5,30.28-24.17,33.52-31.41L119.43,159l2.3-5,2.29,5,34.29-15.74c3.24,7.24,12.71,23.91,33.52,31.41a56.78,56.78,0,0,0,19.3,3.39,60.82,60.82,0,0,0,28.93-7.47l3.39-1.92Zm-167-98c5.21,4.92,14.4,15.81,15.33,32C92,114.75,84.49,126.47,80,132c-5.91-3.87-17.39-13.38-19.11-29.75A39.87,39.87,0,0,1,75.79,66.87Zm-27.9,97.47c-15.29,5.51-28.91,1.33-35.48-1.53a39.86,39.86,0,0,1,26.67-27.59c15.74-4.84,29,2,34.87,5.91C70.65,147.43,62.82,159,47.89,164.34ZM152.33,98.91c.93-16.23,10.13-27.12,15.33-32a39.84,39.84,0,0,1,14.91,35.36c-1.72,16.37-13.19,25.88-19.11,29.75C159,126.47,151.42,114.75,152.33,98.91Zm43.23,65.43c-14.93-5.38-22.76-16.91-26.06-23.21,5.89-3.93,19.14-10.74,34.87-5.91A39.84,39.84,0,0,1,231,162.81C224.48,165.66,210.85,169.85,195.56,164.34Z"/><path class="cls-1" d="M173.68,3.51a41.33,41.33,0,0,0-42.91,5.85,38.77,38.77,0,0,0-9.33,11.22A39,39,0,0,0,112.1,9.36,41.33,41.33,0,0,0,69.19,3.51L65.62,5.06l.27,3.88c.36,5,2.76,22.42,18.74,34.35a46.91,46.91,0,0,0,28.31,9.24c1.06,0,2.06,0,3-.09v169H82.68v11h79.6v-11H126.94v-169c.93.05,1.93.09,3,.09a46.89,46.89,0,0,0,28.31-9.24C174.22,31.36,176.62,14,177,8.94l.27-3.88Zm-82.47,31A36.85,36.85,0,0,1,77.44,12.21a30.26,30.26,0,0,1,27.67,5.64c9.07,7.47,10.69,17.87,10.83,23.55A36.8,36.8,0,0,1,91.21,34.48Zm60.45,0a36.85,36.85,0,0,1-24.73,6.92c.14-5.68,1.76-16.08,10.83-23.55a30.26,30.26,0,0,1,27.67-5.64A36.83,36.83,0,0,1,151.66,34.48Z"/></g></g></svg>